<?xml version="1.0" encoding="utf-8" standalone="no"?>
<!DOCTYPE svg PUBLIC "-//W3C//DTD SVG 1.1//EN"
  "http://www.w3.org/Graphics/SVG/1.1/DTD/svg11.dtd">
<!-- Created with matplotlib (http://matplotlib.org/) -->
<svg height="434.16pt" version="1.1" viewBox="0 0 617.76 434.16" width="617.76pt" xmlns="http://www.w3.org/2000/svg" xmlns:xlink="http://www.w3.org/1999/xlink">
 <defs>
  <style type="text/css">
*{stroke-linecap:butt;stroke-linejoin:round;}
  </style>
 </defs>
 <g id="figure_1">
  <g id="patch_1">
   <path d="M 0 434.16 
L 617.76 434.16 
L 617.76 0 
L 0 0 
z
" style="fill:#ffffff;"/>
  </g>
  <g id="patch_2">
   <path d="M 77.22 386.4024 
L 555.984 386.4024 
L 555.984 52.0992 
L 77.22 52.0992 
z
" style="fill:#ffffff;"/>
  </g>
  <g id="pane3d_1">
   <g id="patch_3">
    <path d="M 138.619447 284.579403 
L 322.730933 202.178406 
L 322.708583 60.541742 
L 125.817972 140.385122 
" style="fill:#f2f2f2;opacity:0.5;stroke:#f2f2f2;stroke-linejoin:miter;"/>
   </g>
  </g>
  <g id="pane3d_2">
   <g id="patch_4">
    <path d="M 322.730933 202.178406 
L 507.48492 284.241404 
L 520.280766 140.056441 
L 322.708583 60.541742 
" style="fill:#e6e6e6;opacity:0.5;stroke:#e6e6e6;stroke-linejoin:miter;"/>
   </g>
  </g>
  <g id="pane3d_3">
   <g id="patch_5">
    <path d="M 138.619447 284.579403 
L 323.451952 376.127838 
L 507.48492 284.241404 
L 322.730933 202.178406 
" style="fill:#ececec;opacity:0.5;stroke:#ececec;stroke-linejoin:miter;"/>
   </g>
  </g>
  <g id="axis3d_1">
   <g id="line2d_1">
    <path d="M 138.619447 284.579403 
L 323.451952 376.127838 
" style="fill:none;stroke:#000000;stroke-linecap:square;stroke-width:0.8;"/>
   </g>
   <g id="text_1">
    <!-- Hunter -->
    <defs>
     <path d="M 9.8125 72.90625 
L 19.671875 72.90625 
L 19.671875 43.015625 
L 55.515625 43.015625 
L 55.515625 72.90625 
L 65.375 72.90625 
L 65.375 0 
L 55.515625 0 
L 55.515625 34.71875 
L 19.671875 34.71875 
L 19.671875 0 
L 9.8125 0 
z
" id="DejaVuSans-48"/>
     <path d="M 8.5 21.578125 
L 8.5 54.6875 
L 17.484375 54.6875 
L 17.484375 21.921875 
Q 17.484375 14.15625 20.5 10.265625 
Q 23.53125 6.390625 29.59375 6.390625 
Q 36.859375 6.390625 41.078125 11.03125 
Q 45.3125 15.671875 45.3125 23.6875 
L 45.3125 54.6875 
L 54.296875 54.6875 
L 54.296875 0 
L 45.3125 0 
L 45.3125 8.40625 
Q 42.046875 3.421875 37.71875 1 
Q 33.40625 -1.421875 27.6875 -1.421875 
Q 18.265625 -1.421875 13.375 4.4375 
Q 8.5 10.296875 8.5 21.578125 
z
M 31.109375 56 
z
" id="DejaVuSans-75"/>
     <path d="M 54.890625 33.015625 
L 54.890625 0 
L 45.90625 0 
L 45.90625 32.71875 
Q 45.90625 40.484375 42.875 44.328125 
Q 39.84375 48.1875 33.796875 48.1875 
Q 26.515625 48.1875 22.3125 43.546875 
Q 18.109375 38.921875 18.109375 30.90625 
L 18.109375 0 
L 9.078125 0 
L 9.078125 54.6875 
L 18.109375 54.6875 
L 18.109375 46.1875 
Q 21.34375 51.125 25.703125 53.5625 
Q 30.078125 56 35.796875 56 
Q 45.21875 56 50.046875 50.171875 
Q 54.890625 44.34375 54.890625 33.015625 
z
" id="DejaVuSans-6e"/>
     <path d="M 18.3125 70.21875 
L 18.3125 54.6875 
L 36.8125 54.6875 
L 36.8125 47.703125 
L 18.3125 47.703125 
L 18.3125 18.015625 
Q 18.3125 11.328125 20.140625 9.421875 
Q 21.96875 7.515625 27.59375 7.515625 
L 36.8125 7.515625 
L 36.8125 0 
L 27.59375 0 
Q 17.1875 0 13.234375 3.875 
Q 9.28125 7.765625 9.28125 18.015625 
L 9.28125 47.703125 
L 2.6875 47.703125 
L 2.6875 54.6875 
L 9.28125 54.6875 
L 9.28125 70.21875 
z
" id="DejaVuSans-74"/>
     <path d="M 56.203125 29.59375 
L 56.203125 25.203125 
L 14.890625 25.203125 
Q 15.484375 15.921875 20.484375 11.0625 
Q 25.484375 6.203125 34.421875 6.203125 
Q 39.59375 6.203125 44.453125 7.46875 
Q 49.3125 8.734375 54.109375 11.28125 
L 54.109375 2.78125 
Q 49.265625 0.734375 44.1875 -0.34375 
Q 39.109375 -1.421875 33.890625 -1.421875 
Q 20.796875 -1.421875 13.15625 6.1875 
Q 5.515625 13.8125 5.515625 26.8125 
Q 5.515625 40.234375 12.765625 48.109375 
Q 20.015625 56 32.328125 56 
Q 43.359375 56 49.78125 48.890625 
Q 56.203125 41.796875 56.203125 29.59375 
z
M 47.21875 32.234375 
Q 47.125 39.59375 43.09375 43.984375 
Q 39.0625 48.390625 32.421875 48.390625 
Q 24.90625 48.390625 20.390625 44.140625 
Q 15.875 39.890625 15.1875 32.171875 
z
" id="DejaVuSans-65"/>
     <path d="M 41.109375 46.296875 
Q 39.59375 47.171875 37.8125 47.578125 
Q 36.03125 48 33.890625 48 
Q 26.265625 48 22.1875 43.046875 
Q 18.109375 38.09375 18.109375 28.8125 
L 18.109375 0 
L 9.078125 0 
L 9.078125 54.6875 
L 18.109375 54.6875 
L 18.109375 46.1875 
Q 20.953125 51.171875 25.484375 53.578125 
Q 30.03125 56 36.53125 56 
Q 37.453125 56 38.578125 55.875 
Q 39.703125 55.765625 41.0625 55.515625 
z
" id="DejaVuSans-72"/>
    </defs>
    <g transform="translate(189.622857 350.740908)rotate(-333.650563)scale(0.1 -0.1)">
     <use xlink:href="#DejaVuSans-48"/>
     <use x="75.195312" xlink:href="#DejaVuSans-75"/>
     <use x="138.574219" xlink:href="#DejaVuSans-6e"/>
     <use x="201.953125" xlink:href="#DejaVuSans-74"/>
     <use x="241.162109" xlink:href="#DejaVuSans-65"/>
     <use x="302.685547" xlink:href="#DejaVuSans-72"/>
    </g>
   </g>
   <g id="Line3DCollection_1">
    <path d="M 142.118699 286.312599 
L 326.238932 203.73657 
L 326.446834 62.046235 
" style="fill:none;stroke:#b0b0b0;stroke-width:0.8;"/>
    <path d="M 161.797843 296.059775 
L 345.959893 212.496117 
L 347.471636 70.507855 
" style="fill:none;stroke:#b0b0b0;stroke-width:0.8;"/>
    <path d="M 181.719424 305.92703 
L 365.911058 221.357914 
L 368.758173 79.074813 
" style="fill:none;stroke:#b0b0b0;stroke-width:0.8;"/>
    <path d="M 201.88795 315.916599 
L 386.096482 230.323763 
L 390.311364 87.749088 
" style="fill:none;stroke:#b0b0b0;stroke-width:0.8;"/>
    <path d="M 222.308042 326.030769 
L 406.520316 239.395508 
L 412.13625 96.53271 
" style="fill:none;stroke:#b0b0b0;stroke-width:0.8;"/>
    <path d="M 242.984434 336.271887 
L 427.186807 248.575035 
L 434.238002 105.427758 
" style="fill:none;stroke:#b0b0b0;stroke-width:0.8;"/>
    <path d="M 263.921984 346.642357 
L 448.100307 257.864277 
L 456.621922 114.436367 
" style="fill:none;stroke:#b0b0b0;stroke-width:0.8;"/>
    <path d="M 285.125671 357.144646 
L 469.265271 267.265213 
L 479.293447 123.560726 
" style="fill:none;stroke:#b0b0b0;stroke-width:0.8;"/>
    <path d="M 306.600601 367.781283 
L 490.686261 276.779869 
L 502.258157 132.80308 
" style="fill:none;stroke:#b0b0b0;stroke-width:0.8;"/>
   </g>
   <g id="xtick_1">
    <g id="line2d_2">
     <path d="M 143.671555 285.616159 
L 139.008907 287.707309 
" style="fill:none;stroke:#000000;stroke-linecap:square;stroke-width:0.8;"/>
    </g>
    <g id="text_2">
     <!-- 0.0 -->
     <defs>
      <path d="M 31.78125 66.40625 
Q 24.171875 66.40625 20.328125 58.90625 
Q 16.5 51.421875 16.5 36.375 
Q 16.5 21.390625 20.328125 13.890625 
Q 24.171875 6.390625 31.78125 6.390625 
Q 39.453125 6.390625 43.28125 13.890625 
Q 47.125 21.390625 47.125 36.375 
Q 47.125 51.421875 43.28125 58.90625 
Q 39.453125 66.40625 31.78125 66.40625 
z
M 31.78125 74.21875 
Q 44.046875 74.21875 50.515625 64.515625 
Q 56.984375 54.828125 56.984375 36.375 
Q 56.984375 17.96875 50.515625 8.265625 
Q 44.046875 -1.421875 31.78125 -1.421875 
Q 19.53125 -1.421875 13.0625 8.265625 
Q 6.59375 17.96875 6.59375 36.375 
Q 6.59375 54.828125 13.0625 64.515625 
Q 19.53125 74.21875 31.78125 74.21875 
z
" id="DejaVuSans-30"/>
      <path d="M 10.6875 12.40625 
L 21 12.40625 
L 21 0 
L 10.6875 0 
z
" id="DejaVuSans-2e"/>
     </defs>
     <g transform="translate(124.264064 305.9598)scale(0.1 -0.1)">
      <use xlink:href="#DejaVuSans-30"/>
      <use x="63.623047" xlink:href="#DejaVuSans-2e"/>
      <use x="95.410156" xlink:href="#DejaVuSans-30"/>
     </g>
    </g>
   </g>
   <g id="xtick_2">
    <g id="line2d_3">
     <path d="M 163.351541 295.354783 
L 158.68634 297.471621 
" style="fill:none;stroke:#000000;stroke-linecap:square;stroke-width:0.8;"/>
    </g>
    <g id="text_3">
     <!-- 2.5 -->
     <defs>
      <path d="M 19.1875 8.296875 
L 53.609375 8.296875 
L 53.609375 0 
L 7.328125 0 
L 7.328125 8.296875 
Q 12.9375 14.109375 22.625 23.890625 
Q 32.328125 33.6875 34.8125 36.53125 
Q 39.546875 41.84375 41.421875 45.53125 
Q 43.3125 49.21875 43.3125 52.78125 
Q 43.3125 58.59375 39.234375 62.25 
Q 35.15625 65.921875 28.609375 65.921875 
Q 23.96875 65.921875 18.8125 64.3125 
Q 13.671875 62.703125 7.8125 59.421875 
L 7.8125 69.390625 
Q 13.765625 71.78125 18.9375 73 
Q 24.125 74.21875 28.421875 74.21875 
Q 39.75 74.21875 46.484375 68.546875 
Q 53.21875 62.890625 53.21875 53.421875 
Q 53.21875 48.921875 51.53125 44.890625 
Q 49.859375 40.875 45.40625 35.40625 
Q 44.1875 33.984375 37.640625 27.21875 
Q 31.109375 20.453125 19.1875 8.296875 
z
" id="DejaVuSans-32"/>
      <path d="M 10.796875 72.90625 
L 49.515625 72.90625 
L 49.515625 64.59375 
L 19.828125 64.59375 
L 19.828125 46.734375 
Q 21.96875 47.46875 24.109375 47.828125 
Q 26.265625 48.1875 28.421875 48.1875 
Q 40.625 48.1875 47.75 41.5 
Q 54.890625 34.8125 54.890625 23.390625 
Q 54.890625 11.625 47.5625 5.09375 
Q 40.234375 -1.421875 26.90625 -1.421875 
Q 22.3125 -1.421875 17.546875 -0.640625 
Q 12.796875 0.140625 7.71875 1.703125 
L 7.71875 11.625 
Q 12.109375 9.234375 16.796875 8.0625 
Q 21.484375 6.890625 26.703125 6.890625 
Q 35.15625 6.890625 40.078125 11.328125 
Q 45.015625 15.765625 45.015625 23.390625 
Q 45.015625 31 40.078125 35.4375 
Q 35.15625 39.890625 26.703125 39.890625 
Q 22.75 39.890625 18.8125 39.015625 
Q 14.890625 38.140625 10.796875 36.28125 
z
" id="DejaVuSans-35"/>
     </defs>
     <g transform="translate(143.87158 315.775231)scale(0.1 -0.1)">
      <use xlink:href="#DejaVuSans-32"/>
      <use x="63.623047" xlink:href="#DejaVuSans-2e"/>
      <use x="95.410156" xlink:href="#DejaVuSans-35"/>
     </g>
    </g>
   </g>
   <g id="xtick_3">
    <g id="line2d_4">
     <path d="M 183.273866 305.213329 
L 178.606404 307.356332 
" style="fill:none;stroke:#000000;stroke-linecap:square;stroke-width:0.8;"/>
    </g>
    <g id="text_4">
     <!-- 5.0 -->
     <g transform="translate(163.720514 325.711515)scale(0.1 -0.1)">
      <use xlink:href="#DejaVuSans-35"/>
      <use x="63.623047" xlink:href="#DejaVuSans-2e"/>
      <use x="95.410156" xlink:href="#DejaVuSans-30"/>
     </g>
    </g>
   </g>
   <g id="xtick_4">
    <g id="line2d_5">
     <path d="M 203.443036 315.194026 
L 198.773615 317.363681 
" style="fill:none;stroke:#000000;stroke-linecap:square;stroke-width:0.8;"/>
    </g>
    <g id="text_5">
     <!-- 7.5 -->
     <defs>
      <path d="M 8.203125 72.90625 
L 55.078125 72.90625 
L 55.078125 68.703125 
L 28.609375 0 
L 18.3125 0 
L 43.21875 64.59375 
L 8.203125 64.59375 
z
" id="DejaVuSans-37"/>
     </defs>
     <g transform="translate(183.815353 335.770898)scale(0.1 -0.1)">
      <use xlink:href="#DejaVuSans-37"/>
      <use x="63.623047" xlink:href="#DejaVuSans-2e"/>
      <use x="95.410156" xlink:href="#DejaVuSans-35"/>
     </g>
    </g>
   </g>
   <g id="xtick_5">
    <g id="line2d_6">
     <path d="M 223.863667 325.299157 
L 219.192601 327.495965 
" style="fill:none;stroke:#000000;stroke-linecap:square;stroke-width:0.8;"/>
    </g>
    <g id="text_6">
     <!-- 10.0 -->
     <defs>
      <path d="M 12.40625 8.296875 
L 28.515625 8.296875 
L 28.515625 63.921875 
L 10.984375 60.40625 
L 10.984375 69.390625 
L 28.421875 72.90625 
L 38.28125 72.90625 
L 38.28125 8.296875 
L 54.390625 8.296875 
L 54.390625 0 
L 12.40625 0 
z
" id="DejaVuSans-31"/>
     </defs>
     <g transform="translate(200.979445 345.955682)scale(0.1 -0.1)">
      <use xlink:href="#DejaVuSans-31"/>
      <use x="63.623047" xlink:href="#DejaVuSans-30"/>
      <use x="127.246094" xlink:href="#DejaVuSans-2e"/>
      <use x="159.033203" xlink:href="#DejaVuSans-30"/>
     </g>
    </g>
   </g>
   <g id="xtick_6">
    <g id="line2d_7">
     <path d="M 244.54049 335.531065 
L 239.868105 337.755539 
" style="fill:none;stroke:#000000;stroke-linecap:square;stroke-width:0.8;"/>
    </g>
    <g id="text_7">
     <!-- 12.5 -->
     <g transform="translate(221.580003 356.268225)scale(0.1 -0.1)">
      <use xlink:href="#DejaVuSans-31"/>
      <use x="63.623047" xlink:href="#DejaVuSans-32"/>
      <use x="127.246094" xlink:href="#DejaVuSans-2e"/>
      <use x="159.033203" xlink:href="#DejaVuSans-35"/>
     </g>
    </g>
   </g>
   <g id="xtick_7">
    <g id="line2d_8">
     <path d="M 265.478357 345.89215 
L 260.804994 348.144816 
" style="fill:none;stroke:#000000;stroke-linecap:square;stroke-width:0.8;"/>
    </g>
    <g id="text_8">
     <!-- 15.0 -->
     <g transform="translate(242.440611 366.710948)scale(0.1 -0.1)">
      <use xlink:href="#DejaVuSans-31"/>
      <use x="63.623047" xlink:href="#DejaVuSans-35"/>
      <use x="127.246094" xlink:href="#DejaVuSans-2e"/>
      <use x="159.033203" xlink:href="#DejaVuSans-30"/>
     </g>
    </g>
   </g>
   <g id="xtick_8">
    <g id="line2d_9">
     <path d="M 286.682243 356.384875 
L 282.008254 358.666272 
" style="fill:none;stroke:#000000;stroke-linecap:square;stroke-width:0.8;"/>
    </g>
    <g id="text_9">
     <!-- 17.5 -->
     <g transform="translate(263.566222 377.286331)scale(0.1 -0.1)">
      <use xlink:href="#DejaVuSans-31"/>
      <use x="63.623047" xlink:href="#DejaVuSans-37"/>
      <use x="127.246094" xlink:href="#DejaVuSans-2e"/>
      <use x="159.033203" xlink:href="#DejaVuSans-35"/>
     </g>
    </g>
   </g>
   <g id="xtick_9">
    <g id="line2d_10">
     <path d="M 308.157251 367.011764 
L 303.483001 369.322446 
" style="fill:none;stroke:#000000;stroke-linecap:square;stroke-width:0.8;"/>
    </g>
    <g id="text_10">
     <!-- 20.0 -->
     <g transform="translate(284.96192 387.996918)scale(0.1 -0.1)">
      <use xlink:href="#DejaVuSans-32"/>
      <use x="63.623047" xlink:href="#DejaVuSans-30"/>
      <use x="127.246094" xlink:href="#DejaVuSans-2e"/>
      <use x="159.033203" xlink:href="#DejaVuSans-30"/>
     </g>
    </g>
   </g>
  </g>
  <g id="axis3d_2">
   <g id="line2d_11">
    <path d="M 507.48492 284.241404 
L 323.451952 376.127838 
" style="fill:none;stroke:#000000;stroke-linecap:square;stroke-width:0.8;"/>
   </g>
   <g id="text_11">
    <!-- Prey -->
    <defs>
     <path d="M 19.671875 64.796875 
L 19.671875 37.40625 
L 32.078125 37.40625 
Q 38.96875 37.40625 42.71875 40.96875 
Q 46.484375 44.53125 46.484375 51.125 
Q 46.484375 57.671875 42.71875 61.234375 
Q 38.96875 64.796875 32.078125 64.796875 
z
M 9.8125 72.90625 
L 32.078125 72.90625 
Q 44.34375 72.90625 50.609375 67.359375 
Q 56.890625 61.8125 56.890625 51.125 
Q 56.890625 40.328125 50.609375 34.8125 
Q 44.34375 29.296875 32.078125 29.296875 
L 19.671875 29.296875 
L 19.671875 0 
L 9.8125 0 
z
" id="DejaVuSans-50"/>
     <path d="M 32.171875 -5.078125 
Q 28.375 -14.84375 24.75 -17.8125 
Q 21.140625 -20.796875 15.09375 -20.796875 
L 7.90625 -20.796875 
L 7.90625 -13.28125 
L 13.1875 -13.28125 
Q 16.890625 -13.28125 18.9375 -11.515625 
Q 21 -9.765625 23.484375 -3.21875 
L 25.09375 0.875 
L 2.984375 54.6875 
L 12.5 54.6875 
L 29.59375 11.921875 
L 46.6875 54.6875 
L 56.203125 54.6875 
z
" id="DejaVuSans-79"/>
    </defs>
    <g transform="translate(429.228597 358.433094)scale(0.1 -0.1)">
     <use xlink:href="#DejaVuSans-50"/>
     <use x="60.287109" xlink:href="#DejaVuSans-72"/>
     <use x="101.369141" xlink:href="#DejaVuSans-65"/>
     <use x="162.892578" xlink:href="#DejaVuSans-79"/>
    </g>
   </g>
   <g id="Line3DCollection_2">
    <path d="M 129.981022 138.696915 
L 142.498642 282.843229 
L 327.340813 374.186156 
" style="fill:none;stroke:#b0b0b0;stroke-width:0.8;"/>
    <path d="M 154.756642 128.649868 
L 165.597113 272.50527 
L 350.486722 362.629558 
" style="fill:none;stroke:#b0b0b0;stroke-width:0.8;"/>
    <path d="M 179.190002 118.741615 
L 188.396911 262.300985 
L 373.316372 351.230866 
" style="fill:none;stroke:#b0b0b0;stroke-width:0.8;"/>
    <path d="M 203.288146 108.969299 
L 210.903792 252.227798 
L 395.836202 339.986865 
" style="fill:none;stroke:#b0b0b0;stroke-width:0.8;"/>
    <path d="M 227.057924 99.330142 
L 233.123365 242.283199 
L 418.052475 328.894428 
" style="fill:none;stroke:#b0b0b0;stroke-width:0.8;"/>
    <path d="M 250.506004 89.821441 
L 255.061096 232.464741 
L 439.971288 317.950511 
" style="fill:none;stroke:#b0b0b0;stroke-width:0.8;"/>
    <path d="M 273.638872 80.440566 
L 276.722314 222.770039 
L 461.598575 307.15215 
" style="fill:none;stroke:#b0b0b0;stroke-width:0.8;"/>
    <path d="M 296.462841 71.184955 
L 298.112214 213.196768 
L 482.940114 296.496462 
" style="fill:none;stroke:#b0b0b0;stroke-width:0.8;"/>
    <path d="M 318.984058 62.052117 
L 319.235862 203.742662 
L 504.001531 285.980637 
" style="fill:none;stroke:#b0b0b0;stroke-width:0.8;"/>
   </g>
   <g id="xtick_10">
    <g id="line2d_12">
     <path d="M 325.777773 373.413753 
L 330.471211 375.733096 
" style="fill:none;stroke:#000000;stroke-linecap:square;stroke-width:0.8;"/>
    </g>
    <g id="text_12">
     <!-- 0.0 -->
     <g transform="translate(329.98352 394.425651)scale(0.1 -0.1)">
      <use xlink:href="#DejaVuSans-30"/>
      <use x="63.623047" xlink:href="#DejaVuSans-2e"/>
      <use x="95.410156" xlink:href="#DejaVuSans-30"/>
     </g>
    </g>
   </g>
   <g id="xtick_11">
    <g id="line2d_13">
     <path d="M 348.92386 361.867742 
L 353.616733 364.155279 
" style="fill:none;stroke:#000000;stroke-linecap:square;stroke-width:0.8;"/>
    </g>
    <g id="text_13">
     <!-- 2.5 -->
     <g transform="translate(353.042798 382.789038)scale(0.1 -0.1)">
      <use xlink:href="#DejaVuSans-32"/>
      <use x="63.623047" xlink:href="#DejaVuSans-2e"/>
      <use x="95.410156" xlink:href="#DejaVuSans-35"/>
     </g>
    </g>
   </g>
   <g id="xtick_12">
    <g id="line2d_14">
     <path d="M 371.75383 350.479421 
L 376.445714 352.735802 
" style="fill:none;stroke:#000000;stroke-linecap:square;stroke-width:0.8;"/>
    </g>
    <g id="text_14">
     <!-- 5.0 -->
     <g transform="translate(375.787187 371.311331)scale(0.1 -0.1)">
      <use xlink:href="#DejaVuSans-35"/>
      <use x="63.623047" xlink:href="#DejaVuSans-2e"/>
      <use x="95.410156" xlink:href="#DejaVuSans-30"/>
     </g>
    </g>
   </g>
   <g id="xtick_13">
    <g id="line2d_15">
     <path d="M 394.274115 339.245582 
L 398.964603 341.471438 
" style="fill:none;stroke:#000000;stroke-linecap:square;stroke-width:0.8;"/>
    </g>
    <g id="text_15">
     <!-- 7.5 -->
     <g transform="translate(398.223094 359.989295)scale(0.1 -0.1)">
      <use xlink:href="#DejaVuSans-37"/>
      <use x="63.623047" xlink:href="#DejaVuSans-2e"/>
      <use x="95.410156" xlink:href="#DejaVuSans-35"/>
     </g>
    </g>
   </g>
   <g id="xtick_14">
    <g id="line2d_16">
     <path d="M 416.490972 328.163101 
L 421.179677 330.359048 
" style="fill:none;stroke:#000000;stroke-linecap:square;stroke-width:0.8;"/>
    </g>
    <g id="text_16">
     <!-- 10.0 -->
     <g transform="translate(417.175503 348.819786)scale(0.1 -0.1)">
      <use xlink:href="#DejaVuSans-31"/>
      <use x="63.623047" xlink:href="#DejaVuSans-30"/>
      <use x="127.246094" xlink:href="#DejaVuSans-2e"/>
      <use x="159.033203" xlink:href="#DejaVuSans-30"/>
     </g>
    </g>
   </g>
   <g id="xtick_15">
    <g id="line2d_17">
     <path d="M 438.410494 317.228941 
L 443.097042 319.395577 
" style="fill:none;stroke:#000000;stroke-linecap:square;stroke-width:0.8;"/>
    </g>
    <g id="text_17">
     <!-- 12.5 -->
     <g transform="translate(439.012979 337.799742)scale(0.1 -0.1)">
      <use xlink:href="#DejaVuSans-31"/>
      <use x="63.623047" xlink:href="#DejaVuSans-32"/>
      <use x="127.246094" xlink:href="#DejaVuSans-2e"/>
      <use x="159.033203" xlink:href="#DejaVuSans-35"/>
     </g>
    </g>
   </g>
   <g id="xtick_16">
    <g id="line2d_18">
     <path d="M 460.038609 306.440143 
L 464.722643 308.578053 
" style="fill:none;stroke:#000000;stroke-linecap:square;stroke-width:0.8;"/>
    </g>
    <g id="text_18">
     <!-- 15.0 -->
     <g transform="translate(460.560179 326.926183)scale(0.1 -0.1)">
      <use xlink:href="#DejaVuSans-31"/>
      <use x="63.623047" xlink:href="#DejaVuSans-35"/>
      <use x="127.246094" xlink:href="#DejaVuSans-2e"/>
      <use x="159.033203" xlink:href="#DejaVuSans-30"/>
     </g>
    </g>
   </g>
   <g id="xtick_17">
    <g id="line2d_19">
     <path d="M 481.381091 295.793829 
L 486.062268 297.903579 
" style="fill:none;stroke:#000000;stroke-linecap:square;stroke-width:0.8;"/>
    </g>
    <g id="text_19">
     <!-- 17.5 -->
     <g transform="translate(481.822852 316.196207)scale(0.1 -0.1)">
      <use xlink:href="#DejaVuSans-31"/>
      <use x="63.623047" xlink:href="#DejaVuSans-37"/>
      <use x="127.246094" xlink:href="#DejaVuSans-2e"/>
      <use x="159.033203" xlink:href="#DejaVuSans-35"/>
     </g>
    </g>
   </g>
   <g id="xtick_18">
    <g id="line2d_20">
     <path d="M 502.44356 285.287194 
L 507.121551 287.369337 
" style="fill:none;stroke:#000000;stroke-linecap:square;stroke-width:0.8;"/>
    </g>
    <g id="text_20">
     <!-- 20.0 -->
     <g transform="translate(502.806597 305.606989)scale(0.1 -0.1)">
      <use xlink:href="#DejaVuSans-32"/>
      <use x="63.623047" xlink:href="#DejaVuSans-30"/>
      <use x="127.246094" xlink:href="#DejaVuSans-2e"/>
      <use x="159.033203" xlink:href="#DejaVuSans-30"/>
     </g>
    </g>
   </g>
  </g>
  <g id="axis3d_3">
   <g id="line2d_21">
    <path d="M 507.48492 284.241404 
L 520.280766 140.056441 
" style="fill:none;stroke:#000000;stroke-linecap:square;stroke-width:0.8;"/>
   </g>
   <g id="text_21">
    <!-- Parameter -->
    <defs>
     <path d="M 34.28125 27.484375 
Q 23.390625 27.484375 19.1875 25 
Q 14.984375 22.515625 14.984375 16.5 
Q 14.984375 11.71875 18.140625 8.90625 
Q 21.296875 6.109375 26.703125 6.109375 
Q 34.1875 6.109375 38.703125 11.40625 
Q 43.21875 16.703125 43.21875 25.484375 
L 43.21875 27.484375 
z
M 52.203125 31.203125 
L 52.203125 0 
L 43.21875 0 
L 43.21875 8.296875 
Q 40.140625 3.328125 35.546875 0.953125 
Q 30.953125 -1.421875 24.3125 -1.421875 
Q 15.921875 -1.421875 10.953125 3.296875 
Q 6 8.015625 6 15.921875 
Q 6 25.140625 12.171875 29.828125 
Q 18.359375 34.515625 30.609375 34.515625 
L 43.21875 34.515625 
L 43.21875 35.40625 
Q 43.21875 41.609375 39.140625 45 
Q 35.0625 48.390625 27.6875 48.390625 
Q 23 48.390625 18.546875 47.265625 
Q 14.109375 46.140625 10.015625 43.890625 
L 10.015625 52.203125 
Q 14.9375 54.109375 19.578125 55.046875 
Q 24.21875 56 28.609375 56 
Q 40.484375 56 46.34375 49.84375 
Q 52.203125 43.703125 52.203125 31.203125 
z
" id="DejaVuSans-61"/>
     <path d="M 52 44.1875 
Q 55.375 50.25 60.0625 53.125 
Q 64.75 56 71.09375 56 
Q 79.640625 56 84.28125 50.015625 
Q 88.921875 44.046875 88.921875 33.015625 
L 88.921875 0 
L 79.890625 0 
L 79.890625 32.71875 
Q 79.890625 40.578125 77.09375 44.375 
Q 74.3125 48.1875 68.609375 48.1875 
Q 61.625 48.1875 57.5625 43.546875 
Q 53.515625 38.921875 53.515625 30.90625 
L 53.515625 0 
L 44.484375 0 
L 44.484375 32.71875 
Q 44.484375 40.625 41.703125 44.40625 
Q 38.921875 48.1875 33.109375 48.1875 
Q 26.21875 48.1875 22.15625 43.53125 
Q 18.109375 38.875 18.109375 30.90625 
L 18.109375 0 
L 9.078125 0 
L 9.078125 54.6875 
L 18.109375 54.6875 
L 18.109375 46.1875 
Q 21.1875 51.21875 25.484375 53.609375 
Q 29.78125 56 35.6875 56 
Q 41.65625 56 45.828125 52.96875 
Q 50 49.953125 52 44.1875 
z
" id="DejaVuSans-6d"/>
    </defs>
    <g transform="translate(559.099708 240.902362)rotate(-84.928512)scale(0.1 -0.1)">
     <use xlink:href="#DejaVuSans-50"/>
     <use x="60.240234" xlink:href="#DejaVuSans-61"/>
     <use x="121.519531" xlink:href="#DejaVuSans-72"/>
     <use x="162.632812" xlink:href="#DejaVuSans-61"/>
     <use x="223.912109" xlink:href="#DejaVuSans-6d"/>
     <use x="321.324219" xlink:href="#DejaVuSans-65"/>
     <use x="382.847656" xlink:href="#DejaVuSans-74"/>
     <use x="422.056641" xlink:href="#DejaVuSans-65"/>
     <use x="483.580078" xlink:href="#DejaVuSans-72"/>
    </g>
   </g>
   <g id="Line3DCollection_3">
    <path d="M 507.724543 281.541309 
L 322.730513 199.516713 
L 138.379722 281.879172 
" style="fill:none;stroke:#b0b0b0;stroke-width:0.8;"/>
    <path d="M 509.842532 257.675584 
L 322.726803 176.005923 
L 136.260826 258.012186 
" style="fill:none;stroke:#b0b0b0;stroke-width:0.8;"/>
    <path d="M 512.009672 233.256021 
L 322.723011 151.978345 
L 134.092748 233.591211 
" style="fill:none;stroke:#b0b0b0;stroke-width:0.8;"/>
    <path d="M 514.227693 208.263116 
L 322.719136 127.41675 
L 131.873755 208.596734 
" style="fill:none;stroke:#b0b0b0;stroke-width:0.8;"/>
    <path d="M 516.49841 182.676435 
L 322.715173 102.303135 
L 129.602031 183.008313 
" style="fill:none;stroke:#b0b0b0;stroke-width:0.8;"/>
    <path d="M 518.823723 156.474564 
L 322.71112 76.618678 
L 127.275675 156.80452 
" style="fill:none;stroke:#b0b0b0;stroke-width:0.8;"/>
   </g>
   <g id="xtick_19">
    <g id="line2d_22">
     <path d="M 506.16463 280.849658 
L 510.848453 282.92642 
" style="fill:none;stroke:#000000;stroke-linecap:square;stroke-width:0.8;"/>
    </g>
    <g id="text_22">
     <!-- 0.0 -->
     <g transform="translate(519.828651 289.1214)scale(0.1 -0.1)">
      <use xlink:href="#DejaVuSans-30"/>
      <use x="63.623047" xlink:href="#DejaVuSans-2e"/>
      <use x="95.410156" xlink:href="#DejaVuSans-30"/>
     </g>
    </g>
   </g>
   <g id="xtick_20">
    <g id="line2d_23">
     <path d="M 508.263801 256.986522 
L 513.004174 259.055533 
" style="fill:none;stroke:#000000;stroke-linecap:square;stroke-width:0.8;"/>
    </g>
    <g id="text_23">
     <!-- 0.2 -->
     <g transform="translate(522.176654 265.255744)scale(0.1 -0.1)">
      <use xlink:href="#DejaVuSans-30"/>
      <use x="63.623047" xlink:href="#DejaVuSans-2e"/>
      <use x="95.410156" xlink:href="#DejaVuSans-32"/>
     </g>
    </g>
   </g>
   <g id="xtick_21">
    <g id="line2d_24">
     <path d="M 510.411665 232.569854 
L 515.209967 234.630194 
" style="fill:none;stroke:#000000;stroke-linecap:square;stroke-width:0.8;"/>
    </g>
    <g id="text_24">
     <!-- 0.4 -->
     <defs>
      <path d="M 37.796875 64.3125 
L 12.890625 25.390625 
L 37.796875 25.390625 
z
M 35.203125 72.90625 
L 47.609375 72.90625 
L 47.609375 25.390625 
L 58.015625 25.390625 
L 58.015625 17.1875 
L 47.609375 17.1875 
L 47.609375 0 
L 37.796875 0 
L 37.796875 17.1875 
L 4.890625 17.1875 
L 4.890625 26.703125 
z
" id="DejaVuSans-34"/>
     </defs>
     <g transform="translate(524.579144 240.836258)scale(0.1 -0.1)">
      <use xlink:href="#DejaVuSans-30"/>
      <use x="63.623047" xlink:href="#DejaVuSans-2e"/>
      <use x="95.410156" xlink:href="#DejaVuSans-34"/>
     </g>
    </g>
   </g>
   <g id="xtick_22">
    <g id="line2d_25">
     <path d="M 512.609935 207.58017 
L 517.467595 209.630858 
" style="fill:none;stroke:#000000;stroke-linecap:square;stroke-width:0.8;"/>
    </g>
    <g id="text_25">
     <!-- 0.6 -->
     <defs>
      <path d="M 33.015625 40.375 
Q 26.375 40.375 22.484375 35.828125 
Q 18.609375 31.296875 18.609375 23.390625 
Q 18.609375 15.53125 22.484375 10.953125 
Q 26.375 6.390625 33.015625 6.390625 
Q 39.65625 6.390625 43.53125 10.953125 
Q 47.40625 15.53125 47.40625 23.390625 
Q 47.40625 31.296875 43.53125 35.828125 
Q 39.65625 40.375 33.015625 40.375 
z
M 52.59375 71.296875 
L 52.59375 62.3125 
Q 48.875 64.0625 45.09375 64.984375 
Q 41.3125 65.921875 37.59375 65.921875 
Q 27.828125 65.921875 22.671875 59.328125 
Q 17.53125 52.734375 16.796875 39.40625 
Q 19.671875 43.65625 24.015625 45.921875 
Q 28.375 48.1875 33.59375 48.1875 
Q 44.578125 48.1875 50.953125 41.515625 
Q 57.328125 34.859375 57.328125 23.390625 
Q 57.328125 12.15625 50.6875 5.359375 
Q 44.046875 -1.421875 33.015625 -1.421875 
Q 20.359375 -1.421875 13.671875 8.265625 
Q 6.984375 17.96875 6.984375 36.375 
Q 6.984375 53.65625 15.1875 63.9375 
Q 23.390625 74.21875 37.203125 74.21875 
Q 40.921875 74.21875 44.703125 73.484375 
Q 48.484375 72.75 52.59375 71.296875 
z
" id="DejaVuSans-36"/>
     </defs>
     <g transform="translate(527.038041 215.843438)scale(0.1 -0.1)">
      <use xlink:href="#DejaVuSans-30"/>
      <use x="63.623047" xlink:href="#DejaVuSans-2e"/>
      <use x="95.410156" xlink:href="#DejaVuSans-36"/>
     </g>
    </g>
   </g>
   <g id="xtick_23">
    <g id="line2d_26">
     <path d="M 514.860407 181.997058 
L 519.778909 184.037051 
" style="fill:none;stroke:#000000;stroke-linecap:square;stroke-width:0.8;"/>
    </g>
    <g id="text_26">
     <!-- 0.8 -->
     <defs>
      <path d="M 31.78125 34.625 
Q 24.75 34.625 20.71875 30.859375 
Q 16.703125 27.09375 16.703125 20.515625 
Q 16.703125 13.921875 20.71875 10.15625 
Q 24.75 6.390625 31.78125 6.390625 
Q 38.8125 6.390625 42.859375 10.171875 
Q 46.921875 13.96875 46.921875 20.515625 
Q 46.921875 27.09375 42.890625 30.859375 
Q 38.875 34.625 31.78125 34.625 
z
M 21.921875 38.8125 
Q 15.578125 40.375 12.03125 44.71875 
Q 8.5 49.078125 8.5 55.328125 
Q 8.5 64.0625 14.71875 69.140625 
Q 20.953125 74.21875 31.78125 74.21875 
Q 42.671875 74.21875 48.875 69.140625 
Q 55.078125 64.0625 55.078125 55.328125 
Q 55.078125 49.078125 51.53125 44.71875 
Q 48 40.375 41.703125 38.8125 
Q 48.828125 37.15625 52.796875 32.3125 
Q 56.78125 27.484375 56.78125 20.515625 
Q 56.78125 9.90625 50.3125 4.234375 
Q 43.84375 -1.421875 31.78125 -1.421875 
Q 19.734375 -1.421875 13.25 4.234375 
Q 6.78125 9.90625 6.78125 20.515625 
Q 6.78125 27.484375 10.78125 32.3125 
Q 14.796875 37.15625 21.921875 38.8125 
z
M 18.3125 54.390625 
Q 18.3125 48.734375 21.84375 45.5625 
Q 25.390625 42.390625 31.78125 42.390625 
Q 38.140625 42.390625 41.71875 45.5625 
Q 45.3125 48.734375 45.3125 54.390625 
Q 45.3125 60.0625 41.71875 63.234375 
Q 38.140625 66.40625 31.78125 66.40625 
Q 25.390625 66.40625 21.84375 63.234375 
Q 18.3125 60.0625 18.3125 54.390625 
z
" id="DejaVuSans-38"/>
     </defs>
     <g transform="translate(529.555356 190.256851)scale(0.1 -0.1)">
      <use xlink:href="#DejaVuSans-30"/>
      <use x="63.623047" xlink:href="#DejaVuSans-2e"/>
      <use x="95.410156" xlink:href="#DejaVuSans-38"/>
     </g>
    </g>
   </g>
   <g id="xtick_24">
    <g id="line2d_27">
     <path d="M 517.164963 155.799127 
L 522.145847 157.827313 
" style="fill:none;stroke:#000000;stroke-linecap:square;stroke-width:0.8;"/>
    </g>
    <g id="text_27">
     <!-- 1.0 -->
     <g transform="translate(532.133194 164.055085)scale(0.1 -0.1)">
      <use xlink:href="#DejaVuSans-31"/>
      <use x="63.623047" xlink:href="#DejaVuSans-2e"/>
      <use x="95.410156" xlink:href="#DejaVuSans-30"/>
     </g>
    </g>
   </g>
  </g>
  <g id="axes_1">
   <g id="line2d_28">
    <path clip-path="url(#p8a13fd5a49)" d="M 362.466001 220.289773 
L 348.670994 227.445618 
L 338.107747 233.141646 
L 329.797209 237.825619 
L 323.127668 241.777472 
L 317.694919 245.182346 
L 313.22005 248.168142 
L 309.503819 250.826368 
L 306.3998 253.22441 
L 303.797792 255.413107 
L 301.613173 257.43162 
L 299.77982 259.310662 
L 298.245283 261.074705 
L 296.9674 262.74353 
L 295.911876 264.333326 
L 295.050525 265.857501 
L 294.359957 267.327275 
L 293.820599 268.752135 
L 293.131953 271.498353 
L 292.879687 274.14856 
L 292.98624 276.742782 
L 293.392905 279.312542 
L 294.054257 281.883395 
L 294.934374 284.476644 
L 296.602539 288.447803 
L 298.619898 292.562807 
L 301.743952 298.352079 
L 310.903808 314.933423 
L 313.771523 320.651499 
L 316.546565 326.774738 
L 318.288226 331.093992 
L 319.894864 335.605278 
L 321.317992 340.301137 
L 322.503795 345.157959 
L 323.396871 350.122574 
L 323.949831 355.08767 
L 324.144278 359.848833 
L 324.028835 364.044641 
L 323.635309 368.160621 
L 323.436404 369.527425 
L 323.436404 369.527425 
" style="fill:none;stroke:#000000;stroke-linecap:square;stroke-width:1.5;"/>
   </g>
   <g id="line2d_29">
    <path clip-path="url(#p8a13fd5a49)" d="M 362.73023 205.923128 
L 337.217872 218.283413 
L 321.127685 226.376018 
L 310.116126 232.171483 
L 302.18053 236.578903 
L 296.257393 240.081438 
L 291.725664 242.961536 
L 288.196788 245.396134 
L 285.414553 247.50209 
L 282.270356 250.214283 
L 280.023887 252.544939 
L 278.423043 254.609993 
L 277.300066 256.486951 
L 276.538861 258.229736 
L 276.056421 259.877132 
L 275.79172 261.457836 
L 275.699562 263.498601 
L 275.832555 265.497717 
L 276.22573 267.981009 
L 277.049658 271.500201 
L 279.686116 281.846989 
L 280.304664 285.483308 
L 280.60988 288.686571 
L 280.659449 291.373918 
L 280.481803 294.180294 
L 280.162968 296.366903 
L 279.651215 298.625367 
L 278.910766 300.955349 
L 277.900316 303.353361 
L 276.572864 305.810404 
L 274.876457 308.307877 
L 273.513743 309.978893 
L 271.947582 311.635885 
L 270.165066 313.254053 
L 268.158289 314.797541 
L 265.928095 316.21573 
L 263.488984 317.440096 
L 260.874109 318.384876 
L 258.137253 318.958205 
L 256.744212 319.081964 
L 255.346482 319.091048 
L 252.566929 318.777672 
L 249.842023 318.093284 
L 247.189153 317.159754 
L 243.346882 315.529905 
L 236.113973 312.117611 
L 207.306844 298.051861 
L 145.459018 267.691158 
L 145.561236 267.531658 
L 146.171884 267.165405 
L 148.750749 265.952297 
L 163.07213 259.588166 
L 230.160597 230.042362 
L 235.83524 227.718133 
L 236.594371 227.59114 
L 236.926612 227.770026 
L 238.275019 229.033002 
L 244.670001 235.275027 
L 250.257304 241.027437 
L 255.307128 246.543526 
L 259.729087 251.706688 
L 263.517977 256.470725 
L 266.705513 260.819267 
L 269.546344 265.072676 
L 271.924983 269.042803 
L 273.776515 272.532945 
L 275.305044 275.841064 
L 276.49917 278.883637 
L 277.53119 282.134584 
L 278.217243 285.016055 
L 278.688837 288.066497 
L 278.866009 290.636612 
L 278.817678 293.328588 
L 278.488859 296.147469 
L 278.017884 298.346604 
L 277.317004 300.617879 
L 276.34656 302.957466 
L 275.061348 305.356214 
L 273.411382 307.795718 
L 272.082972 309.428663 
L 270.554455 311.04866 
L 268.813366 312.631874 
L 266.851957 314.144032 
L 264.670724 315.536966 
L 262.282995 316.74566 
L 259.719682 317.688681 
L 257.031414 318.277922 
L 254.283254 318.444457 
L 251.539241 318.176179 
L 248.844254 317.537648 
L 246.218101 316.64278 
L 242.413257 315.05451 
L 236.405214 312.247493 
L 216.831361 302.709475 
L 145.511218 267.718091 
L 145.601628 267.556146 
L 146.124431 267.228134 
L 148.464285 266.113066 
L 159.722494 261.098676 
L 227.779324 231.113326 
L 235.546715 227.864267 
L 236.56472 227.626772 
L 236.909999 227.76663 
L 237.748375 228.532638 
L 244.059024 234.664354 
L 249.772453 240.515099 
L 254.836539 246.014167 
L 259.172528 251.036015 
L 262.900642 255.668227 
L 266.282889 260.220389 
L 269.113565 264.395511 
L 271.496283 268.291434 
L 273.592032 272.164022 
L 275.13356 275.443297 
L 276.345296 278.458899 
L 277.402991 281.680536 
L 278.118561 284.535605 
L 278.629315 287.557714 
L 278.846637 290.103744 
L 278.848293 292.770458 
L 278.581618 295.563185 
L 278.166916 297.742516 
L 277.532124 299.99443 
L 276.639084 302.316104 
L 275.444076 304.700134 
L 273.898249 307.131147 
L 272.647146 308.764349 
L 271.201776 310.392009 
L 269.548499 311.99367 
L 267.677288 313.539704 
L 265.584781 314.988022 
L 263.278481 316.280706 
L 260.781645 317.342529 
L 258.136973 318.086001 
L 255.404961 318.430147 
L 252.652432 318.335384 
L 249.933755 317.83548 
L 247.278527 317.030326 
L 243.430407 315.501999 
L 237.356722 312.703096 
L 221.346327 304.91695 
L 145.512572 267.725364 
L 145.588402 267.568404 
L 146.072859 267.255858 
L 148.271488 266.201138 
L 158.966123 261.433366 
L 226.532827 231.654963 
L 235.373506 227.926157 
L 236.526497 227.625066 
L 236.878518 227.744008 
L 237.570811 228.364528 
L 243.775994 234.38257 
L 249.547191 240.277989 
L 254.538402 245.680571 
L 259.013371 250.845432 
L 262.941119 255.7205 
L 266.326047 260.281199 
L 269.15785 264.464262 
L 271.540271 268.367708 
L 273.634216 272.247901 
L 275.17285 275.533729 
L 276.380652 278.555458 
L 277.4326 281.783751 
L 278.141557 284.644817 
L 278.643534 287.673361 
L 278.851855 290.224863 
L 278.842302 292.89732 
L 278.561691 295.696003 
L 278.134368 297.879853 
L 277.484751 300.136204 
L 276.574341 302.462015 
L 275.359076 304.849506 
L 273.789833 307.282654 
L 272.521315 308.916012 
L 271.057173 310.542239 
L 269.384001 312.140146 
L 267.492245 313.679098 
L 265.379361 315.115667 
L 263.054105 316.390334 
L 260.54143 317.426366 
L 257.885882 318.135821 
L 255.149198 318.439912 
L 252.397859 318.304863 
L 249.684224 317.771709 
L 247.035554 316.944349 
L 243.197369 315.400632 
L 237.138762 312.598951 
L 220.20819 304.360545 
L 145.512217 267.723718 
L 145.591305 267.565651 
L 146.084316 267.249661 
L 148.31447 266.181479 
L 159.135744 261.358302 
L 226.667207 231.596499 
L 235.392344 227.919319 
L 236.530573 227.625153 
L 236.880612 227.745464 
L 237.573712 228.36727 
L 243.789553 234.396054 
L 249.570097 240.302074 
L 254.568739 245.714454 
L 259.049604 250.888774 
L 262.981635 255.77287 
L 266.369232 260.342124 
L 269.202142 264.533144 
L 271.58424 268.444131 
L 273.676343 272.331947 
L 275.212041 275.624344 
L 276.415859 278.652214 
L 277.461996 281.887182 
L 278.164269 284.754259 
L 278.657378 287.789255 
L 278.856604 290.346243 
L 278.835729 293.024455 
L 278.541041 295.829099 
L 278.10097 298.017469 
L 277.43638 300.278246 
L 276.508431 302.608165 
L 275.27272 304.999059 
L 273.679859 307.434227 
L 272.393796 309.067618 
L 270.910764 310.69223 
L 269.217612 312.286123 
L 267.305288 313.81762 
L 265.172097 315.241928 
L 262.828098 316.497912 
L 260.29997 317.507381 
L 257.634088 318.182112 
L 254.893319 318.44583 
L 252.143631 318.27086 
L 249.435269 317.705391 
L 246.793209 316.856867 
L 242.964924 315.298809 
L 236.921333 312.494924 
L 219.087297 303.812526 
L 145.511889 267.722064 
L 145.594275 267.562873 
L 146.095953 267.24339 
L 148.358037 266.161567 
L 159.307089 261.28248 
L 226.800013 231.538736 
L 235.41092 227.912599 
L 236.534611 227.625261 
L 236.882703 227.746925 
L 237.592348 228.384893 
L 243.803136 234.409563 
L 249.59304 240.326202 
L 254.599119 245.748399 
L 259.085882 250.932195 
L 263.022189 255.825338 
L 266.412442 260.403163 
L 269.24644 264.602159 
L 271.628187 268.520702 
L 273.491259 271.964761 
L 275.039518 275.228481 
L 276.450917 278.749169 
L 277.491177 281.990829 
L 278.186695 284.863934 
L 278.670842 287.905398 
L 278.860881 290.467884 
L 278.828567 293.151864 
L 278.51966 295.962476 
L 278.066713 298.155364 
L 277.387001 300.420554 
L 276.441343 302.754551 
L 275.184996 305.148785 
L 273.568317 307.585857 
L 272.264576 309.219153 
L 270.762539 310.841963 
L 269.049328 312.431571 
L 267.116417 313.955229 
L 264.963004 315.366749 
L 262.600488 316.603373 
L 260.057308 317.585503 
L 257.381644 318.224822 
L 254.637375 318.447905 
L 251.889779 318.233441 
L 249.186899 317.636629 
L 246.551492 316.767965 
L 242.733069 315.196571 
L 236.704433 312.391023 
L 217.983375 303.272771 
L 145.511588 267.720402 
L 145.597312 267.560069 
L 146.107772 267.237043 
L 148.402197 266.141399 
L 159.480165 261.205896 
L 226.931257 231.481668 
L 235.429239 227.905996 
L 236.53861 227.62539 
L 236.884792 227.748392 
L 237.595286 228.387672 
L 243.816741 234.423095 
L 249.492736 240.220757 
L 254.629542 245.782406 
L 259.122203 250.975697 
L 263.062781 255.877904 
L 266.455679 260.464319 
L 269.290745 264.671305 
L 271.672112 268.597422 
L 273.533576 272.048245 
L 275.079039 275.318481 
L 276.485823 278.846323 
L 277.52014 282.094691 
L 278.20883 284.97384 
L 278.683923 288.021791 
L 278.864679 290.589788 
L 278.820812 293.279545 
L 278.49754 296.096132 
L 278.031588 298.293536 
L 277.336605 300.563127 
L 276.373065 302.901171 
L 275.095892 305.29868 
L 273.455192 307.737534 
L 272.133645 309.370603 
L 270.61249 310.991417 
L 268.879143 312.57646 
L 266.925635 314.091883 
L 264.752094 315.490075 
L 262.371305 316.706646 
L 259.813491 317.660658 
L 257.128608 318.263904 
L 254.381417 318.446146 
L 251.636333 318.192682 
L 248.939125 317.565521 
L 246.310401 316.677727 
L 242.501801 315.093958 
L 236.488061 312.287255 
L 216.896157 302.741158 
L 145.511315 267.718733 
L 145.600418 267.557238 
L 146.119777 267.230618 
L 148.446957 266.120971 
L 159.654982 261.128546 
L 227.060952 231.42529 
L 235.447304 227.899509 
L 236.542572 227.625538 
L 236.886878 227.749864 
L 237.614162 228.405529 
L 243.904127 234.510053 
L 249.639031 240.37459 
L 254.660007 245.816475 
L 259.158569 251.019279 
L 262.885127 255.648204 
L 266.266343 260.197097 
L 269.096581 264.369178 
L 271.479407 268.26222 
L 273.575838 272.131895 
L 275.118465 275.408661 
L 276.331697 278.421918 
L 277.391579 281.641006 
L 278.109666 284.49378 
L 278.623763 287.513425 
L 278.844513 290.057359 
L 278.850438 292.721874 
L 278.58907 295.51232 
L 278.179175 297.689916 
L 277.55003 299.940127 
L 276.663608 302.260207 
L 275.476319 304.642893 
L 273.93942 307.073058 
L 272.69496 308.706169 
L 271.256759 310.334333 
L 269.611089 311.937365 
L 267.747749 313.486019 
L 265.663075 314.938711 
L 263.364099 316.238131 
L 260.873437 317.309641 
L 258.233076 318.065969 
L 255.503013 318.425383 
L 252.750154 318.346151 
L 250.029608 317.859243 
L 247.371882 317.062883 
L 243.519943 315.540746 
L 238.624163 313.305558 
L 226.415151 307.393865 
L 145.531625 267.767967 
L 145.549404 267.610583 
L 145.907551 267.348324 
L 147.462968 266.57437 
L 154.308075 263.497437 
L 208.039482 239.768776 
L 233.830287 228.532462 
L 236.264528 227.652689 
L 236.744591 227.668659 
L 237.136377 227.958376 
L 240.48613 231.155596 
L 246.56777 237.193577 
L 251.928735 242.815334 
L 256.753263 248.192801 
L 260.80428 253.021832 
L 264.477536 257.741642 
L 267.480018 261.937447 
L 270.095425 265.9497 
L 272.230744 269.590177 
L 274.068655 273.128765 
L 275.574698 276.483593 
L 276.738691 279.569863 
L 277.72702 282.868319 
L 278.362994 285.792589 
L 278.708919 288.255324 
L 278.870825 290.834385 
L 278.803494 293.535731 
L 278.569419 295.64503 
L 278.146952 297.827147 
L 277.503037 300.081797 
L 276.59931 302.406025 
L 275.391836 304.792195 
L 273.831597 307.224537 
L 272.569774 308.85785 
L 271.112846 310.484647 
L 269.447315 312.084025 
L 267.563442 313.625736 
L 265.458365 315.066871 
L 263.140356 316.348526 
L 260.633711 317.394541 
L 257.98227 318.117128 
L 255.247308 318.436621 
L 252.495457 318.316984 
L 249.77986 317.796474 
L 247.128669 316.977507 
L 243.286677 315.439566 
L 237.222294 312.63888 
L 220.276082 304.393737 
L 145.51235 267.72435 
L 145.590184 267.56671 
L 146.0799 267.252047 
L 148.297916 266.189048 
L 159.070486 261.387181 
L 226.615854 231.618838 
L 235.38515 227.921927 
L 236.529015 227.625117 
L 236.879809 227.744905 
L 237.572599 228.366218 
L 243.78435 234.39088 
L 249.561308 240.292832 
L 254.557099 245.701452 
L 259.035702 250.872141 
L 262.966091 255.752773 
L 266.352666 260.318743 
L 269.185154 264.50671 
L 271.567379 268.414802 
L 273.660193 272.299693 
L 275.197021 275.589568 
L 276.402373 278.615081 
L 277.450747 281.847487 
L 278.155592 284.712257 
L 278.652113 287.744776 
L 278.854838 290.299658 
L 278.838319 292.975662 
L 278.549047 295.778019 
L 278.11388 297.964656 
L 277.45505 300.223736 
L 276.533849 302.552084 
L 275.306002 304.941679 
L 273.722223 307.376086 
L 272.442904 309.009479 
L 270.967131 310.634732 
L 269.281652 312.230197 
L 267.377219 313.764597 
L 265.251807 315.193669 
L 262.914971 316.456899 
L 260.392723 317.476647 
L 257.73074 318.164778 
L 254.991468 318.444015 
L 252.241093 318.284309 
L 249.530683 317.731121 
L 246.886083 316.890592 
L 243.054005 315.337913 
L 237.004662 312.534808 
L 219.15416 303.845217 
L 145.512012 267.722699 
L 145.593128 267.563941 
L 146.091468 267.245804 
L 148.341258 266.169234 
L 159.241168 261.31165 
L 226.749263 231.560807 
L 235.403826 227.915162 
L 236.533067 227.625218 
L 236.881902 227.746364 
L 237.591222 228.383829 
L 243.797924 234.404379 
L 249.584236 240.316943 
L 254.587462 245.735373 
L 259.071963 250.915532 
L 263.00663 255.805203 
L 266.395867 260.379739 
L 269.22945 264.575674 
L 271.611334 268.491317 
L 273.702283 272.383841 
L 275.23615 275.680295 
L 276.437489 278.71196 
L 277.480011 281.951051 
L 278.178128 284.821842 
L 278.665723 287.860824 
L 278.859297 290.4212 
L 278.831384 293.102966 
L 278.527947 295.911288 
L 278.079954 298.102444 
L 277.406059 300.365942 
L 276.467213 302.698379 
L 275.218804 305.091339 
L 273.611283 307.527695 
L 272.314338 309.161043 
L 270.819604 310.784567 
L 269.114095 312.375851 
L 267.189081 313.902562 
L 265.043414 315.31905 
L 262.687972 316.56318 
L 260.150516 317.555887 
L 257.478538 318.208868 
L 254.735543 318.447563 
L 251.987094 318.248192 
L 249.282087 317.663284 
L 246.644125 316.802224 
L 242.821924 315.235829 
L 236.787559 312.430857 
L 218.049226 303.304969 
L 145.511701 267.72104 
L 145.596139 267.561147 
L 146.103217 267.239486 
L 148.38519 266.149164 
L 159.413579 261.235359 
L 226.881104 231.503473 
L 235.422243 227.908515 
L 236.537081 227.625338 
L 236.883991 227.747829 
L 237.594158 228.386606 
L 243.81152 234.417902 
L 249.6072 240.341098 
L 254.617868 245.769356 
L 259.108268 250.959003 
L 263.047208 255.857731 
L 266.439093 260.44085 
L 269.273752 264.644769 
L 271.655268 268.56798 
L 273.517353 272.016207 
L 275.063893 275.283941 
L 276.472453 278.809037 
L 277.509058 282.054831 
L 278.200375 284.93166 
L 278.678952 287.977121 
L 278.863279 290.543003 
L 278.823857 293.230543 
L 278.506111 296.044837 
L 278.045162 298.240509 
L 277.356054 300.508414 
L 276.399393 302.84491 
L 275.130231 305.241171 
L 273.498767 307.679356 
L 272.184065 309.312528 
L 270.670256 310.934131 
L 268.94464 312.520958 
L 266.999032 314.039587 
L 264.833199 315.442956 
L 262.459389 316.6673 
L 259.907137 317.632189 
L 257.225723 318.249347 
L 254.479585 318.447273 
L 251.733489 318.208704 
L 249.034084 317.593064 
L 246.402794 316.712489 
L 242.590431 315.133356 
L 236.570985 312.327038 
L 216.961013 302.772871 
L 145.511417 267.719374 
L 145.599219 267.558327 
L 146.115151 267.233091 
L 148.429719 266.128836 
L 159.587727 261.158304 
L 227.011392 231.446831 
L 235.440405 227.901984 
L 236.541057 227.625479 
L 236.886078 227.749299 
L 237.613022 228.404451 
L 243.89885 234.504801 
L 249.6302 240.365297 
L 254.648317 245.803401 
L 259.144616 251.002554 
L 263.087824 255.910357 
L 266.482345 260.502076 
L 269.318059 264.713998 
L 271.69918 268.644792 
L 273.559636 272.099793 
L 275.103355 275.374053 
L 276.507265 278.906314 
L 277.537885 282.158827 
L 278.22233 285.04171 
L 278.691794 288.093667 
L 278.866781 290.665069 
L 278.815732 293.358393 
L 278.483533 296.178666 
L 278.009498 298.378853 
L 277.305026 300.65115 
L 276.330376 302.991673 
L 275.040269 305.391167 
L 273.384661 307.831057 
L 272.052073 309.463917 
L 270.519077 311.083402 
L 268.773281 312.665486 
L 266.807074 314.175631 
L 264.621177 315.565331 
L 262.229252 316.76919 
L 259.662631 317.70548 
L 256.972348 318.28617 
L 254.223641 318.443158 
L 251.480306 318.165924 
L 248.78668 317.520561 
L 246.162089 316.621468 
L 242.359524 315.03053 
L 236.354937 312.223355 
L 215.889255 302.248801 
L 145.51116 267.7177 
L 145.602368 267.555481 
L 146.127271 267.226619 
L 148.474852 266.108247 
L 159.763621 261.08048 
L 227.8073 231.101188 
L 235.550565 227.862918 
L 236.56559 227.626834 
L 236.91048 227.766987 
L 237.749122 228.533346 
L 244.062291 234.66761 
L 249.777867 240.520805 
L 254.843699 246.022195 
L 259.181008 251.046185 
L 262.910066 255.680394 
L 266.292939 260.234543 
L 269.123879 264.411514 
L 271.506531 268.309188 
L 273.601863 272.183545 
L 275.142721 275.464345 
L 276.353545 278.481373 
L 277.409907 281.704558 
L 278.123942 284.561023 
L 278.632661 287.58463 
L 278.847894 290.131933 
L 278.846949 292.799983 
L 278.57704 295.594098 
L 278.15941 297.774481 
L 277.521178 300.02743 
L 276.624107 302.35007 
L 275.424397 304.734911 
L 273.873134 307.166431 
L 272.617986 308.79968 
L 271.168254 310.427023 
L 269.510351 312.027832 
L 267.634357 313.572249 
L 265.537098 315.017875 
L 263.226364 316.306421 
L 260.725806 317.362305 
L 258.078552 318.097918 
L 255.345399 318.432765 
L 252.593105 318.328589 
L 249.875581 317.820859 
L 247.221875 317.010438 
L 243.376072 315.47843 
L 237.305905 312.678827 
L 221.304491 304.896498 
L 145.512487 267.724981 
L 145.589072 267.567765 
L 146.075512 267.254421 
L 148.281448 266.196581 
L 159.00548 261.415949 
L 226.564269 231.641282 
L 235.377917 227.924554 
L 236.52745 227.625084 
L 236.879006 227.744347 
L 237.571486 228.365166 
L 243.77915 234.385709 
L 249.552523 240.283595 
L 254.545465 245.688458 
L 259.021807 250.855521 
L 262.950553 255.73269 
L 266.336104 260.29538 
L 269.168166 264.480295 
L 271.550515 268.385496 
L 273.644034 272.267463 
L 275.181988 275.55482 
L 276.388866 278.577978 
L 277.439467 281.807824 
L 278.146873 284.670289 
L 278.646793 287.700334 
L 278.853003 290.253113 
L 278.840823 292.92691 
L 278.556946 295.72698 
L 278.126665 297.911883 
L 277.473573 300.169266 
L 276.559093 302.496037 
L 275.339083 304.884326 
L 273.764356 307.317954 
L 272.491763 308.951331 
L 271.023231 310.577198 
L 269.345413 312.174195 
L 267.448868 313.711443 
L 265.331247 315.145203 
L 263.001606 316.415578 
L 260.485296 317.445491 
L 257.827293 318.146921 
L 255.089604 318.441634 
L 252.338609 318.297252 
L 249.626183 317.756485 
L 246.979049 316.924103 
L 243.143173 315.376954 
L 237.088069 312.574709 
L 220.166988 304.340402 
L 145.512138 267.723333 
L 145.591991 267.565006 
L 146.08701 267.248207 
L 148.324565 266.176863 
L 159.175501 261.340709 
L 226.698282 231.582982 
L 235.396694 227.917743 
L 236.531517 227.625177 
L 236.881099 227.745804 
L 237.590097 228.382765 
L 243.866133 234.472238 
L 249.575438 240.30769 
L 254.575812 245.722356 
L 259.058051 250.898881 
L 262.991077 255.785083 
L 266.379295 260.356331 
L 269.21246 264.549208 
L 271.594478 268.461953 
L 273.686147 272.351547 
L 275.221155 275.645477 
L 276.424039 278.67478 
L 277.468813 281.911305 
L 278.169519 284.779785 
L 278.660548 287.816287 
L 278.857643 290.374553 
L 278.834114 293.054108 
L 278.536126 295.860142 
L 278.093067 298.049564 
L 277.424969 300.31137 
L 276.49291 302.642242 
L 275.252409 305.033919 
L 273.654018 307.469541 
L 272.363849 309.102922 
L 270.8764 310.727131 
L 269.178583 312.320051 
L 267.261465 313.849756 
L 265.123556 315.271133 
L 262.775223 316.522669 
L 260.243552 317.525839 
L 257.575342 318.192382 
L 254.833706 318.446656 
L 252.084466 318.262446 
L 249.377363 317.689589 
L 246.73685 316.836282 
L 242.910865 315.27503 
L 236.870763 312.470711 
L 219.046719 303.792686 
L 145.511817 267.721677 
L 145.594976 267.562222 
L 146.098689 267.241918 
L 148.36827 266.156892 
L 159.347248 261.26471 
L 226.830723 231.525381 
L 235.41521 227.911051 
L 236.535546 227.62529 
L 236.88319 227.747266 
L 237.593032 228.38554 
L 243.806303 234.412713 
L 249.598389 240.331829 
L 254.606202 245.756315 
L 259.094338 250.942321 
L 263.031641 255.837573 
L 266.422511 260.417398 
L 269.25676 264.618253 
L 271.63842 268.538559 
L 273.501121 271.984192 
L 275.048732 275.249429 
L 276.459061 278.771781 
L 277.497943 282.015002 
L 278.191877 284.889514 
L 278.673923 287.932487 
L 278.861808 290.496256 
L 278.826814 293.18158 
L 278.514573 295.993583 
L 278.058609 298.187524 
L 277.375354 300.45374 
L 276.425545 302.788683 
L 275.164365 305.183685 
L 273.542108 307.621183 
L 272.234232 309.254438 
L 270.727752 310.876802 
L 269.009856 312.465371 
L 267.072148 313.987147 
L 264.914038 315.395612 
L 262.547244 316.627627 
L 260.000617 317.603276 
L 257.322755 318.234252 
L 254.577754 318.447837 
L 251.830706 318.224243 
L 249.129131 317.620271 
L 246.495278 316.747062 
L 242.679147 315.172701 
L 236.653986 312.36684 
L 217.943411 303.25323 
L 145.511522 267.720014 
L 145.598029 267.559412 
L 146.110552 267.235553 
L 148.41257 266.136664 
L 159.52073 261.187948 
L 226.961605 231.468474 
L 235.433469 227.904475 
L 236.539536 227.625423 
L 236.885278 227.748734 
L 237.611883 228.403373 
L 243.893577 234.499552 
L 249.621375 240.356011 
L 254.636634 245.790336 
L 259.13067 250.985841 
L 263.072242 255.890162 
L 266.465753 260.47858 
L 269.301065 264.687431 
L 271.682341 268.615314 
L 273.543425 272.067715 
L 275.088231 275.33947 
L 276.493932 278.868981 
L 277.526855 282.118915 
L 278.213945 284.999474 
L 278.686914 288.048938 
L 278.865495 290.618221 
L 278.818919 293.309326 
L 278.492281 296.127305 
L 278.02328 298.325761 
L 277.324719 300.596375 
L 276.356989 302.935357 
L 275.074937 305.333619 
L 273.428613 307.77287 
L 272.1029 309.405866 
L 270.577276 311.026187 
L 268.839228 312.610125 
L 266.880922 314.123572 
L 264.702707 315.518581 
L 262.317699 316.73038 
L 259.756537 317.677731 
L 257.069588 318.272482 
L 254.321799 318.445187 
L 251.577359 318.182716 
L 248.881497 317.548632 
L 246.254334 316.656525 
L 242.448016 315.070006 
L 236.437736 312.263104 
L 216.856798 302.721913 
L 145.511255 267.718343 
L 145.601152 267.556575 
L 146.1226 267.229111 
L 148.45747 266.116175 
L 159.695953 261.110419 
L 227.761193 231.121192 
L 235.544219 227.865141 
L 236.564156 227.626731 
L 236.909689 227.766399 
L 237.747892 228.53218 
L 244.056913 234.662249 
L 249.768953 240.511411 
L 254.831911 246.008977 
L 259.167045 251.029442 
L 262.894549 255.660363 
L 266.276391 260.211241 
L 269.106896 264.385169 
L 271.489657 268.27996 
L 273.585674 272.151404 
L 275.127634 275.429693 
L 276.339959 278.444374 
L 277.398514 281.665009 
L 278.115073 284.519177 
L 278.627142 287.540318 
L 278.845811 290.085525 
L 278.849145 292.751375 
L 278.584556 295.543207 
L 278.171745 297.721857 
L 277.539172 299.973102 
L 276.648735 302.294151 
L 275.45676 304.677653 
L 273.914443 307.108336 
L 272.665951 308.741504 
L 271.223398 310.369365 
L 269.57311 311.971569 
L 267.70499 313.518638 
L 265.615558 314.968682 
L 263.31213 316.264023 
L 260.817712 317.329662 
L 258.174724 318.078196 
L 255.443467 318.428344 
L 252.690799 318.339674 
L 249.971384 317.844858 
L 247.315174 317.043138 
L 243.465555 315.517222 
L 237.389594 312.71879 
L 221.373389 304.930179 
L 145.512628 267.725612 
L 145.587971 267.568817 
L 146.071149 267.256785 
L 148.265065 266.204077 
L 158.940727 261.444606 
L 226.512452 231.663828 
L 235.370646 227.927198 
L 236.52588 227.625054 
L 236.878203 227.743789 
L 237.570375 228.364115 
L 242.379282 233.00193 
L 242.379282 233.00193 
" style="fill:none;stroke:#1a1a1a;stroke-linecap:square;stroke-width:1.5;"/>
   </g>
   <g id="line2d_30">
    <path clip-path="url(#p8a13fd5a49)" d="M 362.998028 191.362459 
L 319.176049 210.817608 
L 294.62209 221.479315 
L 281.553977 226.928928 
L 272.266029 230.554608 
L 266.458589 232.59025 
L 262.565507 233.752207 
L 259.458844 234.456816 
L 257.312026 234.731708 
L 255.594245 234.724205 
L 254.376929 234.506089 
L 253.384404 234.11187 
L 252.501978 233.513676 
L 251.672607 232.673012 
L 250.635919 231.270212 
L 245.872962 224.408671 
L 242.795713 220.544633 
L 239.104155 216.275692 
L 235.33507 212.199784 
L 235.33507 212.199784 
" style="fill:none;stroke:#333333;stroke-linecap:square;stroke-width:1.5;"/>
   </g>
   <g id="line2d_31">
    <path clip-path="url(#p8a13fd5a49)" d="M 363.269467 176.603808 
L 335.439911 187.999376 
L 317.271748 195.097438 
L 304.343058 199.874464 
L 294.614848 203.242502 
L 287.003431 205.686631 
L 278.236445 208.211152 
L 271.610366 209.831163 
L 266.436426 210.854914 
L 262.300248 211.467389 
L 258.935353 211.786985 
L 255.344348 211.891628 
L 252.518252 211.741428 
L 250.262581 211.419571 
L 248.041156 210.860874 
L 246.31263 210.197587 
L 244.707136 209.333485 
L 243.286924 208.300846 
L 241.931534 207.013792 
L 240.528129 205.334546 
L 238.508122 202.489863 
L 235.637521 198.531738 
L 234.730232 197.37796 
L 234.730232 197.37796 
" style="fill:none;stroke:#4d4d4d;stroke-linecap:square;stroke-width:1.5;"/>
   </g>
   <g id="line2d_32">
    <path clip-path="url(#p8a13fd5a49)" d="M 363.544622 161.64311 
L 347.355974 167.843082 
L 334.551828 172.565756 
L 324.116053 176.261217 
L 308.025262 181.5997 
L 296.112281 185.173363 
L 286.891179 187.638369 
L 279.526993 189.362058 
L 273.510094 190.567358 
L 268.509331 191.397952 
L 262.43741 192.14533 
L 257.646778 192.477202 
L 253.809437 192.528347 
L 250.702239 192.387391 
L 247.426432 192.002778 
L 244.90189 191.479698 
L 242.521181 190.725427 
L 240.765444 189.931433 
L 239.235955 188.992367 
L 237.989706 187.972142 
L 236.828606 186.712738 
L 235.765314 185.197747 
L 234.116998 182.350361 
L 234.116998 182.350361 
" style="fill:none;stroke:#666666;stroke-linecap:square;stroke-width:1.5;"/>
   </g>
   <g id="line2d_33">
    <path clip-path="url(#p8a13fd5a49)" d="M 363.823569 146.476187 
L 347.016088 152.437914 
L 333.664348 156.932344 
L 322.740336 160.409998 
L 313.60113 163.1521 
L 305.821082 165.344333 
L 293.243576 168.554735 
L 283.493514 170.695354 
L 275.714683 172.131219 
L 269.380282 173.082899 
L 264.1447 173.69177 
L 257.848762 174.161553 
L 252.956892 174.275626 
L 249.111878 174.162305 
L 245.196942 173.796192 
L 242.304541 173.294291 
L 239.711794 172.587843 
L 237.916019 171.871718 
L 236.467201 171.063742 
L 235.288639 170.130078 
L 234.49276 169.21739 
L 233.887886 168.173199 
L 233.49519 167.112672 
L 233.49519 167.112672 
" style="fill:none;stroke:#808080;stroke-linecap:square;stroke-width:1.5;"/>
   </g>
   <g id="line2d_34">
    <path clip-path="url(#p8a13fd5a49)" d="M 364.106389 131.098746 
L 346.671567 136.822676 
L 332.777471 141.094955 
L 321.382144 144.366061 
L 311.832819 146.916808 
L 303.69635 148.93231 
L 290.543945 151.830507 
L 280.372622 153.709434 
L 272.2972 154.928868 
L 265.767593 155.70447 
L 258.10486 156.321954 
L 252.315404 156.524076 
L 247.887808 156.475748 
L 243.521445 156.18961 
L 240.417683 155.775315 
L 237.760716 155.196118 
L 235.75549 154.515786 
L 234.410626 153.819879 
L 233.541585 153.120071 
L 233.058643 152.45533 
L 232.867391 151.820524 
L 232.864628 151.660456 
L 232.864628 151.660456 
" style="fill:none;stroke:#999999;stroke-linecap:square;stroke-width:1.5;"/>
   </g>
   <g id="line2d_35">
    <path clip-path="url(#p8a13fd5a49)" d="M 364.393162 115.506372 
L 346.322315 120.993043 
L 331.891201 125.04929 
L 320.04132 128.124863 
L 310.107854 130.499504 
L 301.64825 132.357137 
L 288.003048 134.989444 
L 277.504636 136.661192 
L 269.230844 137.723631 
L 262.602446 138.384874 
L 254.928396 138.896586 
L 249.239423 139.055562 
L 243.809385 138.96842 
L 239.354568 138.634209 
L 236.567149 138.218982 
L 234.336099 137.655525 
L 233.097889 137.127968 
L 232.436294 136.62886 
L 232.203212 136.193128 
L 232.225125 135.989149 
L 232.225125 135.989149 
" style="fill:none;stroke:#b3b3b3;stroke-linecap:square;stroke-width:1.5;"/>
   </g>
   <g id="line2d_36">
    <path clip-path="url(#p8a13fd5a49)" d="M 364.683971 99.694528 
L 345.968235 104.944567 
L 331.00554 108.790925 
L 318.717707 111.681734 
L 308.425254 113.894846 
L 299.674029 115.612246 
L 285.611051 118.02055 
L 274.867479 119.532281 
L 266.476281 120.486811 
L 257.01481 121.285344 
L 250.197208 121.63957 
L 243.878264 121.7499 
L 238.873255 121.619011 
L 235.418241 121.331926 
L 233.141697 120.948117 
L 231.917399 120.534258 
L 231.558887 120.211795 
L 231.57649 120.09406 
L 231.57649 120.09406 
" style="fill:none;stroke:#cccccc;stroke-linecap:square;stroke-width:1.5;"/>
   </g>
   <g id="line2d_37">
    <path clip-path="url(#p8a13fd5a49)" d="M 364.978902 83.658548 
L 345.609226 88.67268 
L 330.12049 92.315312 
L 317.411144 95.031878 
L 306.784042 97.097371 
L 297.770988 98.690995 
L 283.358599 100.913051 
L 272.440732 102.305321 
L 260.491883 103.507387 
L 252.138664 104.119131 
L 244.620259 104.473036 
L 238.032518 104.571471 
L 233.530077 104.431394 
L 231.299952 104.16309 
L 230.910808 103.982173 
L 230.918527 103.970361 
" style="fill:none;stroke:#e6e6e6;stroke-linecap:square;stroke-width:1.5;"/>
   </g>
   <g id="line2d_38">
    <path clip-path="url(#p8a13fd5a49)" d="M 362.466001 220.289773 
L 364.978902 83.658548 
" style="fill:none;stroke:#008000;stroke-linecap:square;stroke-width:1.5;"/>
   </g>
   <g id="line2d_39">
    <path clip-path="url(#p8a13fd5a49)" d="M 145.768159 281.872413 
L 145.656364 280.560684 
L 145.544427 279.247299 
L 145.432349 277.932256 
L 145.32013 276.615552 
L 145.207769 275.297182 
L 145.095265 273.977145 
L 144.982619 272.655438 
L 144.869831 271.332055 
L 144.756899 270.006996 
L 144.643824 268.680256 
L 144.530606 267.351832 
L 144.417244 266.021722 
L 144.303738 264.689921 
L 144.190087 263.356427 
L 144.076292 262.021236 
L 143.962352 260.684346 
L 143.848267 259.345752 
L 143.734037 258.005452 
L 143.619661 256.663443 
L 143.505139 255.31972 
L 143.39047 253.974282 
L 143.275655 252.627123 
L 143.160693 251.278243 
L 143.045584 249.927636 
L 142.930328 248.5753 
L 142.814924 247.221231 
L 142.699372 245.865426 
L 142.583672 244.507881 
L 142.467823 243.148594 
L 142.351826 241.787561 
L 142.235679 240.424779 
L 142.119383 239.060243 
L 142.002938 237.693952 
L 141.886342 236.325901 
L 141.769596 234.956087 
L 141.6527 233.584506 
L 141.535652 232.211156 
L 141.418454 230.836032 
L 141.301104 229.459132 
L 141.183603 228.080451 
L 141.065949 226.699987 
L 140.948143 225.317736 
L 140.830185 223.933695 
L 140.712073 222.547859 
L 140.593809 221.160226 
L 140.475391 219.770792 
L 140.356819 218.379553 
L 140.238093 216.986507 
L 140.119213 215.591649 
L 140.000178 214.194975 
L 139.880988 212.796483 
L 139.761642 211.396169 
L 139.642141 209.99403 
L 139.522485 208.590061 
L 139.402671 207.184259 
L 139.282702 205.77662 
L 139.162576 204.367141 
L 139.042292 202.955819 
L 138.921851 201.54265 
L 138.801252 200.127629 
L 138.680496 198.710754 
L 138.55958 197.29202 
L 138.438507 195.871425 
L 138.317274 194.448964 
L 138.195882 193.024634 
L 138.07433 191.598431 
L 137.952618 190.170351 
L 137.830746 188.740391 
L 137.708714 187.308547 
L 137.58652 185.874816 
L 137.464165 184.439192 
L 137.341649 183.001674 
L 137.218971 181.562256 
L 137.096131 180.120936 
L 136.973128 178.677709 
L 136.849963 177.232571 
L 136.726634 175.78552 
L 136.603142 174.336551 
L 136.479486 172.885659 
L 136.355666 171.432843 
L 136.231682 169.978097 
L 136.107533 168.521417 
L 135.983218 167.062801 
L 135.858739 165.602243 
L 135.734093 164.139741 
L 135.609282 162.67529 
L 135.484304 161.208886 
L 135.359159 159.740526 
L 135.233847 158.270205 
L 135.108368 156.79792 
L 134.982721 155.323666 
L 134.856906 153.847441 
L 134.730922 152.369239 
L 134.60477 150.889056 
L 134.478448 149.40689 
L 134.351958 147.922735 
L 134.225297 146.436588 
L 134.098466 144.948445 
L 133.971465 143.458302 
" style="fill:none;stroke:#e018bb;stroke-linecap:square;stroke-width:1.5;"/>
   </g>
   <g id="line2d_40">
    <path clip-path="url(#p8a13fd5a49)" d="M 236.520234 241.242782 
L 236.467058 239.939679 
L 236.413817 238.634973 
L 236.36051 237.328662 
L 236.307137 236.020742 
L 236.253699 234.711212 
L 236.200195 233.400068 
L 236.146625 232.087306 
L 236.092988 230.772925 
L 236.039286 229.45692 
L 235.985517 228.139289 
L 235.931682 226.82003 
L 235.87778 225.499138 
L 235.823811 224.176611 
L 235.769776 222.852446 
L 235.715673 221.526639 
L 235.661504 220.199189 
L 235.607267 218.870091 
L 235.552963 217.539343 
L 235.498591 216.206941 
L 235.444152 214.872882 
L 235.389645 213.537164 
L 235.33507 212.199784 
L 235.280427 210.860737 
L 235.225716 209.520022 
L 235.170937 208.177634 
L 235.11609 206.833571 
L 235.061174 205.48783 
L 235.006189 204.140407 
L 234.951136 202.7913 
L 234.896014 201.440504 
L 234.840822 200.088018 
L 234.785562 198.733838 
L 234.730232 197.37796 
L 234.674833 196.020382 
L 234.619365 194.6611 
L 234.563827 193.300111 
L 234.508219 191.937412 
L 234.452541 190.572999 
L 234.396793 189.20687 
L 234.340975 187.839021 
L 234.285086 186.469449 
L 234.229127 185.098151 
L 234.173098 183.725123 
L 234.116998 182.350361 
L 234.060827 180.973864 
L 234.004585 179.595627 
L 233.948272 178.215648 
L 233.891887 176.833922 
L 233.835431 175.450447 
L 233.778904 174.065219 
L 233.722305 172.678235 
L 233.665634 171.289492 
L 233.608892 169.898986 
L 233.552077 168.506714 
L 233.49519 167.112672 
L 233.43823 165.716858 
L 233.381199 164.319267 
L 233.324094 162.919896 
L 233.266917 161.518743 
L 233.209667 160.115803 
L 233.152344 158.711073 
L 233.094947 157.30455 
L 233.037478 155.89623 
L 232.979935 154.48611 
L 232.922318 153.074186 
L 232.864628 151.660456 
L 232.806863 150.244914 
L 232.749025 148.827559 
L 232.691112 147.408386 
L 232.633126 145.987392 
L 232.575064 144.564573 
L 232.516928 143.139927 
L 232.458718 141.713449 
L 232.400432 140.285135 
L 232.342072 138.854983 
L 232.283636 137.422989 
L 232.225125 135.989149 
L 232.166539 134.55346 
L 232.107876 133.115918 
L 232.049139 131.676519 
L 231.990325 130.23526 
L 231.931435 128.792137 
L 231.872469 127.347147 
L 231.813426 125.900287 
L 231.754308 124.451551 
L 231.695112 123.000937 
L 231.63584 121.548442 
L 231.57649 120.09406 
L 231.517064 118.63779 
L 231.45756 117.179626 
L 231.397979 115.719566 
L 231.338321 114.257606 
L 231.278585 112.793741 
L 231.218771 111.327969 
L 231.158878 109.860286 
L 231.098908 108.390687 
L 231.03886 106.919169 
L 230.978733 105.445728 
L 230.918527 103.970361 
" style="fill:none;stroke:#e018bb;stroke-linecap:square;stroke-width:1.5;"/>
   </g>
   <g id="line2d_41">
    <path clip-path="url(#p8a13fd5a49)" d="M 166.796005 292.246783 
L 168.06997 291.181738 
L 169.474641 290.13469 
L 171.029192 289.107847 
L 172.756681 288.103692 
L 174.685075 287.124986 
L 176.848591 286.17475 
L 179.2895 285.256184 
L 182.060554 284.372483 
L 185.228302 283.52642 
L 188.877629 282.719491 
L 193.117988 281.950151 
L 198.091823 281.210147 
L 203.985433 280.476674 
L 211.040853 279.694801 
L 219.560572 278.735624 
L 229.869509 277.287711 
L 242.080983 274.54106 
L 254.929529 268.105406 
L 259.261873 249.310466 
L 187.67878 173.321127 
L -1 66.51668 
M -1 213.076857 
L 0.879674 213.565584 
L 20.877754 218.181699 
L 35.627334 221.125679 
L 46.92639 222.998387 
L 55.841088 224.146966 
L 63.041941 224.784808 
L 68.970943 225.049761 
L 73.930874 225.034568 
L 78.1359 224.803771 
L 81.741665 224.40359 
L 84.863935 223.867944 
L 87.59056 223.22226 
L 89.989386 222.485955 
L 92.11363 221.674102 
L 94.005606 220.79857 
L 95.699378 219.86883 
L 97.222673 218.892526 
L 98.598282 217.875892 
L 99.845115 216.824065 
L 100.978987 215.741308 
L 102.013229 214.631194 
L 102.959152 213.496736 
L 103.826421 212.340492 
L 104.623337 211.164647 
L 105.357073 209.971081 
L 106.03386 208.761416 
L 106.659133 207.537062 
L 107.237655 206.299249 
L 107.77362 205.049055 
L 108.270733 203.787426 
L 108.73228 202.5152 
L 109.161184 201.233119 
L 109.560059 199.941843 
L 109.931241 198.641961 
L 110.276832 197.333999 
L 110.598725 196.018431 
L 110.898629 194.695681 
L 111.178091 193.366133 
L 111.438517 192.030135 
L 111.681185 190.688001 
L 111.907259 189.340017 
L 112.117804 187.986443 
L 112.313795 186.627516 
L 112.496125 185.263453 
L 112.665616 183.894453 
L 112.823023 182.520698 
L 112.969043 181.142354 
L 113.10432 179.759577 
L 113.229448 178.372506 
L 113.34498 176.981274 
L 113.451427 175.586 
L 113.549263 174.186797 
L 113.63893 172.783768 
L 113.72084 171.377008 
L 113.795377 169.966608 
L 113.862899 168.552649 
L 113.92374 167.135208 
L 113.978213 165.714358 
L 114.026613 164.290165 
L 114.069214 162.86269 
L 114.106275 161.431994 
L 114.138037 159.998128 
L 114.16473 158.561145 
L 114.186568 157.121092 
L 114.203753 155.678013 
L 114.216476 154.231949 
L 114.224917 152.78294 
L 114.229247 151.331023 
L 114.229626 149.876231 
L 114.226206 148.418597 
L 114.219131 146.958151 
L 114.208538 145.494922 
" style="fill:none;stroke:#e018bb;stroke-linecap:square;stroke-width:1.5;"/>
   </g>
   <g id="text_28">
    <!-- Bifurcation -->
    <defs>
     <path d="M 19.671875 34.8125 
L 19.671875 8.109375 
L 35.5 8.109375 
Q 43.453125 8.109375 47.28125 11.40625 
Q 51.125 14.703125 51.125 21.484375 
Q 51.125 28.328125 47.28125 31.5625 
Q 43.453125 34.8125 35.5 34.8125 
z
M 19.671875 64.796875 
L 19.671875 42.828125 
L 34.28125 42.828125 
Q 41.5 42.828125 45.03125 45.53125 
Q 48.578125 48.25 48.578125 53.8125 
Q 48.578125 59.328125 45.03125 62.0625 
Q 41.5 64.796875 34.28125 64.796875 
z
M 9.8125 72.90625 
L 35.015625 72.90625 
Q 46.296875 72.90625 52.390625 68.21875 
Q 58.5 63.53125 58.5 54.890625 
Q 58.5 48.1875 55.375 44.234375 
Q 52.25 40.28125 46.1875 39.3125 
Q 53.46875 37.75 57.5 32.78125 
Q 61.53125 27.828125 61.53125 20.40625 
Q 61.53125 10.640625 54.890625 5.3125 
Q 48.25 0 35.984375 0 
L 9.8125 0 
z
" id="DejaVuSans-42"/>
     <path d="M 9.421875 54.6875 
L 18.40625 54.6875 
L 18.40625 0 
L 9.421875 0 
z
M 9.421875 75.984375 
L 18.40625 75.984375 
L 18.40625 64.59375 
L 9.421875 64.59375 
z
" id="DejaVuSans-69"/>
     <path d="M 37.109375 75.984375 
L 37.109375 68.5 
L 28.515625 68.5 
Q 23.6875 68.5 21.796875 66.546875 
Q 19.921875 64.59375 19.921875 59.515625 
L 19.921875 54.6875 
L 34.71875 54.6875 
L 34.71875 47.703125 
L 19.921875 47.703125 
L 19.921875 0 
L 10.890625 0 
L 10.890625 47.703125 
L 2.296875 47.703125 
L 2.296875 54.6875 
L 10.890625 54.6875 
L 10.890625 58.5 
Q 10.890625 67.625 15.140625 71.796875 
Q 19.390625 75.984375 28.609375 75.984375 
z
" id="DejaVuSans-66"/>
     <path d="M 48.78125 52.59375 
L 48.78125 44.1875 
Q 44.96875 46.296875 41.140625 47.34375 
Q 37.3125 48.390625 33.40625 48.390625 
Q 24.65625 48.390625 19.8125 42.84375 
Q 14.984375 37.3125 14.984375 27.296875 
Q 14.984375 17.28125 19.8125 11.734375 
Q 24.65625 6.203125 33.40625 6.203125 
Q 37.3125 6.203125 41.140625 7.25 
Q 44.96875 8.296875 48.78125 10.40625 
L 48.78125 2.09375 
Q 45.015625 0.34375 40.984375 -0.53125 
Q 36.96875 -1.421875 32.421875 -1.421875 
Q 20.0625 -1.421875 12.78125 6.34375 
Q 5.515625 14.109375 5.515625 27.296875 
Q 5.515625 40.671875 12.859375 48.328125 
Q 20.21875 56 33.015625 56 
Q 37.15625 56 41.109375 55.140625 
Q 45.0625 54.296875 48.78125 52.59375 
z
" id="DejaVuSans-63"/>
     <path d="M 30.609375 48.390625 
Q 23.390625 48.390625 19.1875 42.75 
Q 14.984375 37.109375 14.984375 27.296875 
Q 14.984375 17.484375 19.15625 11.84375 
Q 23.34375 6.203125 30.609375 6.203125 
Q 37.796875 6.203125 41.984375 11.859375 
Q 46.1875 17.53125 46.1875 27.296875 
Q 46.1875 37.015625 41.984375 42.703125 
Q 37.796875 48.390625 30.609375 48.390625 
z
M 30.609375 56 
Q 42.328125 56 49.015625 48.375 
Q 55.71875 40.765625 55.71875 27.296875 
Q 55.71875 13.875 49.015625 6.21875 
Q 42.328125 -1.421875 30.609375 -1.421875 
Q 18.84375 -1.421875 12.171875 6.21875 
Q 5.515625 13.875 5.515625 27.296875 
Q 5.515625 40.765625 12.171875 48.375 
Q 18.84375 56 30.609375 56 
z
" id="DejaVuSans-6f"/>
    </defs>
    <g transform="translate(283.970438 59.406081)scale(0.12 -0.12)">
     <use xlink:href="#DejaVuSans-42"/>
     <use x="68.603516" xlink:href="#DejaVuSans-69"/>
     <use x="96.386719" xlink:href="#DejaVuSans-66"/>
     <use x="131.591797" xlink:href="#DejaVuSans-75"/>
     <use x="194.970703" xlink:href="#DejaVuSans-72"/>
     <use x="236.052734" xlink:href="#DejaVuSans-63"/>
     <use x="291.033203" xlink:href="#DejaVuSans-61"/>
     <use x="352.3125" xlink:href="#DejaVuSans-74"/>
     <use x="391.521484" xlink:href="#DejaVuSans-69"/>
     <use x="419.304688" xlink:href="#DejaVuSans-6f"/>
     <use x="480.486328" xlink:href="#DejaVuSans-6e"/>
    </g>
    <!-- Phase space vs. parameter -->
    <defs>
     <path d="M 54.890625 33.015625 
L 54.890625 0 
L 45.90625 0 
L 45.90625 32.71875 
Q 45.90625 40.484375 42.875 44.328125 
Q 39.84375 48.1875 33.796875 48.1875 
Q 26.515625 48.1875 22.3125 43.546875 
Q 18.109375 38.921875 18.109375 30.90625 
L 18.109375 0 
L 9.078125 0 
L 9.078125 75.984375 
L 18.109375 75.984375 
L 18.109375 46.1875 
Q 21.34375 51.125 25.703125 53.5625 
Q 30.078125 56 35.796875 56 
Q 45.21875 56 50.046875 50.171875 
Q 54.890625 44.34375 54.890625 33.015625 
z
" id="DejaVuSans-68"/>
     <path d="M 44.28125 53.078125 
L 44.28125 44.578125 
Q 40.484375 46.53125 36.375 47.5 
Q 32.28125 48.484375 27.875 48.484375 
Q 21.1875 48.484375 17.84375 46.4375 
Q 14.5 44.390625 14.5 40.28125 
Q 14.5 37.15625 16.890625 35.375 
Q 19.28125 33.59375 26.515625 31.984375 
L 29.59375 31.296875 
Q 39.15625 29.25 43.1875 25.515625 
Q 47.21875 21.78125 47.21875 15.09375 
Q 47.21875 7.46875 41.1875 3.015625 
Q 35.15625 -1.421875 24.609375 -1.421875 
Q 20.21875 -1.421875 15.453125 -0.5625 
Q 10.6875 0.296875 5.421875 2 
L 5.421875 11.28125 
Q 10.40625 8.6875 15.234375 7.390625 
Q 20.0625 6.109375 24.8125 6.109375 
Q 31.15625 6.109375 34.5625 8.28125 
Q 37.984375 10.453125 37.984375 14.40625 
Q 37.984375 18.0625 35.515625 20.015625 
Q 33.0625 21.96875 24.703125 23.78125 
L 21.578125 24.515625 
Q 13.234375 26.265625 9.515625 29.90625 
Q 5.8125 33.546875 5.8125 39.890625 
Q 5.8125 47.609375 11.28125 51.796875 
Q 16.75 56 26.8125 56 
Q 31.78125 56 36.171875 55.265625 
Q 40.578125 54.546875 44.28125 53.078125 
z
" id="DejaVuSans-73"/>
     <path id="DejaVuSans-20"/>
     <path d="M 18.109375 8.203125 
L 18.109375 -20.796875 
L 9.078125 -20.796875 
L 9.078125 54.6875 
L 18.109375 54.6875 
L 18.109375 46.390625 
Q 20.953125 51.265625 25.265625 53.625 
Q 29.59375 56 35.59375 56 
Q 45.5625 56 51.78125 48.09375 
Q 58.015625 40.1875 58.015625 27.296875 
Q 58.015625 14.40625 51.78125 6.484375 
Q 45.5625 -1.421875 35.59375 -1.421875 
Q 29.59375 -1.421875 25.265625 0.953125 
Q 20.953125 3.328125 18.109375 8.203125 
z
M 48.6875 27.296875 
Q 48.6875 37.203125 44.609375 42.84375 
Q 40.53125 48.484375 33.40625 48.484375 
Q 26.265625 48.484375 22.1875 42.84375 
Q 18.109375 37.203125 18.109375 27.296875 
Q 18.109375 17.390625 22.1875 11.75 
Q 26.265625 6.109375 33.40625 6.109375 
Q 40.53125 6.109375 44.609375 11.75 
Q 48.6875 17.390625 48.6875 27.296875 
z
" id="DejaVuSans-70"/>
     <path d="M 2.984375 54.6875 
L 12.5 54.6875 
L 29.59375 8.796875 
L 46.6875 54.6875 
L 56.203125 54.6875 
L 35.6875 0 
L 23.484375 0 
z
" id="DejaVuSans-76"/>
    </defs>
    <g transform="translate(235.104187 72.843456)scale(0.12 -0.12)">
     <use xlink:href="#DejaVuSans-50"/>
     <use x="60.302734" xlink:href="#DejaVuSans-68"/>
     <use x="123.681641" xlink:href="#DejaVuSans-61"/>
     <use x="184.960938" xlink:href="#DejaVuSans-73"/>
     <use x="237.060547" xlink:href="#DejaVuSans-65"/>
     <use x="298.583984" xlink:href="#DejaVuSans-20"/>
     <use x="330.371094" xlink:href="#DejaVuSans-73"/>
     <use x="382.470703" xlink:href="#DejaVuSans-70"/>
     <use x="445.947266" xlink:href="#DejaVuSans-61"/>
     <use x="507.226562" xlink:href="#DejaVuSans-63"/>
     <use x="562.207031" xlink:href="#DejaVuSans-65"/>
     <use x="623.730469" xlink:href="#DejaVuSans-20"/>
     <use x="655.517578" xlink:href="#DejaVuSans-76"/>
     <use x="714.697266" xlink:href="#DejaVuSans-73"/>
     <use x="766.796875" xlink:href="#DejaVuSans-2e"/>
     <use x="798.583984" xlink:href="#DejaVuSans-20"/>
     <use x="830.371094" xlink:href="#DejaVuSans-70"/>
     <use x="893.847656" xlink:href="#DejaVuSans-61"/>
     <use x="955.126953" xlink:href="#DejaVuSans-72"/>
     <use x="996.240234" xlink:href="#DejaVuSans-61"/>
     <use x="1057.519531" xlink:href="#DejaVuSans-6d"/>
     <use x="1154.931641" xlink:href="#DejaVuSans-65"/>
     <use x="1216.455078" xlink:href="#DejaVuSans-74"/>
     <use x="1255.664062" xlink:href="#DejaVuSans-65"/>
     <use x="1317.1875" xlink:href="#DejaVuSans-72"/>
    </g>
   </g>
   <g id="legend_1">
    <g id="patch_6">
     <path d="M 439.899625 74.777325 
L 548.984 74.777325 
Q 550.984 74.777325 550.984 72.777325 
L 550.984 59.0992 
Q 550.984 57.0992 548.984 57.0992 
L 439.899625 57.0992 
Q 437.899625 57.0992 437.899625 59.0992 
L 437.899625 72.777325 
Q 437.899625 74.777325 439.899625 74.777325 
z
" style="fill:#ffffff;opacity:0.8;stroke:#cccccc;stroke-linejoin:miter;"/>
    </g>
    <g id="patch_7">
     <path d="M 441.899625 68.697637 
L 461.899625 68.697637 
L 461.899625 61.697637 
L 441.899625 61.697637 
z
" style="fill:#008000;stroke:#008000;stroke-linejoin:miter;"/>
    </g>
    <g id="text_29">
     <!-- Initial condition -->
     <defs>
      <path d="M 9.8125 72.90625 
L 19.671875 72.90625 
L 19.671875 0 
L 9.8125 0 
z
" id="DejaVuSans-49"/>
      <path d="M 9.421875 75.984375 
L 18.40625 75.984375 
L 18.40625 0 
L 9.421875 0 
z
" id="DejaVuSans-6c"/>
      <path d="M 45.40625 46.390625 
L 45.40625 75.984375 
L 54.390625 75.984375 
L 54.390625 0 
L 45.40625 0 
L 45.40625 8.203125 
Q 42.578125 3.328125 38.25 0.953125 
Q 33.9375 -1.421875 27.875 -1.421875 
Q 17.96875 -1.421875 11.734375 6.484375 
Q 5.515625 14.40625 5.515625 27.296875 
Q 5.515625 40.1875 11.734375 48.09375 
Q 17.96875 56 27.875 56 
Q 33.9375 56 38.25 53.625 
Q 42.578125 51.265625 45.40625 46.390625 
z
M 14.796875 27.296875 
Q 14.796875 17.390625 18.875 11.75 
Q 22.953125 6.109375 30.078125 6.109375 
Q 37.203125 6.109375 41.296875 11.75 
Q 45.40625 17.390625 45.40625 27.296875 
Q 45.40625 37.203125 41.296875 42.84375 
Q 37.203125 48.484375 30.078125 48.484375 
Q 22.953125 48.484375 18.875 42.84375 
Q 14.796875 37.203125 14.796875 27.296875 
z
" id="DejaVuSans-64"/>
     </defs>
     <g transform="translate(469.899625 68.697637)scale(0.1 -0.1)">
      <use xlink:href="#DejaVuSans-49"/>
      <use x="29.492188" xlink:href="#DejaVuSans-6e"/>
      <use x="92.871094" xlink:href="#DejaVuSans-69"/>
      <use x="120.654297" xlink:href="#DejaVuSans-74"/>
      <use x="159.863281" xlink:href="#DejaVuSans-69"/>
      <use x="187.646484" xlink:href="#DejaVuSans-61"/>
      <use x="248.925781" xlink:href="#DejaVuSans-6c"/>
      <use x="276.708984" xlink:href="#DejaVuSans-20"/>
      <use x="308.496094" xlink:href="#DejaVuSans-63"/>
      <use x="363.476562" xlink:href="#DejaVuSans-6f"/>
      <use x="424.658203" xlink:href="#DejaVuSans-6e"/>
      <use x="488.037109" xlink:href="#DejaVuSans-64"/>
      <use x="551.513672" xlink:href="#DejaVuSans-69"/>
      <use x="579.296875" xlink:href="#DejaVuSans-74"/>
      <use x="618.505859" xlink:href="#DejaVuSans-69"/>
      <use x="646.289062" xlink:href="#DejaVuSans-6f"/>
      <use x="707.470703" xlink:href="#DejaVuSans-6e"/>
     </g>
    </g>
   </g>
  </g>
 </g>
 <defs>
  <clipPath id="p8a13fd5a49">
   <rect height="334.3032" width="478.764" x="77.22" y="52.0992"/>
  </clipPath>
 </defs>
</svg>
