<?xml version="1.0" encoding="utf-8" standalone="no"?>
<!DOCTYPE svg PUBLIC "-//W3C//DTD SVG 1.1//EN"
  "http://www.w3.org/Graphics/SVG/1.1/DTD/svg11.dtd">
<!-- Created with matplotlib (http://matplotlib.org/) -->
<svg height="444.96pt" version="1.1" viewBox="0 0 632.88 444.96" width="632.88pt" xmlns="http://www.w3.org/2000/svg" xmlns:xlink="http://www.w3.org/1999/xlink">
 <defs>
  <style type="text/css">
*{stroke-linecap:butt;stroke-linejoin:round;}
  </style>
 </defs>
 <g id="figure_1">
  <g id="patch_1">
   <path d="M 0 444.96 
L 632.88 444.96 
L 632.88 0 
L 0 0 
z
" style="fill:#ffffff;"/>
  </g>
  <g id="patch_2">
   <path d="M 79.11 396.0144 
L 569.592 396.0144 
L 569.592 53.3952 
L 79.11 53.3952 
z
" style="fill:#ffffff;"/>
  </g>
  <g id="pane3d_1">
   <g id="patch_3">
    <path d="M 141.566561 296.072745 
L 325.387817 211.937898 
L 325.035634 63.832892 
L 128.900229 144.461079 
" style="fill:#f2f2f2;opacity:0.5;stroke:#f2f2f2;stroke-linejoin:miter;"/>
   </g>
  </g>
  <g id="pane3d_2">
   <g id="patch_4">
    <path d="M 325.387817 211.937898 
L 519.731011 290.701845 
L 532.3062 139.29643 
L 325.035634 63.832892 
" style="fill:#e6e6e6;opacity:0.5;stroke:#e6e6e6;stroke-linejoin:miter;"/>
   </g>
  </g>
  <g id="pane3d_3">
   <g id="patch_5">
    <path d="M 141.566561 296.072745 
L 337.233224 384.481417 
L 519.731011 290.701845 
L 325.387817 211.937898 
" style="fill:#ececec;opacity:0.5;stroke:#ececec;stroke-linejoin:miter;"/>
   </g>
  </g>
  <g id="axis3d_1">
   <g id="line2d_1">
    <path d="M 141.566561 296.072745 
L 337.233224 384.481417 
" style="fill:none;stroke:#000000;stroke-linecap:square;stroke-width:0.8;"/>
   </g>
   <g id="text_1">
    <!-- Hunter -->
    <defs>
     <path d="M 9.8125 72.90625 
L 19.671875 72.90625 
L 19.671875 43.015625 
L 55.515625 43.015625 
L 55.515625 72.90625 
L 65.375 72.90625 
L 65.375 0 
L 55.515625 0 
L 55.515625 34.71875 
L 19.671875 34.71875 
L 19.671875 0 
L 9.8125 0 
z
" id="DejaVuSans-48"/>
     <path d="M 8.5 21.578125 
L 8.5 54.6875 
L 17.484375 54.6875 
L 17.484375 21.921875 
Q 17.484375 14.15625 20.5 10.265625 
Q 23.53125 6.390625 29.59375 6.390625 
Q 36.859375 6.390625 41.078125 11.03125 
Q 45.3125 15.671875 45.3125 23.6875 
L 45.3125 54.6875 
L 54.296875 54.6875 
L 54.296875 0 
L 45.3125 0 
L 45.3125 8.40625 
Q 42.046875 3.421875 37.71875 1 
Q 33.40625 -1.421875 27.6875 -1.421875 
Q 18.265625 -1.421875 13.375 4.4375 
Q 8.5 10.296875 8.5 21.578125 
z
M 31.109375 56 
z
" id="DejaVuSans-75"/>
     <path d="M 54.890625 33.015625 
L 54.890625 0 
L 45.90625 0 
L 45.90625 32.71875 
Q 45.90625 40.484375 42.875 44.328125 
Q 39.84375 48.1875 33.796875 48.1875 
Q 26.515625 48.1875 22.3125 43.546875 
Q 18.109375 38.921875 18.109375 30.90625 
L 18.109375 0 
L 9.078125 0 
L 9.078125 54.6875 
L 18.109375 54.6875 
L 18.109375 46.1875 
Q 21.34375 51.125 25.703125 53.5625 
Q 30.078125 56 35.796875 56 
Q 45.21875 56 50.046875 50.171875 
Q 54.890625 44.34375 54.890625 33.015625 
z
" id="DejaVuSans-6e"/>
     <path d="M 18.3125 70.21875 
L 18.3125 54.6875 
L 36.8125 54.6875 
L 36.8125 47.703125 
L 18.3125 47.703125 
L 18.3125 18.015625 
Q 18.3125 11.328125 20.140625 9.421875 
Q 21.96875 7.515625 27.59375 7.515625 
L 36.8125 7.515625 
L 36.8125 0 
L 27.59375 0 
Q 17.1875 0 13.234375 3.875 
Q 9.28125 7.765625 9.28125 18.015625 
L 9.28125 47.703125 
L 2.6875 47.703125 
L 2.6875 54.6875 
L 9.28125 54.6875 
L 9.28125 70.21875 
z
" id="DejaVuSans-74"/>
     <path d="M 56.203125 29.59375 
L 56.203125 25.203125 
L 14.890625 25.203125 
Q 15.484375 15.921875 20.484375 11.0625 
Q 25.484375 6.203125 34.421875 6.203125 
Q 39.59375 6.203125 44.453125 7.46875 
Q 49.3125 8.734375 54.109375 11.28125 
L 54.109375 2.78125 
Q 49.265625 0.734375 44.1875 -0.34375 
Q 39.109375 -1.421875 33.890625 -1.421875 
Q 20.796875 -1.421875 13.15625 6.1875 
Q 5.515625 13.8125 5.515625 26.8125 
Q 5.515625 40.234375 12.765625 48.109375 
Q 20.015625 56 32.328125 56 
Q 43.359375 56 49.78125 48.890625 
Q 56.203125 41.796875 56.203125 29.59375 
z
M 47.21875 32.234375 
Q 47.125 39.59375 43.09375 43.984375 
Q 39.0625 48.390625 32.421875 48.390625 
Q 24.90625 48.390625 20.390625 44.140625 
Q 15.875 39.890625 15.1875 32.171875 
z
" id="DejaVuSans-65"/>
     <path d="M 41.109375 46.296875 
Q 39.59375 47.171875 37.8125 47.578125 
Q 36.03125 48 33.890625 48 
Q 26.265625 48 22.1875 43.046875 
Q 18.109375 38.09375 18.109375 28.8125 
L 18.109375 0 
L 9.078125 0 
L 9.078125 54.6875 
L 18.109375 54.6875 
L 18.109375 46.1875 
Q 20.953125 51.171875 25.484375 53.578125 
Q 30.03125 56 36.53125 56 
Q 37.453125 56 38.578125 55.875 
Q 39.703125 55.765625 41.0625 55.515625 
z
" id="DejaVuSans-72"/>
    </defs>
    <g transform="translate(198.200485 361.813523)rotate(-335.684973)scale(0.1 -0.1)">
     <use xlink:href="#DejaVuSans-48"/>
     <use x="75.195312" xlink:href="#DejaVuSans-75"/>
     <use x="138.574219" xlink:href="#DejaVuSans-6e"/>
     <use x="201.953125" xlink:href="#DejaVuSans-74"/>
     <use x="241.162109" xlink:href="#DejaVuSans-65"/>
     <use x="302.685547" xlink:href="#DejaVuSans-72"/>
    </g>
   </g>
   <g id="Line3DCollection_1">
    <path d="M 145.271426 297.746726 
L 329.078948 213.43385 
L 328.95913 65.261367 
" style="fill:none;stroke:#b0b0b0;stroke-width:0.8;"/>
    <path d="M 167.288118 307.694596 
L 351.004983 222.320094 
L 352.27593 73.7506 
" style="fill:none;stroke:#b0b0b0;stroke-width:0.8;"/>
    <path d="M 189.590832 317.7717 
L 373.200091 231.315388 
L 375.897148 82.350667 
" style="fill:none;stroke:#b0b0b0;stroke-width:0.8;"/>
    <path d="M 212.185178 327.980573 
L 395.669254 240.421753 
L 399.828786 91.063752 
" style="fill:none;stroke:#b0b0b0;stroke-width:0.8;"/>
    <path d="M 235.076914 338.323817 
L 418.417582 249.641258 
L 424.077002 99.892098 
" style="fill:none;stroke:#b0b0b0;stroke-width:0.8;"/>
    <path d="M 258.27195 348.804101 
L 441.450308 258.976025 
L 448.64812 108.838006 
" style="fill:none;stroke:#b0b0b0;stroke-width:0.8;"/>
    <path d="M 281.776354 359.424169 
L 464.7728 268.428229 
L 473.548635 117.903842 
" style="fill:none;stroke:#b0b0b0;stroke-width:0.8;"/>
    <path d="M 305.596356 370.186834 
L 488.390561 278.0001 
L 498.785213 127.092033 
" style="fill:none;stroke:#b0b0b0;stroke-width:0.8;"/>
    <path d="M 329.738358 381.094989 
L 512.309233 287.693926 
L 524.364704 136.405072 
" style="fill:none;stroke:#b0b0b0;stroke-width:0.8;"/>
   </g>
   <g id="xtick_1">
    <g id="line2d_2">
     <path d="M 146.826251 297.033524 
L 142.157453 299.175111 
" style="fill:none;stroke:#000000;stroke-linecap:square;stroke-width:0.8;"/>
    </g>
    <g id="text_2">
     <!-- 0 -->
     <defs>
      <path d="M 31.78125 66.40625 
Q 24.171875 66.40625 20.328125 58.90625 
Q 16.5 51.421875 16.5 36.375 
Q 16.5 21.390625 20.328125 13.890625 
Q 24.171875 6.390625 31.78125 6.390625 
Q 39.453125 6.390625 43.28125 13.890625 
Q 47.125 21.390625 47.125 36.375 
Q 47.125 51.421875 43.28125 58.90625 
Q 39.453125 66.40625 31.78125 66.40625 
z
M 31.78125 74.21875 
Q 44.046875 74.21875 50.515625 64.515625 
Q 56.984375 54.828125 56.984375 36.375 
Q 56.984375 17.96875 50.515625 8.265625 
Q 44.046875 -1.421875 31.78125 -1.421875 
Q 19.53125 -1.421875 13.0625 8.265625 
Q 6.59375 17.96875 6.59375 36.375 
Q 6.59375 54.828125 13.0625 64.515625 
Q 19.53125 74.21875 31.78125 74.21875 
z
" id="DejaVuSans-30"/>
     </defs>
     <g transform="translate(132.403563 317.605078)scale(0.1 -0.1)">
      <use xlink:href="#DejaVuSans-30"/>
     </g>
    </g>
   </g>
   <g id="xtick_2">
    <g id="line2d_3">
     <path d="M 168.84272 306.972161 
L 164.174563 309.141486 
" style="fill:none;stroke:#000000;stroke-linecap:square;stroke-width:0.8;"/>
    </g>
    <g id="text_3">
     <!-- 1 -->
     <defs>
      <path d="M 12.40625 8.296875 
L 28.515625 8.296875 
L 28.515625 63.921875 
L 10.984375 60.40625 
L 10.984375 69.390625 
L 28.421875 72.90625 
L 38.28125 72.90625 
L 38.28125 8.296875 
L 54.390625 8.296875 
L 54.390625 0 
L 12.40625 0 
z
" id="DejaVuSans-31"/>
     </defs>
     <g transform="translate(154.35202 327.629457)scale(0.1 -0.1)">
      <use xlink:href="#DejaVuSans-31"/>
     </g>
    </g>
   </g>
   <g id="xtick_3">
    <g id="line2d_4">
     <path d="M 191.145074 317.039852 
L 186.47797 319.237457 
" style="fill:none;stroke:#000000;stroke-linecap:square;stroke-width:0.8;"/>
    </g>
    <g id="text_4">
     <!-- 2 -->
     <defs>
      <path d="M 19.1875 8.296875 
L 53.609375 8.296875 
L 53.609375 0 
L 7.328125 0 
L 7.328125 8.296875 
Q 12.9375 14.109375 22.625 23.890625 
Q 32.328125 33.6875 34.8125 36.53125 
Q 39.546875 41.84375 41.421875 45.53125 
Q 43.3125 49.21875 43.3125 52.78125 
Q 43.3125 58.59375 39.234375 62.25 
Q 35.15625 65.921875 28.609375 65.921875 
Q 23.96875 65.921875 18.8125 64.3125 
Q 13.671875 62.703125 7.8125 59.421875 
L 7.8125 69.390625 
Q 13.765625 71.78125 18.9375 73 
Q 24.125 74.21875 28.421875 74.21875 
Q 39.75 74.21875 46.484375 68.546875 
Q 53.21875 62.890625 53.21875 53.421875 
Q 53.21875 48.921875 51.53125 44.890625 
Q 49.859375 40.875 45.40625 35.40625 
Q 44.1875 33.984375 37.640625 27.21875 
Q 31.109375 20.453125 19.1875 8.296875 
z
" id="DejaVuSans-32"/>
     </defs>
     <g transform="translate(176.585538 337.784029)scale(0.1 -0.1)">
      <use xlink:href="#DejaVuSans-32"/>
     </g>
    </g>
   </g>
   <g id="xtick_4">
    <g id="line2d_5">
     <path d="M 213.738918 327.239126 
L 209.073293 329.465568 
" style="fill:none;stroke:#000000;stroke-linecap:square;stroke-width:0.8;"/>
    </g>
    <g id="text_5">
     <!-- 3 -->
     <defs>
      <path d="M 40.578125 39.3125 
Q 47.65625 37.796875 51.625 33 
Q 55.609375 28.21875 55.609375 21.1875 
Q 55.609375 10.40625 48.1875 4.484375 
Q 40.765625 -1.421875 27.09375 -1.421875 
Q 22.515625 -1.421875 17.65625 -0.515625 
Q 12.796875 0.390625 7.625 2.203125 
L 7.625 11.71875 
Q 11.71875 9.328125 16.59375 8.109375 
Q 21.484375 6.890625 26.8125 6.890625 
Q 36.078125 6.890625 40.9375 10.546875 
Q 45.796875 14.203125 45.796875 21.1875 
Q 45.796875 27.640625 41.28125 31.265625 
Q 36.765625 34.90625 28.71875 34.90625 
L 20.21875 34.90625 
L 20.21875 43.015625 
L 29.109375 43.015625 
Q 36.375 43.015625 40.234375 45.921875 
Q 44.09375 48.828125 44.09375 54.296875 
Q 44.09375 59.90625 40.109375 62.90625 
Q 36.140625 65.921875 28.71875 65.921875 
Q 24.65625 65.921875 20.015625 65.03125 
Q 15.375 64.15625 9.8125 62.3125 
L 9.8125 71.09375 
Q 15.4375 72.65625 20.34375 73.4375 
Q 25.25 74.21875 29.59375 74.21875 
Q 40.828125 74.21875 47.359375 69.109375 
Q 53.90625 64.015625 53.90625 55.328125 
Q 53.90625 49.265625 50.4375 45.09375 
Q 46.96875 40.921875 40.578125 39.3125 
z
" id="DejaVuSans-33"/>
     </defs>
     <g transform="translate(199.109707 348.071348)scale(0.1 -0.1)">
      <use xlink:href="#DejaVuSans-33"/>
     </g>
    </g>
   </g>
   <g id="xtick_5">
    <g id="line2d_6">
     <path d="M 236.630004 337.572581 
L 231.966302 339.828431 
" style="fill:none;stroke:#000000;stroke-linecap:square;stroke-width:0.8;"/>
    </g>
    <g id="text_6">
     <!-- 4 -->
     <defs>
      <path d="M 37.796875 64.3125 
L 12.890625 25.390625 
L 37.796875 25.390625 
z
M 35.203125 72.90625 
L 47.609375 72.90625 
L 47.609375 25.390625 
L 58.015625 25.390625 
L 58.015625 17.1875 
L 47.609375 17.1875 
L 47.609375 0 
L 37.796875 0 
L 37.796875 17.1875 
L 4.890625 17.1875 
L 4.890625 26.703125 
z
" id="DejaVuSans-34"/>
     </defs>
     <g transform="translate(221.930263 358.494035)scale(0.1 -0.1)">
      <use xlink:href="#DejaVuSans-34"/>
     </g>
    </g>
   </g>
   <g id="xtick_6">
    <g id="line2d_7">
     <path d="M 259.824236 348.042882 
L 255.162918 350.328726 
" style="fill:none;stroke:#000000;stroke-linecap:square;stroke-width:0.8;"/>
    </g>
    <g id="text_7">
     <!-- 5 -->
     <defs>
      <path d="M 10.796875 72.90625 
L 49.515625 72.90625 
L 49.515625 64.59375 
L 19.828125 64.59375 
L 19.828125 46.734375 
Q 21.96875 47.46875 24.109375 47.828125 
Q 26.265625 48.1875 28.421875 48.1875 
Q 40.625 48.1875 47.75 41.5 
Q 54.890625 34.8125 54.890625 23.390625 
Q 54.890625 11.625 47.5625 5.09375 
Q 40.234375 -1.421875 26.90625 -1.421875 
Q 22.3125 -1.421875 17.546875 -0.640625 
Q 12.796875 0.140625 7.71875 1.703125 
L 7.71875 11.625 
Q 12.109375 9.234375 16.796875 8.0625 
Q 21.484375 6.890625 26.703125 6.890625 
Q 35.15625 6.890625 40.078125 11.328125 
Q 45.015625 15.765625 45.015625 23.390625 
Q 45.015625 31 40.078125 35.4375 
Q 35.15625 39.890625 26.703125 39.890625 
Q 22.75 39.890625 18.8125 39.015625 
Q 14.890625 38.140625 10.796875 36.28125 
z
" id="DejaVuSans-35"/>
     </defs>
     <g transform="translate(245.053095 369.054778)scale(0.1 -0.1)">
      <use xlink:href="#DejaVuSans-35"/>
     </g>
    </g>
   </g>
   <g id="xtick_7">
    <g id="line2d_8">
     <path d="M 283.327677 358.652765 
L 278.669221 360.969206 
" style="fill:none;stroke:#000000;stroke-linecap:square;stroke-width:0.8;"/>
    </g>
    <g id="text_8">
     <!-- 6 -->
     <defs>
      <path d="M 33.015625 40.375 
Q 26.375 40.375 22.484375 35.828125 
Q 18.609375 31.296875 18.609375 23.390625 
Q 18.609375 15.53125 22.484375 10.953125 
Q 26.375 6.390625 33.015625 6.390625 
Q 39.65625 6.390625 43.53125 10.953125 
Q 47.40625 15.53125 47.40625 23.390625 
Q 47.40625 31.296875 43.53125 35.828125 
Q 39.65625 40.375 33.015625 40.375 
z
M 52.59375 71.296875 
L 52.59375 62.3125 
Q 48.875 64.0625 45.09375 64.984375 
Q 41.3125 65.921875 37.59375 65.921875 
Q 27.828125 65.921875 22.671875 59.328125 
Q 17.53125 52.734375 16.796875 39.40625 
Q 19.671875 43.65625 24.015625 45.921875 
Q 28.375 48.1875 33.59375 48.1875 
Q 44.578125 48.1875 50.953125 41.515625 
Q 57.328125 34.859375 57.328125 23.390625 
Q 57.328125 12.15625 50.6875 5.359375 
Q 44.046875 -1.421875 33.015625 -1.421875 
Q 20.359375 -1.421875 13.671875 8.265625 
Q 6.984375 17.96875 6.984375 36.375 
Q 6.984375 53.65625 15.1875 63.9375 
Q 23.390625 74.21875 37.203125 74.21875 
Q 40.921875 74.21875 44.703125 73.484375 
Q 48.484375 72.75 52.59375 71.296875 
z
" id="DejaVuSans-36"/>
     </defs>
     <g transform="translate(268.484249 379.756339)scale(0.1 -0.1)">
      <use xlink:href="#DejaVuSans-36"/>
     </g>
    </g>
   </g>
   <g id="xtick_8">
    <g id="line2d_9">
     <path d="M 307.146551 369.40504 
L 302.491455 371.752697 
" style="fill:none;stroke:#000000;stroke-linecap:square;stroke-width:0.8;"/>
    </g>
    <g id="text_9">
     <!-- 7 -->
     <defs>
      <path d="M 8.203125 72.90625 
L 55.078125 72.90625 
L 55.078125 68.703125 
L 28.609375 0 
L 18.3125 0 
L 43.21875 64.59375 
L 8.203125 64.59375 
z
" id="DejaVuSans-37"/>
     </defs>
     <g transform="translate(292.229933 390.601553)scale(0.1 -0.1)">
      <use xlink:href="#DejaVuSans-37"/>
     </g>
    </g>
   </g>
   <g id="xtick_9">
    <g id="line2d_10">
     <path d="M 331.287251 380.302594 
L 326.636032 382.682101 
" style="fill:none;stroke:#000000;stroke-linecap:square;stroke-width:0.8;"/>
    </g>
    <g id="text_10">
     <!-- 8 -->
     <defs>
      <path d="M 31.78125 34.625 
Q 24.75 34.625 20.71875 30.859375 
Q 16.703125 27.09375 16.703125 20.515625 
Q 16.703125 13.921875 20.71875 10.15625 
Q 24.75 6.390625 31.78125 6.390625 
Q 38.8125 6.390625 42.859375 10.171875 
Q 46.921875 13.96875 46.921875 20.515625 
Q 46.921875 27.09375 42.890625 30.859375 
Q 38.875 34.625 31.78125 34.625 
z
M 21.921875 38.8125 
Q 15.578125 40.375 12.03125 44.71875 
Q 8.5 49.078125 8.5 55.328125 
Q 8.5 64.0625 14.71875 69.140625 
Q 20.953125 74.21875 31.78125 74.21875 
Q 42.671875 74.21875 48.875 69.140625 
Q 55.078125 64.0625 55.078125 55.328125 
Q 55.078125 49.078125 51.53125 44.71875 
Q 48 40.375 41.703125 38.8125 
Q 48.828125 37.15625 52.796875 32.3125 
Q 56.78125 27.484375 56.78125 20.515625 
Q 56.78125 9.90625 50.3125 4.234375 
Q 43.84375 -1.421875 31.78125 -1.421875 
Q 19.734375 -1.421875 13.25 4.234375 
Q 6.78125 9.90625 6.78125 20.515625 
Q 6.78125 27.484375 10.78125 32.3125 
Q 14.796875 37.15625 21.921875 38.8125 
z
M 18.3125 54.390625 
Q 18.3125 48.734375 21.84375 45.5625 
Q 25.390625 42.390625 31.78125 42.390625 
Q 38.140625 42.390625 41.71875 45.5625 
Q 45.3125 48.734375 45.3125 54.390625 
Q 45.3125 60.0625 41.71875 63.234375 
Q 38.140625 66.40625 31.78125 66.40625 
Q 25.390625 66.40625 21.84375 63.234375 
Q 18.3125 60.0625 18.3125 54.390625 
z
" id="DejaVuSans-38"/>
     </defs>
     <g transform="translate(316.296523 401.593333)scale(0.1 -0.1)">
      <use xlink:href="#DejaVuSans-38"/>
     </g>
    </g>
   </g>
  </g>
  <g id="axis3d_2">
   <g id="line2d_11">
    <path d="M 519.731011 290.701845 
L 337.233224 384.481417 
" style="fill:none;stroke:#000000;stroke-linecap:square;stroke-width:0.8;"/>
   </g>
   <g id="text_11">
    <!-- Prey -->
    <defs>
     <path d="M 19.671875 64.796875 
L 19.671875 37.40625 
L 32.078125 37.40625 
Q 38.96875 37.40625 42.71875 40.96875 
Q 46.484375 44.53125 46.484375 51.125 
Q 46.484375 57.671875 42.71875 61.234375 
Q 38.96875 64.796875 32.078125 64.796875 
z
M 9.8125 72.90625 
L 32.078125 72.90625 
Q 44.34375 72.90625 50.609375 67.359375 
Q 56.890625 61.8125 56.890625 51.125 
Q 56.890625 40.328125 50.609375 34.8125 
Q 44.34375 29.296875 32.078125 29.296875 
L 19.671875 29.296875 
L 19.671875 0 
L 9.8125 0 
z
" id="DejaVuSans-50"/>
     <path d="M 32.171875 -5.078125 
Q 28.375 -14.84375 24.75 -17.8125 
Q 21.140625 -20.796875 15.09375 -20.796875 
L 7.90625 -20.796875 
L 7.90625 -13.28125 
L 13.1875 -13.28125 
Q 16.890625 -13.28125 18.9375 -11.515625 
Q 21 -9.765625 23.484375 -3.21875 
L 25.09375 0.875 
L 2.984375 54.6875 
L 12.5 54.6875 
L 29.59375 11.921875 
L 46.6875 54.6875 
L 56.203125 54.6875 
z
" id="DejaVuSans-79"/>
    </defs>
    <g transform="translate(443.056504 365.582108)scale(0.1 -0.1)">
     <use xlink:href="#DejaVuSans-50"/>
     <use x="60.287109" xlink:href="#DejaVuSans-72"/>
     <use x="101.369141" xlink:href="#DejaVuSans-65"/>
     <use x="162.892578" xlink:href="#DejaVuSans-79"/>
    </g>
   </g>
   <g id="Line3DCollection_2">
    <path d="M 133.059701 142.751185 
L 145.450992 294.294844 
L 341.101531 382.493622 
" style="fill:none;stroke:#b0b0b0;stroke-width:0.8;"/>
    <path d="M 157.802923 132.579635 
L 168.570499 283.713064 
L 364.114462 370.668039 
" style="fill:none;stroke:#b0b0b0;stroke-width:0.8;"/>
    <path d="M 182.185733 122.556245 
L 191.374041 273.2759 
L 386.795109 359.013205 
" style="fill:none;stroke:#b0b0b0;stroke-width:0.8;"/>
    <path d="M 206.215949 112.6778 
L 213.868052 262.980409 
L 409.150618 347.525449 
" style="fill:none;stroke:#b0b0b0;stroke-width:0.8;"/>
    <path d="M 229.901165 102.941179 
L 236.058791 252.823725 
L 431.18793 336.201204 
" style="fill:none;stroke:#b0b0b0;stroke-width:0.8;"/>
    <path d="M 253.248758 93.34335 
L 257.95235 242.803059 
L 452.91379 325.037003 
" style="fill:none;stroke:#b0b0b0;stroke-width:0.8;"/>
    <path d="M 276.265895 83.881366 
L 279.554661 232.915698 
L 474.334756 314.029478 
" style="fill:none;stroke:#b0b0b0;stroke-width:0.8;"/>
    <path d="M 298.959542 74.552364 
L 300.871495 223.159 
L 495.4572 303.175353 
" style="fill:none;stroke:#b0b0b0;stroke-width:0.8;"/>
    <path d="M 321.336473 65.353559 
L 321.908476 213.53039 
L 516.287319 292.471444 
" style="fill:none;stroke:#b0b0b0;stroke-width:0.8;"/>
   </g>
   <g id="xtick_10">
    <g id="line2d_12">
     <path d="M 339.447326 381.747911 
L 344.414499 383.9871 
" style="fill:none;stroke:#000000;stroke-linecap:square;stroke-width:0.8;"/>
    </g>
    <g id="text_12">
     <!-- 0.0 -->
     <defs>
      <path d="M 10.6875 12.40625 
L 21 12.40625 
L 21 0 
L 10.6875 0 
z
" id="DejaVuSans-2e"/>
     </defs>
     <g transform="translate(344.074862 402.681646)scale(0.1 -0.1)">
      <use xlink:href="#DejaVuSans-30"/>
      <use x="63.623047" xlink:href="#DejaVuSans-2e"/>
      <use x="95.410156" xlink:href="#DejaVuSans-30"/>
     </g>
    </g>
   </g>
   <g id="xtick_11">
    <g id="line2d_13">
     <path d="M 362.461804 369.933131 
L 367.424298 372.139865 
" style="fill:none;stroke:#000000;stroke-linecap:square;stroke-width:0.8;"/>
    </g>
    <g id="text_13">
     <!-- 2.5 -->
     <g transform="translate(366.997671 390.770059)scale(0.1 -0.1)">
      <use xlink:href="#DejaVuSans-32"/>
      <use x="63.623047" xlink:href="#DejaVuSans-2e"/>
      <use x="95.410156" xlink:href="#DejaVuSans-35"/>
     </g>
    </g>
   </g>
   <g id="xtick_12">
    <g id="line2d_14">
     <path d="M 385.144127 358.288868 
L 390.101557 360.463846 
" style="fill:none;stroke:#000000;stroke-linecap:square;stroke-width:0.8;"/>
    </g>
    <g id="text_14">
     <!-- 5.0 -->
     <g transform="translate(389.58965 379.030384)scale(0.1 -0.1)">
      <use xlink:href="#DejaVuSans-35"/>
      <use x="63.623047" xlink:href="#DejaVuSans-2e"/>
      <use x="95.410156" xlink:href="#DejaVuSans-30"/>
     </g>
    </g>
   </g>
   <g id="xtick_13">
    <g id="line2d_15">
     <path d="M 407.501433 346.811456 
L 412.453433 348.95536 
" style="fill:none;stroke:#000000;stroke-linecap:square;stroke-width:0.8;"/>
    </g>
    <g id="text_15">
     <!-- 7.5 -->
     <g transform="translate(411.85791 367.458925)scale(0.1 -0.1)">
      <use xlink:href="#DejaVuSans-37"/>
      <use x="63.623047" xlink:href="#DejaVuSans-2e"/>
      <use x="95.410156" xlink:href="#DejaVuSans-35"/>
     </g>
    </g>
   </g>
   <g id="xtick_14">
    <g id="line2d_16">
     <path d="M 429.540658 335.497335 
L 434.486881 337.610826 
" style="fill:none;stroke:#000000;stroke-linecap:square;stroke-width:0.8;"/>
    </g>
    <g id="text_16">
     <!-- 10.0 -->
     <g transform="translate(430.62811 356.052094)scale(0.1 -0.1)">
      <use xlink:href="#DejaVuSans-31"/>
      <use x="63.623047" xlink:href="#DejaVuSans-30"/>
      <use x="127.246094" xlink:href="#DejaVuSans-2e"/>
      <use x="159.033203" xlink:href="#DejaVuSans-30"/>
     </g>
    </g>
   </g>
   <g id="xtick_15">
    <g id="line2d_17">
     <path d="M 451.268543 324.343045 
L 456.208657 326.426765 
" style="fill:none;stroke:#000000;stroke-linecap:square;stroke-width:0.8;"/>
    </g>
    <g id="text_17">
     <!-- 12.5 -->
     <g transform="translate(452.269462 344.806402)scale(0.1 -0.1)">
      <use xlink:href="#DejaVuSans-31"/>
      <use x="63.623047" xlink:href="#DejaVuSans-32"/>
      <use x="127.246094" xlink:href="#DejaVuSans-2e"/>
      <use x="159.033203" xlink:href="#DejaVuSans-35"/>
     </g>
    </g>
   </g>
   <g id="xtick_16">
    <g id="line2d_18">
     <path d="M 472.691639 313.345222 
L 477.625326 315.399796 
" style="fill:none;stroke:#000000;stroke-linecap:square;stroke-width:0.8;"/>
    </g>
    <g id="text_18">
     <!-- 15.0 -->
     <g transform="translate(473.607242 333.718458)scale(0.1 -0.1)">
      <use xlink:href="#DejaVuSans-31"/>
      <use x="63.623047" xlink:href="#DejaVuSans-35"/>
      <use x="127.246094" xlink:href="#DejaVuSans-2e"/>
      <use x="159.033203" xlink:href="#DejaVuSans-30"/>
     </g>
    </g>
   </g>
   <g id="xtick_17">
    <g id="line2d_19">
     <path d="M 493.816313 302.500598 
L 498.743273 304.526632 
" style="fill:none;stroke:#000000;stroke-linecap:square;stroke-width:0.8;"/>
    </g>
    <g id="text_19">
     <!-- 17.5 -->
     <g transform="translate(494.647792 322.784966)scale(0.1 -0.1)">
      <use xlink:href="#DejaVuSans-31"/>
      <use x="63.623047" xlink:href="#DejaVuSans-37"/>
      <use x="127.246094" xlink:href="#DejaVuSans-2e"/>
      <use x="159.033203" xlink:href="#DejaVuSans-35"/>
     </g>
    </g>
   </g>
   <g id="xtick_18">
    <g id="line2d_20">
     <path d="M 514.648759 291.805992 
L 519.568705 293.804079 
" style="fill:none;stroke:#000000;stroke-linecap:square;stroke-width:0.8;"/>
    </g>
    <g id="text_20">
     <!-- 20.0 -->
     <g transform="translate(515.397281 312.002721)scale(0.1 -0.1)">
      <use xlink:href="#DejaVuSans-32"/>
      <use x="63.623047" xlink:href="#DejaVuSans-30"/>
      <use x="127.246094" xlink:href="#DejaVuSans-2e"/>
      <use x="159.033203" xlink:href="#DejaVuSans-30"/>
     </g>
    </g>
   </g>
  </g>
  <g id="axis3d_3">
   <g id="line2d_21">
    <path d="M 519.731011 290.701845 
L 532.3062 139.29643 
" style="fill:none;stroke:#000000;stroke-linecap:square;stroke-width:0.8;"/>
   </g>
   <g id="text_21">
    <!-- Parameter -->
    <defs>
     <path d="M 34.28125 27.484375 
Q 23.390625 27.484375 19.1875 25 
Q 14.984375 22.515625 14.984375 16.5 
Q 14.984375 11.71875 18.140625 8.90625 
Q 21.296875 6.109375 26.703125 6.109375 
Q 34.1875 6.109375 38.703125 11.40625 
Q 43.21875 16.703125 43.21875 25.484375 
L 43.21875 27.484375 
z
M 52.203125 31.203125 
L 52.203125 0 
L 43.21875 0 
L 43.21875 8.296875 
Q 40.140625 3.328125 35.546875 0.953125 
Q 30.953125 -1.421875 24.3125 -1.421875 
Q 15.921875 -1.421875 10.953125 3.296875 
Q 6 8.015625 6 15.921875 
Q 6 25.140625 12.171875 29.828125 
Q 18.359375 34.515625 30.609375 34.515625 
L 43.21875 34.515625 
L 43.21875 35.40625 
Q 43.21875 41.609375 39.140625 45 
Q 35.0625 48.390625 27.6875 48.390625 
Q 23 48.390625 18.546875 47.265625 
Q 14.109375 46.140625 10.015625 43.890625 
L 10.015625 52.203125 
Q 14.9375 54.109375 19.578125 55.046875 
Q 24.21875 56 28.609375 56 
Q 40.484375 56 46.34375 49.84375 
Q 52.203125 43.703125 52.203125 31.203125 
z
" id="DejaVuSans-61"/>
     <path d="M 52 44.1875 
Q 55.375 50.25 60.0625 53.125 
Q 64.75 56 71.09375 56 
Q 79.640625 56 84.28125 50.015625 
Q 88.921875 44.046875 88.921875 33.015625 
L 88.921875 0 
L 79.890625 0 
L 79.890625 32.71875 
Q 79.890625 40.578125 77.09375 44.375 
Q 74.3125 48.1875 68.609375 48.1875 
Q 61.625 48.1875 57.5625 43.546875 
Q 53.515625 38.921875 53.515625 30.90625 
L 53.515625 0 
L 44.484375 0 
L 44.484375 32.71875 
Q 44.484375 40.625 41.703125 44.40625 
Q 38.921875 48.1875 33.109375 48.1875 
Q 26.21875 48.1875 22.15625 43.53125 
Q 18.109375 38.875 18.109375 30.90625 
L 18.109375 0 
L 9.078125 0 
L 9.078125 54.6875 
L 18.109375 54.6875 
L 18.109375 46.1875 
Q 21.1875 51.21875 25.484375 53.609375 
Q 29.78125 56 35.6875 56 
Q 41.65625 56 45.828125 52.96875 
Q 50 49.953125 52 44.1875 
z
" id="DejaVuSans-6d"/>
    </defs>
    <g transform="translate(571.197833 243.206382)rotate(-85.252116)scale(0.1 -0.1)">
     <use xlink:href="#DejaVuSans-50"/>
     <use x="60.240234" xlink:href="#DejaVuSans-61"/>
     <use x="121.519531" xlink:href="#DejaVuSans-72"/>
     <use x="162.632812" xlink:href="#DejaVuSans-61"/>
     <use x="223.912109" xlink:href="#DejaVuSans-6d"/>
     <use x="321.324219" xlink:href="#DejaVuSans-65"/>
     <use x="382.847656" xlink:href="#DejaVuSans-74"/>
     <use x="422.056641" xlink:href="#DejaVuSans-65"/>
     <use x="483.580078" xlink:href="#DejaVuSans-72"/>
    </g>
   </g>
   <g id="Line3DCollection_3">
    <path d="M 520.726571 278.715288 
L 325.359848 200.175715 
L 140.564 284.072437 
" style="fill:none;stroke:#b0b0b0;stroke-width:0.8;"/>
    <path d="M 522.263974 260.204948 
L 325.316685 182.02437 
L 139.015715 265.539991 
" style="fill:none;stroke:#b0b0b0;stroke-width:0.8;"/>
    <path d="M 523.826493 241.392202 
L 325.272854 163.592019 
L 137.442045 246.703696 
" style="fill:none;stroke:#b0b0b0;stroke-width:0.8;"/>
    <path d="M 525.414749 222.26958 
L 325.22834 144.872088 
L 135.84236 227.556017 
" style="fill:none;stroke:#b0b0b0;stroke-width:0.8;"/>
    <path d="M 527.029383 202.829361 
L 325.183125 125.857791 
L 134.216011 208.089169 
" style="fill:none;stroke:#b0b0b0;stroke-width:0.8;"/>
    <path d="M 528.671059 183.063567 
L 325.137194 106.542132 
L 132.562324 188.295105 
" style="fill:none;stroke:#b0b0b0;stroke-width:0.8;"/>
    <path d="M 530.340461 162.96395 
L 325.090529 86.917888 
L 130.880605 168.165504 
" style="fill:none;stroke:#b0b0b0;stroke-width:0.8;"/>
    <path d="M 532.038297 142.521982 
L 325.043112 66.977606 
L 129.170135 147.691762 
" style="fill:none;stroke:#b0b0b0;stroke-width:0.8;"/>
   </g>
   <g id="xtick_19">
    <g id="line2d_22">
     <path d="M 519.079338 278.053082 
L 524.025343 280.04143 
" style="fill:none;stroke:#000000;stroke-linecap:square;stroke-width:0.8;"/>
    </g>
    <g id="text_22">
     <!-- 3 -->
     <g transform="translate(537.622117 286.030809)scale(0.1 -0.1)">
      <use xlink:href="#DejaVuSans-33"/>
     </g>
    </g>
   </g>
   <g id="xtick_20">
    <g id="line2d_23">
     <path d="M 520.602725 259.545495 
L 525.590847 261.52559 
" style="fill:none;stroke:#000000;stroke-linecap:square;stroke-width:0.8;"/>
    </g>
    <g id="text_23">
     <!-- 4 -->
     <g transform="translate(539.32187 267.521644)scale(0.1 -0.1)">
      <use xlink:href="#DejaVuSans-34"/>
     </g>
    </g>
   </g>
   <g id="xtick_21">
    <g id="line2d_24">
     <path d="M 522.15099 240.735682 
L 527.181949 242.706986 
" style="fill:none;stroke:#000000;stroke-linecap:square;stroke-width:0.8;"/>
    </g>
    <g id="text_24">
     <!-- 5 -->
     <g transform="translate(541.049387 248.710151)scale(0.1 -0.1)">
      <use xlink:href="#DejaVuSans-35"/>
     </g>
    </g>
   </g>
   <g id="xtick_22">
    <g id="line2d_25">
     <path d="M 523.724745 221.616179 
L 528.799282 223.578132 
" style="fill:none;stroke:#000000;stroke-linecap:square;stroke-width:0.8;"/>
    </g>
    <g id="text_25">
     <!-- 6 -->
     <g transform="translate(542.805354 229.588861)scale(0.1 -0.1)">
      <use xlink:href="#DejaVuSans-36"/>
     </g>
    </g>
   </g>
   <g id="xtick_23">
    <g id="line2d_26">
     <path d="M 525.324626 202.179273 
L 530.443501 204.131293 
" style="fill:none;stroke:#000000;stroke-linecap:square;stroke-width:0.8;"/>
    </g>
    <g id="text_26">
     <!-- 7 -->
     <g transform="translate(544.590479 210.150057)scale(0.1 -0.1)">
      <use xlink:href="#DejaVuSans-37"/>
     </g>
    </g>
   </g>
   <g id="xtick_24">
    <g id="line2d_27">
     <path d="M 526.951289 182.416995 
L 532.115282 184.358471 
" style="fill:none;stroke:#000000;stroke-linecap:square;stroke-width:0.8;"/>
    </g>
    <g id="text_27">
     <!-- 8 -->
     <g transform="translate(546.405494 190.385764)scale(0.1 -0.1)">
      <use xlink:href="#DejaVuSans-38"/>
     </g>
    </g>
   </g>
   <g id="xtick_25">
    <g id="line2d_28">
     <path d="M 528.605412 162.321107 
L 533.815323 164.251403 
" style="fill:none;stroke:#000000;stroke-linecap:square;stroke-width:0.8;"/>
    </g>
    <g id="text_28">
     <!-- 9 -->
     <defs>
      <path d="M 10.984375 1.515625 
L 10.984375 10.5 
Q 14.703125 8.734375 18.5 7.8125 
Q 22.3125 6.890625 25.984375 6.890625 
Q 35.75 6.890625 40.890625 13.453125 
Q 46.046875 20.015625 46.78125 33.40625 
Q 43.953125 29.203125 39.59375 26.953125 
Q 35.25 24.703125 29.984375 24.703125 
Q 19.046875 24.703125 12.671875 31.3125 
Q 6.296875 37.9375 6.296875 49.421875 
Q 6.296875 60.640625 12.9375 67.421875 
Q 19.578125 74.21875 30.609375 74.21875 
Q 43.265625 74.21875 49.921875 64.515625 
Q 56.59375 54.828125 56.59375 36.375 
Q 56.59375 19.140625 48.40625 8.859375 
Q 40.234375 -1.421875 26.421875 -1.421875 
Q 22.703125 -1.421875 18.890625 -0.6875 
Q 15.09375 0.046875 10.984375 1.515625 
z
M 30.609375 32.421875 
Q 37.25 32.421875 41.125 36.953125 
Q 45.015625 41.5 45.015625 49.421875 
Q 45.015625 57.28125 41.125 61.84375 
Q 37.25 66.40625 30.609375 66.40625 
Q 23.96875 66.40625 20.09375 61.84375 
Q 16.21875 57.28125 16.21875 49.421875 
Q 16.21875 41.5 20.09375 36.953125 
Q 23.96875 32.421875 30.609375 32.421875 
z
" id="DejaVuSans-39"/>
     </defs>
     <g transform="translate(548.251157 170.28774)scale(0.1 -0.1)">
      <use xlink:href="#DejaVuSans-39"/>
     </g>
    </g>
   </g>
   <g id="xtick_26">
    <g id="line2d_29">
     <path d="M 530.287696 141.883087 
L 535.544347 143.80154 
" style="fill:none;stroke:#000000;stroke-linecap:square;stroke-width:0.8;"/>
    </g>
    <g id="text_29">
     <!-- 10 -->
     <g transform="translate(546.947001 149.847458)scale(0.1 -0.1)">
      <use xlink:href="#DejaVuSans-31"/>
      <use x="63.623047" xlink:href="#DejaVuSans-30"/>
     </g>
    </g>
   </g>
  </g>
  <g id="axes_1">
   <g id="line2d_30">
    <path clip-path="url(#p5a3cc239e2)" d="M 438.120714 257.849517 
L 324.804315 313.78774 
L 303.983994 324.132833 
L 297.1603 327.354326 
L 292.354238 329.444904 
L 288.627516 330.882615 
L 285.537953 331.89817 
L 282.849274 332.618649 
L 279.28252 333.306221 
L 276.055403 333.652983 
L 273.028432 333.74956 
L 270.123919 333.653425 
L 266.367854 333.291588 
L 262.696775 332.720599 
L 258.193495 331.781625 
L 252.906871 330.409721 
L 247.771395 328.850667 
L 242.02657 326.883056 
L 235.874776 324.536923 
L 230.256773 322.17326 
L 224.664013 319.571147 
L 220.384754 317.352583 
L 216.765581 315.246 
L 213.781802 313.262248 
L 211.3778 311.4066 
L 209.262922 309.476643 
L 207.475638 307.534139 
L 205.249398 304.728984 
L 203.223476 302.281272 
L 201.586619 300.662843 
L 199.67364 299.099578 
L 197.007145 297.236572 
L 192.464808 294.378771 
L 183.956109 289.31756 
L 172.130097 282.550944 
L 172.0769 282.520994 
L 172.0769 282.520994 
" style="fill:none;stroke:#000000;stroke-linecap:square;stroke-width:1.5;"/>
   </g>
   <g id="line2d_31">
    <path clip-path="url(#p5a3cc239e2)" d="M 438.826052 242.672347 
L 369.38757 276.628184 
L 325.479154 298.461026 
L 307.230916 307.533225 
L 300.111823 310.871658 
L 295.111838 312.987658 
L 291.214759 314.402448 
L 287.952089 315.364943 
L 285.079098 316.011272 
L 281.623165 316.518351 
L 278.43238 316.725636 
L 275.406594 316.706735 
L 271.774872 316.438185 
L 268.260944 315.957728 
L 264.168964 315.166238 
L 259.560923 314.01997 
L 255.151533 312.700642 
L 250.399819 311.050818 
L 245.486992 309.089219 
L 241.096908 307.082411 
L 237.272267 305.081958 
L 234.023947 303.125489 
L 231.328573 301.240655 
L 229.130888 299.448471 
L 227.175271 297.585667 
L 225.19544 295.391316 
L 220.411365 289.873163 
L 218.464596 288.113502 
L 216.027209 286.231476 
L 212.507148 283.822517 
L 206.524977 280.030038 
L 197.454163 274.554481 
L 185.709025 267.734492 
L 178.712656 263.769403 
L 178.712656 263.769403 
" style="fill:none;stroke:#1a1a1a;stroke-linecap:square;stroke-width:1.5;"/>
   </g>
   <g id="line2d_32">
    <path clip-path="url(#p5a3cc239e2)" d="M 439.540739 227.294024 
L 363.188699 264.477775 
L 332.210316 279.900925 
L 308.526311 291.736215 
L 302.240038 294.639046 
L 297.691313 296.494838 
L 294.070319 297.726578 
L 290.992191 298.545456 
L 288.253278 299.070624 
L 285.135311 299.423431 
L 282.24156 299.52196 
L 278.969855 299.386469 
L 275.860912 299.038148 
L 272.404239 298.426106 
L 268.664895 297.521973 
L 264.736687 296.316117 
L 261.127845 294.973732 
L 257.522948 293.384147 
L 254.36354 291.744597 
L 251.647484 290.098851 
L 249.139513 288.322771 
L 246.901678 286.467096 
L 244.671549 284.316898 
L 241.112361 280.478892 
L 238.611941 277.97548 
L 236.275147 275.958914 
L 233.36829 273.756181 
L 229.085016 270.813693 
L 222.423926 266.529383 
L 213.406726 261.004438 
L 202.005652 254.289099 
L 188.037188 246.327808 
L 185.406698 244.85332 
L 185.406698 244.85332 
" style="fill:none;stroke:#333333;stroke-linecap:square;stroke-width:1.5;"/>
   </g>
   <g id="line2d_33">
    <path clip-path="url(#p5a3cc239e2)" d="M 440.264961 211.710521 
L 375.849371 242.85708 
L 343.837858 258.697553 
L 305.919913 277.666402 
L 301.829812 279.364359 
L 298.579344 280.488484 
L 295.830942 281.228984 
L 292.948464 281.762043 
L 290.363895 282.012886 
L 287.606027 282.042845 
L 285.054119 281.859676 
L 282.341386 281.453656 
L 279.519133 280.809266 
L 276.652803 279.92485 
L 273.821193 278.812629 
L 271.10869 277.498636 
L 268.59104 276.02206 
L 266.318125 274.433287 
L 264.058643 272.577621 
L 261.429825 270.102362 
L 256.704952 265.601642 
L 253.847228 263.252862 
L 250.183879 260.552142 
L 244.858567 256.923309 
L 237.505329 252.192495 
L 228.093995 246.4116 
L 216.490679 239.553607 
L 202.492743 231.545964 
L 196.273027 228.057774 
L 196.273027 228.057774 
" style="fill:none;stroke:#4d4d4d;stroke-linecap:square;stroke-width:1.5;"/>
   </g>
   <g id="line2d_34">
    <path clip-path="url(#p5a3cc239e2)" d="M 440.99891 195.917704 
L 386.078981 222.283655 
L 354.322193 237.895764 
L 335.457214 247.453156 
L 309.480881 260.761125 
L 305.781578 262.333756 
L 302.922903 263.315831 
L 300.559968 263.912683 
L 298.245371 264.269581 
L 295.973541 264.378058 
L 293.744773 264.24101 
L 291.570708 263.870125 
L 289.473859 263.284873 
L 287.340602 262.448467 
L 285.260601 261.379545 
L 283.302806 260.124222 
L 281.255776 258.547605 
L 278.471296 256.083154 
L 274.328431 252.441051 
L 270.922743 249.782097 
L 266.257348 246.441659 
L 259.880927 242.162104 
L 251.724644 236.965784 
L 243.333336 231.82995 
L 243.333336 231.82995 
" style="fill:none;stroke:#666666;stroke-linecap:square;stroke-width:1.5;"/>
   </g>
   <g id="line2d_35">
    <path clip-path="url(#p5a3cc239e2)" d="M 441.742785 179.911328 
L 394.54621 202.410076 
L 371.539654 213.601778 
L 352.540394 223.075029 
L 338.801622 230.155649 
L 326.573816 236.716283 
L 312.423098 244.362504 
L 309.67531 245.555724 
L 307.661925 246.204317 
L 305.946933 246.531428 
L 304.446758 246.599938 
L 303.026372 246.444836 
L 301.629764 246.059476 
L 300.245836 245.433684 
L 298.792756 244.516952 
L 296.979777 243.07943 
L 290.939103 238.089624 
L 286.350661 234.71898 
L 283.129267 232.473949 
L 283.129267 232.473949 
" style="fill:none;stroke:#808080;stroke-linecap:square;stroke-width:1.5;"/>
   </g>
   <g id="line2d_36">
    <path clip-path="url(#p5a3cc239e2)" d="M 442.496787 163.687031 
L 401.699387 183.001554 
L 380.011626 193.48227 
L 361.31782 202.757758 
L 347.444132 209.912557 
L 337.686581 215.200988 
L 330.104085 219.573789 
L 324.431484 223.109218 
L 320.165178 226.024945 
L 316.432864 228.854389 
L 315.393827 229.523417 
L 315.192408 229.390879 
L 315.090856 229.302142 
L 315.090856 229.302142 
" style="fill:none;stroke:#999999;stroke-linecap:square;stroke-width:1.5;"/>
   </g>
   <g id="line2d_37">
    <path clip-path="url(#p5a3cc239e2)" d="M 443.261125 147.240333 
L 407.851004 163.893043 
L 387.654437 173.592443 
L 369.550052 182.532758 
L 355.761696 189.640281 
L 347.517382 194.127553 
L 341.079678 197.867495 
L 336.345979 200.869484 
L 333.017511 203.243764 
L 330.78145 205.118085 
L 329.488334 206.465488 
L 328.690411 207.597461 
L 328.291432 208.556719 
L 328.202233 209.316417 
L 328.33926 210.060836 
L 328.723787 210.832021 
L 329.456542 211.740741 
L 330.797318 212.997284 
L 339.06289 220.278604 
L 340.641157 222.083826 
L 341.414269 223.270621 
L 341.431816 223.311463 
L 341.431816 223.311463 
" style="fill:none;stroke:#b3b3b3;stroke-linecap:square;stroke-width:1.5;"/>
   </g>
   <g id="line2d_38">
    <path clip-path="url(#p5a3cc239e2)" d="M 444.036012 130.566629 
L 413.22474 144.96511 
L 387.787955 157.170353 
L 373.173787 164.449504 
L 361.370823 170.619741 
L 354.06718 174.690636 
L 348.284907 178.189148 
L 344.619077 180.661931 
L 342.215626 182.50947 
L 340.371519 184.19996 
L 339.257006 185.512848 
L 338.620735 186.572696 
L 338.282272 187.590827 
L 338.237531 188.44662 
L 338.42633 189.288781 
L 338.840291 190.118715 
L 339.597319 191.100608 
L 340.807046 192.278242 
L 342.97211 194.03 
L 356.47107 204.47316 
L 359.557315 207.288287 
L 361.741144 209.564387 
L 363.215444 211.401441 
L 364.105383 212.844057 
L 364.5232 213.91253 
L 364.598066 214.670769 
L 364.438218 215.14997 
L 364.135052 215.397094 
L 363.764788 215.422622 
L 363.521918 215.245093 
L 363.555811 215.130678 
L 363.597536 215.130719 
L 363.614704 215.153473 
L 363.60657 215.154609 
" style="fill:none;stroke:#cccccc;stroke-linecap:square;stroke-width:1.5;"/>
   </g>
   <g id="line2d_39">
    <path clip-path="url(#p5a3cc239e2)" d="M 444.82167 113.661186 
L 417.984327 126.129065 
L 394.569394 137.309643 
L 380.637064 144.229037 
L 371.521462 148.965409 
L 363.520027 153.379188 
L 358.292007 156.508002 
L 354.741803 158.849033 
L 351.789885 161.068042 
L 349.905553 162.771809 
L 348.72355 164.131994 
L 348.022963 165.253868 
L 347.662696 166.205567 
L 347.549432 167.186647 
L 347.683513 168.042005 
L 348.057664 168.928547 
L 348.681698 169.840764 
L 349.758372 170.982259 
L 351.459225 172.418352 
L 354.429409 174.584859 
L 371.469805 186.61286 
L 376.193821 190.34879 
L 379.859836 193.521524 
L 382.642376 196.209689 
L 384.701239 198.495638 
L 386.125243 200.395414 
L 387.021102 201.937548 
L 387.51671 203.20737 
L 387.69066 204.229768 
L 387.612914 205.068696 
L 387.330591 205.737255 
L 386.86585 206.273448 
L 386.213533 206.692317 
L 385.317038 206.993838 
L 384.20033 207.122471 
L 382.953056 207.034634 
L 381.806085 206.738448 
L 380.9381 206.299746 
L 380.453693 205.827145 
L 380.303307 205.389931 
L 380.406474 205.015602 
L 380.727811 204.700406 
L 381.293245 204.467932 
L 382.046409 204.404147 
L 382.792011 204.559184 
L 383.302043 204.875322 
L 383.461585 205.202936 
L 383.351953 205.441096 
L 383.030744 205.581304 
L 382.558046 205.548295 
L 382.273192 205.34183 
L 382.336029 205.187627 
L 382.599864 205.15694 
L 382.743925 205.276679 
L 382.729147 205.301315 
L 382.567847 205.300546 
L 382.561897 205.266847 
L 382.629235 205.279466 
L 382.610162 205.275922 
" style="fill:none;stroke:#e6e6e6;stroke-linecap:square;stroke-width:1.5;"/>
   </g>
   <g id="line2d_40">
    <path clip-path="url(#p5a3cc239e2)" d="M 438.120714 257.849517 
L 444.82167 113.661186 
" style="fill:none;stroke:#008000;stroke-linecap:square;stroke-width:1.5;"/>
   </g>
   <g id="line2d_41">
    <path clip-path="url(#p5a3cc239e2)" d="M 148.927588 293.119283 
L 148.816738 291.736988 
L 148.705752 290.35301 
L 148.59463 288.967343 
L 148.483374 287.579987 
L 148.371981 286.190936 
L 148.260452 284.800189 
L 148.148787 283.407742 
L 148.036986 282.013592 
L 147.925047 280.617736 
L 147.812972 279.22017 
L 147.700759 277.820892 
L 147.588409 276.419899 
L 147.475921 275.017187 
L 147.363294 273.612753 
L 147.25053 272.206595 
L 147.137626 270.798708 
L 147.024584 269.389089 
L 146.911403 267.977736 
L 146.798083 266.564645 
L 146.684623 265.149814 
L 146.571023 263.733238 
L 146.457283 262.314914 
L 146.343402 260.89484 
L 146.229381 259.473012 
L 146.115219 258.049427 
L 146.000916 256.624081 
L 145.886471 255.196972 
L 145.771884 253.768095 
L 145.657156 252.337449 
L 145.542285 250.905029 
L 145.427272 249.470832 
L 145.312117 248.034854 
L 145.196818 246.597094 
L 145.081376 245.157546 
L 144.96579 243.716209 
L 144.85006 242.273078 
L 144.734187 240.82815 
L 144.618169 239.381422 
L 144.502006 237.93289 
L 144.385699 236.482552 
L 144.269246 235.030403 
L 144.152648 233.57644 
L 144.035904 232.12066 
L 143.919014 230.66306 
L 143.801978 229.203636 
L 143.684795 227.742385 
L 143.567466 226.279303 
L 143.449989 224.814386 
L 143.332365 223.347632 
L 143.214594 221.879037 
L 143.096674 220.408597 
L 142.978606 218.936309 
L 142.86039 217.462169 
L 142.742025 215.986175 
L 142.623511 214.508321 
L 142.504848 213.028606 
L 142.386035 211.547025 
L 142.267072 210.063575 
L 142.147959 208.578253 
L 142.028696 207.091054 
L 141.909281 205.601975 
L 141.789716 204.111013 
L 141.669999 202.618164 
L 141.550131 201.123425 
L 141.430111 199.626791 
L 141.309939 198.12826 
L 141.189614 196.627827 
L 141.069137 195.12549 
L 140.948506 193.621243 
L 140.827722 192.115085 
L 140.706785 190.607011 
L 140.585693 189.097017 
L 140.464448 187.585101 
L 140.343047 186.071257 
L 140.221492 184.555483 
L 140.099782 183.037774 
L 139.977917 181.518128 
L 139.855895 179.99654 
L 139.733718 178.473006 
L 139.611385 176.947524 
L 139.488894 175.420088 
L 139.366247 173.890696 
L 139.243443 172.359344 
L 139.120481 170.826028 
L 138.997362 169.290743 
L 138.874084 167.753487 
L 138.750648 166.214255 
L 138.627053 164.673044 
L 138.503299 163.12985 
L 138.379386 161.584669 
L 138.255313 160.037497 
L 138.13108 158.488331 
L 138.006687 156.937165 
L 137.882133 155.383998 
L 137.757418 153.828824 
L 137.632543 152.27164 
L 137.507505 150.712442 
L 137.382306 149.151226 
L 137.256945 147.587988 
" style="fill:none;stroke:#e018bb;stroke-linecap:square;stroke-width:1.5;"/>
   </g>
   <g id="line2d_42">
    <path clip-path="url(#p5a3cc239e2)" d="M 172.0769 282.520994 
L 172.677765 280.823046 
L 173.279105 279.123755 
L 173.880921 277.423118 
L 174.483214 275.721134 
L 175.085984 274.017802 
L 175.689231 272.31312 
L 176.292957 270.607086 
L 176.897162 268.899699 
L 177.501846 267.190957 
L 178.107011 265.480859 
L 178.712656 263.769403 
L 179.318782 262.056587 
L 179.925389 260.342409 
L 180.53248 258.626869 
L 181.140053 256.909964 
L 181.748109 255.191693 
L 182.35665 253.472054 
L 182.965675 251.751045 
L 183.575185 250.028665 
L 184.185181 248.304913 
L 184.795664 246.579786 
L 185.406633 244.853284 
L 186.01809 243.125403 
L 186.630036 241.396143 
L 187.242469 239.665503 
L 187.855392 237.933479 
L 188.468805 236.200072 
L 189.082709 234.465278 
L 189.697103 232.729097 
L 190.311989 230.991526 
L 190.927368 229.252565 
L 191.543239 227.512211 
L 192.159603 225.770462 
L 192.776462 224.027318 
L 193.393815 222.282776 
L 194.011663 220.536834 
L 194.630008 218.789492 
L 195.248848 217.040747 
L 195.868186 215.290598 
L 196.488021 213.539042 
L 197.108354 211.786079 
L 197.729186 210.031706 
L 198.350517 208.275922 
L 198.972349 206.518725 
L 199.594681 204.760114 
L 200.217514 203.000086 
L 200.840849 201.23864 
L 201.464686 199.475775 
L 202.089027 197.711488 
L 202.713871 195.945777 
L 203.339219 194.178643 
L 203.965072 192.410081 
L 204.591431 190.640091 
L 205.218296 188.868671 
L 205.845667 187.095819 
L 206.473546 185.321534 
L 207.101932 183.545813 
L 207.730827 181.768656 
L 208.360231 179.990059 
L 208.990145 178.210022 
L 209.62057 176.428543 
L 210.251505 174.64562 
L 210.882952 172.861251 
L 211.514911 171.075434 
L 212.147383 169.288169 
L 212.780369 167.499452 
L 213.413869 165.709282 
L 214.047883 163.917658 
L 214.682413 162.124577 
L 215.317459 160.330038 
L 215.953021 158.53404 
L 216.589101 156.736579 
L 217.225699 154.937655 
L 217.862815 153.137266 
L 218.50045 151.33541 
L 219.138606 149.532085 
L 219.777281 147.727289 
L 220.416478 145.92102 
L 221.056196 144.113278 
L 221.696437 142.304059 
L 222.337201 140.493363 
L 222.978488 138.681186 
L 223.620299 136.867529 
L 224.262636 135.052388 
L 224.905498 133.235761 
L 225.548886 131.417648 
L 226.192802 129.598046 
L 226.837244 127.776954 
L 227.482215 125.954369 
L 228.127715 124.130289 
L 228.773744 122.304714 
L 229.420303 120.47764 
L 230.067393 118.649067 
L 230.715014 116.818992 
L 231.363167 114.987414 
L 232.011853 113.15433 
L 232.661073 111.319739 
L 233.310826 109.483639 
L 233.961114 107.646028 
" style="fill:none;stroke:#e018bb;stroke-linecap:square;stroke-width:1.5;"/>
   </g>
   <g id="line2d_43">
    <path clip-path="url(#p5a3cc239e2)" d="M -1 175.37831 
L 4.02675 177.019918 
L 15.3788 180.666496 
L 26.294089 184.113162 
L 36.797712 187.371283 
L 46.91288 190.451374 
L 56.661091 193.363171 
L 66.062288 196.115706 
L 75.134994 198.71737 
L 83.896439 201.175964 
L 92.362667 203.498756 
L 100.548642 205.692521 
L 108.468331 207.763585 
L 116.134791 209.717858 
L 123.56024 211.560875 
L 130.756121 213.297814 
L 137.733167 214.933537 
L 144.501451 216.472602 
L 151.070439 217.919295 
L 157.449033 219.277646 
L 163.645614 220.551448 
L 169.668078 221.744274 
L 175.523873 222.859495 
L 181.220026 223.900291 
L 186.763177 224.869667 
L 192.159603 225.770462 
L 197.415243 226.605364 
L 202.53572 227.376915 
L 207.526362 228.087526 
L 212.39222 228.739482 
L 217.138089 229.33495 
L 221.76852 229.875989 
L 226.287839 230.364554 
L 230.700156 230.802505 
L 235.009386 231.191608 
L 239.21925 231.533548 
L 243.333298 231.829927 
L 247.354908 232.082272 
L 251.287307 232.292041 
L 255.133568 232.460623 
L 258.896631 232.589344 
L 262.579298 232.67947 
L 266.184252 232.732212 
L 269.714056 232.748727 
L 273.171162 232.730122 
L 276.557916 232.677455 
L 279.876567 232.59174 
L 283.129267 232.473949 
L 286.31808 232.325012 
L 289.444984 232.145821 
L 292.511878 231.937231 
L 295.520583 231.700064 
L 298.472849 231.435107 
L 301.370355 231.143117 
L 304.214715 230.82482 
L 307.007481 230.480916 
L 309.750145 230.112075 
L 312.444143 229.718943 
L 315.090856 229.302142 
L 317.691614 228.86227 
L 320.247698 228.399902 
L 322.760341 227.915593 
L 325.230733 227.409877 
L 327.66002 226.883268 
L 330.049308 226.336263 
L 332.399664 225.76934 
L 334.712116 225.182961 
L 336.987658 224.577571 
L 339.227249 223.9536 
L 341.431816 223.311463 
L 343.602255 222.651562 
L 345.73943 221.974283 
L 347.844178 221.28 
L 349.917309 220.569075 
L 351.959603 219.841858 
L 353.971819 219.098687 
L 355.95469 218.33989 
L 357.908924 217.565781 
L 359.835209 216.776669 
L 361.734209 215.972849 
L 363.60657 215.154609 
L 365.452917 214.322226 
L 367.273853 213.47597 
L 369.069968 212.616103 
L 370.841829 211.742876 
L 372.589989 210.856535 
L 374.314985 209.957318 
L 376.017335 209.045455 
L 377.697545 208.121171 
L 379.356104 207.184681 
L 380.993489 206.236197 
L 382.610162 205.275922 
" style="fill:none;stroke:#e018bb;stroke-linecap:square;stroke-width:1.5;"/>
   </g>
   <g id="text_30">
    <!-- Bifurcation -->
    <defs>
     <path d="M 19.671875 34.8125 
L 19.671875 8.109375 
L 35.5 8.109375 
Q 43.453125 8.109375 47.28125 11.40625 
Q 51.125 14.703125 51.125 21.484375 
Q 51.125 28.328125 47.28125 31.5625 
Q 43.453125 34.8125 35.5 34.8125 
z
M 19.671875 64.796875 
L 19.671875 42.828125 
L 34.28125 42.828125 
Q 41.5 42.828125 45.03125 45.53125 
Q 48.578125 48.25 48.578125 53.8125 
Q 48.578125 59.328125 45.03125 62.0625 
Q 41.5 64.796875 34.28125 64.796875 
z
M 9.8125 72.90625 
L 35.015625 72.90625 
Q 46.296875 72.90625 52.390625 68.21875 
Q 58.5 63.53125 58.5 54.890625 
Q 58.5 48.1875 55.375 44.234375 
Q 52.25 40.28125 46.1875 39.3125 
Q 53.46875 37.75 57.5 32.78125 
Q 61.53125 27.828125 61.53125 20.40625 
Q 61.53125 10.640625 54.890625 5.3125 
Q 48.25 0 35.984375 0 
L 9.8125 0 
z
" id="DejaVuSans-42"/>
     <path d="M 9.421875 54.6875 
L 18.40625 54.6875 
L 18.40625 0 
L 9.421875 0 
z
M 9.421875 75.984375 
L 18.40625 75.984375 
L 18.40625 64.59375 
L 9.421875 64.59375 
z
" id="DejaVuSans-69"/>
     <path d="M 37.109375 75.984375 
L 37.109375 68.5 
L 28.515625 68.5 
Q 23.6875 68.5 21.796875 66.546875 
Q 19.921875 64.59375 19.921875 59.515625 
L 19.921875 54.6875 
L 34.71875 54.6875 
L 34.71875 47.703125 
L 19.921875 47.703125 
L 19.921875 0 
L 10.890625 0 
L 10.890625 47.703125 
L 2.296875 47.703125 
L 2.296875 54.6875 
L 10.890625 54.6875 
L 10.890625 58.5 
Q 10.890625 67.625 15.140625 71.796875 
Q 19.390625 75.984375 28.609375 75.984375 
z
" id="DejaVuSans-66"/>
     <path d="M 48.78125 52.59375 
L 48.78125 44.1875 
Q 44.96875 46.296875 41.140625 47.34375 
Q 37.3125 48.390625 33.40625 48.390625 
Q 24.65625 48.390625 19.8125 42.84375 
Q 14.984375 37.3125 14.984375 27.296875 
Q 14.984375 17.28125 19.8125 11.734375 
Q 24.65625 6.203125 33.40625 6.203125 
Q 37.3125 6.203125 41.140625 7.25 
Q 44.96875 8.296875 48.78125 10.40625 
L 48.78125 2.09375 
Q 45.015625 0.34375 40.984375 -0.53125 
Q 36.96875 -1.421875 32.421875 -1.421875 
Q 20.0625 -1.421875 12.78125 6.34375 
Q 5.515625 14.109375 5.515625 27.296875 
Q 5.515625 40.671875 12.859375 48.328125 
Q 20.21875 56 33.015625 56 
Q 37.15625 56 41.109375 55.140625 
Q 45.0625 54.296875 48.78125 52.59375 
z
" id="DejaVuSans-63"/>
     <path d="M 30.609375 48.390625 
Q 23.390625 48.390625 19.1875 42.75 
Q 14.984375 37.109375 14.984375 27.296875 
Q 14.984375 17.484375 19.15625 11.84375 
Q 23.34375 6.203125 30.609375 6.203125 
Q 37.796875 6.203125 41.984375 11.859375 
Q 46.1875 17.53125 46.1875 27.296875 
Q 46.1875 37.015625 41.984375 42.703125 
Q 37.796875 48.390625 30.609375 48.390625 
z
M 30.609375 56 
Q 42.328125 56 49.015625 48.375 
Q 55.71875 40.765625 55.71875 27.296875 
Q 55.71875 13.875 49.015625 6.21875 
Q 42.328125 -1.421875 30.609375 -1.421875 
Q 18.84375 -1.421875 12.171875 6.21875 
Q 5.515625 13.875 5.515625 27.296875 
Q 5.515625 40.765625 12.171875 48.375 
Q 18.84375 56 30.609375 56 
z
" id="DejaVuSans-6f"/>
    </defs>
    <g transform="translate(291.719437 61.367361)scale(0.12 -0.12)">
     <use xlink:href="#DejaVuSans-42"/>
     <use x="68.603516" xlink:href="#DejaVuSans-69"/>
     <use x="96.386719" xlink:href="#DejaVuSans-66"/>
     <use x="131.591797" xlink:href="#DejaVuSans-75"/>
     <use x="194.970703" xlink:href="#DejaVuSans-72"/>
     <use x="236.052734" xlink:href="#DejaVuSans-63"/>
     <use x="291.033203" xlink:href="#DejaVuSans-61"/>
     <use x="352.3125" xlink:href="#DejaVuSans-74"/>
     <use x="391.521484" xlink:href="#DejaVuSans-69"/>
     <use x="419.304688" xlink:href="#DejaVuSans-6f"/>
     <use x="480.486328" xlink:href="#DejaVuSans-6e"/>
    </g>
    <!-- Phase space vs. parameter -->
    <defs>
     <path d="M 54.890625 33.015625 
L 54.890625 0 
L 45.90625 0 
L 45.90625 32.71875 
Q 45.90625 40.484375 42.875 44.328125 
Q 39.84375 48.1875 33.796875 48.1875 
Q 26.515625 48.1875 22.3125 43.546875 
Q 18.109375 38.921875 18.109375 30.90625 
L 18.109375 0 
L 9.078125 0 
L 9.078125 75.984375 
L 18.109375 75.984375 
L 18.109375 46.1875 
Q 21.34375 51.125 25.703125 53.5625 
Q 30.078125 56 35.796875 56 
Q 45.21875 56 50.046875 50.171875 
Q 54.890625 44.34375 54.890625 33.015625 
z
" id="DejaVuSans-68"/>
     <path d="M 44.28125 53.078125 
L 44.28125 44.578125 
Q 40.484375 46.53125 36.375 47.5 
Q 32.28125 48.484375 27.875 48.484375 
Q 21.1875 48.484375 17.84375 46.4375 
Q 14.5 44.390625 14.5 40.28125 
Q 14.5 37.15625 16.890625 35.375 
Q 19.28125 33.59375 26.515625 31.984375 
L 29.59375 31.296875 
Q 39.15625 29.25 43.1875 25.515625 
Q 47.21875 21.78125 47.21875 15.09375 
Q 47.21875 7.46875 41.1875 3.015625 
Q 35.15625 -1.421875 24.609375 -1.421875 
Q 20.21875 -1.421875 15.453125 -0.5625 
Q 10.6875 0.296875 5.421875 2 
L 5.421875 11.28125 
Q 10.40625 8.6875 15.234375 7.390625 
Q 20.0625 6.109375 24.8125 6.109375 
Q 31.15625 6.109375 34.5625 8.28125 
Q 37.984375 10.453125 37.984375 14.40625 
Q 37.984375 18.0625 35.515625 20.015625 
Q 33.0625 21.96875 24.703125 23.78125 
L 21.578125 24.515625 
Q 13.234375 26.265625 9.515625 29.90625 
Q 5.8125 33.546875 5.8125 39.890625 
Q 5.8125 47.609375 11.28125 51.796875 
Q 16.75 56 26.8125 56 
Q 31.78125 56 36.171875 55.265625 
Q 40.578125 54.546875 44.28125 53.078125 
z
" id="DejaVuSans-73"/>
     <path id="DejaVuSans-20"/>
     <path d="M 18.109375 8.203125 
L 18.109375 -20.796875 
L 9.078125 -20.796875 
L 9.078125 54.6875 
L 18.109375 54.6875 
L 18.109375 46.390625 
Q 20.953125 51.265625 25.265625 53.625 
Q 29.59375 56 35.59375 56 
Q 45.5625 56 51.78125 48.09375 
Q 58.015625 40.1875 58.015625 27.296875 
Q 58.015625 14.40625 51.78125 6.484375 
Q 45.5625 -1.421875 35.59375 -1.421875 
Q 29.59375 -1.421875 25.265625 0.953125 
Q 20.953125 3.328125 18.109375 8.203125 
z
M 48.6875 27.296875 
Q 48.6875 37.203125 44.609375 42.84375 
Q 40.53125 48.484375 33.40625 48.484375 
Q 26.265625 48.484375 22.1875 42.84375 
Q 18.109375 37.203125 18.109375 27.296875 
Q 18.109375 17.390625 22.1875 11.75 
Q 26.265625 6.109375 33.40625 6.109375 
Q 40.53125 6.109375 44.609375 11.75 
Q 48.6875 17.390625 48.6875 27.296875 
z
" id="DejaVuSans-70"/>
     <path d="M 2.984375 54.6875 
L 12.5 54.6875 
L 29.59375 8.796875 
L 46.6875 54.6875 
L 56.203125 54.6875 
L 35.6875 0 
L 23.484375 0 
z
" id="DejaVuSans-76"/>
    </defs>
    <g transform="translate(242.853187 74.804736)scale(0.12 -0.12)">
     <use xlink:href="#DejaVuSans-50"/>
     <use x="60.302734" xlink:href="#DejaVuSans-68"/>
     <use x="123.681641" xlink:href="#DejaVuSans-61"/>
     <use x="184.960938" xlink:href="#DejaVuSans-73"/>
     <use x="237.060547" xlink:href="#DejaVuSans-65"/>
     <use x="298.583984" xlink:href="#DejaVuSans-20"/>
     <use x="330.371094" xlink:href="#DejaVuSans-73"/>
     <use x="382.470703" xlink:href="#DejaVuSans-70"/>
     <use x="445.947266" xlink:href="#DejaVuSans-61"/>
     <use x="507.226562" xlink:href="#DejaVuSans-63"/>
     <use x="562.207031" xlink:href="#DejaVuSans-65"/>
     <use x="623.730469" xlink:href="#DejaVuSans-20"/>
     <use x="655.517578" xlink:href="#DejaVuSans-76"/>
     <use x="714.697266" xlink:href="#DejaVuSans-73"/>
     <use x="766.796875" xlink:href="#DejaVuSans-2e"/>
     <use x="798.583984" xlink:href="#DejaVuSans-20"/>
     <use x="830.371094" xlink:href="#DejaVuSans-70"/>
     <use x="893.847656" xlink:href="#DejaVuSans-61"/>
     <use x="955.126953" xlink:href="#DejaVuSans-72"/>
     <use x="996.240234" xlink:href="#DejaVuSans-61"/>
     <use x="1057.519531" xlink:href="#DejaVuSans-6d"/>
     <use x="1154.931641" xlink:href="#DejaVuSans-65"/>
     <use x="1216.455078" xlink:href="#DejaVuSans-74"/>
     <use x="1255.664062" xlink:href="#DejaVuSans-65"/>
     <use x="1317.1875" xlink:href="#DejaVuSans-72"/>
    </g>
   </g>
   <g id="legend_1">
    <g id="patch_6">
     <path d="M 453.507625 76.073325 
L 562.592 76.073325 
Q 564.592 76.073325 564.592 74.073325 
L 564.592 60.3952 
Q 564.592 58.3952 562.592 58.3952 
L 453.507625 58.3952 
Q 451.507625 58.3952 451.507625 60.3952 
L 451.507625 74.073325 
Q 451.507625 76.073325 453.507625 76.073325 
z
" style="fill:#ffffff;opacity:0.8;stroke:#cccccc;stroke-linejoin:miter;"/>
    </g>
    <g id="patch_7">
     <path d="M 455.507625 69.993638 
L 475.507625 69.993638 
L 475.507625 62.993638 
L 455.507625 62.993638 
z
" style="fill:#008000;stroke:#008000;stroke-linejoin:miter;"/>
    </g>
    <g id="text_31">
     <!-- Initial condition -->
     <defs>
      <path d="M 9.8125 72.90625 
L 19.671875 72.90625 
L 19.671875 0 
L 9.8125 0 
z
" id="DejaVuSans-49"/>
      <path d="M 9.421875 75.984375 
L 18.40625 75.984375 
L 18.40625 0 
L 9.421875 0 
z
" id="DejaVuSans-6c"/>
      <path d="M 45.40625 46.390625 
L 45.40625 75.984375 
L 54.390625 75.984375 
L 54.390625 0 
L 45.40625 0 
L 45.40625 8.203125 
Q 42.578125 3.328125 38.25 0.953125 
Q 33.9375 -1.421875 27.875 -1.421875 
Q 17.96875 -1.421875 11.734375 6.484375 
Q 5.515625 14.40625 5.515625 27.296875 
Q 5.515625 40.1875 11.734375 48.09375 
Q 17.96875 56 27.875 56 
Q 33.9375 56 38.25 53.625 
Q 42.578125 51.265625 45.40625 46.390625 
z
M 14.796875 27.296875 
Q 14.796875 17.390625 18.875 11.75 
Q 22.953125 6.109375 30.078125 6.109375 
Q 37.203125 6.109375 41.296875 11.75 
Q 45.40625 17.390625 45.40625 27.296875 
Q 45.40625 37.203125 41.296875 42.84375 
Q 37.203125 48.484375 30.078125 48.484375 
Q 22.953125 48.484375 18.875 42.84375 
Q 14.796875 37.203125 14.796875 27.296875 
z
" id="DejaVuSans-64"/>
     </defs>
     <g transform="translate(483.507625 69.993638)scale(0.1 -0.1)">
      <use xlink:href="#DejaVuSans-49"/>
      <use x="29.492188" xlink:href="#DejaVuSans-6e"/>
      <use x="92.871094" xlink:href="#DejaVuSans-69"/>
      <use x="120.654297" xlink:href="#DejaVuSans-74"/>
      <use x="159.863281" xlink:href="#DejaVuSans-69"/>
      <use x="187.646484" xlink:href="#DejaVuSans-61"/>
      <use x="248.925781" xlink:href="#DejaVuSans-6c"/>
      <use x="276.708984" xlink:href="#DejaVuSans-20"/>
      <use x="308.496094" xlink:href="#DejaVuSans-63"/>
      <use x="363.476562" xlink:href="#DejaVuSans-6f"/>
      <use x="424.658203" xlink:href="#DejaVuSans-6e"/>
      <use x="488.037109" xlink:href="#DejaVuSans-64"/>
      <use x="551.513672" xlink:href="#DejaVuSans-69"/>
      <use x="579.296875" xlink:href="#DejaVuSans-74"/>
      <use x="618.505859" xlink:href="#DejaVuSans-69"/>
      <use x="646.289062" xlink:href="#DejaVuSans-6f"/>
      <use x="707.470703" xlink:href="#DejaVuSans-6e"/>
     </g>
    </g>
   </g>
  </g>
 </g>
 <defs>
  <clipPath id="p5a3cc239e2">
   <rect height="342.6192" width="490.482" x="79.11" y="53.3952"/>
  </clipPath>
 </defs>
</svg>
