<?xml version="1.0" encoding="utf-8" standalone="no"?>
<!DOCTYPE svg PUBLIC "-//W3C//DTD SVG 1.1//EN"
  "http://www.w3.org/Graphics/SVG/1.1/DTD/svg11.dtd">
<!-- Created with matplotlib (http://matplotlib.org/) -->
<svg height="437.76pt" version="1.1" viewBox="0 0 632.88 437.76" width="632.88pt" xmlns="http://www.w3.org/2000/svg" xmlns:xlink="http://www.w3.org/1999/xlink">
 <defs>
  <style type="text/css">
*{stroke-linecap:butt;stroke-linejoin:round;}
  </style>
 </defs>
 <g id="figure_1">
  <g id="patch_1">
   <path d="M 0 437.76 
L 632.88 437.76 
L 632.88 0 
L 0 0 
z
" style="fill:#ffffff;"/>
  </g>
  <g id="patch_2">
   <path d="M 79.11 389.6064 
L 569.592 389.6064 
L 569.592 52.5312 
L 79.11 52.5312 
z
" style="fill:#ffffff;"/>
  </g>
  <g id="pane3d_1">
   <g id="patch_3">
    <path d="M 157.254181 320.257438 
L 254.558029 191.071597 
L 248.649283 63.481745 
L 142.891016 194.504379 
" style="fill:#f2f2f2;opacity:0.5;stroke:#f2f2f2;stroke-linejoin:miter;"/>
   </g>
  </g>
  <g id="pane3d_2">
   <g id="patch_4">
    <path d="M 254.558029 191.071597 
L 497.890039 236.045004 
L 511.105706 108.947155 
L 248.649283 63.481745 
" style="fill:#e6e6e6;opacity:0.5;stroke:#e6e6e6;stroke-linejoin:miter;"/>
   </g>
  </g>
  <g id="pane3d_3">
   <g id="patch_5">
    <path d="M 157.254181 320.257438 
L 414.224029 371.246563 
L 497.890039 236.045004 
L 254.558029 191.071597 
" style="fill:#ececec;opacity:0.5;stroke:#ececec;stroke-linejoin:miter;"/>
   </g>
  </g>
  <g id="axis3d_1">
   <g id="line2d_1">
    <path d="M 157.254181 320.257438 
L 414.224029 371.246563 
" style="fill:none;stroke:#000000;stroke-linecap:square;stroke-width:0.8;"/>
   </g>
   <g id="text_1">
    <!-- Hunter -->
    <defs>
     <path d="M 9.8125 72.90625 
L 19.671875 72.90625 
L 19.671875 43.015625 
L 55.515625 43.015625 
L 55.515625 72.90625 
L 65.375 72.90625 
L 65.375 0 
L 55.515625 0 
L 55.515625 34.71875 
L 19.671875 34.71875 
L 19.671875 0 
L 9.8125 0 
z
" id="DejaVuSans-48"/>
     <path d="M 8.5 21.578125 
L 8.5 54.6875 
L 17.484375 54.6875 
L 17.484375 21.921875 
Q 17.484375 14.15625 20.5 10.265625 
Q 23.53125 6.390625 29.59375 6.390625 
Q 36.859375 6.390625 41.078125 11.03125 
Q 45.3125 15.671875 45.3125 23.6875 
L 45.3125 54.6875 
L 54.296875 54.6875 
L 54.296875 0 
L 45.3125 0 
L 45.3125 8.40625 
Q 42.046875 3.421875 37.71875 1 
Q 33.40625 -1.421875 27.6875 -1.421875 
Q 18.265625 -1.421875 13.375 4.4375 
Q 8.5 10.296875 8.5 21.578125 
z
M 31.109375 56 
z
" id="DejaVuSans-75"/>
     <path d="M 54.890625 33.015625 
L 54.890625 0 
L 45.90625 0 
L 45.90625 32.71875 
Q 45.90625 40.484375 42.875 44.328125 
Q 39.84375 48.1875 33.796875 48.1875 
Q 26.515625 48.1875 22.3125 43.546875 
Q 18.109375 38.921875 18.109375 30.90625 
L 18.109375 0 
L 9.078125 0 
L 9.078125 54.6875 
L 18.109375 54.6875 
L 18.109375 46.1875 
Q 21.34375 51.125 25.703125 53.5625 
Q 30.078125 56 35.796875 56 
Q 45.21875 56 50.046875 50.171875 
Q 54.890625 44.34375 54.890625 33.015625 
z
" id="DejaVuSans-6e"/>
     <path d="M 18.3125 70.21875 
L 18.3125 54.6875 
L 36.8125 54.6875 
L 36.8125 47.703125 
L 18.3125 47.703125 
L 18.3125 18.015625 
Q 18.3125 11.328125 20.140625 9.421875 
Q 21.96875 7.515625 27.59375 7.515625 
L 36.8125 7.515625 
L 36.8125 0 
L 27.59375 0 
Q 17.1875 0 13.234375 3.875 
Q 9.28125 7.765625 9.28125 18.015625 
L 9.28125 47.703125 
L 2.6875 47.703125 
L 2.6875 54.6875 
L 9.28125 54.6875 
L 9.28125 70.21875 
z
" id="DejaVuSans-74"/>
     <path d="M 56.203125 29.59375 
L 56.203125 25.203125 
L 14.890625 25.203125 
Q 15.484375 15.921875 20.484375 11.0625 
Q 25.484375 6.203125 34.421875 6.203125 
Q 39.59375 6.203125 44.453125 7.46875 
Q 49.3125 8.734375 54.109375 11.28125 
L 54.109375 2.78125 
Q 49.265625 0.734375 44.1875 -0.34375 
Q 39.109375 -1.421875 33.890625 -1.421875 
Q 20.796875 -1.421875 13.15625 6.1875 
Q 5.515625 13.8125 5.515625 26.8125 
Q 5.515625 40.234375 12.765625 48.109375 
Q 20.015625 56 32.328125 56 
Q 43.359375 56 49.78125 48.890625 
Q 56.203125 41.796875 56.203125 29.59375 
z
M 47.21875 32.234375 
Q 47.125 39.59375 43.09375 43.984375 
Q 39.0625 48.390625 32.421875 48.390625 
Q 24.90625 48.390625 20.390625 44.140625 
Q 15.875 39.890625 15.1875 32.171875 
z
" id="DejaVuSans-65"/>
     <path d="M 41.109375 46.296875 
Q 39.59375 47.171875 37.8125 47.578125 
Q 36.03125 48 33.890625 48 
Q 26.265625 48 22.1875 43.046875 
Q 18.109375 38.09375 18.109375 28.8125 
L 18.109375 0 
L 9.078125 0 
L 9.078125 54.6875 
L 18.109375 54.6875 
L 18.109375 46.1875 
Q 20.953125 51.171875 25.484375 53.578125 
Q 30.03125 56 36.53125 56 
Q 37.453125 56 38.578125 55.875 
Q 39.703125 55.765625 41.0625 55.515625 
z
" id="DejaVuSans-72"/>
    </defs>
    <g transform="translate(256.070571 374.49892)rotate(-348.776889)scale(0.1 -0.1)">
     <use xlink:href="#DejaVuSans-48"/>
     <use x="75.195312" xlink:href="#DejaVuSans-75"/>
     <use x="138.574219" xlink:href="#DejaVuSans-6e"/>
     <use x="201.953125" xlink:href="#DejaVuSans-74"/>
     <use x="241.162109" xlink:href="#DejaVuSans-65"/>
     <use x="302.685547" xlink:href="#DejaVuSans-72"/>
    </g>
   </g>
   <g id="Line3DCollection_1">
    <path d="M 162.276684 321.254026 
L 259.320642 191.951839 
L 253.777529 64.370113 
" style="fill:none;stroke:#b0b0b0;stroke-width:0.8;"/>
    <path d="M 192.402018 327.231631 
L 287.881556 197.230559 
L 284.538367 69.698822 
" style="fill:none;stroke:#b0b0b0;stroke-width:0.8;"/>
    <path d="M 222.695489 333.2426 
L 316.592229 202.536958 
L 315.473047 75.057647 
" style="fill:none;stroke:#b0b0b0;stroke-width:0.8;"/>
    <path d="M 253.15851 339.287211 
L 345.453844 207.871255 
L 346.583048 80.446842 
" style="fill:none;stroke:#b0b0b0;stroke-width:0.8;"/>
    <path d="M 283.792507 345.365748 
L 374.467594 213.23367 
L 377.869865 85.866668 
" style="fill:none;stroke:#b0b0b0;stroke-width:0.8;"/>
    <path d="M 314.598924 351.478497 
L 403.634684 218.624425 
L 409.335008 91.317384 
" style="fill:none;stroke:#b0b0b0;stroke-width:0.8;"/>
    <path d="M 345.579221 357.625748 
L 432.956333 224.043747 
L 440.980008 96.799258 
" style="fill:none;stroke:#b0b0b0;stroke-width:0.8;"/>
    <path d="M 376.734874 363.807794 
L 462.433774 229.491863 
L 472.806411 102.312556 
" style="fill:none;stroke:#b0b0b0;stroke-width:0.8;"/>
    <path d="M 408.067376 370.024932 
L 492.068251 234.969002 
L 504.81578 107.857549 
" style="fill:none;stroke:#b0b0b0;stroke-width:0.8;"/>
   </g>
   <g id="xtick_1">
    <g id="line2d_2">
     <path d="M 163.10234 320.153915 
L 160.622832 323.457632 
" style="fill:none;stroke:#000000;stroke-linecap:square;stroke-width:0.8;"/>
    </g>
    <g id="text_2">
     <!-- 0.0 -->
     <defs>
      <path d="M 31.78125 66.40625 
Q 24.171875 66.40625 20.328125 58.90625 
Q 16.5 51.421875 16.5 36.375 
Q 16.5 21.390625 20.328125 13.890625 
Q 24.171875 6.390625 31.78125 6.390625 
Q 39.453125 6.390625 43.28125 13.890625 
Q 47.125 21.390625 47.125 36.375 
Q 47.125 51.421875 43.28125 58.90625 
Q 39.453125 66.40625 31.78125 66.40625 
z
M 31.78125 74.21875 
Q 44.046875 74.21875 50.515625 64.515625 
Q 56.984375 54.828125 56.984375 36.375 
Q 56.984375 17.96875 50.515625 8.265625 
Q 44.046875 -1.421875 31.78125 -1.421875 
Q 19.53125 -1.421875 13.0625 8.265625 
Q 6.59375 17.96875 6.59375 36.375 
Q 6.59375 54.828125 13.0625 64.515625 
Q 19.53125 74.21875 31.78125 74.21875 
z
" id="DejaVuSans-30"/>
      <path d="M 10.6875 12.40625 
L 21 12.40625 
L 21 0 
L 10.6875 0 
z
" id="DejaVuSans-2e"/>
     </defs>
     <g transform="translate(149.505928 342.382101)scale(0.1 -0.1)">
      <use xlink:href="#DejaVuSans-30"/>
      <use x="63.623047" xlink:href="#DejaVuSans-2e"/>
      <use x="95.410156" xlink:href="#DejaVuSans-30"/>
     </g>
    </g>
   </g>
   <g id="xtick_2">
    <g id="line2d_3">
     <path d="M 193.214498 326.125391 
L 190.77455 329.447526 
" style="fill:none;stroke:#000000;stroke-linecap:square;stroke-width:0.8;"/>
    </g>
    <g id="text_3">
     <!-- 2.5 -->
     <defs>
      <path d="M 19.1875 8.296875 
L 53.609375 8.296875 
L 53.609375 0 
L 7.328125 0 
L 7.328125 8.296875 
Q 12.9375 14.109375 22.625 23.890625 
Q 32.328125 33.6875 34.8125 36.53125 
Q 39.546875 41.84375 41.421875 45.53125 
Q 43.3125 49.21875 43.3125 52.78125 
Q 43.3125 58.59375 39.234375 62.25 
Q 35.15625 65.921875 28.609375 65.921875 
Q 23.96875 65.921875 18.8125 64.3125 
Q 13.671875 62.703125 7.8125 59.421875 
L 7.8125 69.390625 
Q 13.765625 71.78125 18.9375 73 
Q 24.125 74.21875 28.421875 74.21875 
Q 39.75 74.21875 46.484375 68.546875 
Q 53.21875 62.890625 53.21875 53.421875 
Q 53.21875 48.921875 51.53125 44.890625 
Q 49.859375 40.875 45.40625 35.40625 
Q 44.1875 33.984375 37.640625 27.21875 
Q 31.109375 20.453125 19.1875 8.296875 
z
" id="DejaVuSans-32"/>
      <path d="M 10.796875 72.90625 
L 49.515625 72.90625 
L 49.515625 64.59375 
L 19.828125 64.59375 
L 19.828125 46.734375 
Q 21.96875 47.46875 24.109375 47.828125 
Q 26.265625 48.1875 28.421875 48.1875 
Q 40.625 48.1875 47.75 41.5 
Q 54.890625 34.8125 54.890625 23.390625 
Q 54.890625 11.625 47.5625 5.09375 
Q 40.234375 -1.421875 26.90625 -1.421875 
Q 22.3125 -1.421875 17.546875 -0.640625 
Q 12.796875 0.140625 7.71875 1.703125 
L 7.71875 11.625 
Q 12.109375 9.234375 16.796875 8.0625 
Q 21.484375 6.890625 26.703125 6.890625 
Q 35.15625 6.890625 40.078125 11.328125 
Q 45.015625 15.765625 45.015625 23.390625 
Q 45.015625 31 40.078125 35.4375 
Q 35.15625 39.890625 26.703125 39.890625 
Q 22.75 39.890625 18.8125 39.015625 
Q 14.890625 38.140625 10.796875 36.28125 
z
" id="DejaVuSans-35"/>
     </defs>
     <g transform="translate(179.597969 348.393386)scale(0.1 -0.1)">
      <use xlink:href="#DejaVuSans-32"/>
      <use x="63.623047" xlink:href="#DejaVuSans-2e"/>
      <use x="95.410156" xlink:href="#DejaVuSans-35"/>
     </g>
    </g>
   </g>
   <g id="xtick_3">
    <g id="line2d_4">
     <path d="M 223.494634 332.130178 
L 221.094726 335.470886 
" style="fill:none;stroke:#000000;stroke-linecap:square;stroke-width:0.8;"/>
    </g>
    <g id="text_4">
     <!-- 5.0 -->
     <g transform="translate(209.85785 354.4382)scale(0.1 -0.1)">
      <use xlink:href="#DejaVuSans-35"/>
      <use x="63.623047" xlink:href="#DejaVuSans-2e"/>
      <use x="95.410156" xlink:href="#DejaVuSans-30"/>
     </g>
    </g>
   </g>
   <g id="xtick_4">
    <g id="line2d_5">
     <path d="M 253.944158 338.168556 
L 251.584777 341.527992 
" style="fill:none;stroke:#000000;stroke-linecap:square;stroke-width:0.8;"/>
    </g>
    <g id="text_5">
     <!-- 7.5 -->
     <defs>
      <path d="M 8.203125 72.90625 
L 55.078125 72.90625 
L 55.078125 68.703125 
L 28.609375 0 
L 18.3125 0 
L 43.21875 64.59375 
L 8.203125 64.59375 
z
" id="DejaVuSans-37"/>
     </defs>
     <g transform="translate(240.28698 360.516823)scale(0.1 -0.1)">
      <use xlink:href="#DejaVuSans-37"/>
      <use x="63.623047" xlink:href="#DejaVuSans-2e"/>
      <use x="95.410156" xlink:href="#DejaVuSans-35"/>
     </g>
    </g>
   </g>
   <g id="xtick_5">
    <g id="line2d_6">
     <path d="M 284.564493 344.240807 
L 282.246133 347.61913 
" style="fill:none;stroke:#000000;stroke-linecap:square;stroke-width:0.8;"/>
    </g>
    <g id="text_6">
     <!-- 10.0 -->
     <defs>
      <path d="M 12.40625 8.296875 
L 28.515625 8.296875 
L 28.515625 63.921875 
L 10.984375 60.40625 
L 10.984375 69.390625 
L 28.421875 72.90625 
L 38.28125 72.90625 
L 38.28125 8.296875 
L 54.390625 8.296875 
L 54.390625 0 
L 12.40625 0 
z
" id="DejaVuSans-31"/>
     </defs>
     <g transform="translate(267.705532 366.62954)scale(0.1 -0.1)">
      <use xlink:href="#DejaVuSans-31"/>
      <use x="63.623047" xlink:href="#DejaVuSans-30"/>
      <use x="127.246094" xlink:href="#DejaVuSans-2e"/>
      <use x="159.033203" xlink:href="#DejaVuSans-30"/>
     </g>
    </g>
   </g>
   <g id="xtick_6">
    <g id="line2d_7">
     <path d="M 315.357082 350.347217 
L 313.080243 353.744586 
" style="fill:none;stroke:#000000;stroke-linecap:square;stroke-width:0.8;"/>
    </g>
    <g id="text_7">
     <!-- 12.5 -->
     <g transform="translate(298.477447 372.77664)scale(0.1 -0.1)">
      <use xlink:href="#DejaVuSans-31"/>
      <use x="63.623047" xlink:href="#DejaVuSans-32"/>
      <use x="127.246094" xlink:href="#DejaVuSans-2e"/>
      <use x="159.033203" xlink:href="#DejaVuSans-35"/>
     </g>
    </g>
   </g>
   <g id="xtick_7">
    <g id="line2d_8">
     <path d="M 346.323382 356.488076 
L 344.08857 359.904653 
" style="fill:none;stroke:#000000;stroke-linecap:square;stroke-width:0.8;"/>
    </g>
    <g id="text_8">
     <!-- 15.0 -->
     <g transform="translate(329.422931 378.958411)scale(0.1 -0.1)">
      <use xlink:href="#DejaVuSans-31"/>
      <use x="63.623047" xlink:href="#DejaVuSans-35"/>
      <use x="127.246094" xlink:href="#DejaVuSans-2e"/>
      <use x="159.033203" xlink:href="#DejaVuSans-30"/>
     </g>
    </g>
   </g>
   <g id="xtick_8">
    <g id="line2d_9">
     <path d="M 377.464868 362.663676 
L 375.272596 366.099623 
" style="fill:none;stroke:#000000;stroke-linecap:square;stroke-width:0.8;"/>
    </g>
    <g id="text_9">
     <!-- 17.5 -->
     <g transform="translate(360.543457 385.17515)scale(0.1 -0.1)">
      <use xlink:href="#DejaVuSans-31"/>
      <use x="63.623047" xlink:href="#DejaVuSans-37"/>
      <use x="127.246094" xlink:href="#DejaVuSans-2e"/>
      <use x="159.033203" xlink:href="#DejaVuSans-35"/>
     </g>
    </g>
   </g>
   <g id="xtick_9">
    <g id="line2d_10">
     <path d="M 408.783029 368.874311 
L 406.633818 372.329795 
" style="fill:none;stroke:#000000;stroke-linecap:square;stroke-width:0.8;"/>
    </g>
    <g id="text_10">
     <!-- 20.0 -->
     <g transform="translate(391.840513 391.427153)scale(0.1 -0.1)">
      <use xlink:href="#DejaVuSans-32"/>
      <use x="63.623047" xlink:href="#DejaVuSans-30"/>
      <use x="127.246094" xlink:href="#DejaVuSans-2e"/>
      <use x="159.033203" xlink:href="#DejaVuSans-30"/>
     </g>
    </g>
   </g>
  </g>
  <g id="axis3d_2">
   <g id="line2d_11">
    <path d="M 497.890039 236.045004 
L 414.224029 371.246563 
" style="fill:none;stroke:#000000;stroke-linecap:square;stroke-width:0.8;"/>
   </g>
   <g id="text_11">
    <!-- Prey -->
    <defs>
     <path d="M 19.671875 64.796875 
L 19.671875 37.40625 
L 32.078125 37.40625 
Q 38.96875 37.40625 42.71875 40.96875 
Q 46.484375 44.53125 46.484375 51.125 
Q 46.484375 57.671875 42.71875 61.234375 
Q 38.96875 64.796875 32.078125 64.796875 
z
M 9.8125 72.90625 
L 32.078125 72.90625 
Q 44.34375 72.90625 50.609375 67.359375 
Q 56.890625 61.8125 56.890625 51.125 
Q 56.890625 40.328125 50.609375 34.8125 
Q 44.34375 29.296875 32.078125 29.296875 
L 19.671875 29.296875 
L 19.671875 0 
L 9.8125 0 
z
" id="DejaVuSans-50"/>
     <path d="M 32.171875 -5.078125 
Q 28.375 -14.84375 24.75 -17.8125 
Q 21.140625 -20.796875 15.09375 -20.796875 
L 7.90625 -20.796875 
L 7.90625 -13.28125 
L 13.1875 -13.28125 
Q 16.890625 -13.28125 18.9375 -11.515625 
Q 21 -9.765625 23.484375 -3.21875 
L 25.09375 0.875 
L 2.984375 54.6875 
L 12.5 54.6875 
L 29.59375 11.921875 
L 46.6875 54.6875 
L 56.203125 54.6875 
z
" id="DejaVuSans-79"/>
    </defs>
    <g transform="translate(474.661321 323.341515)scale(0.1 -0.1)">
     <use xlink:href="#DejaVuSans-50"/>
     <use x="60.287109" xlink:href="#DejaVuSans-72"/>
     <use x="101.369141" xlink:href="#DejaVuSans-65"/>
     <use x="162.892578" xlink:href="#DejaVuSans-79"/>
    </g>
   </g>
   <g id="Line3DCollection_2">
    <path d="M 145.149664 191.706167 
L 159.322202 317.51182 
L 416.004689 368.369074 
" style="fill:none;stroke:#b0b0b0;stroke-width:0.8;"/>
    <path d="M 158.571308 175.078255 
L 171.620105 301.184462 
L 426.591507 351.26112 
" style="fill:none;stroke:#b0b0b0;stroke-width:0.8;"/>
    <path d="M 171.773625 158.722065 
L 183.732138 285.103872 
L 437.014581 334.41777 
" style="fill:none;stroke:#b0b0b0;stroke-width:0.8;"/>
    <path d="M 184.761948 142.630989 
L 195.662486 269.264498 
L 447.277681 317.832934 
" style="fill:none;stroke:#b0b0b0;stroke-width:0.8;"/>
    <path d="M 197.541438 126.798634 
L 207.415205 253.660954 
L 457.384462 301.500703 
" style="fill:none;stroke:#b0b0b0;stroke-width:0.8;"/>
    <path d="M 210.117091 111.21881 
L 218.994234 238.288011 
L 467.338469 285.415351 
" style="fill:none;stroke:#b0b0b0;stroke-width:0.8;"/>
    <path d="M 222.493746 95.885522 
L 230.403394 223.140594 
L 477.143139 269.571323 
" style="fill:none;stroke:#b0b0b0;stroke-width:0.8;"/>
    <path d="M 234.676089 80.792966 
L 241.646396 208.213778 
L 486.801808 253.963226 
" style="fill:none;stroke:#b0b0b0;stroke-width:0.8;"/>
    <path d="M 246.66866 65.935515 
L 252.726844 193.502777 
L 496.317713 238.585832 
" style="fill:none;stroke:#b0b0b0;stroke-width:0.8;"/>
   </g>
   <g id="xtick_10">
    <g id="line2d_12">
     <path d="M 413.902924 367.952645 
L 420.210612 369.202405 
" style="fill:none;stroke:#000000;stroke-linecap:square;stroke-width:0.8;"/>
    </g>
    <g id="text_12">
     <!-- 0.0 -->
     <g transform="translate(421.681282 384.856361)scale(0.1 -0.1)">
      <use xlink:href="#DejaVuSans-30"/>
      <use x="63.623047" xlink:href="#DejaVuSans-2e"/>
      <use x="95.410156" xlink:href="#DejaVuSans-30"/>
     </g>
    </g>
   </g>
   <g id="xtick_11">
    <g id="line2d_13">
     <path d="M 424.504127 350.851156 
L 430.768626 352.081511 
" style="fill:none;stroke:#000000;stroke-linecap:square;stroke-width:0.8;"/>
    </g>
    <g id="text_13">
     <!-- 2.5 -->
     <g transform="translate(432.13181 367.728425)scale(0.1 -0.1)">
      <use xlink:href="#DejaVuSans-32"/>
      <use x="63.623047" xlink:href="#DejaVuSans-2e"/>
      <use x="95.410156" xlink:href="#DejaVuSans-35"/>
     </g>
    </g>
   </g>
   <g id="xtick_12">
    <g id="line2d_14">
     <path d="M 434.941393 334.014122 
L 441.16328 335.225519 
" style="fill:none;stroke:#000000;stroke-linecap:square;stroke-width:0.8;"/>
    </g>
    <g id="text_14">
     <!-- 5.0 -->
     <g transform="translate(442.421163 350.864648)scale(0.1 -0.1)">
      <use xlink:href="#DejaVuSans-35"/>
      <use x="63.623047" xlink:href="#DejaVuSans-2e"/>
      <use x="95.410156" xlink:href="#DejaVuSans-30"/>
     </g>
    </g>
   </g>
   <g id="xtick_13">
    <g id="line2d_15">
     <path d="M 445.218498 317.435456 
L 451.398338 318.62833 
" style="fill:none;stroke:#000000;stroke-linecap:square;stroke-width:0.8;"/>
    </g>
    <g id="text_15">
     <!-- 7.5 -->
     <g transform="translate(452.55304 334.258965)scale(0.1 -0.1)">
      <use xlink:href="#DejaVuSans-37"/>
      <use x="63.623047" xlink:href="#DejaVuSans-2e"/>
      <use x="95.410156" xlink:href="#DejaVuSans-35"/>
     </g>
    </g>
   </g>
   <g id="xtick_14">
    <g id="line2d_16">
     <path d="M 455.339099 301.109256 
L 461.477446 302.284029 
" style="fill:none;stroke:#000000;stroke-linecap:square;stroke-width:0.8;"/>
    </g>
    <g id="text_16">
     <!-- 10.0 -->
     <g transform="translate(459.34978 317.905498)scale(0.1 -0.1)">
      <use xlink:href="#DejaVuSans-31"/>
      <use x="63.623047" xlink:href="#DejaVuSans-30"/>
      <use x="127.246094" xlink:href="#DejaVuSans-2e"/>
      <use x="159.033203" xlink:href="#DejaVuSans-30"/>
     </g>
    </g>
   </g>
   <g id="xtick_15">
    <g id="line2d_17">
     <path d="M 465.306745 285.029799 
L 471.404143 286.186879 
" style="fill:none;stroke:#000000;stroke-linecap:square;stroke-width:0.8;"/>
    </g>
    <g id="text_17">
     <!-- 12.5 -->
     <g transform="translate(469.177362 301.798542)scale(0.1 -0.1)">
      <use xlink:href="#DejaVuSans-31"/>
      <use x="63.623047" xlink:href="#DejaVuSans-32"/>
      <use x="127.246094" xlink:href="#DejaVuSans-2e"/>
      <use x="159.033203" xlink:href="#DejaVuSans-35"/>
     </g>
    </g>
   </g>
   <g id="xtick_16">
    <g id="line2d_18">
     <path d="M 475.124876 269.191532 
L 481.181858 270.331316 
" style="fill:none;stroke:#000000;stroke-linecap:square;stroke-width:0.8;"/>
    </g>
    <g id="text_18">
     <!-- 15.0 -->
     <g transform="translate(478.857911 285.932565)scale(0.1 -0.1)">
      <use xlink:href="#DejaVuSans-31"/>
      <use x="63.623047" xlink:href="#DejaVuSans-35"/>
      <use x="127.246094" xlink:href="#DejaVuSans-2e"/>
      <use x="159.033203" xlink:href="#DejaVuSans-30"/>
     </g>
    </g>
   </g>
   <g id="xtick_17">
    <g id="line2d_19">
     <path d="M 484.796833 253.58907 
L 490.813922 254.711943 
" style="fill:none;stroke:#000000;stroke-linecap:square;stroke-width:0.8;"/>
    </g>
    <g id="text_19">
     <!-- 17.5 -->
     <g transform="translate(488.394703 270.302201)scale(0.1 -0.1)">
      <use xlink:href="#DejaVuSans-31"/>
      <use x="63.623047" xlink:href="#DejaVuSans-37"/>
      <use x="127.246094" xlink:href="#DejaVuSans-2e"/>
      <use x="159.033203" xlink:href="#DejaVuSans-35"/>
     </g>
    </g>
   </g>
   <g id="xtick_18">
    <g id="line2d_20">
     <path d="M 494.325855 238.217185 
L 500.303564 239.323521 
" style="fill:none;stroke:#000000;stroke-linecap:square;stroke-width:0.8;"/>
    </g>
    <g id="text_20">
     <!-- 20.0 -->
     <g transform="translate(497.790916 254.902238)scale(0.1 -0.1)">
      <use xlink:href="#DejaVuSans-32"/>
      <use x="63.623047" xlink:href="#DejaVuSans-30"/>
      <use x="127.246094" xlink:href="#DejaVuSans-2e"/>
      <use x="159.033203" xlink:href="#DejaVuSans-30"/>
     </g>
    </g>
   </g>
  </g>
  <g id="axis3d_3">
   <g id="line2d_21">
    <path d="M 497.890039 236.045004 
L 511.105706 108.947155 
" style="fill:none;stroke:#000000;stroke-linecap:square;stroke-width:0.8;"/>
   </g>
   <g id="text_21">
    <!-- Parameter -->
    <defs>
     <path d="M 34.28125 27.484375 
Q 23.390625 27.484375 19.1875 25 
Q 14.984375 22.515625 14.984375 16.5 
Q 14.984375 11.71875 18.140625 8.90625 
Q 21.296875 6.109375 26.703125 6.109375 
Q 34.1875 6.109375 38.703125 11.40625 
Q 43.21875 16.703125 43.21875 25.484375 
L 43.21875 27.484375 
z
M 52.203125 31.203125 
L 52.203125 0 
L 43.21875 0 
L 43.21875 8.296875 
Q 40.140625 3.328125 35.546875 0.953125 
Q 30.953125 -1.421875 24.3125 -1.421875 
Q 15.921875 -1.421875 10.953125 3.296875 
Q 6 8.015625 6 15.921875 
Q 6 25.140625 12.171875 29.828125 
Q 18.359375 34.515625 30.609375 34.515625 
L 43.21875 34.515625 
L 43.21875 35.40625 
Q 43.21875 41.609375 39.140625 45 
Q 35.0625 48.390625 27.6875 48.390625 
Q 23 48.390625 18.546875 47.265625 
Q 14.109375 46.140625 10.015625 43.890625 
L 10.015625 52.203125 
Q 14.9375 54.109375 19.578125 55.046875 
Q 24.21875 56 28.609375 56 
Q 40.484375 56 46.34375 49.84375 
Q 52.203125 43.703125 52.203125 31.203125 
z
" id="DejaVuSans-61"/>
     <path d="M 52 44.1875 
Q 55.375 50.25 60.0625 53.125 
Q 64.75 56 71.09375 56 
Q 79.640625 56 84.28125 50.015625 
Q 88.921875 44.046875 88.921875 33.015625 
L 88.921875 0 
L 79.890625 0 
L 79.890625 32.71875 
Q 79.890625 40.578125 77.09375 44.375 
Q 74.3125 48.1875 68.609375 48.1875 
Q 61.625 48.1875 57.5625 43.546875 
Q 53.515625 38.921875 53.515625 30.90625 
L 53.515625 0 
L 44.484375 0 
L 44.484375 32.71875 
Q 44.484375 40.625 41.703125 44.40625 
Q 38.921875 48.1875 33.109375 48.1875 
Q 26.21875 48.1875 22.15625 43.53125 
Q 18.109375 38.875 18.109375 30.90625 
L 18.109375 0 
L 9.078125 0 
L 9.078125 54.6875 
L 18.109375 54.6875 
L 18.109375 46.1875 
Q 21.1875 51.21875 25.484375 53.609375 
Q 29.78125 56 35.6875 56 
Q 41.65625 56 45.828125 52.96875 
Q 50 49.953125 52 44.1875 
z
" id="DejaVuSans-6d"/>
    </defs>
    <g transform="translate(543.473432 191.885125)rotate(-84.063703)scale(0.1 -0.1)">
     <use xlink:href="#DejaVuSans-50"/>
     <use x="60.240234" xlink:href="#DejaVuSans-61"/>
     <use x="121.519531" xlink:href="#DejaVuSans-72"/>
     <use x="162.632812" xlink:href="#DejaVuSans-61"/>
     <use x="223.912109" xlink:href="#DejaVuSans-6d"/>
     <use x="321.324219" xlink:href="#DejaVuSans-65"/>
     <use x="382.847656" xlink:href="#DejaVuSans-74"/>
     <use x="422.056641" xlink:href="#DejaVuSans-65"/>
     <use x="483.580078" xlink:href="#DejaVuSans-72"/>
    </g>
   </g>
   <g id="Line3DCollection_3">
    <path d="M 498.13532 233.686086 
L 254.448177 188.699536 
L 156.988448 317.930883 
" style="fill:none;stroke:#b0b0b0;stroke-width:0.8;"/>
    <path d="M 499.622279 219.385689 
L 253.78238 174.322713 
L 155.376823 303.820706 
" style="fill:none;stroke:#b0b0b0;stroke-width:0.8;"/>
    <path d="M 501.13593 204.828586 
L 253.104896 159.693547 
L 153.735063 289.446688 
" style="fill:none;stroke:#b0b0b0;stroke-width:0.8;"/>
    <path d="M 502.676999 190.007803 
L 252.415416 144.805334 
L 152.062314 274.801359 
" style="fill:none;stroke:#b0b0b0;stroke-width:0.8;"/>
    <path d="M 504.246237 174.91611 
L 251.713618 129.651132 
L 150.357691 259.876965 
" style="fill:none;stroke:#b0b0b0;stroke-width:0.8;"/>
    <path d="M 505.844424 159.546011 
L 250.999169 114.22375 
L 148.620274 244.665452 
" style="fill:none;stroke:#b0b0b0;stroke-width:0.8;"/>
    <path d="M 507.472368 143.889729 
L 250.271723 98.515733 
L 146.849108 229.158455 
" style="fill:none;stroke:#b0b0b0;stroke-width:0.8;"/>
    <path d="M 509.130908 127.939197 
L 249.530923 82.519354 
L 145.0432 213.347278 
" style="fill:none;stroke:#b0b0b0;stroke-width:0.8;"/>
    <path d="M 510.820916 111.686042 
L 248.776398 66.226598 
L 143.201516 197.222884 
" style="fill:none;stroke:#b0b0b0;stroke-width:0.8;"/>
   </g>
   <g id="xtick_19">
    <g id="line2d_22">
     <path d="M 496.142665 233.318226 
L 502.122768 234.4222 
" style="fill:none;stroke:#000000;stroke-linecap:square;stroke-width:0.8;"/>
    </g>
    <g id="text_22">
     <!-- 0.00 -->
     <g transform="translate(504.455083 236.974683)scale(0.1 -0.1)">
      <use xlink:href="#DejaVuSans-30"/>
      <use x="63.623047" xlink:href="#DejaVuSans-2e"/>
      <use x="95.410156" xlink:href="#DejaVuSans-30"/>
      <use x="159.033203" xlink:href="#DejaVuSans-30"/>
     </g>
    </g>
   </g>
   <g id="xtick_20">
    <g id="line2d_23">
     <path d="M 497.611633 219.017133 
L 503.645746 220.123199 
" style="fill:none;stroke:#000000;stroke-linecap:square;stroke-width:0.8;"/>
    </g>
    <g id="text_23">
     <!-- 0.25 -->
     <g transform="translate(506.093828 222.666205)scale(0.1 -0.1)">
      <use xlink:href="#DejaVuSans-30"/>
      <use x="63.623047" xlink:href="#DejaVuSans-2e"/>
      <use x="95.410156" xlink:href="#DejaVuSans-32"/>
      <use x="159.033203" xlink:href="#DejaVuSans-35"/>
     </g>
    </g>
   </g>
   <g id="xtick_21">
    <g id="line2d_24">
     <path d="M 499.106966 204.459368 
L 505.196073 205.567424 
" style="fill:none;stroke:#000000;stroke-linecap:square;stroke-width:0.8;"/>
    </g>
    <g id="text_24">
     <!-- 0.50 -->
     <g transform="translate(507.761927 208.101425)scale(0.1 -0.1)">
      <use xlink:href="#DejaVuSans-30"/>
      <use x="63.623047" xlink:href="#DejaVuSans-2e"/>
      <use x="95.410156" xlink:href="#DejaVuSans-35"/>
      <use x="159.033203" xlink:href="#DejaVuSans-30"/>
     </g>
    </g>
   </g>
   <g id="xtick_22">
    <g id="line2d_25">
     <path d="M 500.629379 189.63796 
L 506.774493 190.747896 
" style="fill:none;stroke:#000000;stroke-linecap:square;stroke-width:0.8;"/>
    </g>
    <g id="text_25">
     <!-- 0.75 -->
     <g transform="translate(509.460177 193.273391)scale(0.1 -0.1)">
      <use xlink:href="#DejaVuSans-30"/>
      <use x="63.623047" xlink:href="#DejaVuSans-2e"/>
      <use x="95.410156" xlink:href="#DejaVuSans-37"/>
      <use x="159.033203" xlink:href="#DejaVuSans-35"/>
     </g>
    </g>
   </g>
   <g id="xtick_23">
    <g id="line2d_26">
     <path d="M 502.179616 174.54568 
L 508.381775 175.657381 
" style="fill:none;stroke:#000000;stroke-linecap:square;stroke-width:0.8;"/>
    </g>
    <g id="text_26">
     <!-- 1.00 -->
     <g transform="translate(511.189401 178.174903)scale(0.1 -0.1)">
      <use xlink:href="#DejaVuSans-31"/>
      <use x="63.623047" xlink:href="#DejaVuSans-2e"/>
      <use x="95.410156" xlink:href="#DejaVuSans-30"/>
      <use x="159.033203" xlink:href="#DejaVuSans-30"/>
     </g>
    </g>
   </g>
   <g id="xtick_24">
    <g id="line2d_27">
     <path d="M 503.758446 159.175036 
L 510.018719 160.288377 
" style="fill:none;stroke:#000000;stroke-linecap:square;stroke-width:0.8;"/>
    </g>
    <g id="text_27">
     <!-- 1.25 -->
     <g transform="translate(512.950456 162.798493)scale(0.1 -0.1)">
      <use xlink:href="#DejaVuSans-31"/>
      <use x="63.623047" xlink:href="#DejaVuSans-2e"/>
      <use x="95.410156" xlink:href="#DejaVuSans-32"/>
      <use x="159.033203" xlink:href="#DejaVuSans-35"/>
     </g>
    </g>
   </g>
   <g id="xtick_25">
    <g id="line2d_28">
     <path d="M 505.366667 143.518252 
L 511.686153 144.633103 
" style="fill:none;stroke:#000000;stroke-linecap:square;stroke-width:0.8;"/>
    </g>
    <g id="text_28">
     <!-- 1.50 -->
     <g transform="translate(514.744229 147.136414)scale(0.1 -0.1)">
      <use xlink:href="#DejaVuSans-31"/>
      <use x="63.623047" xlink:href="#DejaVuSans-2e"/>
      <use x="95.410156" xlink:href="#DejaVuSans-35"/>
      <use x="159.033203" xlink:href="#DejaVuSans-30"/>
     </g>
    </g>
   </g>
   <g id="xtick_26">
    <g id="line2d_29">
     <path d="M 507.005108 127.567265 
L 513.384938 128.683486 
" style="fill:none;stroke:#000000;stroke-linecap:square;stroke-width:0.8;"/>
    </g>
    <g id="text_29">
     <!-- 1.75 -->
     <g transform="translate(516.571639 131.180633)scale(0.1 -0.1)">
      <use xlink:href="#DejaVuSans-31"/>
      <use x="63.623047" xlink:href="#DejaVuSans-2e"/>
      <use x="95.410156" xlink:href="#DejaVuSans-37"/>
      <use x="159.033203" xlink:href="#DejaVuSans-35"/>
     </g>
    </g>
   </g>
   <g id="xtick_27">
    <g id="line2d_30">
     <path d="M 508.674628 111.313704 
L 515.115965 112.431146 
" style="fill:none;stroke:#000000;stroke-linecap:square;stroke-width:0.8;"/>
    </g>
    <g id="text_30">
     <!-- 2.00 -->
     <g transform="translate(518.433642 114.92281)scale(0.1 -0.1)">
      <use xlink:href="#DejaVuSans-32"/>
      <use x="63.623047" xlink:href="#DejaVuSans-2e"/>
      <use x="95.410156" xlink:href="#DejaVuSans-30"/>
      <use x="159.033203" xlink:href="#DejaVuSans-30"/>
     </g>
    </g>
   </g>
  </g>
  <g id="axes_1">
   <g id="line2d_31">
    <path clip-path="url(#p4bd8c1df17)" d="M 314.802415 202.627561 
L 304.614198 222.542459 
L 295.523423 239.827992 
L 287.932422 253.815278 
L 281.026113 266.093764 
L 274.959693 276.438895 
L 269.880474 284.709199 
L 265.25185 291.867882 
L 261.130251 297.879581 
L 257.57226 302.745877 
L 253.885946 307.420648 
L 250.83092 310.972044 
L 247.667293 314.302698 
L 245.213551 316.619464 
L 242.681719 318.747646 
L 240.063715 320.653794 
L 237.352368 322.303062 
L 234.543538 323.662949 
L 231.639292 324.709416 
L 228.651566 325.434615 
L 225.604598 325.853318 
L 222.533833 326.003691 
L 219.480529 325.940208 
L 215.504077 325.624004 
L 210.781843 325.020223 
L 203.95212 323.903072 
L 192.415333 321.748331 
L 164.085228 316.17763 
L 164.085228 316.17763 
" style="fill:none;stroke:#000000;stroke-linecap:square;stroke-width:1.5;"/>
   </g>
   <g id="line2d_32">
    <path clip-path="url(#p4bd8c1df17)" d="M 314.676569 189.879941 
L 304.313127 205.485182 
L 295.309202 219.414738 
L 287.647404 231.652162 
L 280.432181 243.593476 
L 272.357332 257.435337 
L 263.706103 272.227673 
L 259.793913 278.486368 
L 256.245235 283.738391 
L 252.957157 288.180884 
L 249.90638 291.919724 
L 247.117677 295.015409 
L 244.131231 297.997285 
L 241.465962 300.375551 
L 238.618924 302.629697 
L 235.571898 304.723476 
L 232.980395 306.251838 
L 230.247412 307.61956 
L 227.373703 308.796954 
L 224.367284 309.756579 
L 221.245945 310.478708 
L 218.03893 310.957312 
L 214.786366 311.20409 
L 211.535517 311.247911 
L 207.547296 311.079229 
L 202.975874 310.659592 
L 197.386888 309.923697 
L 189.693837 308.674666 
L 177.645007 306.461241 
L 165.859706 304.098226 
L 164.255598 303.603526 
L 163.888064 303.292698 
L 163.842264 302.973583 
L 164.0255 302.46499 
L 164.713594 301.352265 
L 167.029388 298.155189 
L 177.560936 284.166165 
L 211.280497 239.728436 
L 211.281477 239.729194 
L 211.512713 240.057592 
L 213.698754 243.442213 
L 215.529881 246.680859 
L 217.033761 249.787431 
L 218.22541 252.752288 
L 219.133601 255.602885 
L 219.769643 258.322886 
L 220.153762 260.927981 
L 220.30033 263.422509 
L 220.220699 265.821784 
L 219.920866 268.131761 
L 219.409184 270.333514 
L 218.696681 272.412965 
L 217.795655 274.35637 
L 216.721086 276.144068 
L 215.520816 277.714017 
L 214.23981 279.027158 
L 212.994732 279.991439 
L 211.931587 280.547518 
L 211.150111 280.723888 
L 210.657151 280.624049 
L 210.388593 280.35545 
L 210.275628 279.912807 
L 210.350209 279.239997 
L 210.699061 278.252222 
L 211.406738 276.94347 
L 212.479713 275.433428 
L 213.690746 274.101338 
L 214.710355 273.285521 
L 215.395799 272.990692 
L 215.793861 273.034472 
L 216.001705 273.269568 
L 216.076412 273.714712 
L 215.955671 274.43774 
L 215.55329 275.431606 
L 214.872077 276.515081 
L 214.041498 277.429982 
L 213.295403 277.947173 
L 212.838598 278.032689 
L 212.649509 277.872496 
L 212.626982 277.53586 
L 212.830304 276.931417 
L 213.359128 276.080495 
L 214.068028 275.338236 
L 214.562319 275.090374 
L 214.750782 275.189815 
L 214.766124 275.477314 
L 214.550547 276.026479 
L 214.060177 276.674917 
L 213.597766 276.972352 
L 213.452378 276.879554 
L 213.504485 276.592371 
L 213.833533 276.082543 
L 214.214239 275.825701 
L 214.278834 275.943677 
L 214.133317 276.273023 
L 213.80665 276.548129 
L 213.763918 276.481164 
L 213.772882 276.434902 
L 213.974946 276.141369 
L 214.078257 276.110963 
L 214.065209 276.211323 
L 213.895372 276.379126 
L 213.962348 276.27411 
" style="fill:none;stroke:#1a1a1a;stroke-linecap:square;stroke-width:1.5;"/>
   </g>
   <g id="line2d_33">
    <path clip-path="url(#p4bd8c1df17)" d="M 314.54875 176.932428 
L 300.272074 197.55254 
L 289.52109 213.513127 
L 281.587923 225.739125 
L 275.729445 235.204879 
L 271.345354 242.690136 
L 267.382423 249.897739 
L 263.089837 258.231549 
L 259.199763 265.677023 
L 257.083468 269.234275 
L 255.189535 272.004153 
L 253.154259 274.572536 
L 251.094692 276.810205 
L 248.816899 278.94683 
L 246.28144 280.997108 
L 243.699548 282.805236 
L 240.844279 284.542292 
L 237.692923 286.198223 
L 234.228417 287.755065 
L 230.800498 289.062239 
L 227.11226 290.239832 
L 223.183288 291.257795 
L 219.052486 292.085301 
L 214.781538 292.696215 
L 210.455053 293.075557 
L 206.175444 293.224321 
L 202.052449 293.159653 
L 197.821854 292.875279 
L 194.02177 292.404841 
L 190.736839 291.774787 
L 188.246448 291.067545 
L 186.61629 290.398779 
L 185.466187 289.723271 
L 184.584688 288.944179 
L 184.052021 288.175477 
L 183.734642 287.293679 
L 183.643109 286.276614 
L 183.789255 285.099444 
L 184.18559 283.735616 
L 184.980213 281.873115 
L 186.344486 279.341046 
L 188.468026 275.935976 
L 191.857464 270.989651 
L 197.126104 263.757793 
L 204.35689 254.226463 
L 211.727904 244.858302 
L 216.255176 239.427102 
L 218.63774 236.869705 
L 220.036293 235.666354 
L 220.869807 235.2101 
L 221.487366 235.103189 
L 222.068109 235.227148 
L 222.828419 235.641938 
L 224.419994 236.829064 
L 228.179712 239.9322 
L 231.686063 243.101947 
L 234.629077 246.054297 
L 237.090359 248.832337 
L 239.085044 251.4108 
L 240.678025 253.825355 
L 241.903405 256.079077 
L 242.788456 258.157221 
L 243.38219 260.100897 
L 243.71039 261.920147 
L 243.7933 263.628589 
L 243.648733 265.200052 
L 243.295035 266.646935 
L 242.742318 267.972181 
L 242.018983 269.133895 
L 241.151193 270.108647 
L 240.231045 270.817118 
L 239.373353 271.214008 
L 238.697921 271.304756 
L 238.235411 271.157796 
L 237.976914 270.850409 
L 237.884816 270.390601 
L 237.991552 269.735019 
L 238.36357 268.894431 
L 238.994901 268.016436 
L 239.723966 267.364458 
L 240.322151 267.098303 
L 240.713704 267.142965 
L 240.921395 267.378104 
L 240.97575 267.794576 
L 240.816699 268.372158 
L 240.423773 268.967259 
L 239.936324 269.33454 
L 239.599458 269.354687 
L 239.485845 269.167656 
L 239.557469 268.817952 
L 239.864699 268.404819 
L 240.176645 268.286356 
L 240.255307 268.431616 
L 240.134079 268.716806 
L 239.890955 268.839244 
L 239.889067 268.697312 
L 240.047985 268.567436 
L 240.06369 268.587249 
L 239.989352 268.709867 
L 239.981675 268.710972 
L 239.965241 268.692706 
L 240.016109 268.64613 
L 239.999 268.661827 
" style="fill:none;stroke:#333333;stroke-linecap:square;stroke-width:1.5;"/>
   </g>
   <g id="line2d_34">
    <path clip-path="url(#p4bd8c1df17)" d="M 314.418912 163.780283 
L 298.806429 185.836014 
L 287.321704 202.448054 
L 279.32068 214.447393 
L 273.865693 223.073408 
L 270.196792 229.33377 
L 267.774041 233.946283 
L 266.357812 237.082841 
L 265.441266 239.595024 
L 264.915652 241.625736 
L 264.683962 243.425207 
L 264.715906 244.90151 
L 264.976597 246.320944 
L 265.472675 247.745776 
L 266.367698 249.569148 
L 268.546984 253.831991 
L 269.136574 255.566491 
L 269.411463 257.037418 
L 269.43938 258.368923 
L 269.246633 259.544904 
L 268.857364 260.57838 
L 268.289249 261.462841 
L 267.588776 262.149343 
L 266.831689 262.589465 
L 266.153887 262.744797 
L 265.645565 262.653108 
L 265.332166 262.384675 
L 265.196216 261.971444 
L 265.258215 261.422443 
L 265.557864 260.783285 
L 266.05739 260.230231 
L 266.566871 259.970281 
L 266.930501 260.004304 
L 267.124218 260.229697 
L 267.141799 260.595435 
L 266.939635 261.01062 
L 266.600274 261.247501 
L 266.380037 261.185824 
L 266.366881 260.967637 
L 266.563037 260.734279 
L 266.696636 260.764644 
L 266.703602 260.794514 
L 266.603728 260.952464 
L 266.553633 260.932931 
L 266.616837 260.86432 
L 266.597867 260.885172 
" style="fill:none;stroke:#4d4d4d;stroke-linecap:square;stroke-width:1.5;"/>
   </g>
   <g id="line2d_35">
    <path clip-path="url(#p4bd8c1df17)" d="M 314.287004 150.418617 
L 294.833758 177.525834 
L 282.760345 194.799361 
L 276.480715 204.141518 
L 272.090224 211.046326 
L 269.235751 215.970511 
L 267.710404 219.025669 
L 266.909019 221.05371 
L 266.503126 222.66399 
L 266.438019 223.785263 
L 266.612535 224.708977 
L 266.997359 225.478032 
L 267.620845 226.200789 
L 268.679379 227.043013 
L 270.698262 228.307869 
L 279.850138 233.833973 
L 283.95905 236.631066 
L 287.293466 239.159476 
L 289.979462 241.466304 
L 292.087802 243.565194 
L 293.655219 245.430847 
L 294.77229 247.09381 
L 295.51291 248.585786 
L 295.921216 249.894738 
L 296.053045 251.049446 
L 295.949788 252.036145 
L 295.637054 252.894845 
L 295.14788 253.583618 
L 294.543359 254.0611 
L 293.911287 254.294819 
L 293.368281 254.277809 
L 292.999423 254.060146 
L 292.82084 253.708351 
L 292.836298 253.252452 
L 293.076691 252.758194 
L 293.478509 252.417761 
L 293.855503 252.36158 
L 294.075974 252.529589 
L 294.106192 252.82312 
L 293.924461 253.094175 
L 293.690774 253.119459 
L 293.660627 252.954825 
L 293.798849 252.863847 
L 293.815397 252.876247 
L 293.801502 252.958452 
L 293.777359 252.938761 
" style="fill:none;stroke:#666666;stroke-linecap:square;stroke-width:1.5;"/>
   </g>
   <g id="line2d_36">
    <path clip-path="url(#p4bd8c1df17)" d="M 314.152979 136.842381 
L 291.229642 168.427519 
L 281.277929 182.492657 
L 274.574997 192.330076 
L 270.448811 198.814191 
L 268.406329 202.429315 
L 267.387772 204.625893 
L 266.930997 206.041256 
L 266.805311 207.151629 
L 266.946116 207.891987 
L 267.300251 208.494393 
L 267.917441 209.050714 
L 269.0445 209.70398 
L 271.594221 210.847104 
L 284.361644 216.419347 
L 292.453287 220.21699 
L 299.320093 223.679704 
L 305.081158 226.829168 
L 309.760837 229.630393 
L 313.60861 232.18425 
L 316.640293 234.452221 
L 318.976225 236.461621 
L 320.730778 238.246832 
L 321.999551 239.843042 
L 322.832038 241.238413 
L 323.292944 242.427207 
L 323.45808 243.443034 
L 323.376471 244.305101 
L 323.093604 244.992614 
L 322.638281 245.516299 
L 322.078006 245.824738 
L 321.533157 245.886266 
L 321.109791 245.72463 
L 320.883695 245.416065 
L 320.860899 245.020122 
L 321.056674 244.631516 
L 321.390923 244.426527 
L 321.676414 244.482943 
L 321.779001 244.704184 
L 321.659272 244.917973 
L 321.493805 244.89882 
L 321.489012 244.88926 
L 321.530512 244.779191 
L 321.56287 244.777773 
L 321.578723 244.815038 
L 321.556696 244.816975 
" style="fill:none;stroke:#808080;stroke-linecap:square;stroke-width:1.5;"/>
   </g>
   <g id="line2d_37">
    <path clip-path="url(#p4bd8c1df17)" d="M 314.016783 123.046366 
L 293.550904 150.885838 
L 280.654149 168.795452 
L 273.246977 179.502495 
L 269.815475 184.827391 
L 267.811122 188.371695 
L 266.990227 190.297747 
L 266.752595 191.425104 
L 266.824184 192.130007 
L 267.128756 192.679495 
L 267.63998 193.113241 
L 268.594006 193.605106 
L 270.976821 194.514205 
L 289.501228 201.316899 
L 301.274825 205.90289 
L 311.375372 210.067831 
L 319.986734 213.851516 
L 327.250892 217.279374 
L 333.297579 220.372975 
L 338.209656 223.128258 
L 342.116284 225.562442 
L 345.235332 227.76091 
L 347.551599 229.651728 
L 349.269145 231.329513 
L 350.447207 232.78318 
L 351.164071 234.008622 
L 351.517197 235.042268 
L 351.574379 235.878011 
L 351.40298 236.536369 
L 351.054881 237.01842 
L 350.570766 237.311949 
L 350.065899 237.371598 
L 349.66105 237.214419 
L 349.444796 236.904641 
L 349.457639 236.547401 
L 349.676986 236.282733 
L 349.959174 236.251844 
L 350.103762 236.425419 
L 350.010925 236.587999 
L 349.9143 236.548097 
L 349.931904 236.495788 
L 349.966343 236.500191 
L 349.955959 236.513942 
" style="fill:none;stroke:#999999;stroke-linecap:square;stroke-width:1.5;"/>
   </g>
   <g id="line2d_38">
    <path clip-path="url(#p4bd8c1df17)" d="M 313.878365 109.025192 
L 290.674615 140.292664 
L 277.8654 157.945548 
L 271.167226 167.616368 
L 268.353077 172.069852 
L 267.104361 174.410874 
L 266.605028 175.738458 
L 266.497342 176.536625 
L 266.653059 177.143458 
L 267.053477 177.587356 
L 267.746292 177.974414 
L 269.410689 178.58168 
L 307.443402 191.234699 
L 321.300672 196.198247 
L 333.199814 200.692625 
L 343.260649 204.724163 
L 351.686556 208.331158 
L 358.789057 211.608586 
L 364.535418 214.497844 
L 369.192529 217.082766 
L 372.812247 219.338239 
L 375.56799 221.307698 
L 377.555372 222.98492 
L 378.933527 224.419044 
L 379.819533 225.648843 
L 380.272289 226.633015 
L 380.406749 227.41358 
L 380.30115 228.014833 
L 380.014251 228.441837 
L 379.59206 228.687299 
L 379.122703 228.714448 
L 378.749743 228.527656 
L 378.591554 228.220598 
L 378.672681 227.930482 
L 378.907283 227.8217 
L 379.090644 227.943192 
L 379.043113 228.070408 
L 379.018896 228.074224 
L 378.969623 228.032683 
L 378.996133 228.023527 
" style="fill:none;stroke:#b3b3b3;stroke-linecap:square;stroke-width:1.5;"/>
   </g>
   <g id="line2d_39">
    <path clip-path="url(#p4bd8c1df17)" d="M 313.73767 94.773301 
L 287.929135 129.236059 
L 275.438573 146.328342 
L 270.44932 153.478715 
L 267.594047 157.955621 
L 266.493536 160.087562 
L 266.156327 161.198171 
L 266.184237 161.821171 
L 266.395596 162.20073 
L 266.875678 162.557267 
L 267.943185 162.980402 
L 272.203299 164.257743 
L 295.005454 171.109309 
L 314.874361 177.306804 
L 332.11537 182.910523 
L 347.150974 188.026639 
L 359.928167 192.602749 
L 370.745974 196.705 
L 379.913421 200.413953 
L 387.502076 203.720297 
L 393.65762 206.640261 
L 398.561057 209.207126 
L 402.304264 211.404896 
L 405.179069 213.341199 
L 407.203961 214.956009 
L 408.607401 216.347276 
L 409.440904 217.467946 
L 409.846949 218.362411 
L 409.927098 219.035232 
L 409.778025 219.514456 
L 409.462866 219.817951 
L 409.032128 219.926637 
L 408.619319 219.807686 
L 408.399112 219.532134 
L 408.438314 219.271934 
L 408.642068 219.194815 
L 408.768408 219.330987 
L 408.76792 219.333145 
L 408.709066 219.371322 
L 408.699161 219.339315 
" style="fill:none;stroke:#cccccc;stroke-linecap:square;stroke-width:1.5;"/>
   </g>
   <g id="line2d_40">
    <path clip-path="url(#p4bd8c1df17)" d="M 313.59464 80.284951 
L 285.306964 117.722583 
L 273.305856 134.03617 
L 268.875148 140.393418 
L 266.563599 144.119373 
L 265.822801 145.765199 
L 265.718627 146.568134 
L 265.895535 147.000573 
L 266.289848 147.315796 
L 267.173324 147.667209 
L 270.640282 148.649849 
L 298.058189 156.35765 
L 321.918777 163.291171 
L 342.783783 169.579141 
L 361.025371 175.304304 
L 376.544625 180.400311 
L 389.960566 185.03479 
L 401.165789 189.13376 
L 410.596558 192.815183 
L 418.220685 196.020107 
L 424.409117 198.851744 
L 429.354422 201.351724 
L 433.136211 203.50453 
L 435.885403 205.308782 
L 437.873377 206.868461 
L 439.141591 208.130599 
L 439.860607 209.141814 
L 440.148559 209.905903 
L 440.132546 210.437373 
L 439.915063 210.780004 
L 439.555647 210.939379 
L 439.148166 210.884887 
L 438.876592 210.646231 
L 438.879068 210.40342 
L 439.058627 210.35474 
L 439.134998 210.456137 
L 439.088 210.454594 
" style="fill:none;stroke:#e6e6e6;stroke-linecap:square;stroke-width:1.5;"/>
   </g>
   <g id="line2d_41">
    <path clip-path="url(#p4bd8c1df17)" d="M 314.802415 202.627561 
L 313.59464 80.284951 
" style="fill:none;stroke:#008000;stroke-linecap:square;stroke-width:1.5;"/>
   </g>
   <g id="line2d_42">
    <path clip-path="url(#p4bd8c1df17)" d="M 164.084552 316.17853 
L 163.960787 315.047565 
L 163.836838 313.914921 
L 163.712705 312.780595 
L 163.588388 311.644582 
L 163.463886 310.50688 
L 163.339198 309.367484 
L 163.214325 308.22639 
L 163.089265 307.083596 
L 162.964019 305.939096 
L 162.838586 304.792887 
L 162.712966 303.644966 
L 162.587157 302.495328 
L 162.461161 301.34397 
L 162.334975 300.190887 
L 162.208601 299.036077 
L 162.082037 297.879534 
L 161.955283 296.721255 
L 161.828338 295.561237 
L 161.701203 294.399475 
L 161.573877 293.235965 
L 161.446359 292.070703 
L 161.318648 290.903686 
L 161.190746 289.734909 
L 161.06265 288.564369 
L 160.934361 287.392061 
L 160.805878 286.217982 
L 160.6772 285.042127 
L 160.548328 283.864492 
L 160.419261 282.685074 
L 160.289998 281.503868 
L 160.160539 280.320871 
L 160.030883 279.136077 
L 159.901031 277.949484 
L 159.770981 276.761086 
L 159.640733 275.570881 
L 159.510287 274.378863 
L 159.379642 273.185028 
L 159.248797 271.989373 
L 159.117754 270.791893 
L 158.98651 269.592585 
L 158.855065 268.391443 
L 158.723419 267.188464 
L 158.591572 265.983643 
L 158.459523 264.776977 
L 158.327271 263.56846 
L 158.194817 262.358089 
L 158.062159 261.14586 
L 157.929297 259.931768 
L 157.796231 258.715808 
L 157.66296 257.497977 
L 157.529483 256.278271 
L 157.395802 255.056684 
L 157.261913 253.833213 
L 157.127818 252.607853 
L 156.993516 251.380599 
L 156.859007 250.151449 
L 156.724289 248.920396 
L 156.589362 247.687437 
L 156.454227 246.452566 
L 156.318881 245.215781 
L 156.183326 243.977076 
L 156.04756 242.736446 
L 155.911583 241.493888 
L 155.775395 240.249397 
L 155.638994 239.002968 
L 155.502381 237.754596 
L 155.365555 236.504278 
L 155.228515 235.252009 
L 155.091262 233.997783 
L 154.953793 232.741597 
L 154.81611 231.483446 
L 154.678211 230.223325 
L 154.540096 228.96123 
L 154.401765 227.697156 
L 154.263216 226.431098 
L 154.12445 225.163052 
L 153.985466 223.893012 
L 153.846263 222.620975 
L 153.706841 221.346936 
L 153.567199 220.070889 
L 153.427337 218.792831 
L 153.287255 217.512755 
L 153.146951 216.230659 
L 153.006425 214.946536 
L 152.865678 213.660381 
L 152.724707 212.372191 
L 152.583513 211.081961 
L 152.442095 209.789684 
L 152.300453 208.495358 
L 152.158586 207.198976 
L 152.016494 205.900533 
L 151.874175 204.600026 
L 151.73163 203.297448 
L 151.588858 201.992796 
L 151.445858 200.686063 
L 151.30263 199.377246 
L 151.159174 198.066338 
L 151.015488 196.753336 
L 150.871572 195.438233 
" style="fill:none;stroke:#e018bb;stroke-linecap:square;stroke-width:1.5;"/>
   </g>
   <g id="line2d_43">
    <path clip-path="url(#p4bd8c1df17)" d="M 212.128443 252.244006 
L 212.042938 251.10081 
L 211.957309 249.955969 
L 211.871557 248.809478 
L 211.785682 247.661334 
L 211.699682 246.511533 
L 211.613559 245.360072 
L 211.527311 244.206946 
L 211.440938 243.052153 
L 211.35444 241.895689 
L 211.267817 240.73755 
L 211.181069 239.577733 
L 211.094194 238.416233 
L 211.007194 237.253047 
L 210.920067 236.088173 
L 210.832813 234.921604 
L 210.745433 233.75334 
L 210.657925 232.583374 
L 210.57029 231.411704 
L 210.482527 230.238327 
L 210.394636 229.063237 
L 210.306617 227.886432 
L 210.21847 226.707908 
L 210.130193 225.527661 
L 210.041787 224.345687 
L 209.953252 223.161982 
L 209.864587 221.976543 
L 209.775792 220.789366 
L 209.686867 219.600446 
L 209.597811 218.409781 
L 209.508624 217.217367 
L 209.419306 216.023198 
L 209.329857 214.827272 
L 209.240276 213.629585 
L 209.150563 212.430133 
L 209.060717 211.228911 
L 208.970739 210.025917 
L 208.880628 208.821145 
L 208.790384 207.614592 
L 208.700007 206.406255 
L 208.609495 205.196129 
L 208.51885 203.98421 
L 208.42807 202.770494 
L 208.337155 201.554978 
L 208.246106 200.337656 
L 208.154921 199.118526 
L 208.0636 197.897583 
L 207.972144 196.674823 
L 207.880551 195.450242 
L 207.788822 194.223836 
L 207.696956 192.995601 
L 207.604953 191.765533 
L 207.512813 190.533627 
L 207.420535 189.29988 
L 207.328118 188.064287 
L 207.235564 186.826845 
L 207.142871 185.587549 
L 207.050038 184.346394 
L 206.957067 183.103378 
L 206.863956 181.858495 
L 206.770705 180.611742 
L 206.677314 179.363113 
L 206.583782 178.112606 
L 206.490109 176.860215 
L 206.396296 175.605936 
L 206.30234 174.349766 
L 206.208243 173.0917 
L 206.114004 171.831733 
L 206.019622 170.569862 
L 205.925098 169.306081 
L 205.83043 168.040387 
L 205.735619 166.772775 
L 205.640664 165.503241 
L 205.545565 164.231781 
L 205.450322 162.95839 
L 205.354934 161.683063 
L 205.259401 160.405797 
L 205.163722 159.126587 
L 205.067898 157.845428 
L 204.971927 156.562316 
L 204.87581 155.277247 
L 204.779547 153.990216 
L 204.683136 152.701218 
L 204.586578 151.410249 
L 204.489872 150.117305 
L 204.393018 148.82238 
L 204.296016 147.525472 
L 204.198865 146.226574 
L 204.101565 144.925682 
L 204.004115 143.622792 
L 203.906515 142.317899 
L 203.808766 141.010998 
L 203.710866 139.702085 
L 203.612815 138.391156 
L 203.514612 137.078204 
L 203.416259 135.763227 
L 203.317753 134.446219 
L 203.219095 133.127175 
L 203.120284 131.806091 
L 203.021321 130.482962 
" style="fill:none;stroke:#e018bb;stroke-linecap:square;stroke-width:1.5;"/>
   </g>
   <g id="line2d_44">
    <path clip-path="url(#p4bd8c1df17)" d="M 188.470273 283.727172 
L 190.765681 283.056069 
L 193.065462 282.383687 
L 195.369628 281.710023 
L 197.678192 281.035073 
L 199.991167 280.358833 
L 202.308565 279.6813 
L 204.630398 279.002471 
L 206.956681 278.32234 
L 209.287425 277.640906 
L 211.622643 276.958163 
L 213.962348 276.274108 
L 216.306553 275.588738 
L 218.655272 274.902048 
L 221.008517 274.214035 
L 223.366301 273.524694 
L 225.728637 272.834023 
L 228.095539 272.142017 
L 230.46702 271.448672 
L 232.843093 270.753984 
L 235.223772 270.05795 
L 237.60907 269.360566 
L 239.999 268.661827 
L 242.393575 267.96173 
L 244.792811 267.260271 
L 247.196719 266.557445 
L 249.605314 265.853249 
L 252.01861 265.147679 
L 254.436619 264.44073 
L 256.859357 263.7324 
L 259.286837 263.022683 
L 261.719072 262.311575 
L 264.156078 261.599073 
L 266.597867 260.885172 
L 269.044454 260.169868 
L 271.495854 259.453158 
L 273.952079 258.735036 
L 276.413146 258.0155 
L 278.879067 257.294543 
L 281.349858 256.572163 
L 283.825532 255.848356 
L 286.306105 255.123116 
L 288.791591 254.39644 
L 291.282004 253.668323 
L 293.777359 252.938761 
L 296.277671 252.20775 
L 298.782954 251.475286 
L 301.293224 250.741363 
L 303.808495 250.005979 
L 306.328783 249.269128 
L 308.854102 248.530805 
L 311.384467 247.791008 
L 313.919894 247.04973 
L 316.460398 246.306969 
L 319.005993 245.562718 
L 321.556696 244.816975 
L 324.112522 244.069733 
L 326.673486 243.32099 
L 329.239604 242.570739 
L 331.810891 241.818977 
L 334.387362 241.0657 
L 336.969035 240.310902 
L 339.555923 239.554578 
L 342.148044 238.796726 
L 344.745413 238.037338 
L 347.348046 237.276412 
L 349.955959 236.513942 
L 352.569168 235.749923 
L 355.18769 234.984352 
L 357.81154 234.217222 
L 360.440735 233.44853 
L 363.07529 232.678271 
L 365.715224 231.906439 
L 368.360551 231.13303 
L 371.011289 230.358039 
L 373.667454 229.581462 
L 376.329063 228.803293 
L 378.996133 228.023527 
L 381.66868 227.24216 
L 384.346721 226.459187 
L 387.030274 225.674602 
L 389.719355 224.888401 
L 392.413982 224.100579 
L 395.114171 223.31113 
L 397.81994 222.52005 
L 400.531306 221.727334 
L 403.248286 220.932976 
L 405.970899 220.136972 
L 408.699161 219.339315 
L 411.43309 218.540002 
L 414.172704 217.739027 
L 416.918021 216.936385 
L 419.669058 216.13207 
L 422.425833 215.326077 
L 425.188365 214.518402 
L 427.95667 213.709038 
L 430.730769 212.897981 
L 433.510678 212.085224 
L 436.296415 211.270764 
L 439.088 210.454594 
" style="fill:none;stroke:#e018bb;stroke-linecap:square;stroke-width:1.5;"/>
   </g>
   <g id="text_31">
    <!-- Bifurcation -->
    <defs>
     <path d="M 19.671875 34.8125 
L 19.671875 8.109375 
L 35.5 8.109375 
Q 43.453125 8.109375 47.28125 11.40625 
Q 51.125 14.703125 51.125 21.484375 
Q 51.125 28.328125 47.28125 31.5625 
Q 43.453125 34.8125 35.5 34.8125 
z
M 19.671875 64.796875 
L 19.671875 42.828125 
L 34.28125 42.828125 
Q 41.5 42.828125 45.03125 45.53125 
Q 48.578125 48.25 48.578125 53.8125 
Q 48.578125 59.328125 45.03125 62.0625 
Q 41.5 64.796875 34.28125 64.796875 
z
M 9.8125 72.90625 
L 35.015625 72.90625 
Q 46.296875 72.90625 52.390625 68.21875 
Q 58.5 63.53125 58.5 54.890625 
Q 58.5 48.1875 55.375 44.234375 
Q 52.25 40.28125 46.1875 39.3125 
Q 53.46875 37.75 57.5 32.78125 
Q 61.53125 27.828125 61.53125 20.40625 
Q 61.53125 10.640625 54.890625 5.3125 
Q 48.25 0 35.984375 0 
L 9.8125 0 
z
" id="DejaVuSans-42"/>
     <path d="M 9.421875 54.6875 
L 18.40625 54.6875 
L 18.40625 0 
L 9.421875 0 
z
M 9.421875 75.984375 
L 18.40625 75.984375 
L 18.40625 64.59375 
L 9.421875 64.59375 
z
" id="DejaVuSans-69"/>
     <path d="M 37.109375 75.984375 
L 37.109375 68.5 
L 28.515625 68.5 
Q 23.6875 68.5 21.796875 66.546875 
Q 19.921875 64.59375 19.921875 59.515625 
L 19.921875 54.6875 
L 34.71875 54.6875 
L 34.71875 47.703125 
L 19.921875 47.703125 
L 19.921875 0 
L 10.890625 0 
L 10.890625 47.703125 
L 2.296875 47.703125 
L 2.296875 54.6875 
L 10.890625 54.6875 
L 10.890625 58.5 
Q 10.890625 67.625 15.140625 71.796875 
Q 19.390625 75.984375 28.609375 75.984375 
z
" id="DejaVuSans-66"/>
     <path d="M 48.78125 52.59375 
L 48.78125 44.1875 
Q 44.96875 46.296875 41.140625 47.34375 
Q 37.3125 48.390625 33.40625 48.390625 
Q 24.65625 48.390625 19.8125 42.84375 
Q 14.984375 37.3125 14.984375 27.296875 
Q 14.984375 17.28125 19.8125 11.734375 
Q 24.65625 6.203125 33.40625 6.203125 
Q 37.3125 6.203125 41.140625 7.25 
Q 44.96875 8.296875 48.78125 10.40625 
L 48.78125 2.09375 
Q 45.015625 0.34375 40.984375 -0.53125 
Q 36.96875 -1.421875 32.421875 -1.421875 
Q 20.0625 -1.421875 12.78125 6.34375 
Q 5.515625 14.109375 5.515625 27.296875 
Q 5.515625 40.671875 12.859375 48.328125 
Q 20.21875 56 33.015625 56 
Q 37.15625 56 41.109375 55.140625 
Q 45.0625 54.296875 48.78125 52.59375 
z
" id="DejaVuSans-63"/>
     <path d="M 30.609375 48.390625 
Q 23.390625 48.390625 19.1875 42.75 
Q 14.984375 37.109375 14.984375 27.296875 
Q 14.984375 17.484375 19.15625 11.84375 
Q 23.34375 6.203125 30.609375 6.203125 
Q 37.796875 6.203125 41.984375 11.859375 
Q 46.1875 17.53125 46.1875 27.296875 
Q 46.1875 37.015625 41.984375 42.703125 
Q 37.796875 48.390625 30.609375 48.390625 
z
M 30.609375 56 
Q 42.328125 56 49.015625 48.375 
Q 55.71875 40.765625 55.71875 27.296875 
Q 55.71875 13.875 49.015625 6.21875 
Q 42.328125 -1.421875 30.609375 -1.421875 
Q 18.84375 -1.421875 12.171875 6.21875 
Q 5.515625 13.875 5.515625 27.296875 
Q 5.515625 40.765625 12.171875 48.375 
Q 18.84375 56 30.609375 56 
z
" id="DejaVuSans-6f"/>
    </defs>
    <g transform="translate(291.719437 60.059841)scale(0.12 -0.12)">
     <use xlink:href="#DejaVuSans-42"/>
     <use x="68.603516" xlink:href="#DejaVuSans-69"/>
     <use x="96.386719" xlink:href="#DejaVuSans-66"/>
     <use x="131.591797" xlink:href="#DejaVuSans-75"/>
     <use x="194.970703" xlink:href="#DejaVuSans-72"/>
     <use x="236.052734" xlink:href="#DejaVuSans-63"/>
     <use x="291.033203" xlink:href="#DejaVuSans-61"/>
     <use x="352.3125" xlink:href="#DejaVuSans-74"/>
     <use x="391.521484" xlink:href="#DejaVuSans-69"/>
     <use x="419.304688" xlink:href="#DejaVuSans-6f"/>
     <use x="480.486328" xlink:href="#DejaVuSans-6e"/>
    </g>
    <!-- Phase space vs. parameter -->
    <defs>
     <path d="M 54.890625 33.015625 
L 54.890625 0 
L 45.90625 0 
L 45.90625 32.71875 
Q 45.90625 40.484375 42.875 44.328125 
Q 39.84375 48.1875 33.796875 48.1875 
Q 26.515625 48.1875 22.3125 43.546875 
Q 18.109375 38.921875 18.109375 30.90625 
L 18.109375 0 
L 9.078125 0 
L 9.078125 75.984375 
L 18.109375 75.984375 
L 18.109375 46.1875 
Q 21.34375 51.125 25.703125 53.5625 
Q 30.078125 56 35.796875 56 
Q 45.21875 56 50.046875 50.171875 
Q 54.890625 44.34375 54.890625 33.015625 
z
" id="DejaVuSans-68"/>
     <path d="M 44.28125 53.078125 
L 44.28125 44.578125 
Q 40.484375 46.53125 36.375 47.5 
Q 32.28125 48.484375 27.875 48.484375 
Q 21.1875 48.484375 17.84375 46.4375 
Q 14.5 44.390625 14.5 40.28125 
Q 14.5 37.15625 16.890625 35.375 
Q 19.28125 33.59375 26.515625 31.984375 
L 29.59375 31.296875 
Q 39.15625 29.25 43.1875 25.515625 
Q 47.21875 21.78125 47.21875 15.09375 
Q 47.21875 7.46875 41.1875 3.015625 
Q 35.15625 -1.421875 24.609375 -1.421875 
Q 20.21875 -1.421875 15.453125 -0.5625 
Q 10.6875 0.296875 5.421875 2 
L 5.421875 11.28125 
Q 10.40625 8.6875 15.234375 7.390625 
Q 20.0625 6.109375 24.8125 6.109375 
Q 31.15625 6.109375 34.5625 8.28125 
Q 37.984375 10.453125 37.984375 14.40625 
Q 37.984375 18.0625 35.515625 20.015625 
Q 33.0625 21.96875 24.703125 23.78125 
L 21.578125 24.515625 
Q 13.234375 26.265625 9.515625 29.90625 
Q 5.8125 33.546875 5.8125 39.890625 
Q 5.8125 47.609375 11.28125 51.796875 
Q 16.75 56 26.8125 56 
Q 31.78125 56 36.171875 55.265625 
Q 40.578125 54.546875 44.28125 53.078125 
z
" id="DejaVuSans-73"/>
     <path id="DejaVuSans-20"/>
     <path d="M 18.109375 8.203125 
L 18.109375 -20.796875 
L 9.078125 -20.796875 
L 9.078125 54.6875 
L 18.109375 54.6875 
L 18.109375 46.390625 
Q 20.953125 51.265625 25.265625 53.625 
Q 29.59375 56 35.59375 56 
Q 45.5625 56 51.78125 48.09375 
Q 58.015625 40.1875 58.015625 27.296875 
Q 58.015625 14.40625 51.78125 6.484375 
Q 45.5625 -1.421875 35.59375 -1.421875 
Q 29.59375 -1.421875 25.265625 0.953125 
Q 20.953125 3.328125 18.109375 8.203125 
z
M 48.6875 27.296875 
Q 48.6875 37.203125 44.609375 42.84375 
Q 40.53125 48.484375 33.40625 48.484375 
Q 26.265625 48.484375 22.1875 42.84375 
Q 18.109375 37.203125 18.109375 27.296875 
Q 18.109375 17.390625 22.1875 11.75 
Q 26.265625 6.109375 33.40625 6.109375 
Q 40.53125 6.109375 44.609375 11.75 
Q 48.6875 17.390625 48.6875 27.296875 
z
" id="DejaVuSans-70"/>
     <path d="M 2.984375 54.6875 
L 12.5 54.6875 
L 29.59375 8.796875 
L 46.6875 54.6875 
L 56.203125 54.6875 
L 35.6875 0 
L 23.484375 0 
z
" id="DejaVuSans-76"/>
    </defs>
    <g transform="translate(242.853187 73.497216)scale(0.12 -0.12)">
     <use xlink:href="#DejaVuSans-50"/>
     <use x="60.302734" xlink:href="#DejaVuSans-68"/>
     <use x="123.681641" xlink:href="#DejaVuSans-61"/>
     <use x="184.960938" xlink:href="#DejaVuSans-73"/>
     <use x="237.060547" xlink:href="#DejaVuSans-65"/>
     <use x="298.583984" xlink:href="#DejaVuSans-20"/>
     <use x="330.371094" xlink:href="#DejaVuSans-73"/>
     <use x="382.470703" xlink:href="#DejaVuSans-70"/>
     <use x="445.947266" xlink:href="#DejaVuSans-61"/>
     <use x="507.226562" xlink:href="#DejaVuSans-63"/>
     <use x="562.207031" xlink:href="#DejaVuSans-65"/>
     <use x="623.730469" xlink:href="#DejaVuSans-20"/>
     <use x="655.517578" xlink:href="#DejaVuSans-76"/>
     <use x="714.697266" xlink:href="#DejaVuSans-73"/>
     <use x="766.796875" xlink:href="#DejaVuSans-2e"/>
     <use x="798.583984" xlink:href="#DejaVuSans-20"/>
     <use x="830.371094" xlink:href="#DejaVuSans-70"/>
     <use x="893.847656" xlink:href="#DejaVuSans-61"/>
     <use x="955.126953" xlink:href="#DejaVuSans-72"/>
     <use x="996.240234" xlink:href="#DejaVuSans-61"/>
     <use x="1057.519531" xlink:href="#DejaVuSans-6d"/>
     <use x="1154.931641" xlink:href="#DejaVuSans-65"/>
     <use x="1216.455078" xlink:href="#DejaVuSans-74"/>
     <use x="1255.664062" xlink:href="#DejaVuSans-65"/>
     <use x="1317.1875" xlink:href="#DejaVuSans-72"/>
    </g>
   </g>
   <g id="legend_1">
    <g id="patch_6">
     <path d="M 453.507625 75.209325 
L 562.592 75.209325 
Q 564.592 75.209325 564.592 73.209325 
L 564.592 59.5312 
Q 564.592 57.5312 562.592 57.5312 
L 453.507625 57.5312 
Q 451.507625 57.5312 451.507625 59.5312 
L 451.507625 73.209325 
Q 451.507625 75.209325 453.507625 75.209325 
z
" style="fill:#ffffff;opacity:0.8;stroke:#cccccc;stroke-linejoin:miter;"/>
    </g>
    <g id="patch_7">
     <path d="M 455.507625 69.129638 
L 475.507625 69.129638 
L 475.507625 62.129638 
L 455.507625 62.129638 
z
" style="fill:#008000;stroke:#008000;stroke-linejoin:miter;"/>
    </g>
    <g id="text_32">
     <!-- Initial condition -->
     <defs>
      <path d="M 9.8125 72.90625 
L 19.671875 72.90625 
L 19.671875 0 
L 9.8125 0 
z
" id="DejaVuSans-49"/>
      <path d="M 9.421875 75.984375 
L 18.40625 75.984375 
L 18.40625 0 
L 9.421875 0 
z
" id="DejaVuSans-6c"/>
      <path d="M 45.40625 46.390625 
L 45.40625 75.984375 
L 54.390625 75.984375 
L 54.390625 0 
L 45.40625 0 
L 45.40625 8.203125 
Q 42.578125 3.328125 38.25 0.953125 
Q 33.9375 -1.421875 27.875 -1.421875 
Q 17.96875 -1.421875 11.734375 6.484375 
Q 5.515625 14.40625 5.515625 27.296875 
Q 5.515625 40.1875 11.734375 48.09375 
Q 17.96875 56 27.875 56 
Q 33.9375 56 38.25 53.625 
Q 42.578125 51.265625 45.40625 46.390625 
z
M 14.796875 27.296875 
Q 14.796875 17.390625 18.875 11.75 
Q 22.953125 6.109375 30.078125 6.109375 
Q 37.203125 6.109375 41.296875 11.75 
Q 45.40625 17.390625 45.40625 27.296875 
Q 45.40625 37.203125 41.296875 42.84375 
Q 37.203125 48.484375 30.078125 48.484375 
Q 22.953125 48.484375 18.875 42.84375 
Q 14.796875 37.203125 14.796875 27.296875 
z
" id="DejaVuSans-64"/>
     </defs>
     <g transform="translate(483.507625 69.129638)scale(0.1 -0.1)">
      <use xlink:href="#DejaVuSans-49"/>
      <use x="29.492188" xlink:href="#DejaVuSans-6e"/>
      <use x="92.871094" xlink:href="#DejaVuSans-69"/>
      <use x="120.654297" xlink:href="#DejaVuSans-74"/>
      <use x="159.863281" xlink:href="#DejaVuSans-69"/>
      <use x="187.646484" xlink:href="#DejaVuSans-61"/>
      <use x="248.925781" xlink:href="#DejaVuSans-6c"/>
      <use x="276.708984" xlink:href="#DejaVuSans-20"/>
      <use x="308.496094" xlink:href="#DejaVuSans-63"/>
      <use x="363.476562" xlink:href="#DejaVuSans-6f"/>
      <use x="424.658203" xlink:href="#DejaVuSans-6e"/>
      <use x="488.037109" xlink:href="#DejaVuSans-64"/>
      <use x="551.513672" xlink:href="#DejaVuSans-69"/>
      <use x="579.296875" xlink:href="#DejaVuSans-74"/>
      <use x="618.505859" xlink:href="#DejaVuSans-69"/>
      <use x="646.289062" xlink:href="#DejaVuSans-6f"/>
      <use x="707.470703" xlink:href="#DejaVuSans-6e"/>
     </g>
    </g>
   </g>
  </g>
 </g>
 <defs>
  <clipPath id="p4bd8c1df17">
   <rect height="337.0752" width="490.482" x="79.11" y="52.5312"/>
  </clipPath>
 </defs>
</svg>
