<?xml version="1.0" encoding="utf-8" standalone="no"?>
<!DOCTYPE svg PUBLIC "-//W3C//DTD SVG 1.1//EN"
  "http://www.w3.org/Graphics/SVG/1.1/DTD/svg11.dtd">
<!-- Created with matplotlib (http://matplotlib.org/) -->
<svg height="345.6pt" version="1.1" viewBox="0 0 460.8 345.6" width="460.8pt" xmlns="http://www.w3.org/2000/svg" xmlns:xlink="http://www.w3.org/1999/xlink">
 <defs>
  <style type="text/css">
*{stroke-linecap:butt;stroke-linejoin:round;}
  </style>
 </defs>
 <g id="figure_1">
  <g id="patch_1">
   <path d="M 0 345.6 
L 460.8 345.6 
L 460.8 0 
L 0 0 
z
" style="fill:#ffffff;"/>
  </g>
  <g id="axes_1">
   <g id="patch_2">
    <path d="M 57.6 307.584 
L 414.72 307.584 
L 414.72 41.472 
L 57.6 41.472 
z
" style="fill:#ffffff;"/>
   </g>
   <g id="PathCollection_1">
    <defs>
     <path d="M 0 3 
C 0.795609 3 1.55874 2.683901 2.12132 2.12132 
C 2.683901 1.55874 3 0.795609 3 0 
C 3 -0.795609 2.683901 -1.55874 2.12132 -2.12132 
C 1.55874 -2.683901 0.795609 -3 0 -3 
C -0.795609 -3 -1.55874 -2.683901 -2.12132 -2.12132 
C -2.683901 -1.55874 -3 -0.795609 -3 0 
C -3 0.795609 -2.683901 1.55874 -2.12132 2.12132 
C -1.55874 2.683901 -0.795609 3 0 3 
z
" id="m6c26b3bf0c" style="stroke:#008000;"/>
    </defs>
    <g clip-path="url(#p11c5841455)">
     <use style="fill:#008000;stroke:#008000;" x="75.978451" xlink:href="#m6c26b3bf0c" y="235.367092"/>
     <use style="fill:#008000;stroke:#008000;" x="75.978451" xlink:href="#m6c26b3bf0c" y="55.004368"/>
    </g>
   </g>
   <g id="matplotlib.axis_1">
    <g id="xtick_1">
     <g id="line2d_1">
      <defs>
       <path d="M 0 0 
L 0 3.5 
" id="m93d2ae0cb2" style="stroke:#000000;stroke-width:0.8;"/>
      </defs>
      <g>
       <use style="stroke:#000000;stroke-width:0.8;" x="75.978451" xlink:href="#m93d2ae0cb2" y="307.584"/>
      </g>
     </g>
     <g id="text_1">
      <!-- 0.0 -->
      <defs>
       <path d="M 31.78125 66.40625 
Q 24.171875 66.40625 20.328125 58.90625 
Q 16.5 51.421875 16.5 36.375 
Q 16.5 21.390625 20.328125 13.890625 
Q 24.171875 6.390625 31.78125 6.390625 
Q 39.453125 6.390625 43.28125 13.890625 
Q 47.125 21.390625 47.125 36.375 
Q 47.125 51.421875 43.28125 58.90625 
Q 39.453125 66.40625 31.78125 66.40625 
z
M 31.78125 74.21875 
Q 44.046875 74.21875 50.515625 64.515625 
Q 56.984375 54.828125 56.984375 36.375 
Q 56.984375 17.96875 50.515625 8.265625 
Q 44.046875 -1.421875 31.78125 -1.421875 
Q 19.53125 -1.421875 13.0625 8.265625 
Q 6.59375 17.96875 6.59375 36.375 
Q 6.59375 54.828125 13.0625 64.515625 
Q 19.53125 74.21875 31.78125 74.21875 
z
" id="DejaVuSans-30"/>
       <path d="M 10.6875 12.40625 
L 21 12.40625 
L 21 0 
L 10.6875 0 
z
" id="DejaVuSans-2e"/>
      </defs>
      <g transform="translate(68.026889 322.182437)scale(0.1 -0.1)">
       <use xlink:href="#DejaVuSans-30"/>
       <use x="63.623047" xlink:href="#DejaVuSans-2e"/>
       <use x="95.410156" xlink:href="#DejaVuSans-30"/>
      </g>
     </g>
    </g>
    <g id="xtick_2">
     <g id="line2d_2">
      <g>
       <use style="stroke:#000000;stroke-width:0.8;" x="129.729922" xlink:href="#m93d2ae0cb2" y="307.584"/>
      </g>
     </g>
     <g id="text_2">
      <!-- 0.5 -->
      <defs>
       <path d="M 10.796875 72.90625 
L 49.515625 72.90625 
L 49.515625 64.59375 
L 19.828125 64.59375 
L 19.828125 46.734375 
Q 21.96875 47.46875 24.109375 47.828125 
Q 26.265625 48.1875 28.421875 48.1875 
Q 40.625 48.1875 47.75 41.5 
Q 54.890625 34.8125 54.890625 23.390625 
Q 54.890625 11.625 47.5625 5.09375 
Q 40.234375 -1.421875 26.90625 -1.421875 
Q 22.3125 -1.421875 17.546875 -0.640625 
Q 12.796875 0.140625 7.71875 1.703125 
L 7.71875 11.625 
Q 12.109375 9.234375 16.796875 8.0625 
Q 21.484375 6.890625 26.703125 6.890625 
Q 35.15625 6.890625 40.078125 11.328125 
Q 45.015625 15.765625 45.015625 23.390625 
Q 45.015625 31 40.078125 35.4375 
Q 35.15625 39.890625 26.703125 39.890625 
Q 22.75 39.890625 18.8125 39.015625 
Q 14.890625 38.140625 10.796875 36.28125 
z
" id="DejaVuSans-35"/>
      </defs>
      <g transform="translate(121.778359 322.182437)scale(0.1 -0.1)">
       <use xlink:href="#DejaVuSans-30"/>
       <use x="63.623047" xlink:href="#DejaVuSans-2e"/>
       <use x="95.410156" xlink:href="#DejaVuSans-35"/>
      </g>
     </g>
    </g>
    <g id="xtick_3">
     <g id="line2d_3">
      <g>
       <use style="stroke:#000000;stroke-width:0.8;" x="183.481392" xlink:href="#m93d2ae0cb2" y="307.584"/>
      </g>
     </g>
     <g id="text_3">
      <!-- 1.0 -->
      <defs>
       <path d="M 12.40625 8.296875 
L 28.515625 8.296875 
L 28.515625 63.921875 
L 10.984375 60.40625 
L 10.984375 69.390625 
L 28.421875 72.90625 
L 38.28125 72.90625 
L 38.28125 8.296875 
L 54.390625 8.296875 
L 54.390625 0 
L 12.40625 0 
z
" id="DejaVuSans-31"/>
      </defs>
      <g transform="translate(175.529829 322.182437)scale(0.1 -0.1)">
       <use xlink:href="#DejaVuSans-31"/>
       <use x="63.623047" xlink:href="#DejaVuSans-2e"/>
       <use x="95.410156" xlink:href="#DejaVuSans-30"/>
      </g>
     </g>
    </g>
    <g id="xtick_4">
     <g id="line2d_4">
      <g>
       <use style="stroke:#000000;stroke-width:0.8;" x="237.232862" xlink:href="#m93d2ae0cb2" y="307.584"/>
      </g>
     </g>
     <g id="text_4">
      <!-- 1.5 -->
      <g transform="translate(229.2813 322.182437)scale(0.1 -0.1)">
       <use xlink:href="#DejaVuSans-31"/>
       <use x="63.623047" xlink:href="#DejaVuSans-2e"/>
       <use x="95.410156" xlink:href="#DejaVuSans-35"/>
      </g>
     </g>
    </g>
    <g id="xtick_5">
     <g id="line2d_5">
      <g>
       <use style="stroke:#000000;stroke-width:0.8;" x="290.984332" xlink:href="#m93d2ae0cb2" y="307.584"/>
      </g>
     </g>
     <g id="text_5">
      <!-- 2.0 -->
      <defs>
       <path d="M 19.1875 8.296875 
L 53.609375 8.296875 
L 53.609375 0 
L 7.328125 0 
L 7.328125 8.296875 
Q 12.9375 14.109375 22.625 23.890625 
Q 32.328125 33.6875 34.8125 36.53125 
Q 39.546875 41.84375 41.421875 45.53125 
Q 43.3125 49.21875 43.3125 52.78125 
Q 43.3125 58.59375 39.234375 62.25 
Q 35.15625 65.921875 28.609375 65.921875 
Q 23.96875 65.921875 18.8125 64.3125 
Q 13.671875 62.703125 7.8125 59.421875 
L 7.8125 69.390625 
Q 13.765625 71.78125 18.9375 73 
Q 24.125 74.21875 28.421875 74.21875 
Q 39.75 74.21875 46.484375 68.546875 
Q 53.21875 62.890625 53.21875 53.421875 
Q 53.21875 48.921875 51.53125 44.890625 
Q 49.859375 40.875 45.40625 35.40625 
Q 44.1875 33.984375 37.640625 27.21875 
Q 31.109375 20.453125 19.1875 8.296875 
z
" id="DejaVuSans-32"/>
      </defs>
      <g transform="translate(283.03277 322.182437)scale(0.1 -0.1)">
       <use xlink:href="#DejaVuSans-32"/>
       <use x="63.623047" xlink:href="#DejaVuSans-2e"/>
       <use x="95.410156" xlink:href="#DejaVuSans-30"/>
      </g>
     </g>
    </g>
    <g id="xtick_6">
     <g id="line2d_6">
      <g>
       <use style="stroke:#000000;stroke-width:0.8;" x="344.735802" xlink:href="#m93d2ae0cb2" y="307.584"/>
      </g>
     </g>
     <g id="text_6">
      <!-- 2.5 -->
      <g transform="translate(336.78424 322.182437)scale(0.1 -0.1)">
       <use xlink:href="#DejaVuSans-32"/>
       <use x="63.623047" xlink:href="#DejaVuSans-2e"/>
       <use x="95.410156" xlink:href="#DejaVuSans-35"/>
      </g>
     </g>
    </g>
    <g id="xtick_7">
     <g id="line2d_7">
      <g>
       <use style="stroke:#000000;stroke-width:0.8;" x="398.487273" xlink:href="#m93d2ae0cb2" y="307.584"/>
      </g>
     </g>
     <g id="text_7">
      <!-- 3.0 -->
      <defs>
       <path d="M 40.578125 39.3125 
Q 47.65625 37.796875 51.625 33 
Q 55.609375 28.21875 55.609375 21.1875 
Q 55.609375 10.40625 48.1875 4.484375 
Q 40.765625 -1.421875 27.09375 -1.421875 
Q 22.515625 -1.421875 17.65625 -0.515625 
Q 12.796875 0.390625 7.625 2.203125 
L 7.625 11.71875 
Q 11.71875 9.328125 16.59375 8.109375 
Q 21.484375 6.890625 26.8125 6.890625 
Q 36.078125 6.890625 40.9375 10.546875 
Q 45.796875 14.203125 45.796875 21.1875 
Q 45.796875 27.640625 41.28125 31.265625 
Q 36.765625 34.90625 28.71875 34.90625 
L 20.21875 34.90625 
L 20.21875 43.015625 
L 29.109375 43.015625 
Q 36.375 43.015625 40.234375 45.921875 
Q 44.09375 48.828125 44.09375 54.296875 
Q 44.09375 59.90625 40.109375 62.90625 
Q 36.140625 65.921875 28.71875 65.921875 
Q 24.65625 65.921875 20.015625 65.03125 
Q 15.375 64.15625 9.8125 62.3125 
L 9.8125 71.09375 
Q 15.4375 72.65625 20.34375 73.4375 
Q 25.25 74.21875 29.59375 74.21875 
Q 40.828125 74.21875 47.359375 69.109375 
Q 53.90625 64.015625 53.90625 55.328125 
Q 53.90625 49.265625 50.4375 45.09375 
Q 46.96875 40.921875 40.578125 39.3125 
z
" id="DejaVuSans-33"/>
      </defs>
      <g transform="translate(390.53571 322.182437)scale(0.1 -0.1)">
       <use xlink:href="#DejaVuSans-33"/>
       <use x="63.623047" xlink:href="#DejaVuSans-2e"/>
       <use x="95.410156" xlink:href="#DejaVuSans-30"/>
      </g>
     </g>
    </g>
    <g id="text_8">
     <!-- Parameter -->
     <defs>
      <path d="M 19.671875 64.796875 
L 19.671875 37.40625 
L 32.078125 37.40625 
Q 38.96875 37.40625 42.71875 40.96875 
Q 46.484375 44.53125 46.484375 51.125 
Q 46.484375 57.671875 42.71875 61.234375 
Q 38.96875 64.796875 32.078125 64.796875 
z
M 9.8125 72.90625 
L 32.078125 72.90625 
Q 44.34375 72.90625 50.609375 67.359375 
Q 56.890625 61.8125 56.890625 51.125 
Q 56.890625 40.328125 50.609375 34.8125 
Q 44.34375 29.296875 32.078125 29.296875 
L 19.671875 29.296875 
L 19.671875 0 
L 9.8125 0 
z
" id="DejaVuSans-50"/>
      <path d="M 34.28125 27.484375 
Q 23.390625 27.484375 19.1875 25 
Q 14.984375 22.515625 14.984375 16.5 
Q 14.984375 11.71875 18.140625 8.90625 
Q 21.296875 6.109375 26.703125 6.109375 
Q 34.1875 6.109375 38.703125 11.40625 
Q 43.21875 16.703125 43.21875 25.484375 
L 43.21875 27.484375 
z
M 52.203125 31.203125 
L 52.203125 0 
L 43.21875 0 
L 43.21875 8.296875 
Q 40.140625 3.328125 35.546875 0.953125 
Q 30.953125 -1.421875 24.3125 -1.421875 
Q 15.921875 -1.421875 10.953125 3.296875 
Q 6 8.015625 6 15.921875 
Q 6 25.140625 12.171875 29.828125 
Q 18.359375 34.515625 30.609375 34.515625 
L 43.21875 34.515625 
L 43.21875 35.40625 
Q 43.21875 41.609375 39.140625 45 
Q 35.0625 48.390625 27.6875 48.390625 
Q 23 48.390625 18.546875 47.265625 
Q 14.109375 46.140625 10.015625 43.890625 
L 10.015625 52.203125 
Q 14.9375 54.109375 19.578125 55.046875 
Q 24.21875 56 28.609375 56 
Q 40.484375 56 46.34375 49.84375 
Q 52.203125 43.703125 52.203125 31.203125 
z
" id="DejaVuSans-61"/>
      <path d="M 41.109375 46.296875 
Q 39.59375 47.171875 37.8125 47.578125 
Q 36.03125 48 33.890625 48 
Q 26.265625 48 22.1875 43.046875 
Q 18.109375 38.09375 18.109375 28.8125 
L 18.109375 0 
L 9.078125 0 
L 9.078125 54.6875 
L 18.109375 54.6875 
L 18.109375 46.1875 
Q 20.953125 51.171875 25.484375 53.578125 
Q 30.03125 56 36.53125 56 
Q 37.453125 56 38.578125 55.875 
Q 39.703125 55.765625 41.0625 55.515625 
z
" id="DejaVuSans-72"/>
      <path d="M 52 44.1875 
Q 55.375 50.25 60.0625 53.125 
Q 64.75 56 71.09375 56 
Q 79.640625 56 84.28125 50.015625 
Q 88.921875 44.046875 88.921875 33.015625 
L 88.921875 0 
L 79.890625 0 
L 79.890625 32.71875 
Q 79.890625 40.578125 77.09375 44.375 
Q 74.3125 48.1875 68.609375 48.1875 
Q 61.625 48.1875 57.5625 43.546875 
Q 53.515625 38.921875 53.515625 30.90625 
L 53.515625 0 
L 44.484375 0 
L 44.484375 32.71875 
Q 44.484375 40.625 41.703125 44.40625 
Q 38.921875 48.1875 33.109375 48.1875 
Q 26.21875 48.1875 22.15625 43.53125 
Q 18.109375 38.875 18.109375 30.90625 
L 18.109375 0 
L 9.078125 0 
L 9.078125 54.6875 
L 18.109375 54.6875 
L 18.109375 46.1875 
Q 21.1875 51.21875 25.484375 53.609375 
Q 29.78125 56 35.6875 56 
Q 41.65625 56 45.828125 52.96875 
Q 50 49.953125 52 44.1875 
z
" id="DejaVuSans-6d"/>
      <path d="M 56.203125 29.59375 
L 56.203125 25.203125 
L 14.890625 25.203125 
Q 15.484375 15.921875 20.484375 11.0625 
Q 25.484375 6.203125 34.421875 6.203125 
Q 39.59375 6.203125 44.453125 7.46875 
Q 49.3125 8.734375 54.109375 11.28125 
L 54.109375 2.78125 
Q 49.265625 0.734375 44.1875 -0.34375 
Q 39.109375 -1.421875 33.890625 -1.421875 
Q 20.796875 -1.421875 13.15625 6.1875 
Q 5.515625 13.8125 5.515625 26.8125 
Q 5.515625 40.234375 12.765625 48.109375 
Q 20.015625 56 32.328125 56 
Q 43.359375 56 49.78125 48.890625 
Q 56.203125 41.796875 56.203125 29.59375 
z
M 47.21875 32.234375 
Q 47.125 39.59375 43.09375 43.984375 
Q 39.0625 48.390625 32.421875 48.390625 
Q 24.90625 48.390625 20.390625 44.140625 
Q 15.875 39.890625 15.1875 32.171875 
z
" id="DejaVuSans-65"/>
      <path d="M 18.3125 70.21875 
L 18.3125 54.6875 
L 36.8125 54.6875 
L 36.8125 47.703125 
L 18.3125 47.703125 
L 18.3125 18.015625 
Q 18.3125 11.328125 20.140625 9.421875 
Q 21.96875 7.515625 27.59375 7.515625 
L 36.8125 7.515625 
L 36.8125 0 
L 27.59375 0 
Q 17.1875 0 13.234375 3.875 
Q 9.28125 7.765625 9.28125 18.015625 
L 9.28125 47.703125 
L 2.6875 47.703125 
L 2.6875 54.6875 
L 9.28125 54.6875 
L 9.28125 70.21875 
z
" id="DejaVuSans-74"/>
     </defs>
     <g transform="translate(209.925625 335.860562)scale(0.1 -0.1)">
      <use xlink:href="#DejaVuSans-50"/>
      <use x="60.240234" xlink:href="#DejaVuSans-61"/>
      <use x="121.519531" xlink:href="#DejaVuSans-72"/>
      <use x="162.632812" xlink:href="#DejaVuSans-61"/>
      <use x="223.912109" xlink:href="#DejaVuSans-6d"/>
      <use x="321.324219" xlink:href="#DejaVuSans-65"/>
      <use x="382.847656" xlink:href="#DejaVuSans-74"/>
      <use x="422.056641" xlink:href="#DejaVuSans-65"/>
      <use x="483.580078" xlink:href="#DejaVuSans-72"/>
     </g>
    </g>
   </g>
   <g id="matplotlib.axis_2">
    <g id="ytick_1">
     <g id="line2d_8">
      <defs>
       <path d="M 0 0 
L -3.5 0 
" id="mae925ef65a" style="stroke:#000000;stroke-width:0.8;"/>
      </defs>
      <g>
       <use style="stroke:#000000;stroke-width:0.8;" x="57.6" xlink:href="#mae925ef65a" y="295.488"/>
      </g>
     </g>
     <g id="text_9">
      <!-- 0.0 -->
      <g transform="translate(34.696875 299.287219)scale(0.1 -0.1)">
       <use xlink:href="#DejaVuSans-30"/>
       <use x="63.623047" xlink:href="#DejaVuSans-2e"/>
       <use x="95.410156" xlink:href="#DejaVuSans-30"/>
      </g>
     </g>
    </g>
    <g id="ytick_2">
     <g id="line2d_9">
      <g>
       <use style="stroke:#000000;stroke-width:0.8;" x="57.6" xlink:href="#mae925ef65a" y="265.427546"/>
      </g>
     </g>
     <g id="text_10">
      <!-- 2.5 -->
      <g transform="translate(34.696875 269.226765)scale(0.1 -0.1)">
       <use xlink:href="#DejaVuSans-32"/>
       <use x="63.623047" xlink:href="#DejaVuSans-2e"/>
       <use x="95.410156" xlink:href="#DejaVuSans-35"/>
      </g>
     </g>
    </g>
    <g id="ytick_3">
     <g id="line2d_10">
      <g>
       <use style="stroke:#000000;stroke-width:0.8;" x="57.6" xlink:href="#mae925ef65a" y="235.367092"/>
      </g>
     </g>
     <g id="text_11">
      <!-- 5.0 -->
      <g transform="translate(34.696875 239.166311)scale(0.1 -0.1)">
       <use xlink:href="#DejaVuSans-35"/>
       <use x="63.623047" xlink:href="#DejaVuSans-2e"/>
       <use x="95.410156" xlink:href="#DejaVuSans-30"/>
      </g>
     </g>
    </g>
    <g id="ytick_4">
     <g id="line2d_11">
      <g>
       <use style="stroke:#000000;stroke-width:0.8;" x="57.6" xlink:href="#mae925ef65a" y="205.306638"/>
      </g>
     </g>
     <g id="text_12">
      <!-- 7.5 -->
      <defs>
       <path d="M 8.203125 72.90625 
L 55.078125 72.90625 
L 55.078125 68.703125 
L 28.609375 0 
L 18.3125 0 
L 43.21875 64.59375 
L 8.203125 64.59375 
z
" id="DejaVuSans-37"/>
      </defs>
      <g transform="translate(34.696875 209.105857)scale(0.1 -0.1)">
       <use xlink:href="#DejaVuSans-37"/>
       <use x="63.623047" xlink:href="#DejaVuSans-2e"/>
       <use x="95.410156" xlink:href="#DejaVuSans-35"/>
      </g>
     </g>
    </g>
    <g id="ytick_5">
     <g id="line2d_12">
      <g>
       <use style="stroke:#000000;stroke-width:0.8;" x="57.6" xlink:href="#mae925ef65a" y="175.246184"/>
      </g>
     </g>
     <g id="text_13">
      <!-- 10.0 -->
      <g transform="translate(28.334375 179.045403)scale(0.1 -0.1)">
       <use xlink:href="#DejaVuSans-31"/>
       <use x="63.623047" xlink:href="#DejaVuSans-30"/>
       <use x="127.246094" xlink:href="#DejaVuSans-2e"/>
       <use x="159.033203" xlink:href="#DejaVuSans-30"/>
      </g>
     </g>
    </g>
    <g id="ytick_6">
     <g id="line2d_13">
      <g>
       <use style="stroke:#000000;stroke-width:0.8;" x="57.6" xlink:href="#mae925ef65a" y="145.18573"/>
      </g>
     </g>
     <g id="text_14">
      <!-- 12.5 -->
      <g transform="translate(28.334375 148.984949)scale(0.1 -0.1)">
       <use xlink:href="#DejaVuSans-31"/>
       <use x="63.623047" xlink:href="#DejaVuSans-32"/>
       <use x="127.246094" xlink:href="#DejaVuSans-2e"/>
       <use x="159.033203" xlink:href="#DejaVuSans-35"/>
      </g>
     </g>
    </g>
    <g id="ytick_7">
     <g id="line2d_14">
      <g>
       <use style="stroke:#000000;stroke-width:0.8;" x="57.6" xlink:href="#mae925ef65a" y="115.125276"/>
      </g>
     </g>
     <g id="text_15">
      <!-- 15.0 -->
      <g transform="translate(28.334375 118.924495)scale(0.1 -0.1)">
       <use xlink:href="#DejaVuSans-31"/>
       <use x="63.623047" xlink:href="#DejaVuSans-35"/>
       <use x="127.246094" xlink:href="#DejaVuSans-2e"/>
       <use x="159.033203" xlink:href="#DejaVuSans-30"/>
      </g>
     </g>
    </g>
    <g id="ytick_8">
     <g id="line2d_15">
      <g>
       <use style="stroke:#000000;stroke-width:0.8;" x="57.6" xlink:href="#mae925ef65a" y="85.064822"/>
      </g>
     </g>
     <g id="text_16">
      <!-- 17.5 -->
      <g transform="translate(28.334375 88.864041)scale(0.1 -0.1)">
       <use xlink:href="#DejaVuSans-31"/>
       <use x="63.623047" xlink:href="#DejaVuSans-37"/>
       <use x="127.246094" xlink:href="#DejaVuSans-2e"/>
       <use x="159.033203" xlink:href="#DejaVuSans-35"/>
      </g>
     </g>
    </g>
    <g id="ytick_9">
     <g id="line2d_16">
      <g>
       <use style="stroke:#000000;stroke-width:0.8;" x="57.6" xlink:href="#mae925ef65a" y="55.004368"/>
      </g>
     </g>
     <g id="text_17">
      <!-- 20.0 -->
      <g transform="translate(28.334375 58.803587)scale(0.1 -0.1)">
       <use xlink:href="#DejaVuSans-32"/>
       <use x="63.623047" xlink:href="#DejaVuSans-30"/>
       <use x="127.246094" xlink:href="#DejaVuSans-2e"/>
       <use x="159.033203" xlink:href="#DejaVuSans-30"/>
      </g>
     </g>
    </g>
    <g id="text_18">
     <!-- Mass -->
     <defs>
      <path d="M 9.8125 72.90625 
L 24.515625 72.90625 
L 43.109375 23.296875 
L 61.8125 72.90625 
L 76.515625 72.90625 
L 76.515625 0 
L 66.890625 0 
L 66.890625 64.015625 
L 48.09375 14.015625 
L 38.1875 14.015625 
L 19.390625 64.015625 
L 19.390625 0 
L 9.8125 0 
z
" id="DejaVuSans-4d"/>
      <path d="M 44.28125 53.078125 
L 44.28125 44.578125 
Q 40.484375 46.53125 36.375 47.5 
Q 32.28125 48.484375 27.875 48.484375 
Q 21.1875 48.484375 17.84375 46.4375 
Q 14.5 44.390625 14.5 40.28125 
Q 14.5 37.15625 16.890625 35.375 
Q 19.28125 33.59375 26.515625 31.984375 
L 29.59375 31.296875 
Q 39.15625 29.25 43.1875 25.515625 
Q 47.21875 21.78125 47.21875 15.09375 
Q 47.21875 7.46875 41.1875 3.015625 
Q 35.15625 -1.421875 24.609375 -1.421875 
Q 20.21875 -1.421875 15.453125 -0.5625 
Q 10.6875 0.296875 5.421875 2 
L 5.421875 11.28125 
Q 10.40625 8.6875 15.234375 7.390625 
Q 20.0625 6.109375 24.8125 6.109375 
Q 31.15625 6.109375 34.5625 8.28125 
Q 37.984375 10.453125 37.984375 14.40625 
Q 37.984375 18.0625 35.515625 20.015625 
Q 33.0625 21.96875 24.703125 23.78125 
L 21.578125 24.515625 
Q 13.234375 26.265625 9.515625 29.90625 
Q 5.8125 33.546875 5.8125 39.890625 
Q 5.8125 47.609375 11.28125 51.796875 
Q 16.75 56 26.8125 56 
Q 31.78125 56 36.171875 55.265625 
Q 40.578125 54.546875 44.28125 53.078125 
z
" id="DejaVuSans-73"/>
     </defs>
     <g transform="translate(22.254688 187.1155)rotate(-90)scale(0.1 -0.1)">
      <use xlink:href="#DejaVuSans-4d"/>
      <use x="86.279297" xlink:href="#DejaVuSans-61"/>
      <use x="147.558594" xlink:href="#DejaVuSans-73"/>
      <use x="199.658203" xlink:href="#DejaVuSans-73"/>
     </g>
    </g>
   </g>
   <g id="line2d_17">
    <path clip-path="url(#p11c5841455)" d="M 75.978451 295.488 
L 200.020306 295.419066 
L 201.098931 295.345684 
L 202.177555 295.152307 
L 203.25618 294.55386 
L 204.334805 292.52245 
L 205.41343 286.904875 
L 206.492055 277.316247 
L 208.649304 256.060151 
L 209.727929 247.215551 
L 210.806554 239.828094 
L 211.885179 233.697022 
L 212.963804 228.587551 
L 214.042428 224.29212 
L 215.121053 220.642838 
L 216.199678 217.508325 
L 217.278303 214.786852 
L 218.356928 212.399674 
L 220.514177 208.396454 
L 222.671427 205.149455 
L 224.828677 202.437459 
L 226.985926 200.115393 
L 229.143176 198.084985 
L 232.37905 195.441825 
L 235.614925 193.149396 
L 238.850799 191.108867 
L 243.165299 188.670039 
L 248.558423 185.939652 
L 255.030172 182.977407 
L 262.580545 179.806048 
L 271.209544 176.425435 
L 281.995792 172.433851 
L 296.017915 167.488225 
L 314.354537 161.275173 
L 337.005658 153.851701 
L 362.892654 145.609689 
L 390.936899 136.922847 
L 398.487273 134.624345 
L 398.487273 134.624345 
" style="fill:none;stroke:#000000;stroke-linecap:square;stroke-width:1.5;"/>
   </g>
   <g id="line2d_18">
    <path clip-path="url(#p11c5841455)" d="M 75.978451 204.096337 
L 156.875313 203.953949 
L 175.211935 203.742368 
L 183.840933 203.453575 
L 189.234057 203.048924 
L 192.469932 202.587363 
L 194.627182 202.082877 
L 196.784431 201.27031 
L 197.863056 200.663721 
L 198.941681 199.837956 
L 200.020306 198.676771 
L 201.098931 196.983616 
L 202.177555 194.428506 
L 203.25618 190.545263 
L 205.41343 180.215439 
L 206.492055 177.525239 
L 207.570679 176.869135 
L 208.649304 177.230656 
L 210.806554 178.850195 
L 212.963804 180.459748 
L 215.121053 181.730731 
L 217.278303 182.663573 
L 219.435552 183.315101 
L 221.592802 183.741628 
L 223.750052 183.988879 
L 226.985926 184.098695 
L 230.221801 183.969643 
L 234.5363 183.525735 
L 238.850799 182.854731 
L 244.243923 181.788057 
L 250.715672 180.273037 
L 259.344671 177.987749 
L 270.130919 174.866753 
L 285.231667 170.229225 
L 311.118662 161.997189 
L 358.578154 146.916817 
L 388.779649 137.568202 
L 398.487273 134.614745 
L 398.487273 134.614745 
" style="fill:none;stroke:#100d0d;stroke-linecap:square;stroke-width:1.5;"/>
   </g>
   <g id="line2d_19">
    <path clip-path="url(#p11c5841455)" d="M 75.978451 295.488 
L 200.020306 295.429487 
L 202.177555 295.204643 
L 203.25618 294.69723 
L 204.334805 292.912637 
L 205.41343 287.601709 
L 206.492055 277.972321 
L 208.649304 256.11531 
L 209.727929 247.053071 
L 210.806554 239.529567 
L 211.885179 233.321607 
L 212.963804 228.174061 
L 214.042428 223.864885 
L 215.121053 220.216679 
L 216.199678 217.09201 
L 217.278303 214.385349 
L 218.356928 212.015579 
L 220.514177 208.049649 
L 222.671427 204.838878 
L 224.828677 202.159945 
L 226.985926 199.867283 
L 229.143176 197.86275 
L 232.37905 195.252563 
L 235.614925 192.987268 
L 238.850799 190.969206 
L 243.165299 188.554681 
L 248.558423 185.847861 
L 255.030172 182.906789 
L 262.580545 179.753403 
L 272.288169 175.97975 
L 284.153042 171.63433 
L 299.253789 166.360656 
L 318.669036 159.836062 
L 342.398782 152.11245 
L 368.285778 143.919307 
L 396.330023 135.278959 
L 398.487273 134.623986 
L 398.487273 134.623986 
" style="fill:none;stroke:#231816;stroke-linecap:square;stroke-width:1.5;"/>
   </g>
   <g id="line2d_20">
    <path clip-path="url(#p11c5841455)" d="M 75.978451 204.096096 
L 159.032562 203.949013 
L 176.29056 203.740139 
L 184.919558 203.435107 
L 189.234057 203.110297 
L 192.469932 202.67607 
L 194.627182 202.201513 
L 196.784431 201.437141 
L 197.863056 200.866409 
L 198.941681 200.089102 
L 200.020306 198.994916 
L 201.098931 197.395559 
L 202.177555 194.967449 
L 203.25618 191.218759 
L 205.41343 180.566144 
L 206.492055 177.602184 
L 207.570679 176.859007 
L 208.649304 177.225051 
L 210.806554 178.906555 
L 212.963804 180.562428 
L 215.121053 181.857735 
L 217.278303 182.800925 
L 219.435552 183.454793 
L 221.592802 183.879189 
L 223.750052 184.121859 
L 226.985926 184.222614 
L 230.221801 184.083586 
L 234.5363 183.62651 
L 238.850799 182.943271 
L 244.243923 181.863001 
L 250.715672 180.334149 
L 259.344671 178.034116 
L 270.130919 174.899423 
L 285.231667 170.249063 
L 312.197287 161.65975 
L 357.49953 147.256519 
L 387.701025 137.898464 
L 398.487273 134.615086 
L 398.487273 134.615086 
" style="fill:none;stroke:#39221c;stroke-linecap:square;stroke-width:1.5;"/>
   </g>
   <g id="line2d_21">
    <path clip-path="url(#p11c5841455)" d="M 75.978451 295.488 
L 201.098931 295.385998 
L 202.177555 295.248741 
L 203.25618 294.819469 
L 204.334805 293.262814 
L 205.41343 288.281119 
L 206.492055 278.641602 
L 208.649304 256.171963 
L 209.727929 246.88721 
L 210.806554 239.226786 
L 211.885179 232.943064 
L 212.963804 227.759237 
L 214.042428 223.438127 
L 215.121053 219.792564 
L 216.199678 216.678996 
L 217.278303 213.988105 
L 218.356928 211.636445 
L 220.514177 207.708624 
L 222.671427 204.534377 
L 224.828677 201.8885 
L 226.985926 199.625064 
L 229.143176 197.646138 
L 232.37905 195.068452 
L 235.614925 192.829806 
L 238.850799 190.83375 
L 243.165299 188.442971 
L 248.558423 185.759125 
L 255.030172 182.838647 
L 262.580545 179.702706 
L 272.288169 175.944628 
L 284.153042 171.611634 
L 299.253789 166.347518 
L 318.669036 159.82954 
L 342.398782 152.109702 
L 369.364403 143.581582 
L 397.408648 134.950955 
L 398.487273 134.623653 
L 398.487273 134.623653 
" style="fill:none;stroke:#522e1f;stroke-linecap:square;stroke-width:1.5;"/>
   </g>
   <g id="line2d_22">
    <path clip-path="url(#p11c5841455)" d="M 75.978451 204.095868 
L 160.111187 203.950667 
L 177.369184 203.737175 
L 184.919558 203.473678 
L 189.234057 203.168043 
L 192.469932 202.759521 
L 194.627182 202.313113 
L 196.784431 201.594097 
L 197.863056 201.057151 
L 198.941681 200.325595 
L 200.020306 199.294924 
L 201.098931 197.785325 
L 202.177555 195.481738 
L 203.25618 191.87632 
L 205.41343 180.950207 
L 206.492055 177.69002 
L 207.570679 176.849789 
L 208.649304 177.219309 
L 210.806554 178.964204 
L 212.963804 180.666539 
L 215.121053 181.985595 
L 217.278303 182.938449 
L 219.435552 183.594066 
L 221.592802 184.015869 
L 223.750052 184.253615 
L 226.985926 184.34497 
L 230.221801 184.195778 
L 234.5363 183.725431 
L 238.850799 183.029956 
L 244.243923 181.93617 
L 250.715672 180.393639 
L 259.344671 178.079093 
L 270.130919 174.930988 
L 285.231667 170.268131 
L 313.275912 161.32135 
L 356.420905 147.596522 
L 386.6224 138.229048 
L 398.487273 134.615401 
L 398.487273 134.615401 
" style="fill:none;stroke:#6e3c1f;stroke-linecap:square;stroke-width:1.5;"/>
   </g>
   <g id="line2d_23">
    <path clip-path="url(#p11c5841455)" d="M 75.978451 295.488 
L 201.098931 295.401554 
L 202.177555 295.285883 
L 203.25618 294.923326 
L 204.334805 293.574243 
L 205.41343 288.93916 
L 206.492055 279.323371 
L 208.649304 256.230153 
L 209.727929 246.71792 
L 210.806554 238.919778 
L 211.885179 232.561512 
L 212.963804 227.343252 
L 214.042428 223.012034 
L 215.121053 219.370671 
L 216.199678 216.269433 
L 217.278303 213.595237 
L 218.356928 211.262353 
L 220.514177 207.373395 
L 222.671427 204.23592 
L 224.828677 201.623055 
L 226.985926 199.388642 
L 229.143176 197.43504 
L 232.37905 194.889372 
L 235.614925 192.676887 
L 238.850799 190.702379 
L 243.165299 188.334796 
L 248.558423 185.673343 
L 255.030172 182.772892 
L 262.580545 179.653883 
L 272.288169 175.910889 
L 284.153042 171.589897 
L 299.253789 166.334986 
L 318.669036 159.823353 
L 342.398782 152.107112 
L 369.364403 143.580638 
L 397.408648 134.950633 
L 398.487273 134.623344 
L 398.487273 134.623344 
" style="fill:none;stroke:#8e4d1c;stroke-linecap:square;stroke-width:1.5;"/>
   </g>
   <g id="line2d_24">
    <path clip-path="url(#p11c5841455)" d="M 75.978451 204.095654 
L 161.189812 203.952204 
L 178.447809 203.733399 
L 185.998183 203.453205 
L 190.312682 203.116827 
L 193.548557 202.650946 
L 195.705806 202.123131 
L 196.784431 201.741754 
L 197.863056 201.236629 
L 198.941681 200.548233 
L 200.020306 199.577691 
L 201.098931 198.153733 
L 202.177555 195.971389 
L 203.25618 192.515061 
L 204.334805 187.273605 
L 205.41343 181.368969 
L 206.492055 177.789902 
L 207.570679 176.841611 
L 208.649304 177.213425 
L 210.806554 179.023159 
L 212.963804 180.772062 
L 215.121053 182.114262 
L 217.278303 183.076087 
L 219.435552 183.732865 
L 221.592802 184.151623 
L 223.750052 184.384114 
L 226.985926 184.465747 
L 230.221801 184.306215 
L 234.5363 183.82251 
L 238.850799 183.114808 
L 244.243923 182.007594 
L 250.715672 180.45154 
L 259.344671 178.122718 
L 270.130919 174.961482 
L 285.231667 170.286457 
L 314.354537 160.982084 
L 356.420905 147.597973 
L 386.6224 138.229511 
L 398.487273 134.615694 
L 398.487273 134.615694 
" style="fill:none;stroke:#b06416;stroke-linecap:square;stroke-width:1.5;"/>
   </g>
   <g id="line2d_25">
    <path clip-path="url(#p11c5841455)" d="M 75.978451 295.488 
L 201.098931 295.414686 
L 202.177555 295.317165 
L 203.25618 295.011317 
L 204.334805 293.848842 
L 205.41343 289.571917 
L 206.492055 280.01673 
L 208.649304 256.289925 
L 209.727929 246.545154 
L 210.806554 238.608573 
L 211.885179 232.177075 
L 212.963804 226.926285 
L 214.042428 222.586797 
L 215.121053 218.951174 
L 216.199678 215.863467 
L 217.278303 213.206855 
L 218.356928 210.893377 
L 220.514177 207.043972 
L 222.671427 203.943467 
L 224.828677 201.363534 
L 226.985926 199.157921 
L 229.143176 197.229347 
L 232.37905 194.715204 
L 235.614925 192.528392 
L 239.929424 189.964408 
L 244.243923 187.679841 
L 249.637047 185.091776 
L 256.108796 182.251771 
L 263.65917 179.180329 
L 273.366794 175.477293 
L 286.310291 170.806079 
L 302.489664 165.223159 
L 322.983535 158.398183 
L 347.791906 150.380782 
L 374.757527 141.902063 
L 398.487273 134.623059 
L 398.487273 134.623059 
" style="fill:none;stroke:#d6800d;stroke-linecap:square;stroke-width:1.5;"/>
   </g>
   <g id="line2d_26">
    <path clip-path="url(#p11c5841455)" d="M 75.978451 204.095453 
L 162.268437 203.95362 
L 179.526434 203.728719 
L 187.076808 203.429081 
L 191.391307 203.055473 
L 194.627182 202.516849 
L 196.784431 201.880656 
L 197.863056 201.405491 
L 198.941681 200.757788 
L 200.020306 199.8441 
L 201.098931 198.501653 
L 202.177555 196.436679 
L 203.25618 193.132715 
L 204.334805 187.975989 
L 205.41343 181.823365 
L 206.492055 177.903089 
L 207.570679 176.834613 
L 208.649304 177.207398 
L 210.806554 179.083438 
L 212.963804 180.878973 
L 215.121053 182.243685 
L 217.278303 183.213781 
L 219.435552 183.871138 
L 221.592802 184.286409 
L 223.750052 184.513325 
L 226.985926 184.58493 
L 230.221801 184.414898 
L 234.5363 183.917759 
L 238.850799 183.197851 
L 244.243923 182.077303 
L 250.715672 180.507887 
L 259.344671 178.165026 
L 270.130919 174.99094 
L 286.310291 169.963027 
L 319.747661 159.25719 
L 357.49953 147.260706 
L 387.701025 137.899799 
L 398.487273 134.615965 
L 398.487273 134.615965 
" style="fill:none;stroke:#ffa500;stroke-linecap:square;stroke-width:1.5;"/>
   </g>
   <g id="line2d_27">
    <path clip-path="url(#p11c5841455)" d="M 75.978451 204.095453 
L 162.268437 203.95362 
L 179.526434 203.728719 
L 187.076808 203.429081 
L 191.391307 203.055473 
L 194.627182 202.516849 
L 196.784431 201.880656 
L 197.863056 201.405491 
L 198.941681 200.757788 
L 200.020306 199.8441 
L 201.098931 198.501653 
L 202.177555 196.436679 
L 203.25618 193.132715 
L 204.334805 187.975989 
L 205.41343 181.823365 
L 206.492055 177.903089 
L 207.570679 176.834613 
L 208.649304 177.207398 
L 210.806554 179.083438 
L 212.963804 180.878973 
L 215.121053 182.243685 
L 217.278303 183.213781 
L 219.435552 183.871138 
L 221.592802 184.286409 
L 223.750052 184.513325 
L 226.985926 184.58493 
L 230.221801 184.414898 
L 234.5363 183.917759 
L 238.850799 183.197851 
L 244.243923 182.077303 
L 250.715672 180.507887 
L 259.344671 178.165026 
L 270.130919 174.99094 
L 286.310291 169.963027 
L 319.747661 159.25719 
L 357.49953 147.260706 
L 387.701025 137.899799 
L 398.487273 134.615965 
L 398.487273 134.615965 
" style="fill:none;stroke:#ffa500;stroke-linecap:square;stroke-width:1.5;"/>
   </g>
   <g id="patch_3">
    <path d="M 57.6 307.584 
L 57.6 41.472 
" style="fill:none;stroke:#000000;stroke-linecap:square;stroke-linejoin:miter;stroke-width:0.8;"/>
   </g>
   <g id="patch_4">
    <path d="M 414.72 307.584 
L 414.72 41.472 
" style="fill:none;stroke:#000000;stroke-linecap:square;stroke-linejoin:miter;stroke-width:0.8;"/>
   </g>
   <g id="patch_5">
    <path d="M 57.6 307.584 
L 414.72 307.584 
" style="fill:none;stroke:#000000;stroke-linecap:square;stroke-linejoin:miter;stroke-width:0.8;"/>
   </g>
   <g id="patch_6">
    <path d="M 57.6 41.472 
L 414.72 41.472 
" style="fill:none;stroke:#000000;stroke-linecap:square;stroke-linejoin:miter;stroke-width:0.8;"/>
   </g>
   <g id="legend_1">
    <g id="patch_7">
     <path d="M 341.340313 64.150125 
L 407.72 64.150125 
Q 409.72 64.150125 409.72 62.150125 
L 409.72 48.472 
Q 409.72 46.472 407.72 46.472 
L 341.340313 46.472 
Q 339.340313 46.472 339.340313 48.472 
L 339.340313 62.150125 
Q 339.340313 64.150125 341.340313 64.150125 
z
" style="fill:#ffffff;opacity:0.8;stroke:#cccccc;stroke-linejoin:miter;"/>
    </g>
    <g id="line2d_28">
     <path d="M 343.340313 54.570438 
L 363.340313 54.570438 
" style="fill:none;stroke:#ffa500;stroke-linecap:square;stroke-width:1.5;"/>
    </g>
    <g id="line2d_29"/>
    <g id="text_19">
     <!-- Hunter -->
     <defs>
      <path d="M 9.8125 72.90625 
L 19.671875 72.90625 
L 19.671875 43.015625 
L 55.515625 43.015625 
L 55.515625 72.90625 
L 65.375 72.90625 
L 65.375 0 
L 55.515625 0 
L 55.515625 34.71875 
L 19.671875 34.71875 
L 19.671875 0 
L 9.8125 0 
z
" id="DejaVuSans-48"/>
      <path d="M 8.5 21.578125 
L 8.5 54.6875 
L 17.484375 54.6875 
L 17.484375 21.921875 
Q 17.484375 14.15625 20.5 10.265625 
Q 23.53125 6.390625 29.59375 6.390625 
Q 36.859375 6.390625 41.078125 11.03125 
Q 45.3125 15.671875 45.3125 23.6875 
L 45.3125 54.6875 
L 54.296875 54.6875 
L 54.296875 0 
L 45.3125 0 
L 45.3125 8.40625 
Q 42.046875 3.421875 37.71875 1 
Q 33.40625 -1.421875 27.6875 -1.421875 
Q 18.265625 -1.421875 13.375 4.4375 
Q 8.5 10.296875 8.5 21.578125 
z
M 31.109375 56 
z
" id="DejaVuSans-75"/>
      <path d="M 54.890625 33.015625 
L 54.890625 0 
L 45.90625 0 
L 45.90625 32.71875 
Q 45.90625 40.484375 42.875 44.328125 
Q 39.84375 48.1875 33.796875 48.1875 
Q 26.515625 48.1875 22.3125 43.546875 
Q 18.109375 38.921875 18.109375 30.90625 
L 18.109375 0 
L 9.078125 0 
L 9.078125 54.6875 
L 18.109375 54.6875 
L 18.109375 46.1875 
Q 21.34375 51.125 25.703125 53.5625 
Q 30.078125 56 35.796875 56 
Q 45.21875 56 50.046875 50.171875 
Q 54.890625 44.34375 54.890625 33.015625 
z
" id="DejaVuSans-6e"/>
     </defs>
     <g transform="translate(371.340313 58.070438)scale(0.1 -0.1)">
      <use xlink:href="#DejaVuSans-48"/>
      <use x="75.195312" xlink:href="#DejaVuSans-75"/>
      <use x="138.574219" xlink:href="#DejaVuSans-6e"/>
      <use x="201.953125" xlink:href="#DejaVuSans-74"/>
      <use x="241.162109" xlink:href="#DejaVuSans-65"/>
      <use x="302.685547" xlink:href="#DejaVuSans-72"/>
     </g>
    </g>
   </g>
  </g>
 </g>
 <defs>
  <clipPath id="p11c5841455">
   <rect height="266.112" width="357.12" x="57.6" y="41.472"/>
  </clipPath>
 </defs>
</svg>
