<?xml version="1.0" encoding="utf-8" standalone="no"?>
<!DOCTYPE svg PUBLIC "-//W3C//DTD SVG 1.1//EN"
  "http://www.w3.org/Graphics/SVG/1.1/DTD/svg11.dtd">
<!-- Created with matplotlib (http://matplotlib.org/) -->
<svg height="345.6pt" version="1.1" viewBox="0 0 460.8 345.6" width="460.8pt" xmlns="http://www.w3.org/2000/svg" xmlns:xlink="http://www.w3.org/1999/xlink">
 <defs>
  <style type="text/css">
*{stroke-linecap:butt;stroke-linejoin:round;}
  </style>
 </defs>
 <g id="figure_1">
  <g id="patch_1">
   <path d="M 0 345.6 
L 460.8 345.6 
L 460.8 0 
L 0 0 
z
" style="fill:#ffffff;"/>
  </g>
  <g id="axes_1">
   <g id="patch_2">
    <path d="M 57.6 307.584 
L 414.72 307.584 
L 414.72 41.472 
L 57.6 41.472 
z
" style="fill:#ffffff;"/>
   </g>
   <g id="PathCollection_1">
    <defs>
     <path d="M 0 3 
C 0.795609 3 1.55874 2.683901 2.12132 2.12132 
C 2.683901 1.55874 3 0.795609 3 0 
C 3 -0.795609 2.683901 -1.55874 2.12132 -2.12132 
C 1.55874 -2.683901 0.795609 -3 0 -3 
C -0.795609 -3 -1.55874 -2.683901 -2.12132 -2.12132 
C -2.683901 -1.55874 -3 -0.795609 -3 0 
C -3 0.795609 -2.683901 1.55874 -2.12132 2.12132 
C -1.55874 2.683901 -0.795609 3 0 3 
z
" id="m255f99287b" style="stroke:#008000;"/>
    </defs>
    <g clip-path="url(#p9f6d033c22)">
     <use style="fill:#008000;stroke:#008000;" x="127.941818" xlink:href="#m255f99287b" y="259.73946"/>
     <use style="fill:#008000;stroke:#008000;" x="127.941818" xlink:href="#m255f99287b" y="152.422233"/>
    </g>
   </g>
   <g id="matplotlib.axis_1">
    <g id="xtick_1">
     <g id="line2d_1">
      <defs>
       <path d="M 0 0 
L 0 3.5 
" id="m959feade93" style="stroke:#000000;stroke-width:0.8;"/>
      </defs>
      <g>
       <use style="stroke:#000000;stroke-width:0.8;" x="73.832727" xlink:href="#m959feade93" y="307.584"/>
      </g>
     </g>
     <g id="text_1">
      <!-- −2 -->
      <defs>
       <path d="M 10.59375 35.5 
L 73.1875 35.5 
L 73.1875 27.203125 
L 10.59375 27.203125 
z
" id="DejaVuSans-2212"/>
       <path d="M 19.1875 8.296875 
L 53.609375 8.296875 
L 53.609375 0 
L 7.328125 0 
L 7.328125 8.296875 
Q 12.9375 14.109375 22.625 23.890625 
Q 32.328125 33.6875 34.8125 36.53125 
Q 39.546875 41.84375 41.421875 45.53125 
Q 43.3125 49.21875 43.3125 52.78125 
Q 43.3125 58.59375 39.234375 62.25 
Q 35.15625 65.921875 28.609375 65.921875 
Q 23.96875 65.921875 18.8125 64.3125 
Q 13.671875 62.703125 7.8125 59.421875 
L 7.8125 69.390625 
Q 13.765625 71.78125 18.9375 73 
Q 24.125 74.21875 28.421875 74.21875 
Q 39.75 74.21875 46.484375 68.546875 
Q 53.21875 62.890625 53.21875 53.421875 
Q 53.21875 48.921875 51.53125 44.890625 
Q 49.859375 40.875 45.40625 35.40625 
Q 44.1875 33.984375 37.640625 27.21875 
Q 31.109375 20.453125 19.1875 8.296875 
z
" id="DejaVuSans-32"/>
      </defs>
      <g transform="translate(66.461634 322.182437)scale(0.1 -0.1)">
       <use xlink:href="#DejaVuSans-2212"/>
       <use x="83.789062" xlink:href="#DejaVuSans-32"/>
      </g>
     </g>
    </g>
    <g id="xtick_2">
     <g id="line2d_2">
      <g>
       <use style="stroke:#000000;stroke-width:0.8;" x="127.941818" xlink:href="#m959feade93" y="307.584"/>
      </g>
     </g>
     <g id="text_2">
      <!-- 0 -->
      <defs>
       <path d="M 31.78125 66.40625 
Q 24.171875 66.40625 20.328125 58.90625 
Q 16.5 51.421875 16.5 36.375 
Q 16.5 21.390625 20.328125 13.890625 
Q 24.171875 6.390625 31.78125 6.390625 
Q 39.453125 6.390625 43.28125 13.890625 
Q 47.125 21.390625 47.125 36.375 
Q 47.125 51.421875 43.28125 58.90625 
Q 39.453125 66.40625 31.78125 66.40625 
z
M 31.78125 74.21875 
Q 44.046875 74.21875 50.515625 64.515625 
Q 56.984375 54.828125 56.984375 36.375 
Q 56.984375 17.96875 50.515625 8.265625 
Q 44.046875 -1.421875 31.78125 -1.421875 
Q 19.53125 -1.421875 13.0625 8.265625 
Q 6.59375 17.96875 6.59375 36.375 
Q 6.59375 54.828125 13.0625 64.515625 
Q 19.53125 74.21875 31.78125 74.21875 
z
" id="DejaVuSans-30"/>
      </defs>
      <g transform="translate(124.760568 322.182437)scale(0.1 -0.1)">
       <use xlink:href="#DejaVuSans-30"/>
      </g>
     </g>
    </g>
    <g id="xtick_3">
     <g id="line2d_3">
      <g>
       <use style="stroke:#000000;stroke-width:0.8;" x="182.050909" xlink:href="#m959feade93" y="307.584"/>
      </g>
     </g>
     <g id="text_3">
      <!-- 2 -->
      <g transform="translate(178.869659 322.182437)scale(0.1 -0.1)">
       <use xlink:href="#DejaVuSans-32"/>
      </g>
     </g>
    </g>
    <g id="xtick_4">
     <g id="line2d_4">
      <g>
       <use style="stroke:#000000;stroke-width:0.8;" x="236.16" xlink:href="#m959feade93" y="307.584"/>
      </g>
     </g>
     <g id="text_4">
      <!-- 4 -->
      <defs>
       <path d="M 37.796875 64.3125 
L 12.890625 25.390625 
L 37.796875 25.390625 
z
M 35.203125 72.90625 
L 47.609375 72.90625 
L 47.609375 25.390625 
L 58.015625 25.390625 
L 58.015625 17.1875 
L 47.609375 17.1875 
L 47.609375 0 
L 37.796875 0 
L 37.796875 17.1875 
L 4.890625 17.1875 
L 4.890625 26.703125 
z
" id="DejaVuSans-34"/>
      </defs>
      <g transform="translate(232.97875 322.182437)scale(0.1 -0.1)">
       <use xlink:href="#DejaVuSans-34"/>
      </g>
     </g>
    </g>
    <g id="xtick_5">
     <g id="line2d_5">
      <g>
       <use style="stroke:#000000;stroke-width:0.8;" x="290.269091" xlink:href="#m959feade93" y="307.584"/>
      </g>
     </g>
     <g id="text_5">
      <!-- 6 -->
      <defs>
       <path d="M 33.015625 40.375 
Q 26.375 40.375 22.484375 35.828125 
Q 18.609375 31.296875 18.609375 23.390625 
Q 18.609375 15.53125 22.484375 10.953125 
Q 26.375 6.390625 33.015625 6.390625 
Q 39.65625 6.390625 43.53125 10.953125 
Q 47.40625 15.53125 47.40625 23.390625 
Q 47.40625 31.296875 43.53125 35.828125 
Q 39.65625 40.375 33.015625 40.375 
z
M 52.59375 71.296875 
L 52.59375 62.3125 
Q 48.875 64.0625 45.09375 64.984375 
Q 41.3125 65.921875 37.59375 65.921875 
Q 27.828125 65.921875 22.671875 59.328125 
Q 17.53125 52.734375 16.796875 39.40625 
Q 19.671875 43.65625 24.015625 45.921875 
Q 28.375 48.1875 33.59375 48.1875 
Q 44.578125 48.1875 50.953125 41.515625 
Q 57.328125 34.859375 57.328125 23.390625 
Q 57.328125 12.15625 50.6875 5.359375 
Q 44.046875 -1.421875 33.015625 -1.421875 
Q 20.359375 -1.421875 13.671875 8.265625 
Q 6.984375 17.96875 6.984375 36.375 
Q 6.984375 53.65625 15.1875 63.9375 
Q 23.390625 74.21875 37.203125 74.21875 
Q 40.921875 74.21875 44.703125 73.484375 
Q 48.484375 72.75 52.59375 71.296875 
z
" id="DejaVuSans-36"/>
      </defs>
      <g transform="translate(287.087841 322.182437)scale(0.1 -0.1)">
       <use xlink:href="#DejaVuSans-36"/>
      </g>
     </g>
    </g>
    <g id="xtick_6">
     <g id="line2d_6">
      <g>
       <use style="stroke:#000000;stroke-width:0.8;" x="344.378182" xlink:href="#m959feade93" y="307.584"/>
      </g>
     </g>
     <g id="text_6">
      <!-- 8 -->
      <defs>
       <path d="M 31.78125 34.625 
Q 24.75 34.625 20.71875 30.859375 
Q 16.703125 27.09375 16.703125 20.515625 
Q 16.703125 13.921875 20.71875 10.15625 
Q 24.75 6.390625 31.78125 6.390625 
Q 38.8125 6.390625 42.859375 10.171875 
Q 46.921875 13.96875 46.921875 20.515625 
Q 46.921875 27.09375 42.890625 30.859375 
Q 38.875 34.625 31.78125 34.625 
z
M 21.921875 38.8125 
Q 15.578125 40.375 12.03125 44.71875 
Q 8.5 49.078125 8.5 55.328125 
Q 8.5 64.0625 14.71875 69.140625 
Q 20.953125 74.21875 31.78125 74.21875 
Q 42.671875 74.21875 48.875 69.140625 
Q 55.078125 64.0625 55.078125 55.328125 
Q 55.078125 49.078125 51.53125 44.71875 
Q 48 40.375 41.703125 38.8125 
Q 48.828125 37.15625 52.796875 32.3125 
Q 56.78125 27.484375 56.78125 20.515625 
Q 56.78125 9.90625 50.3125 4.234375 
Q 43.84375 -1.421875 31.78125 -1.421875 
Q 19.734375 -1.421875 13.25 4.234375 
Q 6.78125 9.90625 6.78125 20.515625 
Q 6.78125 27.484375 10.78125 32.3125 
Q 14.796875 37.15625 21.921875 38.8125 
z
M 18.3125 54.390625 
Q 18.3125 48.734375 21.84375 45.5625 
Q 25.390625 42.390625 31.78125 42.390625 
Q 38.140625 42.390625 41.71875 45.5625 
Q 45.3125 48.734375 45.3125 54.390625 
Q 45.3125 60.0625 41.71875 63.234375 
Q 38.140625 66.40625 31.78125 66.40625 
Q 25.390625 66.40625 21.84375 63.234375 
Q 18.3125 60.0625 18.3125 54.390625 
z
" id="DejaVuSans-38"/>
      </defs>
      <g transform="translate(341.196932 322.182437)scale(0.1 -0.1)">
       <use xlink:href="#DejaVuSans-38"/>
      </g>
     </g>
    </g>
    <g id="xtick_7">
     <g id="line2d_7">
      <g>
       <use style="stroke:#000000;stroke-width:0.8;" x="398.487273" xlink:href="#m959feade93" y="307.584"/>
      </g>
     </g>
     <g id="text_7">
      <!-- 10 -->
      <defs>
       <path d="M 12.40625 8.296875 
L 28.515625 8.296875 
L 28.515625 63.921875 
L 10.984375 60.40625 
L 10.984375 69.390625 
L 28.421875 72.90625 
L 38.28125 72.90625 
L 38.28125 8.296875 
L 54.390625 8.296875 
L 54.390625 0 
L 12.40625 0 
z
" id="DejaVuSans-31"/>
      </defs>
      <g transform="translate(392.124773 322.182437)scale(0.1 -0.1)">
       <use xlink:href="#DejaVuSans-31"/>
       <use x="63.623047" xlink:href="#DejaVuSans-30"/>
      </g>
     </g>
    </g>
    <g id="text_8">
     <!-- Parameter -->
     <defs>
      <path d="M 19.671875 64.796875 
L 19.671875 37.40625 
L 32.078125 37.40625 
Q 38.96875 37.40625 42.71875 40.96875 
Q 46.484375 44.53125 46.484375 51.125 
Q 46.484375 57.671875 42.71875 61.234375 
Q 38.96875 64.796875 32.078125 64.796875 
z
M 9.8125 72.90625 
L 32.078125 72.90625 
Q 44.34375 72.90625 50.609375 67.359375 
Q 56.890625 61.8125 56.890625 51.125 
Q 56.890625 40.328125 50.609375 34.8125 
Q 44.34375 29.296875 32.078125 29.296875 
L 19.671875 29.296875 
L 19.671875 0 
L 9.8125 0 
z
" id="DejaVuSans-50"/>
      <path d="M 34.28125 27.484375 
Q 23.390625 27.484375 19.1875 25 
Q 14.984375 22.515625 14.984375 16.5 
Q 14.984375 11.71875 18.140625 8.90625 
Q 21.296875 6.109375 26.703125 6.109375 
Q 34.1875 6.109375 38.703125 11.40625 
Q 43.21875 16.703125 43.21875 25.484375 
L 43.21875 27.484375 
z
M 52.203125 31.203125 
L 52.203125 0 
L 43.21875 0 
L 43.21875 8.296875 
Q 40.140625 3.328125 35.546875 0.953125 
Q 30.953125 -1.421875 24.3125 -1.421875 
Q 15.921875 -1.421875 10.953125 3.296875 
Q 6 8.015625 6 15.921875 
Q 6 25.140625 12.171875 29.828125 
Q 18.359375 34.515625 30.609375 34.515625 
L 43.21875 34.515625 
L 43.21875 35.40625 
Q 43.21875 41.609375 39.140625 45 
Q 35.0625 48.390625 27.6875 48.390625 
Q 23 48.390625 18.546875 47.265625 
Q 14.109375 46.140625 10.015625 43.890625 
L 10.015625 52.203125 
Q 14.9375 54.109375 19.578125 55.046875 
Q 24.21875 56 28.609375 56 
Q 40.484375 56 46.34375 49.84375 
Q 52.203125 43.703125 52.203125 31.203125 
z
" id="DejaVuSans-61"/>
      <path d="M 41.109375 46.296875 
Q 39.59375 47.171875 37.8125 47.578125 
Q 36.03125 48 33.890625 48 
Q 26.265625 48 22.1875 43.046875 
Q 18.109375 38.09375 18.109375 28.8125 
L 18.109375 0 
L 9.078125 0 
L 9.078125 54.6875 
L 18.109375 54.6875 
L 18.109375 46.1875 
Q 20.953125 51.171875 25.484375 53.578125 
Q 30.03125 56 36.53125 56 
Q 37.453125 56 38.578125 55.875 
Q 39.703125 55.765625 41.0625 55.515625 
z
" id="DejaVuSans-72"/>
      <path d="M 52 44.1875 
Q 55.375 50.25 60.0625 53.125 
Q 64.75 56 71.09375 56 
Q 79.640625 56 84.28125 50.015625 
Q 88.921875 44.046875 88.921875 33.015625 
L 88.921875 0 
L 79.890625 0 
L 79.890625 32.71875 
Q 79.890625 40.578125 77.09375 44.375 
Q 74.3125 48.1875 68.609375 48.1875 
Q 61.625 48.1875 57.5625 43.546875 
Q 53.515625 38.921875 53.515625 30.90625 
L 53.515625 0 
L 44.484375 0 
L 44.484375 32.71875 
Q 44.484375 40.625 41.703125 44.40625 
Q 38.921875 48.1875 33.109375 48.1875 
Q 26.21875 48.1875 22.15625 43.53125 
Q 18.109375 38.875 18.109375 30.90625 
L 18.109375 0 
L 9.078125 0 
L 9.078125 54.6875 
L 18.109375 54.6875 
L 18.109375 46.1875 
Q 21.1875 51.21875 25.484375 53.609375 
Q 29.78125 56 35.6875 56 
Q 41.65625 56 45.828125 52.96875 
Q 50 49.953125 52 44.1875 
z
" id="DejaVuSans-6d"/>
      <path d="M 56.203125 29.59375 
L 56.203125 25.203125 
L 14.890625 25.203125 
Q 15.484375 15.921875 20.484375 11.0625 
Q 25.484375 6.203125 34.421875 6.203125 
Q 39.59375 6.203125 44.453125 7.46875 
Q 49.3125 8.734375 54.109375 11.28125 
L 54.109375 2.78125 
Q 49.265625 0.734375 44.1875 -0.34375 
Q 39.109375 -1.421875 33.890625 -1.421875 
Q 20.796875 -1.421875 13.15625 6.1875 
Q 5.515625 13.8125 5.515625 26.8125 
Q 5.515625 40.234375 12.765625 48.109375 
Q 20.015625 56 32.328125 56 
Q 43.359375 56 49.78125 48.890625 
Q 56.203125 41.796875 56.203125 29.59375 
z
M 47.21875 32.234375 
Q 47.125 39.59375 43.09375 43.984375 
Q 39.0625 48.390625 32.421875 48.390625 
Q 24.90625 48.390625 20.390625 44.140625 
Q 15.875 39.890625 15.1875 32.171875 
z
" id="DejaVuSans-65"/>
      <path d="M 18.3125 70.21875 
L 18.3125 54.6875 
L 36.8125 54.6875 
L 36.8125 47.703125 
L 18.3125 47.703125 
L 18.3125 18.015625 
Q 18.3125 11.328125 20.140625 9.421875 
Q 21.96875 7.515625 27.59375 7.515625 
L 36.8125 7.515625 
L 36.8125 0 
L 27.59375 0 
Q 17.1875 0 13.234375 3.875 
Q 9.28125 7.765625 9.28125 18.015625 
L 9.28125 47.703125 
L 2.6875 47.703125 
L 2.6875 54.6875 
L 9.28125 54.6875 
L 9.28125 70.21875 
z
" id="DejaVuSans-74"/>
     </defs>
     <g transform="translate(209.925625 335.860562)scale(0.1 -0.1)">
      <use xlink:href="#DejaVuSans-50"/>
      <use x="60.240234" xlink:href="#DejaVuSans-61"/>
      <use x="121.519531" xlink:href="#DejaVuSans-72"/>
      <use x="162.632812" xlink:href="#DejaVuSans-61"/>
      <use x="223.912109" xlink:href="#DejaVuSans-6d"/>
      <use x="321.324219" xlink:href="#DejaVuSans-65"/>
      <use x="382.847656" xlink:href="#DejaVuSans-74"/>
      <use x="422.056641" xlink:href="#DejaVuSans-65"/>
      <use x="483.580078" xlink:href="#DejaVuSans-72"/>
     </g>
    </g>
   </g>
   <g id="matplotlib.axis_2">
    <g id="ytick_1">
     <g id="line2d_8">
      <defs>
       <path d="M 0 0 
L -3.5 0 
" id="mca35450910" style="stroke:#000000;stroke-width:0.8;"/>
      </defs>
      <g>
       <use style="stroke:#000000;stroke-width:0.8;" x="57.6" xlink:href="#mca35450910" y="295.511869"/>
      </g>
     </g>
     <g id="text_9">
      <!-- 0 -->
      <g transform="translate(44.2375 299.311088)scale(0.1 -0.1)">
       <use xlink:href="#DejaVuSans-30"/>
      </g>
     </g>
    </g>
    <g id="ytick_2">
     <g id="line2d_9">
      <g>
       <use style="stroke:#000000;stroke-width:0.8;" x="57.6" xlink:href="#mca35450910" y="259.73946"/>
      </g>
     </g>
     <g id="text_10">
      <!-- 5 -->
      <defs>
       <path d="M 10.796875 72.90625 
L 49.515625 72.90625 
L 49.515625 64.59375 
L 19.828125 64.59375 
L 19.828125 46.734375 
Q 21.96875 47.46875 24.109375 47.828125 
Q 26.265625 48.1875 28.421875 48.1875 
Q 40.625 48.1875 47.75 41.5 
Q 54.890625 34.8125 54.890625 23.390625 
Q 54.890625 11.625 47.5625 5.09375 
Q 40.234375 -1.421875 26.90625 -1.421875 
Q 22.3125 -1.421875 17.546875 -0.640625 
Q 12.796875 0.140625 7.71875 1.703125 
L 7.71875 11.625 
Q 12.109375 9.234375 16.796875 8.0625 
Q 21.484375 6.890625 26.703125 6.890625 
Q 35.15625 6.890625 40.078125 11.328125 
Q 45.015625 15.765625 45.015625 23.390625 
Q 45.015625 31 40.078125 35.4375 
Q 35.15625 39.890625 26.703125 39.890625 
Q 22.75 39.890625 18.8125 39.015625 
Q 14.890625 38.140625 10.796875 36.28125 
z
" id="DejaVuSans-35"/>
      </defs>
      <g transform="translate(44.2375 263.538679)scale(0.1 -0.1)">
       <use xlink:href="#DejaVuSans-35"/>
      </g>
     </g>
    </g>
    <g id="ytick_3">
     <g id="line2d_10">
      <g>
       <use style="stroke:#000000;stroke-width:0.8;" x="57.6" xlink:href="#mca35450910" y="223.967051"/>
      </g>
     </g>
     <g id="text_11">
      <!-- 10 -->
      <g transform="translate(37.875 227.76627)scale(0.1 -0.1)">
       <use xlink:href="#DejaVuSans-31"/>
       <use x="63.623047" xlink:href="#DejaVuSans-30"/>
      </g>
     </g>
    </g>
    <g id="ytick_4">
     <g id="line2d_11">
      <g>
       <use style="stroke:#000000;stroke-width:0.8;" x="57.6" xlink:href="#mca35450910" y="188.194642"/>
      </g>
     </g>
     <g id="text_12">
      <!-- 15 -->
      <g transform="translate(37.875 191.993861)scale(0.1 -0.1)">
       <use xlink:href="#DejaVuSans-31"/>
       <use x="63.623047" xlink:href="#DejaVuSans-35"/>
      </g>
     </g>
    </g>
    <g id="ytick_5">
     <g id="line2d_12">
      <g>
       <use style="stroke:#000000;stroke-width:0.8;" x="57.6" xlink:href="#mca35450910" y="152.422233"/>
      </g>
     </g>
     <g id="text_13">
      <!-- 20 -->
      <g transform="translate(37.875 156.221452)scale(0.1 -0.1)">
       <use xlink:href="#DejaVuSans-32"/>
       <use x="63.623047" xlink:href="#DejaVuSans-30"/>
      </g>
     </g>
    </g>
    <g id="ytick_6">
     <g id="line2d_13">
      <g>
       <use style="stroke:#000000;stroke-width:0.8;" x="57.6" xlink:href="#mca35450910" y="116.649824"/>
      </g>
     </g>
     <g id="text_14">
      <!-- 25 -->
      <g transform="translate(37.875 120.449043)scale(0.1 -0.1)">
       <use xlink:href="#DejaVuSans-32"/>
       <use x="63.623047" xlink:href="#DejaVuSans-35"/>
      </g>
     </g>
    </g>
    <g id="ytick_7">
     <g id="line2d_14">
      <g>
       <use style="stroke:#000000;stroke-width:0.8;" x="57.6" xlink:href="#mca35450910" y="80.877415"/>
      </g>
     </g>
     <g id="text_15">
      <!-- 30 -->
      <defs>
       <path d="M 40.578125 39.3125 
Q 47.65625 37.796875 51.625 33 
Q 55.609375 28.21875 55.609375 21.1875 
Q 55.609375 10.40625 48.1875 4.484375 
Q 40.765625 -1.421875 27.09375 -1.421875 
Q 22.515625 -1.421875 17.65625 -0.515625 
Q 12.796875 0.390625 7.625 2.203125 
L 7.625 11.71875 
Q 11.71875 9.328125 16.59375 8.109375 
Q 21.484375 6.890625 26.8125 6.890625 
Q 36.078125 6.890625 40.9375 10.546875 
Q 45.796875 14.203125 45.796875 21.1875 
Q 45.796875 27.640625 41.28125 31.265625 
Q 36.765625 34.90625 28.71875 34.90625 
L 20.21875 34.90625 
L 20.21875 43.015625 
L 29.109375 43.015625 
Q 36.375 43.015625 40.234375 45.921875 
Q 44.09375 48.828125 44.09375 54.296875 
Q 44.09375 59.90625 40.109375 62.90625 
Q 36.140625 65.921875 28.71875 65.921875 
Q 24.65625 65.921875 20.015625 65.03125 
Q 15.375 64.15625 9.8125 62.3125 
L 9.8125 71.09375 
Q 15.4375 72.65625 20.34375 73.4375 
Q 25.25 74.21875 29.59375 74.21875 
Q 40.828125 74.21875 47.359375 69.109375 
Q 53.90625 64.015625 53.90625 55.328125 
Q 53.90625 49.265625 50.4375 45.09375 
Q 46.96875 40.921875 40.578125 39.3125 
z
" id="DejaVuSans-33"/>
      </defs>
      <g transform="translate(37.875 84.676634)scale(0.1 -0.1)">
       <use xlink:href="#DejaVuSans-33"/>
       <use x="63.623047" xlink:href="#DejaVuSans-30"/>
      </g>
     </g>
    </g>
    <g id="ytick_8">
     <g id="line2d_15">
      <g>
       <use style="stroke:#000000;stroke-width:0.8;" x="57.6" xlink:href="#mca35450910" y="45.105006"/>
      </g>
     </g>
     <g id="text_16">
      <!-- 35 -->
      <g transform="translate(37.875 48.904225)scale(0.1 -0.1)">
       <use xlink:href="#DejaVuSans-33"/>
       <use x="63.623047" xlink:href="#DejaVuSans-35"/>
      </g>
     </g>
    </g>
    <g id="text_17">
     <!-- Mass -->
     <defs>
      <path d="M 9.8125 72.90625 
L 24.515625 72.90625 
L 43.109375 23.296875 
L 61.8125 72.90625 
L 76.515625 72.90625 
L 76.515625 0 
L 66.890625 0 
L 66.890625 64.015625 
L 48.09375 14.015625 
L 38.1875 14.015625 
L 19.390625 64.015625 
L 19.390625 0 
L 9.8125 0 
z
" id="DejaVuSans-4d"/>
      <path d="M 44.28125 53.078125 
L 44.28125 44.578125 
Q 40.484375 46.53125 36.375 47.5 
Q 32.28125 48.484375 27.875 48.484375 
Q 21.1875 48.484375 17.84375 46.4375 
Q 14.5 44.390625 14.5 40.28125 
Q 14.5 37.15625 16.890625 35.375 
Q 19.28125 33.59375 26.515625 31.984375 
L 29.59375 31.296875 
Q 39.15625 29.25 43.1875 25.515625 
Q 47.21875 21.78125 47.21875 15.09375 
Q 47.21875 7.46875 41.1875 3.015625 
Q 35.15625 -1.421875 24.609375 -1.421875 
Q 20.21875 -1.421875 15.453125 -0.5625 
Q 10.6875 0.296875 5.421875 2 
L 5.421875 11.28125 
Q 10.40625 8.6875 15.234375 7.390625 
Q 20.0625 6.109375 24.8125 6.109375 
Q 31.15625 6.109375 34.5625 8.28125 
Q 37.984375 10.453125 37.984375 14.40625 
Q 37.984375 18.0625 35.515625 20.015625 
Q 33.0625 21.96875 24.703125 23.78125 
L 21.578125 24.515625 
Q 13.234375 26.265625 9.515625 29.90625 
Q 5.8125 33.546875 5.8125 39.890625 
Q 5.8125 47.609375 11.28125 51.796875 
Q 16.75 56 26.8125 56 
Q 31.78125 56 36.171875 55.265625 
Q 40.578125 54.546875 44.28125 53.078125 
z
" id="DejaVuSans-73"/>
     </defs>
     <g transform="translate(31.795313 187.1155)rotate(-90)scale(0.1 -0.1)">
      <use xlink:href="#DejaVuSans-4d"/>
      <use x="86.279297" xlink:href="#DejaVuSans-61"/>
      <use x="147.558594" xlink:href="#DejaVuSans-73"/>
      <use x="199.658203" xlink:href="#DejaVuSans-73"/>
     </g>
    </g>
   </g>
   <g id="line2d_16">
    <path clip-path="url(#p9f6d033c22)" d="M 73.832727 248.788743 
L 77.112066 248.722781 
L 80.391405 248.641124 
L 83.670744 248.541397 
L 86.950083 248.420811 
L 90.229421 248.276071 
L 93.50876 248.103274 
L 96.788099 247.897765 
L 100.067438 247.653972 
L 103.346777 247.365202 
L 106.626116 247.023394 
L 109.905455 246.618834 
L 113.184793 246.139865 
L 116.464132 245.57262 
L 119.743471 244.900895 
L 123.02281 244.106345 
L 126.302149 243.169272 
L 129.581488 242.07033 
L 132.860826 240.793341 
L 136.140165 239.32896 
L 139.419504 237.678173 
L 142.698843 235.854061 
L 145.978182 233.880651 
L 149.257521 231.788979 
L 152.53686 229.611938 
L 155.816198 227.379715 
L 159.095537 225.116909 
L 162.374876 222.841425 
L 165.654215 220.56469 
L 168.933554 218.292604 
L 172.212893 216.026793 
L 175.492231 213.765858 
L 178.77157 211.506495 
L 182.050909 209.244411 
L 185.330248 206.975024 
L 188.609587 204.693968 
L 191.888926 202.397423 
L 195.168264 200.082303 
L 198.447603 197.746345 
L 201.726942 195.388107 
L 205.006281 193.006924 
L 208.28562 190.602824 
L 211.564959 188.176428 
L 214.844298 185.728845 
L 218.123636 183.261569 
L 221.402975 180.776378 
L 224.682314 178.27525 
L 227.961653 175.760283 
L 231.240992 173.233634 
L 234.520331 170.697466 
L 237.799669 168.1539 
L 241.079008 165.604988 
L 244.358347 163.052686 
L 247.637686 160.498838 
L 250.917025 157.945162 
L 254.196364 155.393245 
L 257.475702 152.844543 
L 260.755041 150.300379 
L 264.03438 147.761948 
L 267.313719 145.230319 
L 270.593058 142.706447 
L 273.872397 140.191175 
L 277.151736 137.685247 
L 280.431074 135.189309 
L 283.710413 132.703925 
L 286.989752 130.229577 
L 290.269091 127.76668 
L 293.54843 125.315583 
L 296.827769 122.876579 
L 300.107107 120.449909 
L 303.386446 118.035771 
L 306.665785 115.634323 
L 309.945124 113.245687 
L 313.224463 110.869954 
L 316.503802 108.50719 
L 319.78314 106.157436 
L 323.062479 103.820714 
L 326.341818 101.497027 
L 329.621157 99.186364 
L 332.900496 96.8887 
L 336.179835 94.604001 
L 339.459174 92.332221 
L 342.738512 90.073307 
L 346.017851 87.827198 
L 349.29719 85.593831 
L 352.576529 83.373133 
L 355.855868 81.16503 
L 359.135207 78.969445 
L 362.414545 76.786297 
L 365.693884 74.615503 
L 368.973223 72.456978 
L 372.252562 70.310638 
L 375.531901 68.176395 
L 378.81124 66.054161 
L 382.090579 63.943848 
L 385.369917 61.845368 
L 388.649256 59.758631 
L 391.928595 57.68355 
L 395.207934 55.620036 
L 398.487273 53.568 
" style="fill:none;stroke:#000000;stroke-linecap:square;stroke-width:1.5;"/>
   </g>
   <g id="line2d_17">
    <path clip-path="url(#p9f6d033c22)" d="M 73.832727 295.457647 
L 77.112066 295.446722 
L 80.391405 295.433457 
L 83.670744 295.41729 
L 86.950083 295.397506 
L 90.229421 295.373178 
L 93.50876 295.343098 
L 96.788099 295.305673 
L 100.067438 295.258781 
L 103.346777 295.199562 
L 106.626116 295.124119 
L 109.905455 295.027084 
L 113.184793 294.901002 
L 116.464132 294.73544 
L 119.743471 294.515764 
L 123.02281 294.221523 
L 126.302149 293.824489 
L 129.581488 293.286668 
L 132.860826 292.559001 
L 136.140165 291.581914 
L 139.419504 290.288959 
L 142.698843 288.613945 
L 145.978182 286.500346 
L 149.257521 283.910357 
L 152.53686 280.830986 
L 155.816198 277.275873 
L 159.095537 273.28313 
L 162.374876 268.910382 
L 165.654215 264.228365 
L 168.933554 259.314263 
L 172.212893 254.245628 
L 175.492231 249.095438 
L 178.77157 243.928557 
L 182.050909 238.799626 
L 185.330248 233.752234 
L 188.609587 228.819099 
L 191.888926 224.022969 
L 195.168264 219.377936 
L 198.447603 214.890942 
L 201.726942 210.563289 
L 205.006281 206.392029 
L 208.28562 202.371182 
L 211.564959 198.492746 
L 214.844298 194.747509 
L 218.123636 191.125668 
L 221.402975 187.617298 
L 224.682314 184.212676 
L 227.961653 180.902507 
L 231.240992 177.67807 
L 234.520331 174.531291 
L 237.799669 171.454785 
L 241.079008 168.441853 
L 244.358347 165.486464 
L 247.637686 162.583223 
L 250.917025 159.727326 
L 254.196364 156.914513 
L 257.475702 154.141025 
L 260.755041 151.403545 
L 264.03438 148.699165 
L 267.313719 146.025331 
L 270.593058 143.379811 
L 273.872397 140.760652 
L 277.151736 138.166151 
L 280.431074 135.594821 
L 283.710413 133.045366 
L 286.989752 130.516655 
L 290.269091 128.007704 
L 293.54843 125.517652 
L 296.827769 123.045748 
L 300.107107 120.591335 
L 303.386446 118.153837 
L 306.665785 115.732749 
L 309.945124 113.327624 
L 313.224463 110.93807 
L 316.503802 108.563737 
L 319.78314 106.204314 
L 323.062479 103.859522 
L 326.341818 101.529109 
L 329.621157 99.212849 
L 332.900496 96.910535 
L 336.179835 94.621976 
L 339.459174 92.346998 
L 342.738512 90.085438 
L 346.017851 87.837144 
L 349.29719 85.601972 
L 352.576529 83.379789 
L 355.855868 81.170463 
L 359.135207 78.973874 
L 362.414545 76.789902 
L 365.693884 74.618434 
L 368.973223 72.459357 
L 372.252562 70.312566 
L 375.531901 68.177955 
L 378.81124 66.055422 
L 382.090579 63.944866 
L 385.369917 61.846188 
L 388.649256 59.759291 
L 391.928595 57.684081 
L 395.207934 55.620461 
L 398.487273 53.568341 
" style="fill:none;stroke:#100e0d;stroke-linecap:square;stroke-width:1.5;"/>
   </g>
   <g id="line2d_18">
    <path clip-path="url(#p9f6d033c22)" d="M 73.832727 248.475496 
L 77.112066 248.41552 
L 80.391405 248.340907 
L 83.670744 248.249423 
L 86.950083 248.13844 
L 90.229421 248.004843 
L 93.50876 247.844934 
L 96.788099 247.654283 
L 100.067438 247.427568 
L 103.346777 247.158359 
L 106.626116 246.838858 
L 109.905455 246.459589 
L 113.184793 246.009049 
L 116.464132 245.473365 
L 119.743471 244.836029 
L 123.02281 244.077915 
L 126.302149 243.177868 
L 129.581488 242.11428 
L 132.860826 240.868031 
L 136.140165 239.426716 
L 139.419504 237.789142 
L 142.698843 235.968105 
L 145.978182 233.989602 
L 149.257521 231.888289 
L 152.53686 229.701099 
L 155.816198 227.461546 
L 159.095537 225.196252 
L 162.374876 222.923796 
L 165.654215 220.655214 
L 168.933554 218.395335 
L 172.212893 216.144388 
L 175.492231 213.899528 
L 178.77157 211.656135 
L 182.050909 209.408836 
L 185.330248 207.15224 
L 188.609587 204.881448 
L 191.888926 202.592356 
L 195.168264 200.281799 
L 198.447603 197.947596 
L 201.726942 195.588509 
L 205.006281 193.204151 
L 208.28562 190.794875 
L 211.564959 188.361645 
L 214.844298 185.905911 
L 218.123636 183.429491 
L 221.402975 180.934462 
L 224.682314 178.423069 
L 227.961653 175.897644 
L 231.240992 173.360539 
L 234.520331 170.81408 
L 237.799669 168.26052 
L 241.079008 165.702011 
L 244.358347 163.140587 
L 247.637686 160.578141 
L 250.917025 158.016426 
L 254.196364 155.457047 
L 257.475702 152.901461 
L 260.755041 150.350983 
L 264.03438 147.806793 
L 267.313719 145.269937 
L 270.593058 142.741344 
L 273.872397 140.221826 
L 277.151736 137.712094 
L 280.431074 135.212762 
L 283.710413 132.72436 
L 286.989752 130.247339 
L 290.269091 127.78208 
L 293.54843 125.328904 
L 296.827769 122.888075 
L 300.107107 120.459809 
L 303.386446 118.044278 
L 306.665785 115.641616 
L 309.945124 113.251927 
L 313.224463 110.875282 
L 316.503802 108.51173 
L 319.78314 106.161297 
L 323.062479 103.823991 
L 326.341818 101.499803 
L 329.621157 99.188711 
L 332.900496 96.890682 
L 336.179835 94.60567 
L 339.459174 92.333624 
L 342.738512 90.074485 
L 346.017851 87.828185 
L 349.29719 85.594656 
L 352.576529 83.373822 
L 355.855868 81.165604 
L 359.135207 78.969923 
L 362.414545 76.786693 
L 365.693884 74.615832 
L 368.973223 72.457251 
L 372.252562 70.310863 
L 375.531901 68.17658 
L 378.81124 66.054313 
L 382.090579 63.943973 
L 385.369917 61.845471 
L 388.649256 59.758716 
L 391.928595 57.683619 
L 395.207934 55.620092 
L 398.487273 53.568046 
" style="fill:none;stroke:#232116;stroke-linecap:square;stroke-width:1.5;"/>
   </g>
   <g id="line2d_19">
    <path clip-path="url(#p9f6d033c22)" d="M 73.832727 295.467588 
L 77.112066 295.458484 
L 80.391405 295.447394 
L 83.670744 295.433837 
L 86.950083 295.417193 
L 90.229421 295.396661 
L 93.50876 295.371191 
L 96.788099 295.339393 
L 100.067438 295.299408 
L 103.346777 295.248712 
L 106.626116 295.183847 
L 109.905455 295.100005 
L 113.184793 294.990435 
L 116.464132 294.845564 
L 119.743471 294.651736 
L 123.02281 294.389472 
L 126.302149 294.031215 
L 129.581488 293.538788 
L 132.860826 292.861277 
L 136.140165 291.934729 
L 139.419504 290.68544 
L 142.698843 289.037881 
L 145.978182 286.926186 
L 149.257521 284.305796 
L 152.53686 281.161462 
L 155.816198 277.509565 
L 159.095537 273.395132 
L 162.374876 268.885295 
L 165.654215 264.061148 
L 168.933554 259.009573 
L 172.212893 253.816104 
L 175.492231 248.559422 
L 178.77157 243.307701 
L 182.050909 238.116721 
L 185.330248 233.029447 
L 188.609587 228.076714 
L 191.888926 223.278607 
L 195.168264 218.646189 
L 198.447603 214.183329 
L 201.726942 209.888425 
L 205.006281 205.755934 
L 208.28562 201.777654 
L 211.564959 197.94375 
L 214.844298 194.243546 
L 218.123636 190.666118 
L 221.402975 187.200704 
L 224.682314 183.836994 
L 227.961653 180.565306 
L 231.240992 177.376687 
L 234.520331 174.262958 
L 237.799669 171.216719 
L 241.079008 168.231326 
L 244.358347 165.300854 
L 247.637686 162.420044 
L 250.917025 159.584249 
L 254.196364 156.78938 
L 257.475702 154.031847 
L 260.755041 151.308508 
L 264.03438 148.61662 
L 267.313719 145.95379 
L 270.593058 143.317935 
L 273.872397 140.707243 
L 277.151736 138.120142 
L 280.431074 135.555262 
L 283.710413 133.011417 
L 286.989752 130.487576 
L 290.269091 127.98284 
L 293.54843 125.496431 
L 296.827769 123.027669 
L 300.107107 120.575959 
L 303.386446 118.140783 
L 306.665785 115.721685 
L 309.945124 113.318264 
L 313.224463 110.930164 
L 316.503802 108.557071 
L 319.78314 106.198702 
L 323.062479 103.854805 
L 326.341818 101.525152 
L 329.621157 99.209535 
L 332.900496 96.907763 
L 336.179835 94.619662 
L 339.459174 92.34507 
L 342.738512 90.083833 
L 346.017851 87.835811 
L 349.29719 85.600867 
L 352.576529 83.378873 
L 355.855868 81.169706 
L 359.135207 78.973249 
L 362.414545 76.789387 
L 365.693884 74.61801 
L 368.973223 72.45901 
L 372.252562 70.312281 
L 375.531901 68.177722 
L 378.81124 66.055231 
L 382.090579 63.94471 
L 385.369917 61.846061 
L 388.649256 59.759188 
L 391.928595 57.683997 
L 395.207934 55.620394 
L 398.487273 53.568286 
" style="fill:none;stroke:#2f391c;stroke-linecap:square;stroke-width:1.5;"/>
   </g>
   <g id="line2d_20">
    <path clip-path="url(#p9f6d033c22)" d="M 73.832727 248.172031 
L 77.112066 248.117348 
L 80.391405 248.049004 
L 83.670744 247.964901 
L 86.950083 247.862562 
L 90.229421 247.739048 
L 93.50876 247.590859 
L 96.788099 247.41379 
L 100.067438 247.20277 
L 103.346777 246.951641 
L 106.626116 246.65289 
L 109.905455 246.29732 
L 113.184793 245.873653 
L 116.464132 245.368112 
L 119.743471 244.764031 
L 123.02281 244.041685 
L 126.302149 243.178632 
L 129.581488 242.151087 
L 132.860826 240.93686 
L 136.140165 239.520082 
L 139.419504 237.896797 
L 142.698843 236.079056 
L 145.978182 234.094789 
L 149.257521 231.982667 
L 152.53686 229.784229 
L 155.816198 227.536756 
L 159.095537 225.269059 
L 162.374876 223.00032 
L 165.654215 220.740964 
L 168.933554 218.494496 
L 172.212893 216.259524 
L 175.492231 214.031597 
L 178.77157 211.804692 
L 182.050909 209.572324 
L 185.330248 207.328319 
L 188.609587 205.067301 
L 191.888926 202.784949 
L 195.168264 200.478097 
L 198.447603 198.144722 
L 201.726942 195.783848 
L 205.006281 193.395421 
L 208.28562 190.980159 
L 211.564959 188.539395 
L 214.844298 186.074939 
L 218.123636 183.588939 
L 221.402975 181.083773 
L 224.682314 178.561947 
L 227.961653 176.026015 
L 231.240992 173.478517 
L 234.520331 170.921924 
L 237.799669 168.358609 
L 241.079008 165.79081 
L 244.358347 163.220621 
L 247.637686 160.649977 
L 250.917025 158.08065 
L 254.196364 155.514251 
L 257.475702 152.952233 
L 260.755041 150.395895 
L 264.03438 147.846392 
L 267.313719 145.304744 
L 270.593058 142.771848 
L 273.872397 140.248483 
L 277.151736 137.735325 
L 280.431074 135.232954 
L 283.710413 132.741865 
L 286.989752 130.262476 
L 290.269091 127.795139 
L 293.54843 125.340144 
L 296.827769 122.897726 
L 300.107107 120.468077 
L 303.386446 118.051346 
L 306.665785 115.647646 
L 309.945124 113.25706 
L 313.224463 110.879643 
L 316.503802 108.515427 
L 319.78314 106.164425 
L 323.062479 103.826632 
L 326.341818 101.502029 
L 329.621157 99.190584 
L 332.900496 96.892254 
L 336.179835 94.606988 
L 339.459174 92.334726 
L 342.738512 90.075405 
L 346.017851 87.828952 
L 349.29719 85.595294 
L 352.576529 83.374351 
L 355.855868 81.166043 
L 359.135207 78.970286 
L 362.414545 76.786994 
L 365.693884 74.616079 
L 368.973223 72.457454 
L 372.252562 70.31103 
L 375.531901 68.176717 
L 378.81124 66.054426 
L 382.090579 63.944065 
L 385.369917 61.845546 
L 388.649256 59.758777 
L 391.928595 57.683669 
L 395.207934 55.620133 
L 398.487273 53.568079 
" style="fill:none;stroke:#2b521f;stroke-linecap:square;stroke-width:1.5;"/>
   </g>
   <g id="line2d_21">
    <path clip-path="url(#p9f6d033c22)" d="M 73.832727 295.475771 
L 77.112066 295.468201 
L 80.391405 295.458952 
L 83.670744 295.44761 
L 86.950083 295.433642 
L 90.229421 295.416357 
L 93.50876 295.394847 
L 96.788099 295.367906 
L 100.067438 295.333911 
L 103.346777 295.290653 
L 106.626116 295.235082 
L 109.905455 295.162926 
L 113.184793 295.068128 
L 116.464132 294.941994 
L 119.743471 294.771931 
L 123.02281 294.539628 
L 126.302149 294.218553 
L 129.581488 293.770889 
L 132.860826 293.14452 
L 136.140165 292.271593 
L 139.419504 291.071058 
L 142.698843 289.45713 
L 145.978182 287.35306 
L 149.257521 284.706043 
L 152.53686 281.497787 
L 155.816198 277.747591 
L 159.095537 273.508332 
L 162.374876 268.857919 
L 165.654215 263.888986 
L 168.933554 258.698948 
L 172.212893 253.38169 
L 175.492231 248.021542 
L 178.77157 242.689618 
L 182.050909 237.442287 
L 185.330248 232.321302 
L 188.609587 227.355077 
L 191.888926 222.560605 
L 195.168264 217.945625 
L 198.447603 213.510761 
L 201.726942 209.251448 
L 205.006281 205.15957 
L 208.28562 201.224781 
L 211.564959 197.435525 
L 214.844298 193.779793 
L 218.123636 190.245664 
L 221.402975 186.821671 
L 224.682314 183.497026 
L 227.961653 180.261757 
L 231.240992 177.106765 
L 234.520331 174.023833 
L 237.799669 171.005602 
L 241.079008 168.045529 
L 244.358347 165.137822 
L 247.637686 162.277384 
L 250.917025 159.459743 
L 254.196364 156.680987 
L 257.475702 153.937706 
L 260.755041 151.226932 
L 264.03438 148.546088 
L 267.313719 145.892936 
L 270.593058 143.26554 
L 273.872397 140.662223 
L 277.151736 138.081535 
L 280.431074 135.522218 
L 283.710413 132.983189 
L 286.989752 130.463506 
L 290.269091 127.962354 
L 293.54843 125.479027 
L 296.827769 123.01291 
L 300.107107 120.563465 
L 303.386446 118.130226 
L 306.665785 115.71278 
L 309.945124 113.310765 
L 313.224463 110.92386 
L 316.503802 108.55178 
L 319.78314 106.19427 
L 323.062479 103.851098 
L 326.341818 101.522057 
L 329.621157 99.206955 
L 332.900496 96.905616 
L 336.179835 94.617879 
L 339.459174 92.34359 
L 342.738512 90.082608 
L 346.017851 87.834798 
L 349.29719 85.600031 
L 352.576529 83.378184 
L 355.855868 81.16914 
L 359.135207 78.972784 
L 362.414545 76.789006 
L 365.693884 74.617698 
L 368.973223 72.458755 
L 372.252562 70.312073 
L 375.531901 68.177553 
L 378.81124 66.055094 
L 382.090579 63.944598 
L 385.369917 61.84597 
L 388.649256 59.759115 
L 391.928595 57.683938 
L 395.207934 55.620346 
L 398.487273 53.568247 
" style="fill:none;stroke:#1f6e31;stroke-linecap:square;stroke-width:1.5;"/>
   </g>
   <g id="line2d_22">
    <path clip-path="url(#p9f6d033c22)" d="M 73.832727 247.878815 
L 77.112066 247.828816 
L 80.391405 247.76606 
L 83.670744 247.688573 
L 86.950083 247.594023 
L 90.229421 247.47964 
L 93.50876 247.342114 
L 96.788099 247.177462 
L 100.067438 246.98086 
L 103.346777 246.746429 
L 106.626116 246.466956 
L 109.905455 246.13355 
L 113.184793 245.735216 
L 116.464132 245.258363 
L 119.743471 244.686306 
L 123.02281 243.998899 
L 126.302149 243.172618 
L 129.581488 242.181638 
L 132.860826 241.000647 
L 136.140165 239.609942 
L 139.419504 238.002164 
L 142.698843 236.188034 
L 145.978182 234.197284 
L 149.257521 232.073016 
L 152.53686 229.862036 
L 155.816198 227.605907 
L 159.095537 225.335823 
L 162.374876 223.071466 
L 165.654215 220.822406 
L 168.933554 218.590536 
L 172.212893 216.372604 
L 175.492231 214.162393 
L 178.77157 211.952391 
L 182.050909 209.734994 
L 185.330248 207.503279 
L 188.609587 205.251456 
L 191.888926 202.975068 
L 195.168264 200.671029 
L 198.447603 198.337543 
L 201.726942 195.973963 
L 205.006281 193.580614 
L 208.28562 191.158612 
L 211.564959 188.709685 
L 214.844298 186.236011 
L 218.123636 183.740075 
L 221.402975 181.224551 
L 224.682314 178.692197 
L 227.961653 176.145779 
L 231.240992 173.588009 
L 234.520331 171.021492 
L 237.799669 168.448702 
L 241.079008 165.87195 
L 244.358347 163.293378 
L 247.637686 160.714947 
L 250.917025 158.138441 
L 254.196364 155.565465 
L 257.475702 152.997458 
L 260.755041 150.435698 
L 264.03438 147.88131 
L 267.313719 145.335283 
L 270.593058 142.798477 
L 273.872397 140.271637 
L 277.151736 137.755402 
L 280.431074 135.250316 
L 283.710413 132.756841 
L 286.989752 130.275363 
L 290.269091 127.8062 
L 293.54843 125.349615 
L 296.827769 122.905818 
L 300.107107 120.474975 
L 303.386446 118.057213 
L 306.665785 115.652626 
L 309.945124 113.261277 
L 313.224463 110.883207 
L 316.503802 108.518433 
L 319.78314 106.166956 
L 323.062479 103.828758 
L 326.341818 101.503812 
L 329.621157 99.192075 
L 332.900496 96.8935 
L 336.179835 94.608026 
L 339.459174 92.335591 
L 342.738512 90.076123 
L 346.017851 87.829547 
L 349.29719 85.595786 
L 352.576529 83.374758 
L 355.855868 81.166379 
L 359.135207 78.970562 
L 362.414545 76.78722 
L 365.693884 74.616265 
L 368.973223 72.457607 
L 372.252562 70.311155 
L 375.531901 68.176819 
L 378.81124 66.054508 
L 382.090579 63.944132 
L 385.369917 61.8456 
L 388.649256 59.758821 
L 391.928595 57.683705 
L 395.207934 55.620161 
L 398.487273 53.568102 
" style="fill:none;stroke:#1c8e68;stroke-linecap:square;stroke-width:1.5;"/>
   </g>
   <g id="line2d_23">
    <path clip-path="url(#p9f6d033c22)" d="M 73.832727 295.482492 
L 77.112066 295.476212 
L 80.391405 295.468514 
L 83.670744 295.459045 
L 86.950083 295.447349 
L 90.229421 295.432832 
L 93.50876 295.41471 
L 96.788099 295.391942 
L 100.067438 295.36312 
L 103.346777 295.326318 
L 106.626116 295.278863 
L 109.905455 295.216987 
L 113.184793 295.135303 
L 116.464132 295.025988 
L 119.743471 294.877559 
L 123.02281 294.67301 
L 126.302149 294.387149 
L 129.581488 293.983054 
L 132.860826 293.408129 
L 136.140165 292.591312 
L 139.419504 291.44437 
L 142.698843 289.870455 
L 145.978182 287.780263 
L 149.257521 285.110948 
L 152.53686 281.840155 
L 155.816198 277.990222 
L 159.095537 273.622911 
L 162.374876 268.828325 
L 165.654215 263.71194 
L 168.933554 258.382567 
L 172.212893 252.942783 
L 175.492231 247.482434 
L 178.77157 242.075121 
L 182.050909 236.777193 
L 185.330248 231.628572 
L 188.609587 226.654715 
L 191.888926 221.869121 
L 195.168264 217.275947 
L 198.447603 212.872446 
L 201.726942 208.651069 
L 205.006281 204.60118 
L 208.28562 200.71039 
L 211.564959 196.965548 
L 214.844298 193.353447 
L 218.123636 189.861304 
L 221.402975 186.477062 
L 224.682314 183.189565 
L 227.961653 179.988642 
L 231.240992 176.86512 
L 234.520331 173.810807 
L 237.799669 170.818431 
L 241.079008 167.881583 
L 244.358347 164.994635 
L 247.637686 162.152667 
L 250.917025 159.351394 
L 254.196364 156.587089 
L 257.475702 153.856523 
L 260.755041 151.156902 
L 264.03438 148.48581 
L 267.313719 145.841163 
L 270.593058 143.221165 
L 273.872397 140.624265 
L 277.151736 138.04913 
L 280.431074 135.494608 
L 283.710413 132.959709 
L 286.989752 130.443577 
L 290.269091 127.94547 
L 293.54843 125.464749 
L 296.827769 123.000857 
L 300.107107 120.55331 
L 303.386446 118.121684 
L 306.665785 115.705608 
L 309.945124 113.304754 
L 313.224463 110.918831 
L 316.503802 108.54758 
L 319.78314 106.190768 
L 323.062479 103.848184 
L 326.341818 101.519635 
L 329.621157 99.204946 
L 332.900496 96.903953 
L 336.179835 94.616504 
L 339.459174 92.342455 
L 342.738512 90.081673 
L 346.017851 87.834029 
L 349.29719 85.5994 
L 352.576529 83.377667 
L 355.855868 81.168717 
L 359.135207 78.972438 
L 362.414545 76.788724 
L 365.693884 74.617468 
L 368.973223 72.458568 
L 372.252562 70.311922 
L 375.531901 68.17743 
L 378.81124 66.054994 
L 382.090579 63.944518 
L 385.369917 61.845906 
L 388.649256 59.759063 
L 391.928595 57.683896 
L 395.207934 55.620312 
L 398.487273 53.568221 
" style="fill:none;stroke:#169fb0;stroke-linecap:square;stroke-width:1.5;"/>
   </g>
   <g id="line2d_24">
    <path clip-path="url(#p9f6d033c22)" d="M 73.832727 247.59616 
L 77.112066 247.550318 
L 80.391405 247.49255 
L 83.670744 247.421003 
L 86.950083 247.333482 
L 90.229421 247.227377 
L 93.50876 247.099563 
L 96.788099 246.946269 
L 100.067438 246.762916 
L 103.346777 246.543903 
L 106.626116 246.282324 
L 109.905455 245.969619 
L 113.184793 245.595115 
L 116.464132 245.145488 
L 119.743471 244.604154 
L 123.02281 243.950725 
L 126.302149 243.160813 
L 129.581488 242.206746 
L 132.860826 241.060119 
L 136.140165 239.69708 
L 139.419504 238.106192 
L 142.698843 236.296124 
L 145.978182 234.298154 
L 149.257521 232.160237 
L 152.53686 229.935211 
L 155.816198 227.669532 
L 159.095537 225.396996 
L 162.374876 223.137669 
L 165.654215 220.89997 
L 168.933554 218.683865 
L 172.212893 216.483991 
L 175.492231 214.292197 
L 178.77157 212.099417 
L 182.050909 209.896927 
L 185.330248 207.677105 
L 188.609587 205.433821 
L 191.888926 203.162571 
L 195.168264 200.860427 
L 198.447603 198.525898 
L 201.726942 196.158719 
L 205.006281 193.75964 
L 208.28562 191.330207 
L 211.564959 188.872557 
L 214.844298 186.389245 
L 218.123636 183.883093 
L 221.402975 181.357062 
L 224.682314 178.814154 
L 227.961653 176.257332 
L 231.240992 173.689463 
L 234.520331 171.113275 
L 237.799669 168.531323 
L 241.079008 165.945981 
L 244.358347 163.359422 
L 247.637686 160.773624 
L 250.917025 158.190369 
L 254.196364 155.611252 
L 257.475702 153.037688 
L 260.755041 150.470926 
L 264.03438 147.91206 
L 267.313719 145.362042 
L 270.593058 142.821694 
L 273.872397 140.291723 
L 277.151736 137.772732 
L 280.431074 135.265229 
L 283.710413 132.769641 
L 286.989752 130.286321 
L 290.269091 127.815559 
L 293.54843 125.357589 
L 296.827769 122.912597 
L 300.107107 120.480724 
L 303.386446 118.062079 
L 306.665785 115.656734 
L 309.945124 113.264739 
L 313.224463 110.886118 
L 316.503802 108.520876 
L 319.78314 106.169002 
L 323.062479 103.830468 
L 326.341818 101.505238 
L 329.621157 99.193263 
L 332.900496 96.894486 
L 336.179835 94.608845 
L 339.459174 92.336268 
L 342.738512 90.076682 
L 346.017851 87.830009 
L 349.29719 85.596166 
L 352.576529 83.37507 
L 355.855868 81.166635 
L 359.135207 78.970772 
L 362.414545 76.787392 
L 365.693884 74.616405 
L 368.973223 72.45772 
L 372.252562 70.311247 
L 375.531901 68.176894 
L 378.81124 66.054569 
L 382.090579 63.944182 
L 385.369917 61.84564 
L 388.649256 59.758853 
L 391.928595 57.68373 
L 395.207934 55.620182 
L 398.487273 53.568118 
" style="fill:none;stroke:#0d66d6;stroke-linecap:square;stroke-width:1.5;"/>
   </g>
   <g id="line2d_25">
    <path clip-path="url(#p9f6d033c22)" d="M 73.832727 295.488 
L 77.112066 295.4828 
L 80.391405 295.476406 
L 83.670744 295.468518 
L 86.950083 295.458745 
L 90.229421 295.446578 
L 93.50876 295.431345 
L 96.788099 295.412149 
L 100.067438 295.387773 
L 103.346777 295.356547 
L 106.626116 295.316142 
L 109.905455 295.263257 
L 113.184793 295.193131 
L 116.464132 295.098792 
L 119.743471 294.969871 
L 123.02281 294.790761 
L 126.302149 294.537853 
L 129.581488 294.175611 
L 132.860826 293.651736 
L 136.140165 292.892826 
L 139.419504 291.803918 
L 142.698843 290.276504 
L 145.978182 288.206959 
L 149.257521 285.520282 
L 152.53686 282.188731 
L 155.816198 278.237721 
L 159.095537 273.739041 
L 162.374876 268.796577 
L 165.654215 263.530067 
L 168.933554 258.060617 
L 172.212893 252.49979 
L 175.492231 246.942732 
L 178.77157 241.464995 
L 182.050909 236.122248 
L 185.330248 230.951937 
L 188.609587 225.976036 
L 191.888926 221.204182 
L 195.168264 216.636732 
L 198.447603 212.267486 
L 201.726942 208.085923 
L 205.006281 204.078972 
L 208.28562 200.232321 
L 211.564959 196.531362 
L 214.844298 192.961826 
L 218.123636 189.510198 
L 221.402975 186.163948 
L 224.682314 182.911649 
L 227.961653 179.743013 
L 231.240992 176.648863 
L 234.520331 173.621079 
L 237.799669 170.652519 
L 241.079008 167.736935 
L 244.358347 164.868883 
L 247.637686 162.043636 
L 250.917025 159.2571 
L 254.196364 156.505739 
L 257.475702 153.786504 
L 260.755041 151.096772 
L 264.03438 148.434285 
L 267.313719 145.797106 
L 270.593058 143.183571 
L 273.872397 140.592251 
L 277.151736 138.021923 
L 280.431074 135.471532 
L 283.710413 132.940174 
L 286.989752 130.42707 
L 290.269091 127.931549 
L 293.54843 125.45303 
L 296.827769 122.991011 
L 300.107107 120.545052 
L 303.386446 118.11477 
L 306.665785 115.69983 
L 309.945124 113.299934 
L 313.224463 110.914818 
L 316.503802 108.544244 
L 319.78314 106.188 
L 323.062479 103.845891 
L 326.341818 101.517739 
L 329.621157 99.203381 
L 332.900496 96.902663 
L 336.179835 94.615443 
L 339.459174 92.341584 
L 342.738512 90.080959 
L 346.017851 87.833445 
L 349.29719 85.598922 
L 352.576529 83.377277 
L 355.855868 81.1684 
L 359.135207 78.972181 
L 362.414545 76.788515 
L 365.693884 74.617299 
L 368.973223 72.458431 
L 372.252562 70.311811 
L 375.531901 68.177341 
L 378.81124 66.054923 
L 382.090579 63.944461 
L 385.369917 61.84586 
L 388.649256 59.759026 
L 391.928595 57.683866 
L 395.207934 55.620289 
L 398.487273 53.568202 
" style="fill:none;stroke:#0000ff;stroke-linecap:square;stroke-width:1.5;"/>
   </g>
   <g id="line2d_26">
    <path clip-path="url(#p9f6d033c22)" d="M 73.832727 295.488 
L 77.112066 295.4828 
L 80.391405 295.476406 
L 83.670744 295.468518 
L 86.950083 295.458745 
L 90.229421 295.446578 
L 93.50876 295.431345 
L 96.788099 295.412149 
L 100.067438 295.387773 
L 103.346777 295.356547 
L 106.626116 295.316142 
L 109.905455 295.263257 
L 113.184793 295.193131 
L 116.464132 295.098792 
L 119.743471 294.969871 
L 123.02281 294.790761 
L 126.302149 294.537853 
L 129.581488 294.175611 
L 132.860826 293.651736 
L 136.140165 292.892826 
L 139.419504 291.803918 
L 142.698843 290.276504 
L 145.978182 288.206959 
L 149.257521 285.520282 
L 152.53686 282.188731 
L 155.816198 278.237721 
L 159.095537 273.739041 
L 162.374876 268.796577 
L 165.654215 263.530067 
L 168.933554 258.060617 
L 172.212893 252.49979 
L 175.492231 246.942732 
L 178.77157 241.464995 
L 182.050909 236.122248 
L 185.330248 230.951937 
L 188.609587 225.976036 
L 191.888926 221.204182 
L 195.168264 216.636732 
L 198.447603 212.267486 
L 201.726942 208.085923 
L 205.006281 204.078972 
L 208.28562 200.232321 
L 211.564959 196.531362 
L 214.844298 192.961826 
L 218.123636 189.510198 
L 221.402975 186.163948 
L 224.682314 182.911649 
L 227.961653 179.743013 
L 231.240992 176.648863 
L 234.520331 173.621079 
L 237.799669 170.652519 
L 241.079008 167.736935 
L 244.358347 164.868883 
L 247.637686 162.043636 
L 250.917025 159.2571 
L 254.196364 156.505739 
L 257.475702 153.786504 
L 260.755041 151.096772 
L 264.03438 148.434285 
L 267.313719 145.797106 
L 270.593058 143.183571 
L 273.872397 140.592251 
L 277.151736 138.021923 
L 280.431074 135.471532 
L 283.710413 132.940174 
L 286.989752 130.42707 
L 290.269091 127.931549 
L 293.54843 125.45303 
L 296.827769 122.991011 
L 300.107107 120.545052 
L 303.386446 118.11477 
L 306.665785 115.69983 
L 309.945124 113.299934 
L 313.224463 110.914818 
L 316.503802 108.544244 
L 319.78314 106.188 
L 323.062479 103.845891 
L 326.341818 101.517739 
L 329.621157 99.203381 
L 332.900496 96.902663 
L 336.179835 94.615443 
L 339.459174 92.341584 
L 342.738512 90.080959 
L 346.017851 87.833445 
L 349.29719 85.598922 
L 352.576529 83.377277 
L 355.855868 81.1684 
L 359.135207 78.972181 
L 362.414545 76.788515 
L 365.693884 74.617299 
L 368.973223 72.458431 
L 372.252562 70.311811 
L 375.531901 68.177341 
L 378.81124 66.054923 
L 382.090579 63.944461 
L 385.369917 61.84586 
L 388.649256 59.759026 
L 391.928595 57.683866 
L 395.207934 55.620289 
L 398.487273 53.568202 
" style="fill:none;stroke:#0000ff;stroke-linecap:square;stroke-width:1.5;"/>
   </g>
   <g id="patch_3">
    <path d="M 57.6 307.584 
L 57.6 41.472 
" style="fill:none;stroke:#000000;stroke-linecap:square;stroke-linejoin:miter;stroke-width:0.8;"/>
   </g>
   <g id="patch_4">
    <path d="M 414.72 307.584 
L 414.72 41.472 
" style="fill:none;stroke:#000000;stroke-linecap:square;stroke-linejoin:miter;stroke-width:0.8;"/>
   </g>
   <g id="patch_5">
    <path d="M 57.6 307.584 
L 414.72 307.584 
" style="fill:none;stroke:#000000;stroke-linecap:square;stroke-linejoin:miter;stroke-width:0.8;"/>
   </g>
   <g id="patch_6">
    <path d="M 57.6 41.472 
L 414.72 41.472 
" style="fill:none;stroke:#000000;stroke-linecap:square;stroke-linejoin:miter;stroke-width:0.8;"/>
   </g>
   <g id="legend_1">
    <g id="patch_7">
     <path d="M 64.6 64.150125 
L 118.807812 64.150125 
Q 120.807812 64.150125 120.807812 62.150125 
L 120.807812 48.472 
Q 120.807812 46.472 118.807812 46.472 
L 64.6 46.472 
Q 62.6 46.472 62.6 48.472 
L 62.6 62.150125 
Q 62.6 64.150125 64.6 64.150125 
z
" style="fill:#ffffff;opacity:0.8;stroke:#cccccc;stroke-linejoin:miter;"/>
    </g>
    <g id="line2d_27">
     <path d="M 66.6 54.570438 
L 86.6 54.570438 
" style="fill:none;stroke:#0000ff;stroke-linecap:square;stroke-width:1.5;"/>
    </g>
    <g id="line2d_28"/>
    <g id="text_18">
     <!-- Prey -->
     <defs>
      <path d="M 32.171875 -5.078125 
Q 28.375 -14.84375 24.75 -17.8125 
Q 21.140625 -20.796875 15.09375 -20.796875 
L 7.90625 -20.796875 
L 7.90625 -13.28125 
L 13.1875 -13.28125 
Q 16.890625 -13.28125 18.9375 -11.515625 
Q 21 -9.765625 23.484375 -3.21875 
L 25.09375 0.875 
L 2.984375 54.6875 
L 12.5 54.6875 
L 29.59375 11.921875 
L 46.6875 54.6875 
L 56.203125 54.6875 
z
" id="DejaVuSans-79"/>
     </defs>
     <g transform="translate(94.6 58.070438)scale(0.1 -0.1)">
      <use xlink:href="#DejaVuSans-50"/>
      <use x="60.287109" xlink:href="#DejaVuSans-72"/>
      <use x="101.369141" xlink:href="#DejaVuSans-65"/>
      <use x="162.892578" xlink:href="#DejaVuSans-79"/>
     </g>
    </g>
   </g>
  </g>
 </g>
 <defs>
  <clipPath id="p9f6d033c22">
   <rect height="266.112" width="357.12" x="57.6" y="41.472"/>
  </clipPath>
 </defs>
</svg>
