<?xml version="1.0" encoding="utf-8" standalone="no"?>
<!DOCTYPE svg PUBLIC "-//W3C//DTD SVG 1.1//EN"
  "http://www.w3.org/Graphics/SVG/1.1/DTD/svg11.dtd">
<!-- Created with matplotlib (http://matplotlib.org/) -->
<svg height="345.6pt" version="1.1" viewBox="0 0 460.8 345.6" width="460.8pt" xmlns="http://www.w3.org/2000/svg" xmlns:xlink="http://www.w3.org/1999/xlink">
 <defs>
  <style type="text/css">
*{stroke-linecap:butt;stroke-linejoin:round;}
  </style>
 </defs>
 <g id="figure_1">
  <g id="patch_1">
   <path d="M 0 345.6 
L 460.8 345.6 
L 460.8 0 
L 0 0 
z
" style="fill:#ffffff;"/>
  </g>
  <g id="axes_1">
   <g id="patch_2">
    <path d="M 57.6 307.584 
L 414.72 307.584 
L 414.72 41.472 
L 57.6 41.472 
z
" style="fill:#ffffff;"/>
   </g>
   <g id="PathCollection_1">
    <defs>
     <path d="M 0 3 
C 0.795609 3 1.55874 2.683901 2.12132 2.12132 
C 2.683901 1.55874 3 0.795609 3 0 
C 3 -0.795609 2.683901 -1.55874 2.12132 -2.12132 
C 1.55874 -2.683901 0.795609 -3 0 -3 
C -0.795609 -3 -1.55874 -2.683901 -2.12132 -2.12132 
C -2.683901 -1.55874 -3 -0.795609 -3 0 
C -3 0.795609 -2.683901 1.55874 -2.12132 2.12132 
C -1.55874 2.683901 -0.795609 3 0 3 
z
" id="m21bc1133f2" style="stroke:#008000;"/>
    </defs>
    <g clip-path="url(#pa171626e26)">
     <use style="fill:#008000;stroke:#008000;" x="75.876917" xlink:href="#m21bc1133f2" y="235.24024"/>
     <use style="fill:#008000;stroke:#008000;" x="75.876917" xlink:href="#m21bc1133f2" y="54.496959"/>
    </g>
   </g>
   <g id="matplotlib.axis_1">
    <g id="xtick_1">
     <g id="line2d_1">
      <defs>
       <path d="M 0 0 
L 0 3.5 
" id="m72783f776d" style="stroke:#000000;stroke-width:0.8;"/>
      </defs>
      <g>
       <use style="stroke:#000000;stroke-width:0.8;" x="91.239315" xlink:href="#m72783f776d" y="307.584"/>
      </g>
     </g>
     <g id="text_1">
      <!-- 0.0 -->
      <defs>
       <path d="M 31.78125 66.40625 
Q 24.171875 66.40625 20.328125 58.90625 
Q 16.5 51.421875 16.5 36.375 
Q 16.5 21.390625 20.328125 13.890625 
Q 24.171875 6.390625 31.78125 6.390625 
Q 39.453125 6.390625 43.28125 13.890625 
Q 47.125 21.390625 47.125 36.375 
Q 47.125 51.421875 43.28125 58.90625 
Q 39.453125 66.40625 31.78125 66.40625 
z
M 31.78125 74.21875 
Q 44.046875 74.21875 50.515625 64.515625 
Q 56.984375 54.828125 56.984375 36.375 
Q 56.984375 17.96875 50.515625 8.265625 
Q 44.046875 -1.421875 31.78125 -1.421875 
Q 19.53125 -1.421875 13.0625 8.265625 
Q 6.59375 17.96875 6.59375 36.375 
Q 6.59375 54.828125 13.0625 64.515625 
Q 19.53125 74.21875 31.78125 74.21875 
z
" id="DejaVuSans-30"/>
       <path d="M 10.6875 12.40625 
L 21 12.40625 
L 21 0 
L 10.6875 0 
z
" id="DejaVuSans-2e"/>
      </defs>
      <g transform="translate(83.287753 322.182437)scale(0.1 -0.1)">
       <use xlink:href="#DejaVuSans-30"/>
       <use x="63.623047" xlink:href="#DejaVuSans-2e"/>
       <use x="95.410156" xlink:href="#DejaVuSans-30"/>
      </g>
     </g>
    </g>
    <g id="xtick_2">
     <g id="line2d_2">
      <g>
       <use style="stroke:#000000;stroke-width:0.8;" x="142.447308" xlink:href="#m72783f776d" y="307.584"/>
      </g>
     </g>
     <g id="text_2">
      <!-- 0.1 -->
      <defs>
       <path d="M 12.40625 8.296875 
L 28.515625 8.296875 
L 28.515625 63.921875 
L 10.984375 60.40625 
L 10.984375 69.390625 
L 28.421875 72.90625 
L 38.28125 72.90625 
L 38.28125 8.296875 
L 54.390625 8.296875 
L 54.390625 0 
L 12.40625 0 
z
" id="DejaVuSans-31"/>
      </defs>
      <g transform="translate(134.495746 322.182437)scale(0.1 -0.1)">
       <use xlink:href="#DejaVuSans-30"/>
       <use x="63.623047" xlink:href="#DejaVuSans-2e"/>
       <use x="95.410156" xlink:href="#DejaVuSans-31"/>
      </g>
     </g>
    </g>
    <g id="xtick_3">
     <g id="line2d_3">
      <g>
       <use style="stroke:#000000;stroke-width:0.8;" x="193.655301" xlink:href="#m72783f776d" y="307.584"/>
      </g>
     </g>
     <g id="text_3">
      <!-- 0.2 -->
      <defs>
       <path d="M 19.1875 8.296875 
L 53.609375 8.296875 
L 53.609375 0 
L 7.328125 0 
L 7.328125 8.296875 
Q 12.9375 14.109375 22.625 23.890625 
Q 32.328125 33.6875 34.8125 36.53125 
Q 39.546875 41.84375 41.421875 45.53125 
Q 43.3125 49.21875 43.3125 52.78125 
Q 43.3125 58.59375 39.234375 62.25 
Q 35.15625 65.921875 28.609375 65.921875 
Q 23.96875 65.921875 18.8125 64.3125 
Q 13.671875 62.703125 7.8125 59.421875 
L 7.8125 69.390625 
Q 13.765625 71.78125 18.9375 73 
Q 24.125 74.21875 28.421875 74.21875 
Q 39.75 74.21875 46.484375 68.546875 
Q 53.21875 62.890625 53.21875 53.421875 
Q 53.21875 48.921875 51.53125 44.890625 
Q 49.859375 40.875 45.40625 35.40625 
Q 44.1875 33.984375 37.640625 27.21875 
Q 31.109375 20.453125 19.1875 8.296875 
z
" id="DejaVuSans-32"/>
      </defs>
      <g transform="translate(185.703739 322.182437)scale(0.1 -0.1)">
       <use xlink:href="#DejaVuSans-30"/>
       <use x="63.623047" xlink:href="#DejaVuSans-2e"/>
       <use x="95.410156" xlink:href="#DejaVuSans-32"/>
      </g>
     </g>
    </g>
    <g id="xtick_4">
     <g id="line2d_4">
      <g>
       <use style="stroke:#000000;stroke-width:0.8;" x="244.863294" xlink:href="#m72783f776d" y="307.584"/>
      </g>
     </g>
     <g id="text_4">
      <!-- 0.3 -->
      <defs>
       <path d="M 40.578125 39.3125 
Q 47.65625 37.796875 51.625 33 
Q 55.609375 28.21875 55.609375 21.1875 
Q 55.609375 10.40625 48.1875 4.484375 
Q 40.765625 -1.421875 27.09375 -1.421875 
Q 22.515625 -1.421875 17.65625 -0.515625 
Q 12.796875 0.390625 7.625 2.203125 
L 7.625 11.71875 
Q 11.71875 9.328125 16.59375 8.109375 
Q 21.484375 6.890625 26.8125 6.890625 
Q 36.078125 6.890625 40.9375 10.546875 
Q 45.796875 14.203125 45.796875 21.1875 
Q 45.796875 27.640625 41.28125 31.265625 
Q 36.765625 34.90625 28.71875 34.90625 
L 20.21875 34.90625 
L 20.21875 43.015625 
L 29.109375 43.015625 
Q 36.375 43.015625 40.234375 45.921875 
Q 44.09375 48.828125 44.09375 54.296875 
Q 44.09375 59.90625 40.109375 62.90625 
Q 36.140625 65.921875 28.71875 65.921875 
Q 24.65625 65.921875 20.015625 65.03125 
Q 15.375 64.15625 9.8125 62.3125 
L 9.8125 71.09375 
Q 15.4375 72.65625 20.34375 73.4375 
Q 25.25 74.21875 29.59375 74.21875 
Q 40.828125 74.21875 47.359375 69.109375 
Q 53.90625 64.015625 53.90625 55.328125 
Q 53.90625 49.265625 50.4375 45.09375 
Q 46.96875 40.921875 40.578125 39.3125 
z
" id="DejaVuSans-33"/>
      </defs>
      <g transform="translate(236.911731 322.182437)scale(0.1 -0.1)">
       <use xlink:href="#DejaVuSans-30"/>
       <use x="63.623047" xlink:href="#DejaVuSans-2e"/>
       <use x="95.410156" xlink:href="#DejaVuSans-33"/>
      </g>
     </g>
    </g>
    <g id="xtick_5">
     <g id="line2d_5">
      <g>
       <use style="stroke:#000000;stroke-width:0.8;" x="296.071287" xlink:href="#m72783f776d" y="307.584"/>
      </g>
     </g>
     <g id="text_5">
      <!-- 0.4 -->
      <defs>
       <path d="M 37.796875 64.3125 
L 12.890625 25.390625 
L 37.796875 25.390625 
z
M 35.203125 72.90625 
L 47.609375 72.90625 
L 47.609375 25.390625 
L 58.015625 25.390625 
L 58.015625 17.1875 
L 47.609375 17.1875 
L 47.609375 0 
L 37.796875 0 
L 37.796875 17.1875 
L 4.890625 17.1875 
L 4.890625 26.703125 
z
" id="DejaVuSans-34"/>
      </defs>
      <g transform="translate(288.119724 322.182437)scale(0.1 -0.1)">
       <use xlink:href="#DejaVuSans-30"/>
       <use x="63.623047" xlink:href="#DejaVuSans-2e"/>
       <use x="95.410156" xlink:href="#DejaVuSans-34"/>
      </g>
     </g>
    </g>
    <g id="xtick_6">
     <g id="line2d_6">
      <g>
       <use style="stroke:#000000;stroke-width:0.8;" x="347.27928" xlink:href="#m72783f776d" y="307.584"/>
      </g>
     </g>
     <g id="text_6">
      <!-- 0.5 -->
      <defs>
       <path d="M 10.796875 72.90625 
L 49.515625 72.90625 
L 49.515625 64.59375 
L 19.828125 64.59375 
L 19.828125 46.734375 
Q 21.96875 47.46875 24.109375 47.828125 
Q 26.265625 48.1875 28.421875 48.1875 
Q 40.625 48.1875 47.75 41.5 
Q 54.890625 34.8125 54.890625 23.390625 
Q 54.890625 11.625 47.5625 5.09375 
Q 40.234375 -1.421875 26.90625 -1.421875 
Q 22.3125 -1.421875 17.546875 -0.640625 
Q 12.796875 0.140625 7.71875 1.703125 
L 7.71875 11.625 
Q 12.109375 9.234375 16.796875 8.0625 
Q 21.484375 6.890625 26.703125 6.890625 
Q 35.15625 6.890625 40.078125 11.328125 
Q 45.015625 15.765625 45.015625 23.390625 
Q 45.015625 31 40.078125 35.4375 
Q 35.15625 39.890625 26.703125 39.890625 
Q 22.75 39.890625 18.8125 39.015625 
Q 14.890625 38.140625 10.796875 36.28125 
z
" id="DejaVuSans-35"/>
      </defs>
      <g transform="translate(339.327717 322.182437)scale(0.1 -0.1)">
       <use xlink:href="#DejaVuSans-30"/>
       <use x="63.623047" xlink:href="#DejaVuSans-2e"/>
       <use x="95.410156" xlink:href="#DejaVuSans-35"/>
      </g>
     </g>
    </g>
    <g id="xtick_7">
     <g id="line2d_7">
      <g>
       <use style="stroke:#000000;stroke-width:0.8;" x="398.487273" xlink:href="#m72783f776d" y="307.584"/>
      </g>
     </g>
     <g id="text_7">
      <!-- 0.6 -->
      <defs>
       <path d="M 33.015625 40.375 
Q 26.375 40.375 22.484375 35.828125 
Q 18.609375 31.296875 18.609375 23.390625 
Q 18.609375 15.53125 22.484375 10.953125 
Q 26.375 6.390625 33.015625 6.390625 
Q 39.65625 6.390625 43.53125 10.953125 
Q 47.40625 15.53125 47.40625 23.390625 
Q 47.40625 31.296875 43.53125 35.828125 
Q 39.65625 40.375 33.015625 40.375 
z
M 52.59375 71.296875 
L 52.59375 62.3125 
Q 48.875 64.0625 45.09375 64.984375 
Q 41.3125 65.921875 37.59375 65.921875 
Q 27.828125 65.921875 22.671875 59.328125 
Q 17.53125 52.734375 16.796875 39.40625 
Q 19.671875 43.65625 24.015625 45.921875 
Q 28.375 48.1875 33.59375 48.1875 
Q 44.578125 48.1875 50.953125 41.515625 
Q 57.328125 34.859375 57.328125 23.390625 
Q 57.328125 12.15625 50.6875 5.359375 
Q 44.046875 -1.421875 33.015625 -1.421875 
Q 20.359375 -1.421875 13.671875 8.265625 
Q 6.984375 17.96875 6.984375 36.375 
Q 6.984375 53.65625 15.1875 63.9375 
Q 23.390625 74.21875 37.203125 74.21875 
Q 40.921875 74.21875 44.703125 73.484375 
Q 48.484375 72.75 52.59375 71.296875 
z
" id="DejaVuSans-36"/>
      </defs>
      <g transform="translate(390.53571 322.182437)scale(0.1 -0.1)">
       <use xlink:href="#DejaVuSans-30"/>
       <use x="63.623047" xlink:href="#DejaVuSans-2e"/>
       <use x="95.410156" xlink:href="#DejaVuSans-36"/>
      </g>
     </g>
    </g>
    <g id="text_8">
     <!-- Parameter -->
     <defs>
      <path d="M 19.671875 64.796875 
L 19.671875 37.40625 
L 32.078125 37.40625 
Q 38.96875 37.40625 42.71875 40.96875 
Q 46.484375 44.53125 46.484375 51.125 
Q 46.484375 57.671875 42.71875 61.234375 
Q 38.96875 64.796875 32.078125 64.796875 
z
M 9.8125 72.90625 
L 32.078125 72.90625 
Q 44.34375 72.90625 50.609375 67.359375 
Q 56.890625 61.8125 56.890625 51.125 
Q 56.890625 40.328125 50.609375 34.8125 
Q 44.34375 29.296875 32.078125 29.296875 
L 19.671875 29.296875 
L 19.671875 0 
L 9.8125 0 
z
" id="DejaVuSans-50"/>
      <path d="M 34.28125 27.484375 
Q 23.390625 27.484375 19.1875 25 
Q 14.984375 22.515625 14.984375 16.5 
Q 14.984375 11.71875 18.140625 8.90625 
Q 21.296875 6.109375 26.703125 6.109375 
Q 34.1875 6.109375 38.703125 11.40625 
Q 43.21875 16.703125 43.21875 25.484375 
L 43.21875 27.484375 
z
M 52.203125 31.203125 
L 52.203125 0 
L 43.21875 0 
L 43.21875 8.296875 
Q 40.140625 3.328125 35.546875 0.953125 
Q 30.953125 -1.421875 24.3125 -1.421875 
Q 15.921875 -1.421875 10.953125 3.296875 
Q 6 8.015625 6 15.921875 
Q 6 25.140625 12.171875 29.828125 
Q 18.359375 34.515625 30.609375 34.515625 
L 43.21875 34.515625 
L 43.21875 35.40625 
Q 43.21875 41.609375 39.140625 45 
Q 35.0625 48.390625 27.6875 48.390625 
Q 23 48.390625 18.546875 47.265625 
Q 14.109375 46.140625 10.015625 43.890625 
L 10.015625 52.203125 
Q 14.9375 54.109375 19.578125 55.046875 
Q 24.21875 56 28.609375 56 
Q 40.484375 56 46.34375 49.84375 
Q 52.203125 43.703125 52.203125 31.203125 
z
" id="DejaVuSans-61"/>
      <path d="M 41.109375 46.296875 
Q 39.59375 47.171875 37.8125 47.578125 
Q 36.03125 48 33.890625 48 
Q 26.265625 48 22.1875 43.046875 
Q 18.109375 38.09375 18.109375 28.8125 
L 18.109375 0 
L 9.078125 0 
L 9.078125 54.6875 
L 18.109375 54.6875 
L 18.109375 46.1875 
Q 20.953125 51.171875 25.484375 53.578125 
Q 30.03125 56 36.53125 56 
Q 37.453125 56 38.578125 55.875 
Q 39.703125 55.765625 41.0625 55.515625 
z
" id="DejaVuSans-72"/>
      <path d="M 52 44.1875 
Q 55.375 50.25 60.0625 53.125 
Q 64.75 56 71.09375 56 
Q 79.640625 56 84.28125 50.015625 
Q 88.921875 44.046875 88.921875 33.015625 
L 88.921875 0 
L 79.890625 0 
L 79.890625 32.71875 
Q 79.890625 40.578125 77.09375 44.375 
Q 74.3125 48.1875 68.609375 48.1875 
Q 61.625 48.1875 57.5625 43.546875 
Q 53.515625 38.921875 53.515625 30.90625 
L 53.515625 0 
L 44.484375 0 
L 44.484375 32.71875 
Q 44.484375 40.625 41.703125 44.40625 
Q 38.921875 48.1875 33.109375 48.1875 
Q 26.21875 48.1875 22.15625 43.53125 
Q 18.109375 38.875 18.109375 30.90625 
L 18.109375 0 
L 9.078125 0 
L 9.078125 54.6875 
L 18.109375 54.6875 
L 18.109375 46.1875 
Q 21.1875 51.21875 25.484375 53.609375 
Q 29.78125 56 35.6875 56 
Q 41.65625 56 45.828125 52.96875 
Q 50 49.953125 52 44.1875 
z
" id="DejaVuSans-6d"/>
      <path d="M 56.203125 29.59375 
L 56.203125 25.203125 
L 14.890625 25.203125 
Q 15.484375 15.921875 20.484375 11.0625 
Q 25.484375 6.203125 34.421875 6.203125 
Q 39.59375 6.203125 44.453125 7.46875 
Q 49.3125 8.734375 54.109375 11.28125 
L 54.109375 2.78125 
Q 49.265625 0.734375 44.1875 -0.34375 
Q 39.109375 -1.421875 33.890625 -1.421875 
Q 20.796875 -1.421875 13.15625 6.1875 
Q 5.515625 13.8125 5.515625 26.8125 
Q 5.515625 40.234375 12.765625 48.109375 
Q 20.015625 56 32.328125 56 
Q 43.359375 56 49.78125 48.890625 
Q 56.203125 41.796875 56.203125 29.59375 
z
M 47.21875 32.234375 
Q 47.125 39.59375 43.09375 43.984375 
Q 39.0625 48.390625 32.421875 48.390625 
Q 24.90625 48.390625 20.390625 44.140625 
Q 15.875 39.890625 15.1875 32.171875 
z
" id="DejaVuSans-65"/>
      <path d="M 18.3125 70.21875 
L 18.3125 54.6875 
L 36.8125 54.6875 
L 36.8125 47.703125 
L 18.3125 47.703125 
L 18.3125 18.015625 
Q 18.3125 11.328125 20.140625 9.421875 
Q 21.96875 7.515625 27.59375 7.515625 
L 36.8125 7.515625 
L 36.8125 0 
L 27.59375 0 
Q 17.1875 0 13.234375 3.875 
Q 9.28125 7.765625 9.28125 18.015625 
L 9.28125 47.703125 
L 2.6875 47.703125 
L 2.6875 54.6875 
L 9.28125 54.6875 
L 9.28125 70.21875 
z
" id="DejaVuSans-74"/>
     </defs>
     <g transform="translate(209.925625 335.860562)scale(0.1 -0.1)">
      <use xlink:href="#DejaVuSans-50"/>
      <use x="60.240234" xlink:href="#DejaVuSans-61"/>
      <use x="121.519531" xlink:href="#DejaVuSans-72"/>
      <use x="162.632812" xlink:href="#DejaVuSans-61"/>
      <use x="223.912109" xlink:href="#DejaVuSans-6d"/>
      <use x="321.324219" xlink:href="#DejaVuSans-65"/>
      <use x="382.847656" xlink:href="#DejaVuSans-74"/>
      <use x="422.056641" xlink:href="#DejaVuSans-65"/>
      <use x="483.580078" xlink:href="#DejaVuSans-72"/>
     </g>
    </g>
   </g>
   <g id="matplotlib.axis_2">
    <g id="ytick_1">
     <g id="line2d_8">
      <defs>
       <path d="M 0 0 
L -3.5 0 
" id="m043696b41c" style="stroke:#000000;stroke-width:0.8;"/>
      </defs>
      <g>
       <use style="stroke:#000000;stroke-width:0.8;" x="57.6" xlink:href="#m043696b41c" y="295.488"/>
      </g>
     </g>
     <g id="text_9">
      <!-- 0.0 -->
      <g transform="translate(34.696875 299.287219)scale(0.1 -0.1)">
       <use xlink:href="#DejaVuSans-30"/>
       <use x="63.623047" xlink:href="#DejaVuSans-2e"/>
       <use x="95.410156" xlink:href="#DejaVuSans-30"/>
      </g>
     </g>
    </g>
    <g id="ytick_2">
     <g id="line2d_9">
      <g>
       <use style="stroke:#000000;stroke-width:0.8;" x="57.6" xlink:href="#m043696b41c" y="265.36412"/>
      </g>
     </g>
     <g id="text_10">
      <!-- 2.5 -->
      <g transform="translate(34.696875 269.163339)scale(0.1 -0.1)">
       <use xlink:href="#DejaVuSans-32"/>
       <use x="63.623047" xlink:href="#DejaVuSans-2e"/>
       <use x="95.410156" xlink:href="#DejaVuSans-35"/>
      </g>
     </g>
    </g>
    <g id="ytick_3">
     <g id="line2d_10">
      <g>
       <use style="stroke:#000000;stroke-width:0.8;" x="57.6" xlink:href="#m043696b41c" y="235.24024"/>
      </g>
     </g>
     <g id="text_11">
      <!-- 5.0 -->
      <g transform="translate(34.696875 239.039458)scale(0.1 -0.1)">
       <use xlink:href="#DejaVuSans-35"/>
       <use x="63.623047" xlink:href="#DejaVuSans-2e"/>
       <use x="95.410156" xlink:href="#DejaVuSans-30"/>
      </g>
     </g>
    </g>
    <g id="ytick_4">
     <g id="line2d_11">
      <g>
       <use style="stroke:#000000;stroke-width:0.8;" x="57.6" xlink:href="#m043696b41c" y="205.11636"/>
      </g>
     </g>
     <g id="text_12">
      <!-- 7.5 -->
      <defs>
       <path d="M 8.203125 72.90625 
L 55.078125 72.90625 
L 55.078125 68.703125 
L 28.609375 0 
L 18.3125 0 
L 43.21875 64.59375 
L 8.203125 64.59375 
z
" id="DejaVuSans-37"/>
      </defs>
      <g transform="translate(34.696875 208.915578)scale(0.1 -0.1)">
       <use xlink:href="#DejaVuSans-37"/>
       <use x="63.623047" xlink:href="#DejaVuSans-2e"/>
       <use x="95.410156" xlink:href="#DejaVuSans-35"/>
      </g>
     </g>
    </g>
    <g id="ytick_5">
     <g id="line2d_12">
      <g>
       <use style="stroke:#000000;stroke-width:0.8;" x="57.6" xlink:href="#m043696b41c" y="174.992479"/>
      </g>
     </g>
     <g id="text_13">
      <!-- 10.0 -->
      <g transform="translate(28.334375 178.791698)scale(0.1 -0.1)">
       <use xlink:href="#DejaVuSans-31"/>
       <use x="63.623047" xlink:href="#DejaVuSans-30"/>
       <use x="127.246094" xlink:href="#DejaVuSans-2e"/>
       <use x="159.033203" xlink:href="#DejaVuSans-30"/>
      </g>
     </g>
    </g>
    <g id="ytick_6">
     <g id="line2d_13">
      <g>
       <use style="stroke:#000000;stroke-width:0.8;" x="57.6" xlink:href="#m043696b41c" y="144.868599"/>
      </g>
     </g>
     <g id="text_14">
      <!-- 12.5 -->
      <g transform="translate(28.334375 148.667818)scale(0.1 -0.1)">
       <use xlink:href="#DejaVuSans-31"/>
       <use x="63.623047" xlink:href="#DejaVuSans-32"/>
       <use x="127.246094" xlink:href="#DejaVuSans-2e"/>
       <use x="159.033203" xlink:href="#DejaVuSans-35"/>
      </g>
     </g>
    </g>
    <g id="ytick_7">
     <g id="line2d_14">
      <g>
       <use style="stroke:#000000;stroke-width:0.8;" x="57.6" xlink:href="#m043696b41c" y="114.744719"/>
      </g>
     </g>
     <g id="text_15">
      <!-- 15.0 -->
      <g transform="translate(28.334375 118.543938)scale(0.1 -0.1)">
       <use xlink:href="#DejaVuSans-31"/>
       <use x="63.623047" xlink:href="#DejaVuSans-35"/>
       <use x="127.246094" xlink:href="#DejaVuSans-2e"/>
       <use x="159.033203" xlink:href="#DejaVuSans-30"/>
      </g>
     </g>
    </g>
    <g id="ytick_8">
     <g id="line2d_15">
      <g>
       <use style="stroke:#000000;stroke-width:0.8;" x="57.6" xlink:href="#m043696b41c" y="84.620839"/>
      </g>
     </g>
     <g id="text_16">
      <!-- 17.5 -->
      <g transform="translate(28.334375 88.420058)scale(0.1 -0.1)">
       <use xlink:href="#DejaVuSans-31"/>
       <use x="63.623047" xlink:href="#DejaVuSans-37"/>
       <use x="127.246094" xlink:href="#DejaVuSans-2e"/>
       <use x="159.033203" xlink:href="#DejaVuSans-35"/>
      </g>
     </g>
    </g>
    <g id="ytick_9">
     <g id="line2d_16">
      <g>
       <use style="stroke:#000000;stroke-width:0.8;" x="57.6" xlink:href="#m043696b41c" y="54.496959"/>
      </g>
     </g>
     <g id="text_17">
      <!-- 20.0 -->
      <g transform="translate(28.334375 58.296178)scale(0.1 -0.1)">
       <use xlink:href="#DejaVuSans-32"/>
       <use x="63.623047" xlink:href="#DejaVuSans-30"/>
       <use x="127.246094" xlink:href="#DejaVuSans-2e"/>
       <use x="159.033203" xlink:href="#DejaVuSans-30"/>
      </g>
     </g>
    </g>
    <g id="text_18">
     <!-- Mass -->
     <defs>
      <path d="M 9.8125 72.90625 
L 24.515625 72.90625 
L 43.109375 23.296875 
L 61.8125 72.90625 
L 76.515625 72.90625 
L 76.515625 0 
L 66.890625 0 
L 66.890625 64.015625 
L 48.09375 14.015625 
L 38.1875 14.015625 
L 19.390625 64.015625 
L 19.390625 0 
L 9.8125 0 
z
" id="DejaVuSans-4d"/>
      <path d="M 44.28125 53.078125 
L 44.28125 44.578125 
Q 40.484375 46.53125 36.375 47.5 
Q 32.28125 48.484375 27.875 48.484375 
Q 21.1875 48.484375 17.84375 46.4375 
Q 14.5 44.390625 14.5 40.28125 
Q 14.5 37.15625 16.890625 35.375 
Q 19.28125 33.59375 26.515625 31.984375 
L 29.59375 31.296875 
Q 39.15625 29.25 43.1875 25.515625 
Q 47.21875 21.78125 47.21875 15.09375 
Q 47.21875 7.46875 41.1875 3.015625 
Q 35.15625 -1.421875 24.609375 -1.421875 
Q 20.21875 -1.421875 15.453125 -0.5625 
Q 10.6875 0.296875 5.421875 2 
L 5.421875 11.28125 
Q 10.40625 8.6875 15.234375 7.390625 
Q 20.0625 6.109375 24.8125 6.109375 
Q 31.15625 6.109375 34.5625 8.28125 
Q 37.984375 10.453125 37.984375 14.40625 
Q 37.984375 18.0625 35.515625 20.015625 
Q 33.0625 21.96875 24.703125 23.78125 
L 21.578125 24.515625 
Q 13.234375 26.265625 9.515625 29.90625 
Q 5.8125 33.546875 5.8125 39.890625 
Q 5.8125 47.609375 11.28125 51.796875 
Q 16.75 56 26.8125 56 
Q 31.78125 56 36.171875 55.265625 
Q 40.578125 54.546875 44.28125 53.078125 
z
" id="DejaVuSans-73"/>
     </defs>
     <g transform="translate(22.254688 187.1155)rotate(-90)scale(0.1 -0.1)">
      <use xlink:href="#DejaVuSans-4d"/>
      <use x="86.279297" xlink:href="#DejaVuSans-61"/>
      <use x="147.558594" xlink:href="#DejaVuSans-73"/>
      <use x="199.658203" xlink:href="#DejaVuSans-73"/>
     </g>
    </g>
   </g>
   <g id="line2d_17">
    <path clip-path="url(#pa171626e26)" d="M 91.239315 205.72254 
L 142.618572 208.09411 
L 164.19786 208.890745 
L 177.556467 209.171677 
L 186.804733 209.155585 
L 193.997829 208.925816 
L 199.135755 208.573227 
L 203.246096 208.12122 
L 207.356436 207.449867 
L 210.439192 206.741753 
L 213.521947 205.782599 
L 215.577117 204.950932 
L 217.632288 203.909246 
L 219.687458 202.584675 
L 221.742628 200.869798 
L 223.797799 198.612738 
L 225.852969 195.670666 
L 226.880554 194.013874 
L 227.908139 192.573147 
L 228.935724 192.326256 
L 229.963309 194.91558 
L 230.990895 198.993721 
L 232.01848 201.716951 
L 233.046065 203.198105 
L 234.07365 204.027213 
L 235.101235 204.52197 
L 237.156405 205.044007 
L 240.239161 205.369851 
L 245.377087 205.560631 
L 256.680523 205.666461 
L 297.783929 205.71154 
L 398.487273 205.71924 
L 398.487273 205.71924 
" style="fill:none;stroke:#000000;stroke-linecap:square;stroke-width:1.5;"/>
   </g>
   <g id="line2d_18">
    <path clip-path="url(#pa171626e26)" d="M 91.239315 203.9073 
L 153.922009 207.957503 
L 170.363371 209.246303 
L 180.639223 210.257543 
L 187.832319 211.158061 
L 193.997829 212.152288 
L 198.10817 212.996858 
L 202.218511 214.065188 
L 205.301266 215.081291 
L 208.384021 216.368382 
L 210.439192 217.438758 
L 212.494362 218.746173 
L 214.549532 220.380286 
L 216.604703 222.480882 
L 217.632288 223.772489 
L 218.659873 225.277141 
L 219.687458 227.050436 
L 220.715043 229.167969 
L 221.742628 231.734417 
L 222.770213 234.897339 
L 223.797799 238.867825 
L 224.825384 243.949312 
L 225.852969 250.567717 
L 226.880554 259.255046 
L 227.908139 270.3659 
L 228.935724 282.797266 
L 229.963309 291.833612 
L 230.990895 294.756878 
L 232.01848 295.318058 
L 234.07365 295.470394 
L 246.404672 295.48799 
L 398.487273 295.488 
L 398.487273 295.488 
" style="fill:none;stroke:#000000;stroke-linecap:square;stroke-width:1.5;"/>
   </g>
   <g id="line2d_19">
    <path clip-path="url(#pa171626e26)" d="M 91.239315 205.738914 
L 149.811668 208.718498 
L 167.280616 209.810294 
L 178.584052 210.720654 
L 186.804733 211.598173 
L 192.970244 212.472469 
L 198.10817 213.437273 
L 202.218511 214.453279 
L 205.301266 215.429758 
L 208.384021 216.676756 
L 210.439192 217.720055 
L 212.494362 219.000025 
L 214.549532 220.606226 
L 216.604703 222.678308 
L 217.632288 223.955375 
L 218.659873 225.44526 
L 219.687458 227.203529 
L 220.715043 229.305736 
L 221.742628 231.856514 
L 222.770213 235.003379 
L 223.797799 238.957391 
L 224.825384 244.021988 
L 225.852969 250.623199 
L 226.880554 259.293401 
L 227.908139 270.388175 
L 228.935724 282.806633 
L 229.963309 291.835974 
L 230.990895 294.75731 
L 232.01848 295.318144 
L 234.07365 295.470399 
L 246.404672 295.48799 
L 398.487273 295.488 
L 398.487273 295.488 
" style="fill:none;stroke:#100e0d;stroke-linecap:square;stroke-width:1.5;"/>
   </g>
   <g id="line2d_20">
    <path clip-path="url(#pa171626e26)" d="M 91.239315 203.891104 
L 139.535817 206.781096 
L 162.14269 207.937911 
L 175.501297 208.4273 
L 184.749563 208.579876 
L 191.942659 208.508904 
L 198.10817 208.231015 
L 203.246096 207.758643 
L 207.356436 207.140095 
L 210.439192 206.470669 
L 213.521947 205.54818 
L 215.577117 204.738605 
L 217.632288 203.715345 
L 219.687458 202.402338 
L 221.742628 200.685419 
L 222.770213 199.62529 
L 223.797799 198.39708 
L 224.825384 196.975997 
L 227.908139 191.972108 
L 228.935724 191.444596 
L 229.963309 193.67367 
L 230.990895 197.47382 
L 232.01848 200.057307 
L 233.046065 201.471071 
L 234.07365 202.264567 
L 235.101235 202.738722 
L 237.156405 203.239509 
L 240.239161 203.552326 
L 245.377087 203.735559 
L 256.680523 203.837225 
L 298.811514 203.88078 
L 398.487273 203.887933 
L 398.487273 203.887933 
" style="fill:none;stroke:#100d0d;stroke-linecap:square;stroke-width:1.5;"/>
   </g>
   <g id="line2d_21">
    <path clip-path="url(#pa171626e26)" d="M 91.239315 205.723042 
L 143.646157 208.14169 
L 165.225445 208.932187 
L 178.584052 209.201338 
L 187.832319 209.167118 
L 195.025415 208.910817 
L 200.16334 208.526527 
L 204.273681 208.035737 
L 208.384021 207.305378 
L 211.466777 206.531043 
L 214.549532 205.474058 
L 216.604703 204.549282 
L 218.659873 203.379697 
L 220.715043 201.874613 
L 222.770213 199.899943 
L 223.797799 198.681513 
L 225.852969 195.696636 
L 226.880554 194.008242 
L 227.908139 192.549124 
L 228.935724 192.377798 
L 229.963309 195.196737 
L 230.990895 199.311757 
L 232.01848 201.936746 
L 233.046065 203.3428 
L 234.07365 204.126002 
L 235.101235 204.59249 
L 237.156405 205.084222 
L 240.239161 205.391002 
L 245.377087 205.570605 
L 256.680523 205.67024 
L 299.839099 205.713154 
L 398.487273 205.719934 
L 398.487273 205.719934 
" style="fill:none;stroke:#232116;stroke-linecap:square;stroke-width:1.5;"/>
   </g>
   <g id="line2d_22">
    <path clip-path="url(#pa171626e26)" d="M 91.239315 203.906836 
L 154.949594 208.022376 
L 170.363371 209.228527 
L 180.639223 210.22916 
L 187.832319 211.11829 
L 193.997829 212.09862 
L 199.135755 213.169748 
L 203.246096 214.292835 
L 206.328851 215.372225 
L 209.411607 216.75529 
L 211.466777 217.91904 
L 213.521947 219.357334 
L 215.577117 221.181212 
L 216.604703 222.28949 
L 217.632288 223.568618 
L 218.659873 225.060478 
L 219.687458 226.821203 
L 220.715043 228.927389 
L 221.742628 231.485575 
L 222.770213 234.646757 
L 223.797799 238.628386 
L 224.825384 243.745625 
L 225.852969 250.445392 
L 226.880554 259.292573 
L 227.908139 270.665091 
L 228.935724 283.333476 
L 229.963309 292.194192 
L 230.990895 294.852142 
L 232.01848 295.341044 
L 234.07365 295.472784 
L 247.432257 295.487995 
L 398.487273 295.488 
L 398.487273 295.488 
" style="fill:none;stroke:#231816;stroke-linecap:square;stroke-width:1.5;"/>
   </g>
   <g id="line2d_23">
    <path clip-path="url(#pa171626e26)" d="M 91.239315 205.73846 
L 150.839253 208.769522 
L 168.308201 209.867803 
L 179.611637 210.79075 
L 187.832319 211.688472 
L 193.997829 212.591357 
L 199.135755 213.597569 
L 203.246096 214.668259 
L 206.328851 215.707929 
L 209.411607 217.050751 
L 211.466777 218.187278 
L 213.521947 219.597934 
L 215.577117 221.393637 
L 216.604703 222.487579 
L 217.632288 223.752168 
L 218.659873 225.229259 
L 219.687458 226.974947 
L 220.715043 229.065786 
L 221.742628 231.608268 
L 222.770213 234.75334 
L 223.797799 238.718412 
L 224.825384 243.818643 
L 225.852969 250.501049 
L 226.880554 259.330884 
L 227.908139 270.687089 
L 228.935724 283.34246 
L 229.963309 292.19634 
L 230.990895 294.852523 
L 232.01848 295.34112 
L 234.07365 295.472789 
L 247.432257 295.487995 
L 398.487273 295.488 
L 398.487273 295.488 
" style="fill:none;stroke:#2f391c;stroke-linecap:square;stroke-width:1.5;"/>
   </g>
   <g id="line2d_24">
    <path clip-path="url(#pa171626e26)" d="M 91.239315 203.891586 
L 139.535817 206.784835 
L 162.14269 207.947881 
L 175.501297 208.444931 
L 185.777148 208.609342 
L 192.970244 208.515899 
L 199.135755 208.204674 
L 203.246096 207.814418 
L 207.356436 207.205694 
L 210.439192 206.544356 
L 213.521947 205.630167 
L 215.577117 204.825742 
L 217.632288 203.806515 
L 219.687458 202.494902 
L 221.742628 200.773526 
L 222.770213 199.707036 
L 223.797799 198.467923 
L 224.825384 197.029421 
L 227.908139 191.942313 
L 228.935724 191.480277 
L 229.963309 193.931078 
L 230.990895 197.7743 
L 232.01848 200.266789 
L 233.046065 201.609458 
L 234.07365 202.35921 
L 235.101235 202.806345 
L 237.156405 203.278108 
L 240.239161 203.572638 
L 245.377087 203.74514 
L 257.708108 203.844346 
L 307.032195 203.883403 
L 398.487273 203.8886 
L 398.487273 203.8886 
" style="fill:none;stroke:#39221c;stroke-linecap:square;stroke-width:1.5;"/>
   </g>
   <g id="line2d_25">
    <path clip-path="url(#pa171626e26)" d="M 91.239315 205.723514 
L 143.646157 208.146103 
L 165.225445 208.943437 
L 178.584052 209.221222 
L 187.832319 209.196456 
L 195.025415 208.950377 
L 200.16334 208.575369 
L 204.273681 208.093382 
L 208.384021 207.373064 
L 211.466777 206.606869 
L 214.549532 205.55795 
L 216.604703 204.63779 
L 218.659873 203.471052 
L 220.715043 201.964835 
L 222.770213 199.980332 
L 223.797799 198.750923 
L 224.825384 197.332375 
L 227.908139 192.52531 
L 228.935724 192.437302 
L 229.963309 195.48997 
L 230.990895 199.621699 
L 232.01848 202.145992 
L 233.046065 203.479593 
L 234.07365 204.219165 
L 235.101235 204.658927 
L 237.156405 205.122085 
L 240.239161 205.410913 
L 245.377087 205.579994 
L 257.708108 205.677219 
L 307.032195 205.715495 
L 398.487273 205.720588 
L 398.487273 205.720588 
" style="fill:none;stroke:#2b521f;stroke-linecap:square;stroke-width:1.5;"/>
   </g>
   <g id="line2d_26">
    <path clip-path="url(#pa171626e26)" d="M 91.239315 203.9064 
L 155.977179 208.087429 
L 171.390956 209.300976 
L 181.666808 210.315226 
L 188.859904 211.224052 
L 195.025415 212.235378 
L 199.135755 213.101828 
L 203.246096 214.208189 
L 206.328851 215.271634 
L 209.411607 216.634839 
L 211.466777 217.782592 
L 213.521947 219.202228 
L 215.577117 221.004464 
L 216.604703 222.1008 
L 217.632288 223.367348 
L 218.659873 224.846242 
L 219.687458 226.594113 
L 220.715043 228.68853 
L 221.742628 231.237853 
L 222.770213 234.396491 
L 223.797799 238.388286 
L 224.825384 243.540362 
L 225.852969 250.321381 
L 226.880554 259.330854 
L 228.935724 283.872667 
L 229.963309 292.530509 
L 230.990895 294.935545 
L 232.01848 295.360909 
L 234.07365 295.474847 
L 249.487427 295.487998 
L 398.487273 295.488 
L 398.487273 295.488 
" style="fill:none;stroke:#522e1f;stroke-linecap:square;stroke-width:1.5;"/>
   </g>
   <g id="line2d_27">
    <path clip-path="url(#pa171626e26)" d="M 91.239315 205.738032 
L 151.866839 208.82069 
L 169.335786 209.925868 
L 180.639223 210.862239 
L 187.832319 211.650156 
L 193.997829 212.539497 
L 199.135755 213.530082 
L 203.246096 214.5841 
L 206.328851 215.607868 
L 209.411607 216.930874 
L 211.466777 218.051433 
L 213.521947 219.443456 
L 215.577117 221.217539 
L 216.604703 222.299543 
L 217.632288 223.551557 
L 218.659873 225.015679 
L 219.687458 226.748505 
L 220.715043 228.827555 
L 221.742628 231.361142 
L 222.770213 234.503617 
L 223.797799 238.478776 
L 224.825384 243.613726 
L 225.852969 250.377215 
L 226.880554 259.36912 
L 227.908139 270.992997 
L 228.935724 283.881266 
L 229.963309 292.532456 
L 230.990895 294.93588 
L 232.01848 295.360975 
L 234.07365 295.474851 
L 249.487427 295.487998 
L 398.487273 295.488 
L 398.487273 295.488 
" style="fill:none;stroke:#1f6e31;stroke-linecap:square;stroke-width:1.5;"/>
   </g>
   <g id="line2d_28">
    <path clip-path="url(#pa171626e26)" d="M 91.239315 203.89204 
L 140.563402 206.84609 
L 163.170275 208.003384 
L 176.528882 208.49025 
L 185.777148 208.635845 
L 192.970244 208.55176 
L 199.135755 208.251014 
L 203.246096 207.869264 
L 207.356436 207.270356 
L 210.439192 206.61715 
L 213.521947 205.711371 
L 215.577117 204.91223 
L 217.632288 203.897239 
L 219.687458 202.587318 
L 221.742628 200.861875 
L 222.770213 199.789234 
L 223.797799 198.53939 
L 224.825384 197.083516 
L 227.908139 191.912548 
L 228.935724 191.523398 
L 229.963309 194.20062 
L 230.990895 198.067491 
L 232.01848 200.466327 
L 233.046065 201.740325 
L 234.07365 202.448479 
L 235.101235 202.870061 
L 237.156405 203.31445 
L 240.239161 203.59176 
L 245.377087 203.754159 
L 257.708108 203.847561 
L 309.087365 203.884631 
L 398.487273 203.889229 
L 398.487273 203.889229 
" style="fill:none;stroke:#6e3c1f;stroke-linecap:square;stroke-width:1.5;"/>
   </g>
   <g id="line2d_29">
    <path clip-path="url(#pa171626e26)" d="M 91.239315 205.723959 
L 144.673743 208.193582 
L 166.253031 208.984574 
L 178.584052 209.240562 
L 187.832319 209.225097 
L 195.025415 208.989119 
L 200.16334 208.62332 
L 204.273681 208.150099 
L 208.384021 207.439833 
L 211.466777 206.681841 
L 214.549532 205.64113 
L 216.604703 204.725755 
L 218.659873 203.562112 
L 220.715043 202.055106 
L 222.770213 200.061182 
L 223.797799 198.820961 
L 224.825384 197.385059 
L 227.908139 192.501767 
L 228.935724 192.505394 
L 229.963309 195.793996 
L 230.990895 199.922713 
L 232.01848 202.344959 
L 233.046065 203.608856 
L 234.07365 204.307006 
L 235.101235 204.721512 
L 237.156405 205.157731 
L 240.239161 205.429657 
L 245.377087 205.588834 
L 257.708108 205.68037 
L 310.11495 205.716836 
L 398.487273 205.721204 
L 398.487273 205.721204 
" style="fill:none;stroke:#1c8e68;stroke-linecap:square;stroke-width:1.5;"/>
   </g>
   <g id="line2d_30">
    <path clip-path="url(#pa171626e26)" d="M 91.239315 203.905989 
L 155.977179 208.078783 
L 171.390956 209.2836 
L 181.666808 210.287264 
L 188.859904 211.184624 
L 195.025415 212.181833 
L 199.135755 213.035602 
L 203.246096 214.125515 
L 206.328851 215.173245 
L 209.411607 216.516826 
L 211.466777 217.648729 
L 213.521947 219.049817 
L 215.577117 220.830446 
L 216.604703 221.914802 
L 217.632288 223.168684 
L 218.659873 224.634446 
L 219.687458 226.369196 
L 220.715043 228.451435 
L 221.742628 230.991307 
L 222.770213 234.146601 
L 223.797799 238.14758 
L 224.825384 243.33355 
L 225.852969 250.195674 
L 226.880554 259.369904 
L 228.935724 284.413789 
L 229.963309 292.842277 
L 230.990895 295.008399 
L 232.01848 295.378075 
L 234.07365 295.476628 
L 251.542597 295.487999 
L 398.487273 295.488 
L 398.487273 295.488 
" style="fill:none;stroke:#8e4d1c;stroke-linecap:square;stroke-width:1.5;"/>
   </g>
   <g id="line2d_31">
    <path clip-path="url(#pa171626e26)" d="M 91.239315 205.737629 
L 151.866839 208.813594 
L 169.335786 209.910212 
L 180.639223 210.835831 
L 188.859904 211.742544 
L 195.025415 212.662381 
L 199.135755 213.464279 
L 203.246096 214.501903 
L 206.328851 215.51 
L 209.411607 216.813425 
L 211.466777 217.918163 
L 213.521947 219.291664 
L 215.577117 221.044161 
L 216.604703 222.114194 
L 217.632288 223.353544 
L 218.659873 224.804534 
L 219.687458 226.524231 
L 220.715043 228.591086 
L 221.742628 231.115191 
L 222.770213 234.254271 
L 223.797799 238.238536 
L 224.825384 243.407263 
L 225.852969 250.251688 
L 226.880554 259.408125 
L 228.935724 284.422002 
L 229.963309 292.844036 
L 230.990895 295.008692 
L 232.01848 295.378133 
L 234.07365 295.476631 
L 251.542597 295.487999 
L 398.487273 295.488 
L 398.487273 295.488 
" style="fill:none;stroke:#169fb0;stroke-linecap:square;stroke-width:1.5;"/>
   </g>
   <g id="line2d_32">
    <path clip-path="url(#pa171626e26)" d="M 91.239315 203.892468 
L 140.563402 206.849686 
L 163.170275 208.013126 
L 176.528882 208.507641 
L 185.777148 208.661696 
L 192.970244 208.586843 
L 199.135755 208.29648 
L 203.246096 207.923189 
L 207.356436 207.334089 
L 210.439192 206.68905 
L 213.521947 205.791787 
L 215.577117 204.998058 
L 217.632288 203.987503 
L 219.687458 202.679565 
L 221.742628 200.950449 
L 222.770213 199.87187 
L 223.797799 198.611472 
L 224.825384 197.138283 
L 227.908139 191.882868 
L 228.935724 191.574577 
L 229.963309 194.481102 
L 230.990895 198.352558 
L 232.01848 200.656158 
L 233.046065 201.864024 
L 234.07365 202.532662 
L 235.101235 202.930089 
L 237.156405 203.348668 
L 240.239161 203.609761 
L 245.377087 203.762651 
L 258.735693 203.853356 
L 318.335632 203.886529 
L 398.487273 203.889821 
L 398.487273 203.889821 
" style="fill:none;stroke:#b06416;stroke-linecap:square;stroke-width:1.5;"/>
   </g>
   <g id="line2d_33">
    <path clip-path="url(#pa171626e26)" d="M 91.239315 205.724378 
L 144.673743 208.197838 
L 166.253031 208.995592 
L 178.584052 209.259371 
L 187.832319 209.253056 
L 195.025415 209.027057 
L 200.16334 208.67039 
L 204.273681 208.205899 
L 208.384021 207.505688 
L 211.466777 206.755956 
L 214.549532 205.723591 
L 216.604703 204.813162 
L 218.659873 203.652858 
L 220.715043 202.145409 
L 222.770213 200.14248 
L 223.797799 198.89162 
L 224.825384 197.438412 
L 227.908139 192.478557 
L 228.935724 192.582724 
L 229.963309 196.107341 
L 230.990895 200.214135 
L 232.01848 202.533949 
L 233.046065 203.730954 
L 234.07365 204.389814 
L 235.101235 204.780464 
L 237.156405 205.191291 
L 240.239161 205.447302 
L 246.404672 205.612135 
L 261.818449 205.692673 
L 339.91492 205.720064 
L 398.487273 205.721784 
L 398.487273 205.721784 
" style="fill:none;stroke:#0d66d6;stroke-linecap:square;stroke-width:1.5;"/>
   </g>
   <g id="line2d_34">
    <path clip-path="url(#pa171626e26)" d="M 91.239315 203.905602 
L 157.004764 208.143964 
L 172.418541 209.356503 
L 182.694393 210.374453 
L 189.887489 211.292648 
L 195.025415 212.129703 
L 199.135755 212.971028 
L 203.246096 214.044769 
L 206.328851 215.077016 
L 209.411607 216.401211 
L 211.466777 217.517413 
L 213.521947 218.90007 
L 215.577117 220.659138 
L 216.604703 221.731489 
L 217.632288 222.972624 
L 218.659873 224.425102 
L 219.687458 226.146477 
L 220.715043 228.216144 
L 221.742628 230.745989 
L 222.770213 233.897146 
L 223.797799 237.906322 
L 224.825384 243.125218 
L 225.852969 250.068261 
L 226.880554 259.409741 
L 228.935724 284.955675 
L 229.963309 293.129534 
L 230.990895 295.071914 
L 232.01848 295.392908 
L 235.101235 295.484075 
L 288.535663 295.488 
L 398.487273 295.488 
L 398.487273 295.488 
" style="fill:none;stroke:#d6800d;stroke-linecap:square;stroke-width:1.5;"/>
   </g>
   <g id="line2d_35">
    <path clip-path="url(#pa171626e26)" d="M 91.239315 205.737249 
L 152.894424 208.864871 
L 170.363371 209.968673 
L 180.639223 210.810243 
L 188.859904 211.704538 
L 195.025415 212.610615 
L 199.135755 213.400118 
L 203.246096 214.421624 
L 206.328851 215.41428 
L 209.411607 216.698364 
L 211.466777 217.78743 
L 213.521947 219.142528 
L 215.577117 220.873485 
L 216.604703 221.931522 
L 217.632288 223.15813 
L 218.659873 224.595836 
L 219.687458 226.30215 
L 220.715043 228.356419 
L 221.742628 230.870467 
L 222.770213 234.005362 
L 223.797799 237.997746 
L 224.825384 243.199283 
L 225.852969 250.124458 
L 226.880554 259.447916 
L 228.935724 284.963502 
L 229.963309 293.131117 
L 230.990895 295.072172 
L 232.01848 295.392959 
L 235.101235 295.484076 
L 288.535663 295.488 
L 398.487273 295.488 
L 398.487273 295.488 
" style="fill:none;stroke:#0000ff;stroke-linecap:square;stroke-width:1.5;"/>
   </g>
   <g id="line2d_36">
    <path clip-path="url(#pa171626e26)" d="M 91.239315 203.89287 
L 141.590987 206.910836 
L 164.19786 208.068354 
L 177.556467 208.552278 
L 186.804733 208.690183 
L 193.997829 208.591764 
L 199.135755 208.341084 
L 204.273681 207.854718 
L 208.384021 207.207438 
L 211.466777 206.496468 
L 214.549532 205.500624 
L 216.604703 204.61179 
L 218.659873 203.468542 
L 220.715043 201.969128 
L 221.742628 201.039231 
L 222.770213 199.954929 
L 223.797799 198.684164 
L 224.825384 197.193725 
L 227.908139 191.853328 
L 228.935724 191.634458 
L 229.963309 194.771137 
L 230.990895 198.628827 
L 232.01848 200.836555 
L 233.046065 201.980896 
L 234.07365 202.612036 
L 235.101235 202.986639 
L 237.156405 203.380885 
L 240.239161 203.626707 
L 246.404672 203.785034 
L 261.818449 203.862408 
L 342.997675 203.888871 
L 398.487273 203.890378 
L 398.487273 203.890378 
" style="fill:none;stroke:#ffa500;stroke-linecap:square;stroke-width:1.5;"/>
   </g>
   <g id="line2d_37">
    <path clip-path="url(#pa171626e26)" d="M 91.239315 205.737249 
L 152.894424 208.864871 
L 170.363371 209.968673 
L 180.639223 210.810243 
L 188.859904 211.704538 
L 195.025415 212.610615 
L 199.135755 213.400118 
L 203.246096 214.421624 
L 206.328851 215.41428 
L 209.411607 216.698364 
L 211.466777 217.78743 
L 213.521947 219.142528 
L 215.577117 220.873485 
L 216.604703 221.931522 
L 217.632288 223.15813 
L 218.659873 224.595836 
L 219.687458 226.30215 
L 220.715043 228.356419 
L 221.742628 230.870467 
L 222.770213 234.005362 
L 223.797799 237.997746 
L 224.825384 243.199283 
L 225.852969 250.124458 
L 226.880554 259.447916 
L 228.935724 284.963502 
L 229.963309 293.131117 
L 230.990895 295.072172 
L 232.01848 295.392959 
L 235.101235 295.484076 
L 288.535663 295.488 
L 398.487273 295.488 
L 398.487273 295.488 
" style="fill:none;stroke:#0000ff;stroke-linecap:square;stroke-width:1.5;"/>
   </g>
   <g id="line2d_38">
    <path clip-path="url(#pa171626e26)" d="M 91.239315 203.89287 
L 141.590987 206.910836 
L 164.19786 208.068354 
L 177.556467 208.552278 
L 186.804733 208.690183 
L 193.997829 208.591764 
L 199.135755 208.341084 
L 204.273681 207.854718 
L 208.384021 207.207438 
L 211.466777 206.496468 
L 214.549532 205.500624 
L 216.604703 204.61179 
L 218.659873 203.468542 
L 220.715043 201.969128 
L 221.742628 201.039231 
L 222.770213 199.954929 
L 223.797799 198.684164 
L 224.825384 197.193725 
L 227.908139 191.853328 
L 228.935724 191.634458 
L 229.963309 194.771137 
L 230.990895 198.628827 
L 232.01848 200.836555 
L 233.046065 201.980896 
L 234.07365 202.612036 
L 235.101235 202.986639 
L 237.156405 203.380885 
L 240.239161 203.626707 
L 246.404672 203.785034 
L 261.818449 203.862408 
L 342.997675 203.888871 
L 398.487273 203.890378 
L 398.487273 203.890378 
" style="fill:none;stroke:#ffa500;stroke-linecap:square;stroke-width:1.5;"/>
   </g>
   <g id="patch_3">
    <path d="M 57.6 307.584 
L 57.6 41.472 
" style="fill:none;stroke:#000000;stroke-linecap:square;stroke-linejoin:miter;stroke-width:0.8;"/>
   </g>
   <g id="patch_4">
    <path d="M 414.72 307.584 
L 414.72 41.472 
" style="fill:none;stroke:#000000;stroke-linecap:square;stroke-linejoin:miter;stroke-width:0.8;"/>
   </g>
   <g id="patch_5">
    <path d="M 57.6 307.584 
L 414.72 307.584 
" style="fill:none;stroke:#000000;stroke-linecap:square;stroke-linejoin:miter;stroke-width:0.8;"/>
   </g>
   <g id="patch_6">
    <path d="M 57.6 41.472 
L 414.72 41.472 
" style="fill:none;stroke:#000000;stroke-linecap:square;stroke-linejoin:miter;stroke-width:0.8;"/>
   </g>
   <g id="legend_1">
    <g id="patch_7">
     <path d="M 341.340313 78.82825 
L 407.72 78.82825 
Q 409.72 78.82825 409.72 76.82825 
L 409.72 48.472 
Q 409.72 46.472 407.72 46.472 
L 341.340313 46.472 
Q 339.340313 46.472 339.340313 48.472 
L 339.340313 76.82825 
Q 339.340313 78.82825 341.340313 78.82825 
z
" style="fill:#ffffff;opacity:0.8;stroke:#cccccc;stroke-linejoin:miter;"/>
    </g>
    <g id="line2d_39">
     <path d="M 343.340313 54.570437 
L 363.340313 54.570437 
" style="fill:none;stroke:#0000ff;stroke-linecap:square;stroke-width:1.5;"/>
    </g>
    <g id="line2d_40"/>
    <g id="text_19">
     <!-- Prey -->
     <defs>
      <path d="M 32.171875 -5.078125 
Q 28.375 -14.84375 24.75 -17.8125 
Q 21.140625 -20.796875 15.09375 -20.796875 
L 7.90625 -20.796875 
L 7.90625 -13.28125 
L 13.1875 -13.28125 
Q 16.890625 -13.28125 18.9375 -11.515625 
Q 21 -9.765625 23.484375 -3.21875 
L 25.09375 0.875 
L 2.984375 54.6875 
L 12.5 54.6875 
L 29.59375 11.921875 
L 46.6875 54.6875 
L 56.203125 54.6875 
z
" id="DejaVuSans-79"/>
     </defs>
     <g transform="translate(371.340313 58.070437)scale(0.1 -0.1)">
      <use xlink:href="#DejaVuSans-50"/>
      <use x="60.287109" xlink:href="#DejaVuSans-72"/>
      <use x="101.369141" xlink:href="#DejaVuSans-65"/>
      <use x="162.892578" xlink:href="#DejaVuSans-79"/>
     </g>
    </g>
    <g id="line2d_41">
     <path d="M 343.340313 69.248562 
L 363.340313 69.248562 
" style="fill:none;stroke:#ffa500;stroke-linecap:square;stroke-width:1.5;"/>
    </g>
    <g id="line2d_42"/>
    <g id="text_20">
     <!-- Hunter -->
     <defs>
      <path d="M 9.8125 72.90625 
L 19.671875 72.90625 
L 19.671875 43.015625 
L 55.515625 43.015625 
L 55.515625 72.90625 
L 65.375 72.90625 
L 65.375 0 
L 55.515625 0 
L 55.515625 34.71875 
L 19.671875 34.71875 
L 19.671875 0 
L 9.8125 0 
z
" id="DejaVuSans-48"/>
      <path d="M 8.5 21.578125 
L 8.5 54.6875 
L 17.484375 54.6875 
L 17.484375 21.921875 
Q 17.484375 14.15625 20.5 10.265625 
Q 23.53125 6.390625 29.59375 6.390625 
Q 36.859375 6.390625 41.078125 11.03125 
Q 45.3125 15.671875 45.3125 23.6875 
L 45.3125 54.6875 
L 54.296875 54.6875 
L 54.296875 0 
L 45.3125 0 
L 45.3125 8.40625 
Q 42.046875 3.421875 37.71875 1 
Q 33.40625 -1.421875 27.6875 -1.421875 
Q 18.265625 -1.421875 13.375 4.4375 
Q 8.5 10.296875 8.5 21.578125 
z
M 31.109375 56 
z
" id="DejaVuSans-75"/>
      <path d="M 54.890625 33.015625 
L 54.890625 0 
L 45.90625 0 
L 45.90625 32.71875 
Q 45.90625 40.484375 42.875 44.328125 
Q 39.84375 48.1875 33.796875 48.1875 
Q 26.515625 48.1875 22.3125 43.546875 
Q 18.109375 38.921875 18.109375 30.90625 
L 18.109375 0 
L 9.078125 0 
L 9.078125 54.6875 
L 18.109375 54.6875 
L 18.109375 46.1875 
Q 21.34375 51.125 25.703125 53.5625 
Q 30.078125 56 35.796875 56 
Q 45.21875 56 50.046875 50.171875 
Q 54.890625 44.34375 54.890625 33.015625 
z
" id="DejaVuSans-6e"/>
     </defs>
     <g transform="translate(371.340313 72.748562)scale(0.1 -0.1)">
      <use xlink:href="#DejaVuSans-48"/>
      <use x="75.195312" xlink:href="#DejaVuSans-75"/>
      <use x="138.574219" xlink:href="#DejaVuSans-6e"/>
      <use x="201.953125" xlink:href="#DejaVuSans-74"/>
      <use x="241.162109" xlink:href="#DejaVuSans-65"/>
      <use x="302.685547" xlink:href="#DejaVuSans-72"/>
     </g>
    </g>
   </g>
  </g>
 </g>
 <defs>
  <clipPath id="pa171626e26">
   <rect height="266.112" width="357.12" x="57.6" y="41.472"/>
  </clipPath>
 </defs>
</svg>
