<?xml version="1.0" encoding="utf-8" standalone="no"?>
<!DOCTYPE svg PUBLIC "-//W3C//DTD SVG 1.1//EN"
  "http://www.w3.org/Graphics/SVG/1.1/DTD/svg11.dtd">
<!-- Created with matplotlib (http://matplotlib.org/) -->
<svg height="345.6pt" version="1.1" viewBox="0 0 460.8 345.6" width="460.8pt" xmlns="http://www.w3.org/2000/svg" xmlns:xlink="http://www.w3.org/1999/xlink">
 <defs>
  <style type="text/css">
*{stroke-linecap:butt;stroke-linejoin:round;}
  </style>
 </defs>
 <g id="figure_1">
  <g id="patch_1">
   <path d="M 0 345.6 
L 460.8 345.6 
L 460.8 0 
L 0 0 
z
" style="fill:#ffffff;"/>
  </g>
  <g id="axes_1">
   <g id="patch_2">
    <path d="M 57.6 307.584 
L 414.72 307.584 
L 414.72 41.472 
L 57.6 41.472 
z
" style="fill:#ffffff;"/>
   </g>
   <g id="PathCollection_1">
    <defs>
     <path d="M 0 3 
C 0.795609 3 1.55874 2.683901 2.12132 2.12132 
C 2.683901 1.55874 3 0.795609 3 0 
C 3 -0.795609 2.683901 -1.55874 2.12132 -2.12132 
C 1.55874 -2.683901 0.795609 -3 0 -3 
C -0.795609 -3 -1.55874 -2.683901 -2.12132 -2.12132 
C -2.683901 -1.55874 -3 -0.795609 -3 0 
C -3 0.795609 -2.683901 1.55874 -2.12132 2.12132 
C -1.55874 2.683901 -0.795609 3 0 3 
z
" id="ma3cc3ed53e" style="stroke:#008000;"/>
    </defs>
    <g clip-path="url(#p39b5a4235f)">
     <use style="fill:#008000;stroke:#008000;" x="75.876917" xlink:href="#ma3cc3ed53e" y="235.212929"/>
     <use style="fill:#008000;stroke:#008000;" x="75.876917" xlink:href="#ma3cc3ed53e" y="54.387684"/>
    </g>
   </g>
   <g id="matplotlib.axis_1">
    <g id="xtick_1">
     <g id="line2d_1">
      <defs>
       <path d="M 0 0 
L 0 3.5 
" id="md28a0526b4" style="stroke:#000000;stroke-width:0.8;"/>
      </defs>
      <g>
       <use style="stroke:#000000;stroke-width:0.8;" x="70.756118" xlink:href="#md28a0526b4" y="307.584"/>
      </g>
     </g>
     <g id="text_1">
      <!-- 2 -->
      <defs>
       <path d="M 19.1875 8.296875 
L 53.609375 8.296875 
L 53.609375 0 
L 7.328125 0 
L 7.328125 8.296875 
Q 12.9375 14.109375 22.625 23.890625 
Q 32.328125 33.6875 34.8125 36.53125 
Q 39.546875 41.84375 41.421875 45.53125 
Q 43.3125 49.21875 43.3125 52.78125 
Q 43.3125 58.59375 39.234375 62.25 
Q 35.15625 65.921875 28.609375 65.921875 
Q 23.96875 65.921875 18.8125 64.3125 
Q 13.671875 62.703125 7.8125 59.421875 
L 7.8125 69.390625 
Q 13.765625 71.78125 18.9375 73 
Q 24.125 74.21875 28.421875 74.21875 
Q 39.75 74.21875 46.484375 68.546875 
Q 53.21875 62.890625 53.21875 53.421875 
Q 53.21875 48.921875 51.53125 44.890625 
Q 49.859375 40.875 45.40625 35.40625 
Q 44.1875 33.984375 37.640625 27.21875 
Q 31.109375 20.453125 19.1875 8.296875 
z
" id="DejaVuSans-32"/>
      </defs>
      <g transform="translate(67.574868 322.182437)scale(0.1 -0.1)">
       <use xlink:href="#DejaVuSans-32"/>
      </g>
     </g>
    </g>
    <g id="xtick_2">
     <g id="line2d_2">
      <g>
       <use style="stroke:#000000;stroke-width:0.8;" x="111.722512" xlink:href="#md28a0526b4" y="307.584"/>
      </g>
     </g>
     <g id="text_2">
      <!-- 3 -->
      <defs>
       <path d="M 40.578125 39.3125 
Q 47.65625 37.796875 51.625 33 
Q 55.609375 28.21875 55.609375 21.1875 
Q 55.609375 10.40625 48.1875 4.484375 
Q 40.765625 -1.421875 27.09375 -1.421875 
Q 22.515625 -1.421875 17.65625 -0.515625 
Q 12.796875 0.390625 7.625 2.203125 
L 7.625 11.71875 
Q 11.71875 9.328125 16.59375 8.109375 
Q 21.484375 6.890625 26.8125 6.890625 
Q 36.078125 6.890625 40.9375 10.546875 
Q 45.796875 14.203125 45.796875 21.1875 
Q 45.796875 27.640625 41.28125 31.265625 
Q 36.765625 34.90625 28.71875 34.90625 
L 20.21875 34.90625 
L 20.21875 43.015625 
L 29.109375 43.015625 
Q 36.375 43.015625 40.234375 45.921875 
Q 44.09375 48.828125 44.09375 54.296875 
Q 44.09375 59.90625 40.109375 62.90625 
Q 36.140625 65.921875 28.71875 65.921875 
Q 24.65625 65.921875 20.015625 65.03125 
Q 15.375 64.15625 9.8125 62.3125 
L 9.8125 71.09375 
Q 15.4375 72.65625 20.34375 73.4375 
Q 25.25 74.21875 29.59375 74.21875 
Q 40.828125 74.21875 47.359375 69.109375 
Q 53.90625 64.015625 53.90625 55.328125 
Q 53.90625 49.265625 50.4375 45.09375 
Q 46.96875 40.921875 40.578125 39.3125 
z
" id="DejaVuSans-33"/>
      </defs>
      <g transform="translate(108.541262 322.182437)scale(0.1 -0.1)">
       <use xlink:href="#DejaVuSans-33"/>
      </g>
     </g>
    </g>
    <g id="xtick_3">
     <g id="line2d_3">
      <g>
       <use style="stroke:#000000;stroke-width:0.8;" x="152.688907" xlink:href="#md28a0526b4" y="307.584"/>
      </g>
     </g>
     <g id="text_3">
      <!-- 4 -->
      <defs>
       <path d="M 37.796875 64.3125 
L 12.890625 25.390625 
L 37.796875 25.390625 
z
M 35.203125 72.90625 
L 47.609375 72.90625 
L 47.609375 25.390625 
L 58.015625 25.390625 
L 58.015625 17.1875 
L 47.609375 17.1875 
L 47.609375 0 
L 37.796875 0 
L 37.796875 17.1875 
L 4.890625 17.1875 
L 4.890625 26.703125 
z
" id="DejaVuSans-34"/>
      </defs>
      <g transform="translate(149.507657 322.182437)scale(0.1 -0.1)">
       <use xlink:href="#DejaVuSans-34"/>
      </g>
     </g>
    </g>
    <g id="xtick_4">
     <g id="line2d_4">
      <g>
       <use style="stroke:#000000;stroke-width:0.8;" x="193.655301" xlink:href="#md28a0526b4" y="307.584"/>
      </g>
     </g>
     <g id="text_4">
      <!-- 5 -->
      <defs>
       <path d="M 10.796875 72.90625 
L 49.515625 72.90625 
L 49.515625 64.59375 
L 19.828125 64.59375 
L 19.828125 46.734375 
Q 21.96875 47.46875 24.109375 47.828125 
Q 26.265625 48.1875 28.421875 48.1875 
Q 40.625 48.1875 47.75 41.5 
Q 54.890625 34.8125 54.890625 23.390625 
Q 54.890625 11.625 47.5625 5.09375 
Q 40.234375 -1.421875 26.90625 -1.421875 
Q 22.3125 -1.421875 17.546875 -0.640625 
Q 12.796875 0.140625 7.71875 1.703125 
L 7.71875 11.625 
Q 12.109375 9.234375 16.796875 8.0625 
Q 21.484375 6.890625 26.703125 6.890625 
Q 35.15625 6.890625 40.078125 11.328125 
Q 45.015625 15.765625 45.015625 23.390625 
Q 45.015625 31 40.078125 35.4375 
Q 35.15625 39.890625 26.703125 39.890625 
Q 22.75 39.890625 18.8125 39.015625 
Q 14.890625 38.140625 10.796875 36.28125 
z
" id="DejaVuSans-35"/>
      </defs>
      <g transform="translate(190.474051 322.182437)scale(0.1 -0.1)">
       <use xlink:href="#DejaVuSans-35"/>
      </g>
     </g>
    </g>
    <g id="xtick_5">
     <g id="line2d_5">
      <g>
       <use style="stroke:#000000;stroke-width:0.8;" x="234.621695" xlink:href="#md28a0526b4" y="307.584"/>
      </g>
     </g>
     <g id="text_5">
      <!-- 6 -->
      <defs>
       <path d="M 33.015625 40.375 
Q 26.375 40.375 22.484375 35.828125 
Q 18.609375 31.296875 18.609375 23.390625 
Q 18.609375 15.53125 22.484375 10.953125 
Q 26.375 6.390625 33.015625 6.390625 
Q 39.65625 6.390625 43.53125 10.953125 
Q 47.40625 15.53125 47.40625 23.390625 
Q 47.40625 31.296875 43.53125 35.828125 
Q 39.65625 40.375 33.015625 40.375 
z
M 52.59375 71.296875 
L 52.59375 62.3125 
Q 48.875 64.0625 45.09375 64.984375 
Q 41.3125 65.921875 37.59375 65.921875 
Q 27.828125 65.921875 22.671875 59.328125 
Q 17.53125 52.734375 16.796875 39.40625 
Q 19.671875 43.65625 24.015625 45.921875 
Q 28.375 48.1875 33.59375 48.1875 
Q 44.578125 48.1875 50.953125 41.515625 
Q 57.328125 34.859375 57.328125 23.390625 
Q 57.328125 12.15625 50.6875 5.359375 
Q 44.046875 -1.421875 33.015625 -1.421875 
Q 20.359375 -1.421875 13.671875 8.265625 
Q 6.984375 17.96875 6.984375 36.375 
Q 6.984375 53.65625 15.1875 63.9375 
Q 23.390625 74.21875 37.203125 74.21875 
Q 40.921875 74.21875 44.703125 73.484375 
Q 48.484375 72.75 52.59375 71.296875 
z
" id="DejaVuSans-36"/>
      </defs>
      <g transform="translate(231.440445 322.182437)scale(0.1 -0.1)">
       <use xlink:href="#DejaVuSans-36"/>
      </g>
     </g>
    </g>
    <g id="xtick_6">
     <g id="line2d_6">
      <g>
       <use style="stroke:#000000;stroke-width:0.8;" x="275.58809" xlink:href="#md28a0526b4" y="307.584"/>
      </g>
     </g>
     <g id="text_6">
      <!-- 7 -->
      <defs>
       <path d="M 8.203125 72.90625 
L 55.078125 72.90625 
L 55.078125 68.703125 
L 28.609375 0 
L 18.3125 0 
L 43.21875 64.59375 
L 8.203125 64.59375 
z
" id="DejaVuSans-37"/>
      </defs>
      <g transform="translate(272.40684 322.182437)scale(0.1 -0.1)">
       <use xlink:href="#DejaVuSans-37"/>
      </g>
     </g>
    </g>
    <g id="xtick_7">
     <g id="line2d_7">
      <g>
       <use style="stroke:#000000;stroke-width:0.8;" x="316.554484" xlink:href="#md28a0526b4" y="307.584"/>
      </g>
     </g>
     <g id="text_7">
      <!-- 8 -->
      <defs>
       <path d="M 31.78125 34.625 
Q 24.75 34.625 20.71875 30.859375 
Q 16.703125 27.09375 16.703125 20.515625 
Q 16.703125 13.921875 20.71875 10.15625 
Q 24.75 6.390625 31.78125 6.390625 
Q 38.8125 6.390625 42.859375 10.171875 
Q 46.921875 13.96875 46.921875 20.515625 
Q 46.921875 27.09375 42.890625 30.859375 
Q 38.875 34.625 31.78125 34.625 
z
M 21.921875 38.8125 
Q 15.578125 40.375 12.03125 44.71875 
Q 8.5 49.078125 8.5 55.328125 
Q 8.5 64.0625 14.71875 69.140625 
Q 20.953125 74.21875 31.78125 74.21875 
Q 42.671875 74.21875 48.875 69.140625 
Q 55.078125 64.0625 55.078125 55.328125 
Q 55.078125 49.078125 51.53125 44.71875 
Q 48 40.375 41.703125 38.8125 
Q 48.828125 37.15625 52.796875 32.3125 
Q 56.78125 27.484375 56.78125 20.515625 
Q 56.78125 9.90625 50.3125 4.234375 
Q 43.84375 -1.421875 31.78125 -1.421875 
Q 19.734375 -1.421875 13.25 4.234375 
Q 6.78125 9.90625 6.78125 20.515625 
Q 6.78125 27.484375 10.78125 32.3125 
Q 14.796875 37.15625 21.921875 38.8125 
z
M 18.3125 54.390625 
Q 18.3125 48.734375 21.84375 45.5625 
Q 25.390625 42.390625 31.78125 42.390625 
Q 38.140625 42.390625 41.71875 45.5625 
Q 45.3125 48.734375 45.3125 54.390625 
Q 45.3125 60.0625 41.71875 63.234375 
Q 38.140625 66.40625 31.78125 66.40625 
Q 25.390625 66.40625 21.84375 63.234375 
Q 18.3125 60.0625 18.3125 54.390625 
z
" id="DejaVuSans-38"/>
      </defs>
      <g transform="translate(313.373234 322.182437)scale(0.1 -0.1)">
       <use xlink:href="#DejaVuSans-38"/>
      </g>
     </g>
    </g>
    <g id="xtick_8">
     <g id="line2d_8">
      <g>
       <use style="stroke:#000000;stroke-width:0.8;" x="357.520878" xlink:href="#md28a0526b4" y="307.584"/>
      </g>
     </g>
     <g id="text_8">
      <!-- 9 -->
      <defs>
       <path d="M 10.984375 1.515625 
L 10.984375 10.5 
Q 14.703125 8.734375 18.5 7.8125 
Q 22.3125 6.890625 25.984375 6.890625 
Q 35.75 6.890625 40.890625 13.453125 
Q 46.046875 20.015625 46.78125 33.40625 
Q 43.953125 29.203125 39.59375 26.953125 
Q 35.25 24.703125 29.984375 24.703125 
Q 19.046875 24.703125 12.671875 31.3125 
Q 6.296875 37.9375 6.296875 49.421875 
Q 6.296875 60.640625 12.9375 67.421875 
Q 19.578125 74.21875 30.609375 74.21875 
Q 43.265625 74.21875 49.921875 64.515625 
Q 56.59375 54.828125 56.59375 36.375 
Q 56.59375 19.140625 48.40625 8.859375 
Q 40.234375 -1.421875 26.421875 -1.421875 
Q 22.703125 -1.421875 18.890625 -0.6875 
Q 15.09375 0.046875 10.984375 1.515625 
z
M 30.609375 32.421875 
Q 37.25 32.421875 41.125 36.953125 
Q 45.015625 41.5 45.015625 49.421875 
Q 45.015625 57.28125 41.125 61.84375 
Q 37.25 66.40625 30.609375 66.40625 
Q 23.96875 66.40625 20.09375 61.84375 
Q 16.21875 57.28125 16.21875 49.421875 
Q 16.21875 41.5 20.09375 36.953125 
Q 23.96875 32.421875 30.609375 32.421875 
z
" id="DejaVuSans-39"/>
      </defs>
      <g transform="translate(354.339628 322.182437)scale(0.1 -0.1)">
       <use xlink:href="#DejaVuSans-39"/>
      </g>
     </g>
    </g>
    <g id="xtick_9">
     <g id="line2d_9">
      <g>
       <use style="stroke:#000000;stroke-width:0.8;" x="398.487273" xlink:href="#md28a0526b4" y="307.584"/>
      </g>
     </g>
     <g id="text_9">
      <!-- 10 -->
      <defs>
       <path d="M 12.40625 8.296875 
L 28.515625 8.296875 
L 28.515625 63.921875 
L 10.984375 60.40625 
L 10.984375 69.390625 
L 28.421875 72.90625 
L 38.28125 72.90625 
L 38.28125 8.296875 
L 54.390625 8.296875 
L 54.390625 0 
L 12.40625 0 
z
" id="DejaVuSans-31"/>
       <path d="M 31.78125 66.40625 
Q 24.171875 66.40625 20.328125 58.90625 
Q 16.5 51.421875 16.5 36.375 
Q 16.5 21.390625 20.328125 13.890625 
Q 24.171875 6.390625 31.78125 6.390625 
Q 39.453125 6.390625 43.28125 13.890625 
Q 47.125 21.390625 47.125 36.375 
Q 47.125 51.421875 43.28125 58.90625 
Q 39.453125 66.40625 31.78125 66.40625 
z
M 31.78125 74.21875 
Q 44.046875 74.21875 50.515625 64.515625 
Q 56.984375 54.828125 56.984375 36.375 
Q 56.984375 17.96875 50.515625 8.265625 
Q 44.046875 -1.421875 31.78125 -1.421875 
Q 19.53125 -1.421875 13.0625 8.265625 
Q 6.59375 17.96875 6.59375 36.375 
Q 6.59375 54.828125 13.0625 64.515625 
Q 19.53125 74.21875 31.78125 74.21875 
z
" id="DejaVuSans-30"/>
      </defs>
      <g transform="translate(392.124773 322.182437)scale(0.1 -0.1)">
       <use xlink:href="#DejaVuSans-31"/>
       <use x="63.623047" xlink:href="#DejaVuSans-30"/>
      </g>
     </g>
    </g>
    <g id="text_10">
     <!-- Parameter -->
     <defs>
      <path d="M 19.671875 64.796875 
L 19.671875 37.40625 
L 32.078125 37.40625 
Q 38.96875 37.40625 42.71875 40.96875 
Q 46.484375 44.53125 46.484375 51.125 
Q 46.484375 57.671875 42.71875 61.234375 
Q 38.96875 64.796875 32.078125 64.796875 
z
M 9.8125 72.90625 
L 32.078125 72.90625 
Q 44.34375 72.90625 50.609375 67.359375 
Q 56.890625 61.8125 56.890625 51.125 
Q 56.890625 40.328125 50.609375 34.8125 
Q 44.34375 29.296875 32.078125 29.296875 
L 19.671875 29.296875 
L 19.671875 0 
L 9.8125 0 
z
" id="DejaVuSans-50"/>
      <path d="M 34.28125 27.484375 
Q 23.390625 27.484375 19.1875 25 
Q 14.984375 22.515625 14.984375 16.5 
Q 14.984375 11.71875 18.140625 8.90625 
Q 21.296875 6.109375 26.703125 6.109375 
Q 34.1875 6.109375 38.703125 11.40625 
Q 43.21875 16.703125 43.21875 25.484375 
L 43.21875 27.484375 
z
M 52.203125 31.203125 
L 52.203125 0 
L 43.21875 0 
L 43.21875 8.296875 
Q 40.140625 3.328125 35.546875 0.953125 
Q 30.953125 -1.421875 24.3125 -1.421875 
Q 15.921875 -1.421875 10.953125 3.296875 
Q 6 8.015625 6 15.921875 
Q 6 25.140625 12.171875 29.828125 
Q 18.359375 34.515625 30.609375 34.515625 
L 43.21875 34.515625 
L 43.21875 35.40625 
Q 43.21875 41.609375 39.140625 45 
Q 35.0625 48.390625 27.6875 48.390625 
Q 23 48.390625 18.546875 47.265625 
Q 14.109375 46.140625 10.015625 43.890625 
L 10.015625 52.203125 
Q 14.9375 54.109375 19.578125 55.046875 
Q 24.21875 56 28.609375 56 
Q 40.484375 56 46.34375 49.84375 
Q 52.203125 43.703125 52.203125 31.203125 
z
" id="DejaVuSans-61"/>
      <path d="M 41.109375 46.296875 
Q 39.59375 47.171875 37.8125 47.578125 
Q 36.03125 48 33.890625 48 
Q 26.265625 48 22.1875 43.046875 
Q 18.109375 38.09375 18.109375 28.8125 
L 18.109375 0 
L 9.078125 0 
L 9.078125 54.6875 
L 18.109375 54.6875 
L 18.109375 46.1875 
Q 20.953125 51.171875 25.484375 53.578125 
Q 30.03125 56 36.53125 56 
Q 37.453125 56 38.578125 55.875 
Q 39.703125 55.765625 41.0625 55.515625 
z
" id="DejaVuSans-72"/>
      <path d="M 52 44.1875 
Q 55.375 50.25 60.0625 53.125 
Q 64.75 56 71.09375 56 
Q 79.640625 56 84.28125 50.015625 
Q 88.921875 44.046875 88.921875 33.015625 
L 88.921875 0 
L 79.890625 0 
L 79.890625 32.71875 
Q 79.890625 40.578125 77.09375 44.375 
Q 74.3125 48.1875 68.609375 48.1875 
Q 61.625 48.1875 57.5625 43.546875 
Q 53.515625 38.921875 53.515625 30.90625 
L 53.515625 0 
L 44.484375 0 
L 44.484375 32.71875 
Q 44.484375 40.625 41.703125 44.40625 
Q 38.921875 48.1875 33.109375 48.1875 
Q 26.21875 48.1875 22.15625 43.53125 
Q 18.109375 38.875 18.109375 30.90625 
L 18.109375 0 
L 9.078125 0 
L 9.078125 54.6875 
L 18.109375 54.6875 
L 18.109375 46.1875 
Q 21.1875 51.21875 25.484375 53.609375 
Q 29.78125 56 35.6875 56 
Q 41.65625 56 45.828125 52.96875 
Q 50 49.953125 52 44.1875 
z
" id="DejaVuSans-6d"/>
      <path d="M 56.203125 29.59375 
L 56.203125 25.203125 
L 14.890625 25.203125 
Q 15.484375 15.921875 20.484375 11.0625 
Q 25.484375 6.203125 34.421875 6.203125 
Q 39.59375 6.203125 44.453125 7.46875 
Q 49.3125 8.734375 54.109375 11.28125 
L 54.109375 2.78125 
Q 49.265625 0.734375 44.1875 -0.34375 
Q 39.109375 -1.421875 33.890625 -1.421875 
Q 20.796875 -1.421875 13.15625 6.1875 
Q 5.515625 13.8125 5.515625 26.8125 
Q 5.515625 40.234375 12.765625 48.109375 
Q 20.015625 56 32.328125 56 
Q 43.359375 56 49.78125 48.890625 
Q 56.203125 41.796875 56.203125 29.59375 
z
M 47.21875 32.234375 
Q 47.125 39.59375 43.09375 43.984375 
Q 39.0625 48.390625 32.421875 48.390625 
Q 24.90625 48.390625 20.390625 44.140625 
Q 15.875 39.890625 15.1875 32.171875 
z
" id="DejaVuSans-65"/>
      <path d="M 18.3125 70.21875 
L 18.3125 54.6875 
L 36.8125 54.6875 
L 36.8125 47.703125 
L 18.3125 47.703125 
L 18.3125 18.015625 
Q 18.3125 11.328125 20.140625 9.421875 
Q 21.96875 7.515625 27.59375 7.515625 
L 36.8125 7.515625 
L 36.8125 0 
L 27.59375 0 
Q 17.1875 0 13.234375 3.875 
Q 9.28125 7.765625 9.28125 18.015625 
L 9.28125 47.703125 
L 2.6875 47.703125 
L 2.6875 54.6875 
L 9.28125 54.6875 
L 9.28125 70.21875 
z
" id="DejaVuSans-74"/>
     </defs>
     <g transform="translate(209.925625 335.860562)scale(0.1 -0.1)">
      <use xlink:href="#DejaVuSans-50"/>
      <use x="60.240234" xlink:href="#DejaVuSans-61"/>
      <use x="121.519531" xlink:href="#DejaVuSans-72"/>
      <use x="162.632812" xlink:href="#DejaVuSans-61"/>
      <use x="223.912109" xlink:href="#DejaVuSans-6d"/>
      <use x="321.324219" xlink:href="#DejaVuSans-65"/>
      <use x="382.847656" xlink:href="#DejaVuSans-74"/>
      <use x="422.056641" xlink:href="#DejaVuSans-65"/>
      <use x="483.580078" xlink:href="#DejaVuSans-72"/>
     </g>
    </g>
   </g>
   <g id="matplotlib.axis_2">
    <g id="ytick_1">
     <g id="line2d_10">
      <defs>
       <path d="M 0 0 
L -3.5 0 
" id="ma443104792" style="stroke:#000000;stroke-width:0.8;"/>
      </defs>
      <g>
       <use style="stroke:#000000;stroke-width:0.8;" x="57.6" xlink:href="#ma443104792" y="295.48801"/>
      </g>
     </g>
     <g id="text_11">
      <!-- 0.0 -->
      <defs>
       <path d="M 10.6875 12.40625 
L 21 12.40625 
L 21 0 
L 10.6875 0 
z
" id="DejaVuSans-2e"/>
      </defs>
      <g transform="translate(34.696875 299.287229)scale(0.1 -0.1)">
       <use xlink:href="#DejaVuSans-30"/>
       <use x="63.623047" xlink:href="#DejaVuSans-2e"/>
       <use x="95.410156" xlink:href="#DejaVuSans-30"/>
      </g>
     </g>
    </g>
    <g id="ytick_2">
     <g id="line2d_11">
      <g>
       <use style="stroke:#000000;stroke-width:0.8;" x="57.6" xlink:href="#ma443104792" y="265.35047"/>
      </g>
     </g>
     <g id="text_12">
      <!-- 2.5 -->
      <g transform="translate(34.696875 269.149688)scale(0.1 -0.1)">
       <use xlink:href="#DejaVuSans-32"/>
       <use x="63.623047" xlink:href="#DejaVuSans-2e"/>
       <use x="95.410156" xlink:href="#DejaVuSans-35"/>
      </g>
     </g>
    </g>
    <g id="ytick_3">
     <g id="line2d_12">
      <g>
       <use style="stroke:#000000;stroke-width:0.8;" x="57.6" xlink:href="#ma443104792" y="235.212929"/>
      </g>
     </g>
     <g id="text_13">
      <!-- 5.0 -->
      <g transform="translate(34.696875 239.012147)scale(0.1 -0.1)">
       <use xlink:href="#DejaVuSans-35"/>
       <use x="63.623047" xlink:href="#DejaVuSans-2e"/>
       <use x="95.410156" xlink:href="#DejaVuSans-30"/>
      </g>
     </g>
    </g>
    <g id="ytick_4">
     <g id="line2d_13">
      <g>
       <use style="stroke:#000000;stroke-width:0.8;" x="57.6" xlink:href="#ma443104792" y="205.075388"/>
      </g>
     </g>
     <g id="text_14">
      <!-- 7.5 -->
      <g transform="translate(34.696875 208.874607)scale(0.1 -0.1)">
       <use xlink:href="#DejaVuSans-37"/>
       <use x="63.623047" xlink:href="#DejaVuSans-2e"/>
       <use x="95.410156" xlink:href="#DejaVuSans-35"/>
      </g>
     </g>
    </g>
    <g id="ytick_5">
     <g id="line2d_14">
      <g>
       <use style="stroke:#000000;stroke-width:0.8;" x="57.6" xlink:href="#ma443104792" y="174.937847"/>
      </g>
     </g>
     <g id="text_15">
      <!-- 10.0 -->
      <g transform="translate(28.334375 178.737066)scale(0.1 -0.1)">
       <use xlink:href="#DejaVuSans-31"/>
       <use x="63.623047" xlink:href="#DejaVuSans-30"/>
       <use x="127.246094" xlink:href="#DejaVuSans-2e"/>
       <use x="159.033203" xlink:href="#DejaVuSans-30"/>
      </g>
     </g>
    </g>
    <g id="ytick_6">
     <g id="line2d_15">
      <g>
       <use style="stroke:#000000;stroke-width:0.8;" x="57.6" xlink:href="#ma443104792" y="144.800306"/>
      </g>
     </g>
     <g id="text_16">
      <!-- 12.5 -->
      <g transform="translate(28.334375 148.599525)scale(0.1 -0.1)">
       <use xlink:href="#DejaVuSans-31"/>
       <use x="63.623047" xlink:href="#DejaVuSans-32"/>
       <use x="127.246094" xlink:href="#DejaVuSans-2e"/>
       <use x="159.033203" xlink:href="#DejaVuSans-35"/>
      </g>
     </g>
    </g>
    <g id="ytick_7">
     <g id="line2d_16">
      <g>
       <use style="stroke:#000000;stroke-width:0.8;" x="57.6" xlink:href="#ma443104792" y="114.662766"/>
      </g>
     </g>
     <g id="text_17">
      <!-- 15.0 -->
      <g transform="translate(28.334375 118.461984)scale(0.1 -0.1)">
       <use xlink:href="#DejaVuSans-31"/>
       <use x="63.623047" xlink:href="#DejaVuSans-35"/>
       <use x="127.246094" xlink:href="#DejaVuSans-2e"/>
       <use x="159.033203" xlink:href="#DejaVuSans-30"/>
      </g>
     </g>
    </g>
    <g id="ytick_8">
     <g id="line2d_17">
      <g>
       <use style="stroke:#000000;stroke-width:0.8;" x="57.6" xlink:href="#ma443104792" y="84.525225"/>
      </g>
     </g>
     <g id="text_18">
      <!-- 17.5 -->
      <g transform="translate(28.334375 88.324444)scale(0.1 -0.1)">
       <use xlink:href="#DejaVuSans-31"/>
       <use x="63.623047" xlink:href="#DejaVuSans-37"/>
       <use x="127.246094" xlink:href="#DejaVuSans-2e"/>
       <use x="159.033203" xlink:href="#DejaVuSans-35"/>
      </g>
     </g>
    </g>
    <g id="ytick_9">
     <g id="line2d_18">
      <g>
       <use style="stroke:#000000;stroke-width:0.8;" x="57.6" xlink:href="#ma443104792" y="54.387684"/>
      </g>
     </g>
     <g id="text_19">
      <!-- 20.0 -->
      <g transform="translate(28.334375 58.186903)scale(0.1 -0.1)">
       <use xlink:href="#DejaVuSans-32"/>
       <use x="63.623047" xlink:href="#DejaVuSans-30"/>
       <use x="127.246094" xlink:href="#DejaVuSans-2e"/>
       <use x="159.033203" xlink:href="#DejaVuSans-30"/>
      </g>
     </g>
    </g>
    <g id="text_20">
     <!-- Mass -->
     <defs>
      <path d="M 9.8125 72.90625 
L 24.515625 72.90625 
L 43.109375 23.296875 
L 61.8125 72.90625 
L 76.515625 72.90625 
L 76.515625 0 
L 66.890625 0 
L 66.890625 64.015625 
L 48.09375 14.015625 
L 38.1875 14.015625 
L 19.390625 64.015625 
L 19.390625 0 
L 9.8125 0 
z
" id="DejaVuSans-4d"/>
      <path d="M 44.28125 53.078125 
L 44.28125 44.578125 
Q 40.484375 46.53125 36.375 47.5 
Q 32.28125 48.484375 27.875 48.484375 
Q 21.1875 48.484375 17.84375 46.4375 
Q 14.5 44.390625 14.5 40.28125 
Q 14.5 37.15625 16.890625 35.375 
Q 19.28125 33.59375 26.515625 31.984375 
L 29.59375 31.296875 
Q 39.15625 29.25 43.1875 25.515625 
Q 47.21875 21.78125 47.21875 15.09375 
Q 47.21875 7.46875 41.1875 3.015625 
Q 35.15625 -1.421875 24.609375 -1.421875 
Q 20.21875 -1.421875 15.453125 -0.5625 
Q 10.6875 0.296875 5.421875 2 
L 5.421875 11.28125 
Q 10.40625 8.6875 15.234375 7.390625 
Q 20.0625 6.109375 24.8125 6.109375 
Q 31.15625 6.109375 34.5625 8.28125 
Q 37.984375 10.453125 37.984375 14.40625 
Q 37.984375 18.0625 35.515625 20.015625 
Q 33.0625 21.96875 24.703125 23.78125 
L 21.578125 24.515625 
Q 13.234375 26.265625 9.515625 29.90625 
Q 5.8125 33.546875 5.8125 39.890625 
Q 5.8125 47.609375 11.28125 51.796875 
Q 16.75 56 26.8125 56 
Q 31.78125 56 36.171875 55.265625 
Q 40.578125 54.546875 44.28125 53.078125 
z
" id="DejaVuSans-73"/>
     </defs>
     <g transform="translate(22.254688 187.1155)rotate(-90)scale(0.1 -0.1)">
      <use xlink:href="#DejaVuSans-4d"/>
      <use x="86.279297" xlink:href="#DejaVuSans-61"/>
      <use x="147.558594" xlink:href="#DejaVuSans-73"/>
      <use x="199.658203" xlink:href="#DejaVuSans-73"/>
     </g>
    </g>
   </g>
   <g id="line2d_19">
    <path clip-path="url(#p39b5a4235f)" d="M 91.239315 274.339282 
L 145.701328 263.162381 
L 176.528882 256.619939 
L 201.190925 251.164521 
L 220.715043 246.631817 
L 237.156405 242.604329 
L 251.542597 238.859993 
L 263.873619 235.42473 
L 274.149471 232.344554 
L 283.397737 229.343936 
L 291.618418 226.433954 
L 298.811514 223.64105 
L 304.977025 221.014103 
L 311.142536 218.129111 
L 317.308046 214.980698 
L 324.501142 211.244517 
L 327.583898 209.936242 
L 329.639068 209.356956 
L 331.694238 209.157021 
L 332.721824 209.234567 
L 333.749409 209.437931 
L 335.804579 210.178026 
L 341.97009 212.965096 
L 344.02526 213.525725 
L 346.08043 213.866716 
L 348.135601 214.029546 
L 351.218356 214.026829 
L 355.328697 213.716844 
L 360.466622 213.041559 
L 367.659718 211.818731 
L 377.93557 209.818227 
L 396.432102 205.948086 
L 398.487273 205.50885 
L 398.487273 205.50885 
" style="fill:none;stroke:#000000;stroke-linecap:square;stroke-width:1.5;"/>
   </g>
   <g id="line2d_20">
    <path clip-path="url(#p39b5a4235f)" d="M 91.239315 274.287653 
L 133.370306 265.972416 
L 164.19786 260.106032 
L 187.832319 255.828827 
L 206.328851 252.693178 
L 221.742628 250.292125 
L 235.101235 248.436483 
L 246.404672 247.09822 
L 255.652938 246.223481 
L 263.873619 245.673632 
L 271.066715 245.429435 
L 277.232226 245.454576 
L 282.370152 245.691639 
L 286.480492 246.061286 
L 290.590833 246.63122 
L 294.701173 247.451195 
L 297.783929 248.269438 
L 300.866684 249.30152 
L 303.94944 250.593215 
L 307.032195 252.202467 
L 309.087365 253.487175 
L 311.142536 254.971361 
L 313.197706 256.685148 
L 315.252876 258.662595 
L 317.308046 260.940954 
L 319.363217 263.558471 
L 321.418387 266.54942 
L 323.473557 269.934169 
L 325.528728 273.70098 
L 328.611483 279.879337 
L 331.694238 286.013876 
L 333.749409 289.463975 
L 334.776994 290.859749 
L 335.804579 292.007749 
L 336.832164 292.914682 
L 337.859749 293.606381 
L 338.887334 294.119588 
L 340.942505 294.762443 
L 342.997675 295.094428 
L 346.08043 295.32075 
L 352.245941 295.450788 
L 371.770059 295.487066 
L 398.487273 295.487991 
L 398.487273 295.487991 
" style="fill:none;stroke:#000000;stroke-linecap:square;stroke-width:1.5;"/>
   </g>
   <g id="line2d_21">
    <path clip-path="url(#p39b5a4235f)" d="M 91.239315 274.38758 
L 134.397891 265.858816 
L 165.225445 259.985225 
L 188.859904 255.704537 
L 207.356436 252.569487 
L 222.770213 250.173212 
L 235.101235 248.459585 
L 246.404672 247.112633 
L 255.652938 246.23062 
L 263.873619 245.674217 
L 271.066715 245.424258 
L 277.232226 245.444484 
L 282.370152 245.677509 
L 286.480492 246.044 
L 290.590833 246.610885 
L 294.701173 247.427971 
L 297.783929 248.244198 
L 300.866684 249.274443 
L 303.94944 250.56454 
L 307.032195 252.172514 
L 309.087365 253.456601 
L 311.142536 254.940396 
L 313.197706 256.654073 
L 315.252876 258.63175 
L 317.308046 260.910749 
L 319.363217 263.529394 
L 321.418387 266.52204 
L 323.473557 269.909131 
L 325.528728 273.678967 
L 328.611483 279.863013 
L 331.694238 286.00384 
L 333.749409 289.457644 
L 334.776994 290.85493 
L 335.804579 292.004169 
L 336.832164 292.912073 
L 337.859749 293.604503 
L 338.887334 294.118245 
L 340.942505 294.761752 
L 342.997675 295.094061 
L 346.08043 295.320598 
L 352.245941 295.450754 
L 371.770059 295.487065 
L 398.487273 295.487991 
L 398.487273 295.487991 
" style="fill:none;stroke:#100e0d;stroke-linecap:square;stroke-width:1.5;"/>
   </g>
   <g id="line2d_22">
    <path clip-path="url(#p39b5a4235f)" d="M 91.239315 274.239756 
L 147.756498 262.655904 
L 178.584052 256.116284 
L 202.218511 250.890582 
L 221.742628 246.361029 
L 238.183991 242.332228 
L 252.570183 238.581122 
L 264.901204 235.132558 
L 275.177056 232.032167 
L 284.425322 229.001452 
L 291.618418 226.434248 
L 298.811514 223.62526 
L 304.977025 220.971898 
L 310.11495 218.549476 
L 315.252876 215.914852 
L 326.556313 209.872563 
L 328.611483 209.048626 
L 330.666653 208.521115 
L 331.694238 208.409467 
L 332.721824 208.416977 
L 333.749409 208.548589 
L 335.804579 209.146924 
L 341.97009 211.619764 
L 344.02526 212.118068 
L 346.08043 212.411012 
L 349.163186 212.547505 
L 352.245941 212.426504 
L 356.356282 212.011299 
L 361.494208 211.251599 
L 368.687304 209.952715 
L 379.99074 207.663366 
L 398.487273 203.683384 
L 398.487273 203.683384 
" style="fill:none;stroke:#100d0d;stroke-linecap:square;stroke-width:1.5;"/>
   </g>
   <g id="line2d_23">
    <path clip-path="url(#p39b5a4235f)" d="M 91.239315 274.340179 
L 146.728913 262.953774 
L 177.556467 256.409329 
L 202.218511 250.950576 
L 221.742628 246.41293 
L 238.183991 242.378185 
L 252.570183 238.623203 
L 264.901204 235.173148 
L 275.177056 232.073822 
L 284.425322 229.047247 
L 292.646003 226.103227 
L 299.839099 223.267825 
L 306.00461 220.591647 
L 312.170121 217.644899 
L 318.335632 214.435304 
L 324.501142 211.220683 
L 326.556313 210.307692 
L 328.611483 209.60636 
L 330.666653 209.243482 
L 331.694238 209.230816 
L 332.721824 209.346501 
L 333.749409 209.591642 
L 335.804579 210.409157 
L 340.942505 212.856169 
L 342.997675 213.504806 
L 345.052845 213.916123 
L 347.108016 214.13101 
L 350.190771 214.180043 
L 353.273526 214.003009 
L 357.383867 213.546401 
L 363.549378 212.592297 
L 371.770059 211.071536 
L 385.128666 208.353556 
L 398.487273 205.519473 
L 398.487273 205.519473 
" style="fill:none;stroke:#232116;stroke-linecap:square;stroke-width:1.5;"/>
   </g>
   <g id="line2d_24">
    <path clip-path="url(#p39b5a4235f)" d="M 91.239315 274.28708 
L 133.370306 265.968411 
L 164.19786 260.096156 
L 187.832319 255.811329 
L 206.328851 252.666972 
L 221.742628 250.256138 
L 235.101235 248.389576 
L 246.404672 247.039828 
L 255.652938 246.15385 
L 263.873619 245.592444 
L 271.066715 245.336905 
L 277.232226 245.351546 
L 282.370152 245.579577 
L 286.480492 245.942133 
L 290.590833 246.505556 
L 294.701173 247.32034 
L 297.783929 248.136274 
L 300.866684 249.168285 
L 303.94944 250.463347 
L 307.032195 252.081183 
L 309.087365 253.375756 
L 311.142536 254.874308 
L 313.197706 256.608287 
L 315.252876 258.613393 
L 317.308046 260.928816 
L 319.363217 263.59491 
L 321.418387 266.647825 
L 323.473557 270.108606 
L 325.528728 273.963043 
L 329.639068 282.409169 
L 331.694238 286.466704 
L 333.749409 289.873546 
L 334.776994 291.223178 
L 335.804579 292.315706 
L 336.832164 293.165011 
L 337.859749 293.803071 
L 338.887334 294.270351 
L 340.942505 294.847593 
L 342.997675 295.142022 
L 346.08043 295.341364 
L 352.245941 295.455452 
L 373.825229 295.487423 
L 398.487273 295.487994 
L 398.487273 295.487994 
" style="fill:none;stroke:#231816;stroke-linecap:square;stroke-width:1.5;"/>
   </g>
   <g id="line2d_25">
    <path clip-path="url(#p39b5a4235f)" d="M 91.239315 274.387015 
L 134.397891 265.854704 
L 165.225445 259.975144 
L 188.859904 255.686712 
L 207.356436 252.542813 
L 222.770213 250.136594 
L 236.12882 248.279439 
L 247.432257 246.944154 
L 256.680523 246.077081 
L 264.901204 245.540737 
L 272.0943 245.31672 
L 278.259811 245.368892 
L 283.397737 245.638812 
L 287.508077 246.044443 
L 291.618418 246.662366 
L 295.728759 247.546901 
L 298.811514 248.428325 
L 301.894269 249.540453 
L 304.977025 250.934229 
L 307.032195 252.051208 
L 309.087365 253.345151 
L 311.142536 254.843308 
L 313.197706 256.577178 
L 315.252876 258.582522 
L 317.308046 260.898604 
L 319.363217 263.565859 
L 321.418387 266.620524 
L 323.473557 270.083721 
L 325.528728 273.941279 
L 329.639068 282.395399 
L 331.694238 286.457168 
L 333.749409 289.867672 
L 334.776994 291.218762 
L 335.804579 292.312466 
L 336.832164 293.162675 
L 337.859749 293.801404 
L 338.887334 294.269167 
L 340.942505 294.846988 
L 342.997675 295.141703 
L 346.08043 295.341231 
L 352.245941 295.455423 
L 373.825229 295.487422 
L 398.487273 295.487994 
L 398.487273 295.487994 
" style="fill:none;stroke:#2f391c;stroke-linecap:square;stroke-width:1.5;"/>
   </g>
   <g id="line2d_26">
    <path clip-path="url(#p39b5a4235f)" d="M 91.239315 274.240629 
L 148.784083 262.447687 
L 179.611637 255.906038 
L 203.246096 250.677061 
L 222.770213 246.142453 
L 239.211576 242.106173 
L 253.597768 238.344022 
L 265.928789 234.879998 
L 276.204641 231.759431 
L 284.425322 229.055132 
L 291.618418 226.487954 
L 298.811514 223.675573 
L 304.977025 221.01455 
L 310.11495 218.580392 
L 315.252876 215.9273 
L 326.556313 209.845573 
L 328.611483 209.037345 
L 330.666653 208.548767 
L 331.694238 208.467123 
L 332.721824 208.510989 
L 333.749409 208.682955 
L 335.804579 209.357566 
L 340.942505 211.534142 
L 342.997675 212.114402 
L 345.052845 212.473528 
L 347.108016 212.647781 
L 350.190771 212.65033 
L 353.273526 212.437872 
L 357.383867 211.94415 
L 363.549378 210.94613 
L 372.797644 209.170371 
L 387.183836 206.149972 
L 398.487273 203.693589 
L 398.487273 203.693589 
" style="fill:none;stroke:#39221c;stroke-linecap:square;stroke-width:1.5;"/>
   </g>
   <g id="line2d_27">
    <path clip-path="url(#p39b5a4235f)" d="M 91.239315 274.341045 
L 146.728913 262.959568 
L 177.556467 256.421145 
L 202.218511 250.969474 
L 221.742628 246.439039 
L 238.183991 242.411458 
L 252.570183 238.663377 
L 264.901204 235.2193 
L 275.177056 232.124365 
L 284.425322 229.100308 
L 291.618418 226.539859 
L 298.811514 223.739789 
L 304.977025 221.09728 
L 311.142536 218.182778 
L 317.308046 214.986521 
L 324.501142 211.196812 
L 326.556313 210.288436 
L 328.611483 209.608175 
L 330.666653 209.291666 
L 331.694238 209.313058 
L 332.721824 209.468708 
L 333.749409 209.75661 
L 335.804579 210.649182 
L 339.91492 212.70672 
L 341.97009 213.450841 
L 344.02526 213.941245 
L 346.08043 214.215329 
L 349.163186 214.323233 
L 352.245941 214.18119 
L 356.356282 213.750348 
L 361.494208 212.985667 
L 369.714889 211.49915 
L 382.04591 209.013094 
L 398.487273 205.529474 
L 398.487273 205.529474 
" style="fill:none;stroke:#2b521f;stroke-linecap:square;stroke-width:1.5;"/>
   </g>
   <g id="line2d_28">
    <path clip-path="url(#p39b5a4235f)" d="M 91.239315 274.28652 
L 134.397891 265.764948 
L 165.225445 259.895222 
L 188.859904 255.613454 
L 207.356436 252.473156 
L 222.770213 250.068069 
L 236.12882 248.209872 
L 247.432257 246.871709 
L 256.680523 246.000566 
L 264.901204 245.459091 
L 272.0943 245.229354 
L 278.259811 245.275813 
L 283.397737 245.54065 
L 287.508077 245.94232 
L 291.618418 246.556845 
L 295.728759 247.439315 
L 298.811514 248.320831 
L 301.894269 249.435406 
L 304.977025 250.8353 
L 307.032195 251.959333 
L 309.087365 253.263617 
L 311.142536 254.776439 
L 313.197706 256.530618 
L 315.252876 258.56356 
L 317.308046 260.916489 
L 319.363217 263.631975 
L 321.418387 266.748137 
L 323.473557 270.286687 
L 325.528728 274.230615 
L 332.721824 288.710346 
L 333.749409 290.271 
L 334.776994 291.570328 
L 335.804579 292.605065 
L 336.832164 293.396536 
L 337.859749 293.982465 
L 338.887334 294.406288 
L 340.942505 294.923188 
L 342.997675 295.183937 
L 347.108016 295.389799 
L 355.328697 295.473451 
L 398.487273 295.487996 
L 398.487273 295.487996 
" style="fill:none;stroke:#522e1f;stroke-linecap:square;stroke-width:1.5;"/>
   </g>
   <g id="line2d_29">
    <path clip-path="url(#p39b5a4235f)" d="M 91.239315 274.386463 
L 135.425476 265.650884 
L 166.253031 259.773791 
L 189.887489 255.488437 
L 208.384021 252.348687 
L 223.797799 249.948397 
L 236.12882 248.232452 
L 247.432257 246.885587 
L 256.680523 246.007155 
L 264.901204 245.459108 
L 272.0943 245.223591 
L 278.259811 245.265118 
L 283.397737 245.525906 
L 287.508077 245.924414 
L 291.618418 246.535888 
L 295.728759 247.41548 
L 298.811514 248.295001 
L 301.894269 249.407776 
L 304.977025 250.806135 
L 307.032195 251.929336 
L 309.087365 253.232983 
L 311.142536 254.745404 
L 313.197706 256.499474 
L 315.252876 258.532663 
L 317.308046 260.886269 
L 319.363217 263.602951 
L 321.418387 266.720916 
L 323.473557 270.261959 
L 325.528728 274.209107 
L 332.721824 288.70323 
L 333.749409 290.265567 
L 334.776994 291.566296 
L 335.804579 292.602141 
L 336.832164 293.394449 
L 337.859749 293.980989 
L 338.887334 294.405245 
L 340.942505 294.922659 
L 342.997675 295.183658 
L 347.108016 295.389711 
L 355.328697 295.473438 
L 398.487273 295.487996 
L 398.487273 295.487996 
" style="fill:none;stroke:#1f6e31;stroke-linecap:square;stroke-width:1.5;"/>
   </g>
   <g id="line2d_30">
    <path clip-path="url(#p39b5a4235f)" d="M 91.239315 274.241472 
L 148.784083 262.453703 
L 179.611637 255.918222 
L 203.246096 250.696136 
L 222.770213 246.168818 
L 239.211576 242.139802 
L 253.597768 238.384668 
L 265.928789 234.92674 
L 276.204641 231.810649 
L 284.425322 229.108716 
L 291.618418 226.541697 
L 298.811514 223.726079 
L 304.977025 221.057507 
L 310.11495 218.611627 
L 315.252876 215.939906 
L 326.556313 209.819179 
L 328.611483 209.02856 
L 330.666653 208.582361 
L 331.694238 208.532809 
L 332.721824 208.614904 
L 333.749409 208.828317 
L 335.804579 209.577208 
L 339.91492 211.41095 
L 341.97009 212.079688 
L 344.02526 212.513067 
L 346.08043 212.743287 
L 349.163186 212.801771 
L 352.245941 212.62268 
L 356.356282 212.15359 
L 362.521793 211.172027 
L 370.742474 209.610419 
L 384.101081 206.826359 
L 398.487273 203.703195 
L 398.487273 203.703195 
" style="fill:none;stroke:#6e3c1f;stroke-linecap:square;stroke-width:1.5;"/>
   </g>
   <g id="line2d_31">
    <path clip-path="url(#p39b5a4235f)" d="M 91.239315 274.341881 
L 147.756498 262.750959 
L 178.584052 256.210494 
L 203.246096 250.755425 
L 222.770213 246.219948 
L 239.211576 242.184936 
L 253.597768 238.425901 
L 265.928789 234.966495 
L 276.204641 231.851557 
L 284.425322 229.15328 
L 291.618418 226.592883 
L 298.811514 223.789459 
L 304.977025 221.139331 
L 310.11495 218.719223 
L 316.280461 215.543211 
L 324.501142 211.172931 
L 326.556313 210.270085 
L 328.611483 209.613063 
L 329.639068 209.42146 
L 330.666653 209.346644 
L 331.694238 209.404198 
L 332.721824 209.601511 
L 334.776994 210.37657 
L 339.91492 212.969853 
L 341.97009 213.68155 
L 344.02526 214.135859 
L 346.08043 214.377204 
L 349.163186 214.44588 
L 352.245941 214.275295 
L 356.356282 213.818328 
L 362.521793 212.857753 
L 370.742474 211.327827 
L 385.128666 208.38367 
L 398.487273 205.538889 
L 398.487273 205.538889 
" style="fill:none;stroke:#1c8e68;stroke-linecap:square;stroke-width:1.5;"/>
   </g>
   <g id="line2d_32">
    <path clip-path="url(#p39b5a4235f)" d="M 91.239315 274.285974 
L 134.397891 265.760992 
L 165.225445 259.8855 
L 188.859904 255.596226 
L 207.356436 252.447327 
L 222.770213 250.03255 
L 236.12882 248.16349 
L 247.432257 246.813854 
L 256.680523 245.931434 
L 264.901204 245.378313 
L 272.0943 245.137095 
L 278.259811 245.172885 
L 283.397737 245.428526 
L 287.508077 245.822977 
L 291.618418 246.430908 
L 295.728759 247.308229 
L 298.811514 248.187643 
L 301.894269 249.30263 
L 304.977025 250.706846 
L 307.032195 251.83693 
L 309.087365 253.150769 
L 311.142536 254.677758 
L 313.197706 256.452139 
L 315.252876 258.513093 
L 317.308046 260.90397 
L 319.363217 263.669677 
L 321.418387 266.850398 
L 323.473557 270.468496 
L 325.528728 274.503796 
L 331.694238 287.365072 
L 332.721824 289.135407 
L 333.749409 290.655105 
L 334.776994 291.900369 
L 335.804579 292.875614 
L 336.832164 293.60967 
L 337.859749 294.145417 
L 339.91492 294.799296 
L 341.97009 295.125013 
L 345.052845 295.339046 
L 351.218356 295.456487 
L 372.797644 295.487491 
L 398.487273 295.487998 
L 398.487273 295.487998 
" style="fill:none;stroke:#8e4d1c;stroke-linecap:square;stroke-width:1.5;"/>
   </g>
   <g id="line2d_33">
    <path clip-path="url(#p39b5a4235f)" d="M 91.239315 274.385924 
L 135.425476 265.646823 
L 166.253031 259.763866 
L 189.887489 255.470886 
L 208.384021 252.322396 
L 223.797799 249.912249 
L 237.156405 248.052722 
L 247.432257 246.827864 
L 256.680523 245.938155 
L 264.901204 245.378457 
L 272.0943 245.131451 
L 278.259811 245.162297 
L 283.397737 245.413874 
L 287.508077 245.805148 
L 291.618418 246.410012 
L 295.728759 247.284435 
L 298.811514 248.161837 
L 301.894269 249.275006 
L 304.977025 250.67767 
L 307.032195 251.806911 
L 309.087365 253.120104 
L 311.142536 254.646688 
L 313.197706 256.42096 
L 315.252876 258.482168 
L 317.308046 260.873743 
L 319.363217 263.64068 
L 321.418387 266.82326 
L 323.473557 270.443928 
L 325.528728 274.482549 
L 331.694238 287.356527 
L 332.721824 289.128762 
L 333.749409 290.650098 
L 334.776994 291.896701 
L 335.804579 292.872985 
L 336.832164 293.607812 
L 337.859749 294.144112 
L 339.91492 294.798648 
L 341.97009 295.12468 
L 345.052845 295.338913 
L 351.218356 295.456458 
L 372.797644 295.48749 
L 398.487273 295.487998 
L 398.487273 295.487998 
" style="fill:none;stroke:#169fb0;stroke-linecap:square;stroke-width:1.5;"/>
   </g>
   <g id="line2d_34">
    <path clip-path="url(#p39b5a4235f)" d="M 91.239315 274.242285 
L 149.811668 262.245487 
L 180.639223 255.707936 
L 204.273681 250.482512 
L 223.797799 245.950035 
L 240.239161 241.913359 
L 253.597768 238.424957 
L 265.928789 234.973175 
L 276.204641 231.861651 
L 284.425322 229.162198 
L 291.618418 226.595473 
L 297.783929 224.197645 
L 303.94944 221.566104 
L 309.087365 219.152943 
L 314.225291 216.509292 
L 320.390802 213.067299 
L 325.528728 210.271397 
L 327.583898 209.371357 
L 329.639068 208.766331 
L 330.666653 208.622332 
L 331.694238 208.606984 
L 332.721824 208.729066 
L 334.776994 209.354494 
L 340.942505 212.010088 
L 342.997675 212.526294 
L 345.052845 212.820088 
L 348.135601 212.942324 
L 351.218356 212.801082 
L 355.328697 212.359701 
L 360.466622 211.573524 
L 368.687304 210.046964 
L 381.018325 207.499941 
L 398.487273 203.71224 
L 398.487273 203.71224 
" style="fill:none;stroke:#b06416;stroke-linecap:square;stroke-width:1.5;"/>
   </g>
   <g id="line2d_35">
    <path clip-path="url(#p39b5a4235f)" d="M 91.239315 274.342687 
L 147.756498 262.756642 
L 179.611637 255.999774 
L 203.246096 250.774076 
L 222.770213 246.245788 
L 239.211576 242.217956 
L 253.597768 238.465875 
L 265.928789 235.012528 
L 276.204641 231.902056 
L 284.425322 229.206157 
L 291.618418 226.645947 
L 298.811514 223.839325 
L 304.977025 221.181688 
L 310.11495 218.749911 
L 315.252876 216.103564 
L 325.528728 210.676282 
L 327.583898 209.894785 
L 329.639068 209.452747 
L 330.666653 209.408864 
L 331.694238 209.50467 
L 332.721824 209.745166 
L 334.776994 210.602678 
L 339.91492 213.226826 
L 341.97009 213.903831 
L 344.02526 214.321831 
L 346.08043 214.531116 
L 349.163186 214.561993 
L 352.245941 214.364182 
L 356.356282 213.882435 
L 362.521793 212.89951 
L 371.770059 211.150136 
L 387.183836 207.963006 
L 398.487273 205.547753 
L 398.487273 205.547753 
" style="fill:none;stroke:#0d66d6;stroke-linecap:square;stroke-width:1.5;"/>
   </g>
   <g id="line2d_36">
    <path clip-path="url(#p39b5a4235f)" d="M 91.239315 274.28544 
L 134.397891 265.757128 
L 165.225445 259.875981 
L 188.859904 255.57933 
L 208.384021 252.253618 
L 223.797799 249.844702 
L 237.156405 247.984197 
L 247.432257 246.756835 
L 256.680523 245.863221 
L 264.901204 245.298507 
L 272.0943 245.045822 
L 278.259811 245.070912 
L 283.397737 245.31728 
L 287.508077 245.704407 
L 291.618418 246.305587 
L 295.728759 247.177537 
L 298.811514 248.054635 
L 301.894269 249.16978 
L 304.977025 250.57804 
L 307.032195 251.713989 
L 309.087365 253.03722 
L 311.142536 254.578269 
L 313.197706 256.372847 
L 315.252876 258.461984 
L 317.308046 260.891259 
L 319.363217 263.708029 
L 321.418387 266.954652 
L 323.473557 270.654118 
L 325.528728 274.782678 
L 331.694238 287.808353 
L 332.721824 289.550841 
L 333.749409 291.024715 
L 334.776994 292.212639 
L 335.804579 293.127346 
L 336.832164 293.804994 
L 337.859749 294.292871 
L 339.91492 294.8799 
L 341.97009 295.168733 
L 345.052845 295.3573 
L 351.218356 295.460411 
L 374.852814 295.487687 
L 398.487273 295.488 
L 398.487273 295.488 
" style="fill:none;stroke:#d6800d;stroke-linecap:square;stroke-width:1.5;"/>
   </g>
   <g id="line2d_37">
    <path clip-path="url(#p39b5a4235f)" d="M 91.239315 274.385397 
L 135.425476 265.642856 
L 166.253031 259.754148 
L 189.887489 255.453672 
L 208.384021 252.296574 
L 223.797799 249.876705 
L 237.156405 248.006251 
L 247.432257 246.770975 
L 256.680523 245.870073 
L 264.901204 245.298779 
L 272.0943 245.040296 
L 278.259811 245.060431 
L 283.397737 245.302721 
L 287.508077 245.686658 
L 291.618418 246.284753 
L 295.728759 247.153785 
L 298.811514 248.028854 
L 301.894269 249.142164 
L 304.977025 250.548854 
L 307.032195 251.68395 
L 309.087365 253.006526 
L 311.142536 254.547164 
L 313.197706 256.341633 
L 315.252876 258.431033 
L 317.308046 260.861024 
L 319.363217 263.67906 
L 321.418387 266.927598 
L 323.473557 270.629716 
L 325.528728 274.7617 
L 331.694238 287.800297 
L 332.721824 289.544657 
L 333.749409 291.020117 
L 334.776994 292.209313 
L 335.804579 293.124989 
L 336.832164 293.803343 
L 337.859749 294.29172 
L 339.91492 294.879333 
L 341.97009 295.168443 
L 345.052845 295.357184 
L 351.218356 295.460386 
L 374.852814 295.487687 
L 398.487273 295.488 
L 398.487273 295.488 
" style="fill:none;stroke:#0000ff;stroke-linecap:square;stroke-width:1.5;"/>
   </g>
   <g id="line2d_38">
    <path clip-path="url(#p39b5a4235f)" d="M 91.239315 274.24307 
L 149.811668 262.251391 
L 180.639223 255.719929 
L 204.273681 250.501342 
L 223.797799 245.976133 
L 240.239161 241.946737 
L 253.597768 238.46489 
L 265.928789 235.019303 
L 276.204641 231.912432 
L 284.425322 229.215571 
L 291.618418 226.649275 
L 297.783929 224.249237 
L 303.94944 221.611315 
L 309.087365 219.187677 
L 314.225291 216.526662 
L 320.390802 213.054391 
L 324.501142 210.761718 
L 326.556313 209.768556 
L 328.611483 209.019474 
L 329.639068 208.784279 
L 330.666653 208.66913 
L 331.694238 208.690092 
L 332.721824 208.853762 
L 334.776994 209.560251 
L 339.91492 211.901699 
L 341.97009 212.509412 
L 344.02526 212.875345 
L 346.08043 213.044576 
L 349.163186 213.030076 
L 352.245941 212.797902 
L 356.356282 212.280211 
L 362.521793 211.254626 
L 371.770059 209.452719 
L 387.183836 206.189035 
L 398.487273 203.720754 
L 398.487273 203.720754 
" style="fill:none;stroke:#ffa500;stroke-linecap:square;stroke-width:1.5;"/>
   </g>
   <g id="line2d_39">
    <path clip-path="url(#p39b5a4235f)" d="M 91.239315 274.385397 
L 135.425476 265.642856 
L 166.253031 259.754148 
L 189.887489 255.453672 
L 208.384021 252.296574 
L 223.797799 249.876705 
L 237.156405 248.006251 
L 247.432257 246.770975 
L 256.680523 245.870073 
L 264.901204 245.298779 
L 272.0943 245.040296 
L 278.259811 245.060431 
L 283.397737 245.302721 
L 287.508077 245.686658 
L 291.618418 246.284753 
L 295.728759 247.153785 
L 298.811514 248.028854 
L 301.894269 249.142164 
L 304.977025 250.548854 
L 307.032195 251.68395 
L 309.087365 253.006526 
L 311.142536 254.547164 
L 313.197706 256.341633 
L 315.252876 258.431033 
L 317.308046 260.861024 
L 319.363217 263.67906 
L 321.418387 266.927598 
L 323.473557 270.629716 
L 325.528728 274.7617 
L 331.694238 287.800297 
L 332.721824 289.544657 
L 333.749409 291.020117 
L 334.776994 292.209313 
L 335.804579 293.124989 
L 336.832164 293.803343 
L 337.859749 294.29172 
L 339.91492 294.879333 
L 341.97009 295.168443 
L 345.052845 295.357184 
L 351.218356 295.460386 
L 374.852814 295.487687 
L 398.487273 295.488 
L 398.487273 295.488 
" style="fill:none;stroke:#0000ff;stroke-linecap:square;stroke-width:1.5;"/>
   </g>
   <g id="line2d_40">
    <path clip-path="url(#p39b5a4235f)" d="M 91.239315 274.24307 
L 149.811668 262.251391 
L 180.639223 255.719929 
L 204.273681 250.501342 
L 223.797799 245.976133 
L 240.239161 241.946737 
L 253.597768 238.46489 
L 265.928789 235.019303 
L 276.204641 231.912432 
L 284.425322 229.215571 
L 291.618418 226.649275 
L 297.783929 224.249237 
L 303.94944 221.611315 
L 309.087365 219.187677 
L 314.225291 216.526662 
L 320.390802 213.054391 
L 324.501142 210.761718 
L 326.556313 209.768556 
L 328.611483 209.019474 
L 329.639068 208.784279 
L 330.666653 208.66913 
L 331.694238 208.690092 
L 332.721824 208.853762 
L 334.776994 209.560251 
L 339.91492 211.901699 
L 341.97009 212.509412 
L 344.02526 212.875345 
L 346.08043 213.044576 
L 349.163186 213.030076 
L 352.245941 212.797902 
L 356.356282 212.280211 
L 362.521793 211.254626 
L 371.770059 209.452719 
L 387.183836 206.189035 
L 398.487273 203.720754 
L 398.487273 203.720754 
" style="fill:none;stroke:#ffa500;stroke-linecap:square;stroke-width:1.5;"/>
   </g>
   <g id="patch_3">
    <path d="M 57.6 307.584 
L 57.6 41.472 
" style="fill:none;stroke:#000000;stroke-linecap:square;stroke-linejoin:miter;stroke-width:0.8;"/>
   </g>
   <g id="patch_4">
    <path d="M 414.72 307.584 
L 414.72 41.472 
" style="fill:none;stroke:#000000;stroke-linecap:square;stroke-linejoin:miter;stroke-width:0.8;"/>
   </g>
   <g id="patch_5">
    <path d="M 57.6 307.584 
L 414.72 307.584 
" style="fill:none;stroke:#000000;stroke-linecap:square;stroke-linejoin:miter;stroke-width:0.8;"/>
   </g>
   <g id="patch_6">
    <path d="M 57.6 41.472 
L 414.72 41.472 
" style="fill:none;stroke:#000000;stroke-linecap:square;stroke-linejoin:miter;stroke-width:0.8;"/>
   </g>
   <g id="legend_1">
    <g id="patch_7">
     <path d="M 341.340313 78.82825 
L 407.72 78.82825 
Q 409.72 78.82825 409.72 76.82825 
L 409.72 48.472 
Q 409.72 46.472 407.72 46.472 
L 341.340313 46.472 
Q 339.340313 46.472 339.340313 48.472 
L 339.340313 76.82825 
Q 339.340313 78.82825 341.340313 78.82825 
z
" style="fill:#ffffff;opacity:0.8;stroke:#cccccc;stroke-linejoin:miter;"/>
    </g>
    <g id="line2d_41">
     <path d="M 343.340313 54.570437 
L 363.340313 54.570437 
" style="fill:none;stroke:#0000ff;stroke-linecap:square;stroke-width:1.5;"/>
    </g>
    <g id="line2d_42"/>
    <g id="text_21">
     <!-- Prey -->
     <defs>
      <path d="M 32.171875 -5.078125 
Q 28.375 -14.84375 24.75 -17.8125 
Q 21.140625 -20.796875 15.09375 -20.796875 
L 7.90625 -20.796875 
L 7.90625 -13.28125 
L 13.1875 -13.28125 
Q 16.890625 -13.28125 18.9375 -11.515625 
Q 21 -9.765625 23.484375 -3.21875 
L 25.09375 0.875 
L 2.984375 54.6875 
L 12.5 54.6875 
L 29.59375 11.921875 
L 46.6875 54.6875 
L 56.203125 54.6875 
z
" id="DejaVuSans-79"/>
     </defs>
     <g transform="translate(371.340313 58.070437)scale(0.1 -0.1)">
      <use xlink:href="#DejaVuSans-50"/>
      <use x="60.287109" xlink:href="#DejaVuSans-72"/>
      <use x="101.369141" xlink:href="#DejaVuSans-65"/>
      <use x="162.892578" xlink:href="#DejaVuSans-79"/>
     </g>
    </g>
    <g id="line2d_43">
     <path d="M 343.340313 69.248562 
L 363.340313 69.248562 
" style="fill:none;stroke:#ffa500;stroke-linecap:square;stroke-width:1.5;"/>
    </g>
    <g id="line2d_44"/>
    <g id="text_22">
     <!-- Hunter -->
     <defs>
      <path d="M 9.8125 72.90625 
L 19.671875 72.90625 
L 19.671875 43.015625 
L 55.515625 43.015625 
L 55.515625 72.90625 
L 65.375 72.90625 
L 65.375 0 
L 55.515625 0 
L 55.515625 34.71875 
L 19.671875 34.71875 
L 19.671875 0 
L 9.8125 0 
z
" id="DejaVuSans-48"/>
      <path d="M 8.5 21.578125 
L 8.5 54.6875 
L 17.484375 54.6875 
L 17.484375 21.921875 
Q 17.484375 14.15625 20.5 10.265625 
Q 23.53125 6.390625 29.59375 6.390625 
Q 36.859375 6.390625 41.078125 11.03125 
Q 45.3125 15.671875 45.3125 23.6875 
L 45.3125 54.6875 
L 54.296875 54.6875 
L 54.296875 0 
L 45.3125 0 
L 45.3125 8.40625 
Q 42.046875 3.421875 37.71875 1 
Q 33.40625 -1.421875 27.6875 -1.421875 
Q 18.265625 -1.421875 13.375 4.4375 
Q 8.5 10.296875 8.5 21.578125 
z
M 31.109375 56 
z
" id="DejaVuSans-75"/>
      <path d="M 54.890625 33.015625 
L 54.890625 0 
L 45.90625 0 
L 45.90625 32.71875 
Q 45.90625 40.484375 42.875 44.328125 
Q 39.84375 48.1875 33.796875 48.1875 
Q 26.515625 48.1875 22.3125 43.546875 
Q 18.109375 38.921875 18.109375 30.90625 
L 18.109375 0 
L 9.078125 0 
L 9.078125 54.6875 
L 18.109375 54.6875 
L 18.109375 46.1875 
Q 21.34375 51.125 25.703125 53.5625 
Q 30.078125 56 35.796875 56 
Q 45.21875 56 50.046875 50.171875 
Q 54.890625 44.34375 54.890625 33.015625 
z
" id="DejaVuSans-6e"/>
     </defs>
     <g transform="translate(371.340313 72.748562)scale(0.1 -0.1)">
      <use xlink:href="#DejaVuSans-48"/>
      <use x="75.195312" xlink:href="#DejaVuSans-75"/>
      <use x="138.574219" xlink:href="#DejaVuSans-6e"/>
      <use x="201.953125" xlink:href="#DejaVuSans-74"/>
      <use x="241.162109" xlink:href="#DejaVuSans-65"/>
      <use x="302.685547" xlink:href="#DejaVuSans-72"/>
     </g>
    </g>
   </g>
  </g>
 </g>
 <defs>
  <clipPath id="p39b5a4235f">
   <rect height="266.112" width="357.12" x="57.6" y="41.472"/>
  </clipPath>
 </defs>
</svg>
