<?xml version="1.0" encoding="utf-8" standalone="no"?>
<!DOCTYPE svg PUBLIC "-//W3C//DTD SVG 1.1//EN"
  "http://www.w3.org/Graphics/SVG/1.1/DTD/svg11.dtd">
<!-- Created with matplotlib (http://matplotlib.org/) -->
<svg height="345.6pt" version="1.1" viewBox="0 0 460.8 345.6" width="460.8pt" xmlns="http://www.w3.org/2000/svg" xmlns:xlink="http://www.w3.org/1999/xlink">
 <defs>
  <style type="text/css">
*{stroke-linecap:butt;stroke-linejoin:round;}
  </style>
 </defs>
 <g id="figure_1">
  <g id="patch_1">
   <path d="M 0 345.6 
L 460.8 345.6 
L 460.8 0 
L 0 0 
z
" style="fill:#ffffff;"/>
  </g>
  <g id="axes_1">
   <g id="patch_2">
    <path d="M 57.6 307.584 
L 414.72 307.584 
L 414.72 41.472 
L 57.6 41.472 
z
" style="fill:#ffffff;"/>
   </g>
   <g id="PathCollection_1">
    <defs>
     <path d="M 0 3 
C 0.795609 3 1.55874 2.683901 2.12132 2.12132 
C 2.683901 1.55874 3 0.795609 3 0 
C 3 -0.795609 2.683901 -1.55874 2.12132 -2.12132 
C 1.55874 -2.683901 0.795609 -3 0 -3 
C -0.795609 -3 -1.55874 -2.683901 -2.12132 -2.12132 
C -2.683901 -1.55874 -3 -0.795609 -3 0 
C -3 0.795609 -2.683901 1.55874 -2.12132 2.12132 
C -1.55874 2.683901 -0.795609 3 0 3 
z
" id="m1b91e21534" style="stroke:#008000;"/>
    </defs>
    <g clip-path="url(#pfd42c11c17)">
     <use style="fill:#008000;stroke:#008000;" x="75.978451" xlink:href="#m1b91e21534" y="235.389963"/>
     <use style="fill:#008000;stroke:#008000;" x="75.978451" xlink:href="#m1b91e21534" y="55.095851"/>
    </g>
   </g>
   <g id="matplotlib.axis_1">
    <g id="xtick_1">
     <g id="line2d_1">
      <defs>
       <path d="M 0 0 
L 0 3.5 
" id="m944a762a67" style="stroke:#000000;stroke-width:0.8;"/>
      </defs>
      <g>
       <use style="stroke:#000000;stroke-width:0.8;" x="75.978451" xlink:href="#m944a762a67" y="307.584"/>
      </g>
     </g>
     <g id="text_1">
      <!-- 0.0 -->
      <defs>
       <path d="M 31.78125 66.40625 
Q 24.171875 66.40625 20.328125 58.90625 
Q 16.5 51.421875 16.5 36.375 
Q 16.5 21.390625 20.328125 13.890625 
Q 24.171875 6.390625 31.78125 6.390625 
Q 39.453125 6.390625 43.28125 13.890625 
Q 47.125 21.390625 47.125 36.375 
Q 47.125 51.421875 43.28125 58.90625 
Q 39.453125 66.40625 31.78125 66.40625 
z
M 31.78125 74.21875 
Q 44.046875 74.21875 50.515625 64.515625 
Q 56.984375 54.828125 56.984375 36.375 
Q 56.984375 17.96875 50.515625 8.265625 
Q 44.046875 -1.421875 31.78125 -1.421875 
Q 19.53125 -1.421875 13.0625 8.265625 
Q 6.59375 17.96875 6.59375 36.375 
Q 6.59375 54.828125 13.0625 64.515625 
Q 19.53125 74.21875 31.78125 74.21875 
z
" id="DejaVuSans-30"/>
       <path d="M 10.6875 12.40625 
L 21 12.40625 
L 21 0 
L 10.6875 0 
z
" id="DejaVuSans-2e"/>
      </defs>
      <g transform="translate(68.026889 322.182437)scale(0.1 -0.1)">
       <use xlink:href="#DejaVuSans-30"/>
       <use x="63.623047" xlink:href="#DejaVuSans-2e"/>
       <use x="95.410156" xlink:href="#DejaVuSans-30"/>
      </g>
     </g>
    </g>
    <g id="xtick_2">
     <g id="line2d_2">
      <g>
       <use style="stroke:#000000;stroke-width:0.8;" x="129.729922" xlink:href="#m944a762a67" y="307.584"/>
      </g>
     </g>
     <g id="text_2">
      <!-- 0.5 -->
      <defs>
       <path d="M 10.796875 72.90625 
L 49.515625 72.90625 
L 49.515625 64.59375 
L 19.828125 64.59375 
L 19.828125 46.734375 
Q 21.96875 47.46875 24.109375 47.828125 
Q 26.265625 48.1875 28.421875 48.1875 
Q 40.625 48.1875 47.75 41.5 
Q 54.890625 34.8125 54.890625 23.390625 
Q 54.890625 11.625 47.5625 5.09375 
Q 40.234375 -1.421875 26.90625 -1.421875 
Q 22.3125 -1.421875 17.546875 -0.640625 
Q 12.796875 0.140625 7.71875 1.703125 
L 7.71875 11.625 
Q 12.109375 9.234375 16.796875 8.0625 
Q 21.484375 6.890625 26.703125 6.890625 
Q 35.15625 6.890625 40.078125 11.328125 
Q 45.015625 15.765625 45.015625 23.390625 
Q 45.015625 31 40.078125 35.4375 
Q 35.15625 39.890625 26.703125 39.890625 
Q 22.75 39.890625 18.8125 39.015625 
Q 14.890625 38.140625 10.796875 36.28125 
z
" id="DejaVuSans-35"/>
      </defs>
      <g transform="translate(121.778359 322.182437)scale(0.1 -0.1)">
       <use xlink:href="#DejaVuSans-30"/>
       <use x="63.623047" xlink:href="#DejaVuSans-2e"/>
       <use x="95.410156" xlink:href="#DejaVuSans-35"/>
      </g>
     </g>
    </g>
    <g id="xtick_3">
     <g id="line2d_3">
      <g>
       <use style="stroke:#000000;stroke-width:0.8;" x="183.481392" xlink:href="#m944a762a67" y="307.584"/>
      </g>
     </g>
     <g id="text_3">
      <!-- 1.0 -->
      <defs>
       <path d="M 12.40625 8.296875 
L 28.515625 8.296875 
L 28.515625 63.921875 
L 10.984375 60.40625 
L 10.984375 69.390625 
L 28.421875 72.90625 
L 38.28125 72.90625 
L 38.28125 8.296875 
L 54.390625 8.296875 
L 54.390625 0 
L 12.40625 0 
z
" id="DejaVuSans-31"/>
      </defs>
      <g transform="translate(175.529829 322.182437)scale(0.1 -0.1)">
       <use xlink:href="#DejaVuSans-31"/>
       <use x="63.623047" xlink:href="#DejaVuSans-2e"/>
       <use x="95.410156" xlink:href="#DejaVuSans-30"/>
      </g>
     </g>
    </g>
    <g id="xtick_4">
     <g id="line2d_4">
      <g>
       <use style="stroke:#000000;stroke-width:0.8;" x="237.232862" xlink:href="#m944a762a67" y="307.584"/>
      </g>
     </g>
     <g id="text_4">
      <!-- 1.5 -->
      <g transform="translate(229.2813 322.182437)scale(0.1 -0.1)">
       <use xlink:href="#DejaVuSans-31"/>
       <use x="63.623047" xlink:href="#DejaVuSans-2e"/>
       <use x="95.410156" xlink:href="#DejaVuSans-35"/>
      </g>
     </g>
    </g>
    <g id="xtick_5">
     <g id="line2d_5">
      <g>
       <use style="stroke:#000000;stroke-width:0.8;" x="290.984332" xlink:href="#m944a762a67" y="307.584"/>
      </g>
     </g>
     <g id="text_5">
      <!-- 2.0 -->
      <defs>
       <path d="M 19.1875 8.296875 
L 53.609375 8.296875 
L 53.609375 0 
L 7.328125 0 
L 7.328125 8.296875 
Q 12.9375 14.109375 22.625 23.890625 
Q 32.328125 33.6875 34.8125 36.53125 
Q 39.546875 41.84375 41.421875 45.53125 
Q 43.3125 49.21875 43.3125 52.78125 
Q 43.3125 58.59375 39.234375 62.25 
Q 35.15625 65.921875 28.609375 65.921875 
Q 23.96875 65.921875 18.8125 64.3125 
Q 13.671875 62.703125 7.8125 59.421875 
L 7.8125 69.390625 
Q 13.765625 71.78125 18.9375 73 
Q 24.125 74.21875 28.421875 74.21875 
Q 39.75 74.21875 46.484375 68.546875 
Q 53.21875 62.890625 53.21875 53.421875 
Q 53.21875 48.921875 51.53125 44.890625 
Q 49.859375 40.875 45.40625 35.40625 
Q 44.1875 33.984375 37.640625 27.21875 
Q 31.109375 20.453125 19.1875 8.296875 
z
" id="DejaVuSans-32"/>
      </defs>
      <g transform="translate(283.03277 322.182437)scale(0.1 -0.1)">
       <use xlink:href="#DejaVuSans-32"/>
       <use x="63.623047" xlink:href="#DejaVuSans-2e"/>
       <use x="95.410156" xlink:href="#DejaVuSans-30"/>
      </g>
     </g>
    </g>
    <g id="xtick_6">
     <g id="line2d_6">
      <g>
       <use style="stroke:#000000;stroke-width:0.8;" x="344.735802" xlink:href="#m944a762a67" y="307.584"/>
      </g>
     </g>
     <g id="text_6">
      <!-- 2.5 -->
      <g transform="translate(336.78424 322.182437)scale(0.1 -0.1)">
       <use xlink:href="#DejaVuSans-32"/>
       <use x="63.623047" xlink:href="#DejaVuSans-2e"/>
       <use x="95.410156" xlink:href="#DejaVuSans-35"/>
      </g>
     </g>
    </g>
    <g id="xtick_7">
     <g id="line2d_7">
      <g>
       <use style="stroke:#000000;stroke-width:0.8;" x="398.487273" xlink:href="#m944a762a67" y="307.584"/>
      </g>
     </g>
     <g id="text_7">
      <!-- 3.0 -->
      <defs>
       <path d="M 40.578125 39.3125 
Q 47.65625 37.796875 51.625 33 
Q 55.609375 28.21875 55.609375 21.1875 
Q 55.609375 10.40625 48.1875 4.484375 
Q 40.765625 -1.421875 27.09375 -1.421875 
Q 22.515625 -1.421875 17.65625 -0.515625 
Q 12.796875 0.390625 7.625 2.203125 
L 7.625 11.71875 
Q 11.71875 9.328125 16.59375 8.109375 
Q 21.484375 6.890625 26.8125 6.890625 
Q 36.078125 6.890625 40.9375 10.546875 
Q 45.796875 14.203125 45.796875 21.1875 
Q 45.796875 27.640625 41.28125 31.265625 
Q 36.765625 34.90625 28.71875 34.90625 
L 20.21875 34.90625 
L 20.21875 43.015625 
L 29.109375 43.015625 
Q 36.375 43.015625 40.234375 45.921875 
Q 44.09375 48.828125 44.09375 54.296875 
Q 44.09375 59.90625 40.109375 62.90625 
Q 36.140625 65.921875 28.71875 65.921875 
Q 24.65625 65.921875 20.015625 65.03125 
Q 15.375 64.15625 9.8125 62.3125 
L 9.8125 71.09375 
Q 15.4375 72.65625 20.34375 73.4375 
Q 25.25 74.21875 29.59375 74.21875 
Q 40.828125 74.21875 47.359375 69.109375 
Q 53.90625 64.015625 53.90625 55.328125 
Q 53.90625 49.265625 50.4375 45.09375 
Q 46.96875 40.921875 40.578125 39.3125 
z
" id="DejaVuSans-33"/>
      </defs>
      <g transform="translate(390.53571 322.182437)scale(0.1 -0.1)">
       <use xlink:href="#DejaVuSans-33"/>
       <use x="63.623047" xlink:href="#DejaVuSans-2e"/>
       <use x="95.410156" xlink:href="#DejaVuSans-30"/>
      </g>
     </g>
    </g>
    <g id="text_8">
     <!-- Parameter -->
     <defs>
      <path d="M 19.671875 64.796875 
L 19.671875 37.40625 
L 32.078125 37.40625 
Q 38.96875 37.40625 42.71875 40.96875 
Q 46.484375 44.53125 46.484375 51.125 
Q 46.484375 57.671875 42.71875 61.234375 
Q 38.96875 64.796875 32.078125 64.796875 
z
M 9.8125 72.90625 
L 32.078125 72.90625 
Q 44.34375 72.90625 50.609375 67.359375 
Q 56.890625 61.8125 56.890625 51.125 
Q 56.890625 40.328125 50.609375 34.8125 
Q 44.34375 29.296875 32.078125 29.296875 
L 19.671875 29.296875 
L 19.671875 0 
L 9.8125 0 
z
" id="DejaVuSans-50"/>
      <path d="M 34.28125 27.484375 
Q 23.390625 27.484375 19.1875 25 
Q 14.984375 22.515625 14.984375 16.5 
Q 14.984375 11.71875 18.140625 8.90625 
Q 21.296875 6.109375 26.703125 6.109375 
Q 34.1875 6.109375 38.703125 11.40625 
Q 43.21875 16.703125 43.21875 25.484375 
L 43.21875 27.484375 
z
M 52.203125 31.203125 
L 52.203125 0 
L 43.21875 0 
L 43.21875 8.296875 
Q 40.140625 3.328125 35.546875 0.953125 
Q 30.953125 -1.421875 24.3125 -1.421875 
Q 15.921875 -1.421875 10.953125 3.296875 
Q 6 8.015625 6 15.921875 
Q 6 25.140625 12.171875 29.828125 
Q 18.359375 34.515625 30.609375 34.515625 
L 43.21875 34.515625 
L 43.21875 35.40625 
Q 43.21875 41.609375 39.140625 45 
Q 35.0625 48.390625 27.6875 48.390625 
Q 23 48.390625 18.546875 47.265625 
Q 14.109375 46.140625 10.015625 43.890625 
L 10.015625 52.203125 
Q 14.9375 54.109375 19.578125 55.046875 
Q 24.21875 56 28.609375 56 
Q 40.484375 56 46.34375 49.84375 
Q 52.203125 43.703125 52.203125 31.203125 
z
" id="DejaVuSans-61"/>
      <path d="M 41.109375 46.296875 
Q 39.59375 47.171875 37.8125 47.578125 
Q 36.03125 48 33.890625 48 
Q 26.265625 48 22.1875 43.046875 
Q 18.109375 38.09375 18.109375 28.8125 
L 18.109375 0 
L 9.078125 0 
L 9.078125 54.6875 
L 18.109375 54.6875 
L 18.109375 46.1875 
Q 20.953125 51.171875 25.484375 53.578125 
Q 30.03125 56 36.53125 56 
Q 37.453125 56 38.578125 55.875 
Q 39.703125 55.765625 41.0625 55.515625 
z
" id="DejaVuSans-72"/>
      <path d="M 52 44.1875 
Q 55.375 50.25 60.0625 53.125 
Q 64.75 56 71.09375 56 
Q 79.640625 56 84.28125 50.015625 
Q 88.921875 44.046875 88.921875 33.015625 
L 88.921875 0 
L 79.890625 0 
L 79.890625 32.71875 
Q 79.890625 40.578125 77.09375 44.375 
Q 74.3125 48.1875 68.609375 48.1875 
Q 61.625 48.1875 57.5625 43.546875 
Q 53.515625 38.921875 53.515625 30.90625 
L 53.515625 0 
L 44.484375 0 
L 44.484375 32.71875 
Q 44.484375 40.625 41.703125 44.40625 
Q 38.921875 48.1875 33.109375 48.1875 
Q 26.21875 48.1875 22.15625 43.53125 
Q 18.109375 38.875 18.109375 30.90625 
L 18.109375 0 
L 9.078125 0 
L 9.078125 54.6875 
L 18.109375 54.6875 
L 18.109375 46.1875 
Q 21.1875 51.21875 25.484375 53.609375 
Q 29.78125 56 35.6875 56 
Q 41.65625 56 45.828125 52.96875 
Q 50 49.953125 52 44.1875 
z
" id="DejaVuSans-6d"/>
      <path d="M 56.203125 29.59375 
L 56.203125 25.203125 
L 14.890625 25.203125 
Q 15.484375 15.921875 20.484375 11.0625 
Q 25.484375 6.203125 34.421875 6.203125 
Q 39.59375 6.203125 44.453125 7.46875 
Q 49.3125 8.734375 54.109375 11.28125 
L 54.109375 2.78125 
Q 49.265625 0.734375 44.1875 -0.34375 
Q 39.109375 -1.421875 33.890625 -1.421875 
Q 20.796875 -1.421875 13.15625 6.1875 
Q 5.515625 13.8125 5.515625 26.8125 
Q 5.515625 40.234375 12.765625 48.109375 
Q 20.015625 56 32.328125 56 
Q 43.359375 56 49.78125 48.890625 
Q 56.203125 41.796875 56.203125 29.59375 
z
M 47.21875 32.234375 
Q 47.125 39.59375 43.09375 43.984375 
Q 39.0625 48.390625 32.421875 48.390625 
Q 24.90625 48.390625 20.390625 44.140625 
Q 15.875 39.890625 15.1875 32.171875 
z
" id="DejaVuSans-65"/>
      <path d="M 18.3125 70.21875 
L 18.3125 54.6875 
L 36.8125 54.6875 
L 36.8125 47.703125 
L 18.3125 47.703125 
L 18.3125 18.015625 
Q 18.3125 11.328125 20.140625 9.421875 
Q 21.96875 7.515625 27.59375 7.515625 
L 36.8125 7.515625 
L 36.8125 0 
L 27.59375 0 
Q 17.1875 0 13.234375 3.875 
Q 9.28125 7.765625 9.28125 18.015625 
L 9.28125 47.703125 
L 2.6875 47.703125 
L 2.6875 54.6875 
L 9.28125 54.6875 
L 9.28125 70.21875 
z
" id="DejaVuSans-74"/>
     </defs>
     <g transform="translate(209.925625 335.860562)scale(0.1 -0.1)">
      <use xlink:href="#DejaVuSans-50"/>
      <use x="60.240234" xlink:href="#DejaVuSans-61"/>
      <use x="121.519531" xlink:href="#DejaVuSans-72"/>
      <use x="162.632812" xlink:href="#DejaVuSans-61"/>
      <use x="223.912109" xlink:href="#DejaVuSans-6d"/>
      <use x="321.324219" xlink:href="#DejaVuSans-65"/>
      <use x="382.847656" xlink:href="#DejaVuSans-74"/>
      <use x="422.056641" xlink:href="#DejaVuSans-65"/>
      <use x="483.580078" xlink:href="#DejaVuSans-72"/>
     </g>
    </g>
   </g>
   <g id="matplotlib.axis_2">
    <g id="ytick_1">
     <g id="line2d_8">
      <defs>
       <path d="M 0 0 
L -3.5 0 
" id="m861d18d553" style="stroke:#000000;stroke-width:0.8;"/>
      </defs>
      <g>
       <use style="stroke:#000000;stroke-width:0.8;" x="57.6" xlink:href="#m861d18d553" y="295.488"/>
      </g>
     </g>
     <g id="text_9">
      <!-- 0.0 -->
      <g transform="translate(34.696875 299.287219)scale(0.1 -0.1)">
       <use xlink:href="#DejaVuSans-30"/>
       <use x="63.623047" xlink:href="#DejaVuSans-2e"/>
       <use x="95.410156" xlink:href="#DejaVuSans-30"/>
      </g>
     </g>
    </g>
    <g id="ytick_2">
     <g id="line2d_9">
      <g>
       <use style="stroke:#000000;stroke-width:0.8;" x="57.6" xlink:href="#m861d18d553" y="265.438981"/>
      </g>
     </g>
     <g id="text_10">
      <!-- 2.5 -->
      <g transform="translate(34.696875 269.2382)scale(0.1 -0.1)">
       <use xlink:href="#DejaVuSans-32"/>
       <use x="63.623047" xlink:href="#DejaVuSans-2e"/>
       <use x="95.410156" xlink:href="#DejaVuSans-35"/>
      </g>
     </g>
    </g>
    <g id="ytick_3">
     <g id="line2d_10">
      <g>
       <use style="stroke:#000000;stroke-width:0.8;" x="57.6" xlink:href="#m861d18d553" y="235.389963"/>
      </g>
     </g>
     <g id="text_11">
      <!-- 5.0 -->
      <g transform="translate(34.696875 239.189182)scale(0.1 -0.1)">
       <use xlink:href="#DejaVuSans-35"/>
       <use x="63.623047" xlink:href="#DejaVuSans-2e"/>
       <use x="95.410156" xlink:href="#DejaVuSans-30"/>
      </g>
     </g>
    </g>
    <g id="ytick_4">
     <g id="line2d_11">
      <g>
       <use style="stroke:#000000;stroke-width:0.8;" x="57.6" xlink:href="#m861d18d553" y="205.340944"/>
      </g>
     </g>
     <g id="text_12">
      <!-- 7.5 -->
      <defs>
       <path d="M 8.203125 72.90625 
L 55.078125 72.90625 
L 55.078125 68.703125 
L 28.609375 0 
L 18.3125 0 
L 43.21875 64.59375 
L 8.203125 64.59375 
z
" id="DejaVuSans-37"/>
      </defs>
      <g transform="translate(34.696875 209.140163)scale(0.1 -0.1)">
       <use xlink:href="#DejaVuSans-37"/>
       <use x="63.623047" xlink:href="#DejaVuSans-2e"/>
       <use x="95.410156" xlink:href="#DejaVuSans-35"/>
      </g>
     </g>
    </g>
    <g id="ytick_5">
     <g id="line2d_12">
      <g>
       <use style="stroke:#000000;stroke-width:0.8;" x="57.6" xlink:href="#m861d18d553" y="175.291926"/>
      </g>
     </g>
     <g id="text_13">
      <!-- 10.0 -->
      <g transform="translate(28.334375 179.091144)scale(0.1 -0.1)">
       <use xlink:href="#DejaVuSans-31"/>
       <use x="63.623047" xlink:href="#DejaVuSans-30"/>
       <use x="127.246094" xlink:href="#DejaVuSans-2e"/>
       <use x="159.033203" xlink:href="#DejaVuSans-30"/>
      </g>
     </g>
    </g>
    <g id="ytick_6">
     <g id="line2d_13">
      <g>
       <use style="stroke:#000000;stroke-width:0.8;" x="57.6" xlink:href="#m861d18d553" y="145.242907"/>
      </g>
     </g>
     <g id="text_14">
      <!-- 12.5 -->
      <g transform="translate(28.334375 149.042126)scale(0.1 -0.1)">
       <use xlink:href="#DejaVuSans-31"/>
       <use x="63.623047" xlink:href="#DejaVuSans-32"/>
       <use x="127.246094" xlink:href="#DejaVuSans-2e"/>
       <use x="159.033203" xlink:href="#DejaVuSans-35"/>
      </g>
     </g>
    </g>
    <g id="ytick_7">
     <g id="line2d_14">
      <g>
       <use style="stroke:#000000;stroke-width:0.8;" x="57.6" xlink:href="#m861d18d553" y="115.193889"/>
      </g>
     </g>
     <g id="text_15">
      <!-- 15.0 -->
      <g transform="translate(28.334375 118.993107)scale(0.1 -0.1)">
       <use xlink:href="#DejaVuSans-31"/>
       <use x="63.623047" xlink:href="#DejaVuSans-35"/>
       <use x="127.246094" xlink:href="#DejaVuSans-2e"/>
       <use x="159.033203" xlink:href="#DejaVuSans-30"/>
      </g>
     </g>
    </g>
    <g id="ytick_8">
     <g id="line2d_15">
      <g>
       <use style="stroke:#000000;stroke-width:0.8;" x="57.6" xlink:href="#m861d18d553" y="85.14487"/>
      </g>
     </g>
     <g id="text_16">
      <!-- 17.5 -->
      <g transform="translate(28.334375 88.944089)scale(0.1 -0.1)">
       <use xlink:href="#DejaVuSans-31"/>
       <use x="63.623047" xlink:href="#DejaVuSans-37"/>
       <use x="127.246094" xlink:href="#DejaVuSans-2e"/>
       <use x="159.033203" xlink:href="#DejaVuSans-35"/>
      </g>
     </g>
    </g>
    <g id="ytick_9">
     <g id="line2d_16">
      <g>
       <use style="stroke:#000000;stroke-width:0.8;" x="57.6" xlink:href="#m861d18d553" y="55.095851"/>
      </g>
     </g>
     <g id="text_17">
      <!-- 20.0 -->
      <g transform="translate(28.334375 58.89507)scale(0.1 -0.1)">
       <use xlink:href="#DejaVuSans-32"/>
       <use x="63.623047" xlink:href="#DejaVuSans-30"/>
       <use x="127.246094" xlink:href="#DejaVuSans-2e"/>
       <use x="159.033203" xlink:href="#DejaVuSans-30"/>
      </g>
     </g>
    </g>
    <g id="text_18">
     <!-- Mass -->
     <defs>
      <path d="M 9.8125 72.90625 
L 24.515625 72.90625 
L 43.109375 23.296875 
L 61.8125 72.90625 
L 76.515625 72.90625 
L 76.515625 0 
L 66.890625 0 
L 66.890625 64.015625 
L 48.09375 14.015625 
L 38.1875 14.015625 
L 19.390625 64.015625 
L 19.390625 0 
L 9.8125 0 
z
" id="DejaVuSans-4d"/>
      <path d="M 44.28125 53.078125 
L 44.28125 44.578125 
Q 40.484375 46.53125 36.375 47.5 
Q 32.28125 48.484375 27.875 48.484375 
Q 21.1875 48.484375 17.84375 46.4375 
Q 14.5 44.390625 14.5 40.28125 
Q 14.5 37.15625 16.890625 35.375 
Q 19.28125 33.59375 26.515625 31.984375 
L 29.59375 31.296875 
Q 39.15625 29.25 43.1875 25.515625 
Q 47.21875 21.78125 47.21875 15.09375 
Q 47.21875 7.46875 41.1875 3.015625 
Q 35.15625 -1.421875 24.609375 -1.421875 
Q 20.21875 -1.421875 15.453125 -0.5625 
Q 10.6875 0.296875 5.421875 2 
L 5.421875 11.28125 
Q 10.40625 8.6875 15.234375 7.390625 
Q 20.0625 6.109375 24.8125 6.109375 
Q 31.15625 6.109375 34.5625 8.28125 
Q 37.984375 10.453125 37.984375 14.40625 
Q 37.984375 18.0625 35.515625 20.015625 
Q 33.0625 21.96875 24.703125 23.78125 
L 21.578125 24.515625 
Q 13.234375 26.265625 9.515625 29.90625 
Q 5.8125 33.546875 5.8125 39.890625 
Q 5.8125 47.609375 11.28125 51.796875 
Q 16.75 56 26.8125 56 
Q 31.78125 56 36.171875 55.265625 
Q 40.578125 54.546875 44.28125 53.078125 
z
" id="DejaVuSans-73"/>
     </defs>
     <g transform="translate(22.254688 187.1155)rotate(-90)scale(0.1 -0.1)">
      <use xlink:href="#DejaVuSans-4d"/>
      <use x="86.279297" xlink:href="#DejaVuSans-61"/>
      <use x="147.558594" xlink:href="#DejaVuSans-73"/>
      <use x="199.658203" xlink:href="#DejaVuSans-73"/>
     </g>
    </g>
   </g>
   <g id="line2d_17">
    <path clip-path="url(#pfd42c11c17)" d="M 75.978451 205.958493 
L 156.875313 205.810339 
L 175.211935 205.590134 
L 183.840933 205.289456 
L 188.155433 204.979527 
L 191.391307 204.57792 
L 193.548557 204.152409 
L 195.705806 203.490574 
L 196.784431 203.011975 
L 197.863056 202.377797 
L 198.941681 201.513451 
L 200.020306 200.295966 
L 201.098931 198.516244 
L 202.177555 195.819722 
L 203.25618 191.693134 
L 205.41343 180.418901 
L 206.492055 177.227823 
L 207.570679 176.191475 
L 208.649304 176.279947 
L 209.727929 176.840661 
L 214.042428 179.580059 
L 216.199678 180.565509 
L 218.356928 181.263036 
L 220.514177 181.720547 
L 222.671427 181.983499 
L 225.907301 182.092219 
L 229.143176 181.938439 
L 232.37905 181.586832 
L 236.69355 180.886902 
L 242.086674 179.73982 
L 248.558423 178.082742 
L 256.108796 175.885642 
L 264.737795 173.143092 
L 276.602668 169.117987 
L 292.78204 163.360017 
L 317.590411 154.260805 
L 398.487273 124.36865 
L 398.487273 124.36865 
" style="fill:none;stroke:#000000;stroke-linecap:square;stroke-width:1.5;"/>
   </g>
   <g id="line2d_18">
    <path clip-path="url(#pfd42c11c17)" d="M 75.978451 295.488 
L 200.020306 295.419092 
L 201.098931 295.345738 
L 202.177555 295.152435 
L 203.25618 294.554216 
L 204.334805 292.523579 
L 205.41343 286.90814 
L 206.492055 277.32316 
L 208.649304 256.07515 
L 209.727929 247.233914 
L 210.806554 239.849268 
L 211.885179 233.720528 
L 212.963804 228.613 
L 214.042428 224.319203 
L 215.121053 220.67131 
L 216.199678 217.537989 
L 217.278303 214.817552 
L 218.356928 212.431282 
L 220.514177 208.429585 
L 222.671427 205.183821 
L 224.828677 202.472857 
L 226.985926 200.151674 
L 229.143176 198.122038 
L 232.37905 195.479884 
L 235.614925 193.188327 
L 238.850799 191.148574 
L 243.165299 188.710674 
L 248.558423 185.981325 
L 255.030172 183.020207 
L 262.580545 179.850055 
L 271.209544 176.470728 
L 281.995792 172.480662 
L 296.017915 167.536917 
L 314.354537 161.326229 
L 337.005658 153.905581 
L 362.892654 145.666705 
L 390.936899 136.983167 
L 398.487273 134.68554 
L 398.487273 134.68554 
" style="fill:none;stroke:#000000;stroke-linecap:square;stroke-width:1.5;"/>
   </g>
   <g id="line2d_19">
    <path clip-path="url(#pfd42c11c17)" d="M 75.978451 295.488 
L 200.020306 295.418352 
L 201.098931 295.344163 
L 202.177555 295.1486 
L 203.25618 294.543167 
L 204.334805 292.487185 
L 205.41343 286.799139 
L 206.492055 277.085905 
L 208.649304 255.537862 
L 209.727929 246.563613 
L 210.806554 239.062242 
L 211.885179 232.831161 
L 212.963804 227.633097 
L 214.042428 223.258188 
L 215.121053 219.536644 
L 216.199678 216.335584 
L 217.278303 213.552109 
L 218.356928 211.106564 
L 220.514177 206.994837 
L 222.671427 203.647153 
L 224.828677 200.839736 
L 226.985926 198.425837 
L 229.143176 196.306054 
L 232.37905 193.53179 
L 235.614925 191.1103 
L 238.850799 188.941639 
L 243.165299 186.332178 
L 248.558423 183.387343 
L 255.030172 180.164395 
L 262.580545 176.682639 
L 272.288169 172.482224 
L 284.153042 167.602584 
L 300.332414 161.20237 
L 322.983535 152.499162 
L 354.263655 140.72913 
L 393.094149 126.357626 
L 398.487273 124.379195 
L 398.487273 124.379195 
" style="fill:none;stroke:#100e0d;stroke-linecap:square;stroke-width:1.5;"/>
   </g>
   <g id="line2d_20">
    <path clip-path="url(#pfd42c11c17)" d="M 75.978451 204.131104 
L 156.875313 203.988769 
L 175.211935 203.777269 
L 183.840933 203.488586 
L 189.234057 203.084089 
L 192.469932 202.622704 
L 194.627182 202.118409 
L 196.784431 201.306152 
L 197.863056 200.699793 
L 198.941681 199.874342 
L 200.020306 198.7136 
L 201.098931 197.021088 
L 202.177555 194.46695 
L 203.25618 190.585184 
L 205.41343 180.259291 
L 206.492055 177.570114 
L 207.570679 176.914259 
L 208.649304 177.275642 
L 210.806554 178.894566 
L 212.963804 180.503506 
L 215.121053 181.774006 
L 217.278303 182.706493 
L 219.435552 183.357773 
L 221.592802 183.784138 
L 223.750052 184.031294 
L 226.985926 184.141069 
L 230.221801 184.012066 
L 234.5363 183.568326 
L 238.850799 182.897579 
L 244.243923 181.83131 
L 250.715672 180.316866 
L 259.344671 178.032447 
L 270.130919 174.912639 
L 285.231667 170.276875 
L 311.118662 162.047971 
L 358.578154 146.973335 
L 388.779649 137.628276 
L 398.487273 134.675943 
L 398.487273 134.675943 
" style="fill:none;stroke:#100d0d;stroke-linecap:square;stroke-width:1.5;"/>
   </g>
   <g id="line2d_21">
    <path clip-path="url(#pfd42c11c17)" d="M 75.978451 205.958242 
L 157.953938 205.812183 
L 176.29056 205.587814 
L 184.919558 205.270223 
L 189.234057 204.931879 
L 192.469932 204.479294 
L 194.627182 203.984322 
L 196.784431 203.186286 
L 197.863056 202.589777 
L 198.941681 201.776463 
L 200.020306 200.629788 
L 201.098931 198.94977 
L 202.177555 196.389671 
L 203.25618 192.411696 
L 205.41343 180.817528 
L 206.492055 177.330585 
L 207.570679 176.191041 
L 208.649304 176.275494 
L 209.727929 176.862596 
L 212.963804 179.069084 
L 215.121053 180.236125 
L 217.278303 181.083903 
L 219.435552 181.658797 
L 221.592802 182.012576 
L 223.750052 182.18877 
L 226.985926 182.192826 
L 230.221801 181.95742 
L 234.5363 181.369361 
L 238.850799 180.550759 
L 244.243923 179.294235 
L 250.715672 177.543298 
L 258.266046 175.269834 
L 267.973669 172.106179 
L 280.917167 167.629978 
L 299.253789 161.020165 
L 331.612534 149.069224 
L 397.408648 124.763922 
L 398.487273 124.369038 
L 398.487273 124.369038 
" style="fill:none;stroke:#232116;stroke-linecap:square;stroke-width:1.5;"/>
   </g>
   <g id="line2d_22">
    <path clip-path="url(#pfd42c11c17)" d="M 75.978451 295.488 
L 200.020306 295.429509 
L 202.177555 295.204751 
L 203.25618 294.69753 
L 204.334805 292.913616 
L 205.41343 287.604709 
L 206.492055 277.978984 
L 208.649304 256.130288 
L 209.727929 247.071496 
L 210.806554 239.550854 
L 211.885179 233.345255 
L 212.963804 228.199668 
L 214.042428 223.892132 
L 215.121053 220.245314 
L 216.199678 217.121833 
L 217.278303 214.416202 
L 218.356928 212.047333 
L 220.514177 208.082911 
L 222.671427 204.873362 
L 224.828677 202.195449 
L 226.985926 199.903659 
L 229.143176 197.899888 
L 232.37905 195.290694 
L 235.614925 193.02626 
L 238.850799 191.008966 
L 243.165299 188.595359 
L 248.558423 185.889569 
L 255.030172 182.949616 
L 262.580545 179.79743 
L 272.288169 176.025212 
L 284.153042 171.681446 
L 299.253789 166.409778 
L 318.669036 159.887665 
L 342.398782 152.166992 
L 368.285778 143.976966 
L 396.330023 135.339905 
L 398.487273 134.685181 
L 398.487273 134.685181 
" style="fill:none;stroke:#231816;stroke-linecap:square;stroke-width:1.5;"/>
   </g>
   <g id="line2d_23">
    <path clip-path="url(#pfd42c11c17)" d="M 75.978451 295.488 
L 200.020306 295.428882 
L 202.177555 295.20152 
L 203.25618 294.688196 
L 204.334805 292.882066 
L 205.41343 287.504643 
L 206.492055 277.750343 
L 208.649304 255.593747 
L 209.727929 246.398967 
L 210.806554 238.759685 
L 211.885179 232.450619 
L 212.963804 227.213893 
L 214.042428 222.824981 
L 215.121053 219.104457 
L 216.199678 215.91331 
L 217.278303 213.144791 
L 218.356928 210.71684 
L 220.514177 206.642826 
L 222.671427 203.331799 
L 224.828677 200.557849 
L 226.985926 198.173721 
L 229.143176 196.080143 
L 232.37905 193.33928 
L 235.614925 190.945288 
L 238.850799 188.799402 
L 243.165299 186.214589 
L 248.558423 183.293672 
L 255.030172 180.09223 
L 262.580545 176.628751 
L 272.288169 172.444715 
L 285.231667 167.145035 
L 302.489664 160.350685 
L 326.21941 151.265521 
L 359.656779 138.717461 
L 398.487273 124.378815 
L 398.487273 124.378815 
" style="fill:none;stroke:#2f391c;stroke-linecap:square;stroke-width:1.5;"/>
   </g>
   <g id="line2d_24">
    <path clip-path="url(#pfd42c11c17)" d="M 75.978451 204.130862 
L 159.032562 203.983835 
L 176.29056 203.775041 
L 184.919558 203.470125 
L 189.234057 203.145439 
L 192.469932 202.711377 
L 194.627182 202.237 
L 196.784431 201.472919 
L 197.863056 200.902404 
L 198.941681 200.125393 
L 200.020306 199.031623 
L 201.098931 197.432875 
L 202.177555 195.005689 
L 203.25618 191.258424 
L 205.41343 180.609862 
L 206.492055 177.64703 
L 207.570679 176.904135 
L 208.649304 177.27004 
L 210.806554 178.950904 
L 212.963804 180.606147 
L 215.121053 181.900961 
L 217.278303 182.843792 
L 219.435552 183.497412 
L 221.592802 183.921647 
L 223.750052 184.164224 
L 226.985926 184.264941 
L 230.221801 184.125966 
L 234.5363 183.669064 
L 238.850799 182.986084 
L 244.243923 181.906225 
L 250.715672 180.377955 
L 259.344671 178.078796 
L 270.130919 174.945296 
L 285.231667 170.296705 
L 312.197287 161.710659 
L 357.49953 147.312908 
L 387.701025 137.958413 
L 398.487273 134.676284 
L 398.487273 134.676284 
" style="fill:none;stroke:#39221c;stroke-linecap:square;stroke-width:1.5;"/>
   </g>
   <g id="line2d_25">
    <path clip-path="url(#pfd42c11c17)" d="M 75.978451 205.958005 
L 159.032562 205.813916 
L 177.369184 205.584729 
L 184.919558 205.310391 
L 189.234057 204.992044 
L 192.469932 204.566297 
L 194.627182 204.100757 
L 196.784431 203.350237 
L 197.863056 202.789198 
L 198.941681 202.024026 
L 200.020306 200.944409 
L 201.098931 199.359651 
L 202.177555 196.932955 
L 203.25618 193.112043 
L 205.41343 181.251345 
L 206.492055 177.445521 
L 207.570679 176.191913 
L 208.649304 176.270934 
L 209.727929 176.885139 
L 212.963804 179.169555 
L 215.121053 180.361852 
L 217.278303 181.220724 
L 219.435552 181.798503 
L 221.592802 182.150535 
L 223.750052 182.322418 
L 226.985926 182.317674 
L 230.221801 182.072441 
L 234.5363 181.471307 
L 238.850799 180.640488 
L 244.243923 179.370337 
L 250.715672 177.60549 
L 258.266046 175.3188 
L 267.973669 172.142035 
L 280.917167 167.653487 
L 299.253789 161.032924 
L 332.691159 148.672909 
L 396.330023 125.15934 
L 398.487273 124.369398 
L 398.487273 124.369398 
" style="fill:none;stroke:#2b521f;stroke-linecap:square;stroke-width:1.5;"/>
   </g>
   <g id="line2d_26">
    <path clip-path="url(#pfd42c11c17)" d="M 75.978451 295.488 
L 201.098931 295.386036 
L 202.177555 295.248832 
L 203.25618 294.819724 
L 204.334805 293.263661 
L 205.41343 288.28386 
L 206.492055 278.648011 
L 208.649304 256.186919 
L 209.727929 246.905698 
L 210.806554 239.248188 
L 211.885179 232.966857 
L 212.963804 227.785001 
L 214.042428 223.465535 
L 215.121053 219.82136 
L 216.199678 216.708975 
L 217.278303 214.019109 
L 218.356928 211.668343 
L 220.514177 207.742016 
L 222.671427 204.568977 
L 224.828677 201.924107 
L 226.985926 199.661532 
L 229.143176 197.683359 
L 232.37905 195.106653 
L 235.614925 192.868858 
L 238.850799 190.873562 
L 243.165299 188.483692 
L 248.558423 185.800868 
L 255.030172 182.8815 
L 262.580545 179.746752 
L 272.288169 175.990104 
L 284.153042 171.658758 
L 299.253789 166.396645 
L 318.669036 159.881147 
L 342.398782 152.164245 
L 369.364403 143.639369 
L 397.408648 135.012026 
L 398.487273 134.684848 
L 398.487273 134.684848 
" style="fill:none;stroke:#522e1f;stroke-linecap:square;stroke-width:1.5;"/>
   </g>
   <g id="line2d_27">
    <path clip-path="url(#pfd42c11c17)" d="M 75.978451 295.488 
L 201.098931 295.384911 
L 202.177555 295.246108 
L 203.25618 294.811847 
L 204.334805 293.236449 
L 205.41343 288.192499 
L 206.492055 278.428155 
L 208.649304 255.651146 
L 209.727929 246.230895 
L 210.806554 238.452819 
L 211.885179 232.066909 
L 212.963804 226.793342 
L 214.042428 222.392261 
L 215.121053 218.67435 
L 216.199678 215.494392 
L 217.278303 212.741801 
L 218.356928 210.332157 
L 220.514177 206.296689 
L 222.671427 203.022625 
L 224.828677 200.282134 
L 226.985926 197.927598 
L 229.143176 195.859953 
L 232.37905 193.152016 
L 235.614925 190.785029 
L 238.850799 188.661453 
L 243.165299 186.100723 
L 248.558423 183.203122 
L 255.030172 180.022597 
L 262.580545 176.576858 
L 272.288169 172.408686 
L 285.231667 167.12258 
L 302.489664 160.338606 
L 327.298035 150.852018 
L 360.735404 138.314632 
L 398.487273 124.378463 
L 398.487273 124.378463 
" style="fill:none;stroke:#1f6e31;stroke-linecap:square;stroke-width:1.5;"/>
   </g>
   <g id="line2d_28">
    <path clip-path="url(#pfd42c11c17)" d="M 75.978451 204.130635 
L 160.111187 203.985489 
L 177.369184 203.772078 
L 184.919558 203.508681 
L 189.234057 203.203162 
L 192.469932 202.794796 
L 194.627182 202.348558 
L 196.784431 201.629816 
L 197.863056 201.093074 
L 198.941681 200.361796 
L 200.020306 199.331517 
L 201.098931 197.822492 
L 202.177555 195.519781 
L 203.25618 191.915735 
L 205.41343 180.993779 
L 206.492055 177.734832 
L 207.570679 176.894921 
L 208.649304 177.2643 
L 210.806554 179.008531 
L 212.963804 180.710219 
L 215.121053 182.028773 
L 217.278303 182.981264 
L 219.435552 183.636632 
L 221.592802 184.058275 
L 223.750052 184.29593 
L 226.985926 184.38725 
L 230.221801 184.238114 
L 234.5363 183.767947 
L 238.850799 183.072736 
L 244.243923 181.979366 
L 250.715672 180.437422 
L 259.344671 178.123757 
L 270.130919 174.976849 
L 285.231667 170.315766 
L 313.275912 161.372388 
L 356.420905 147.652782 
L 386.6224 138.288871 
L 398.487273 134.676599 
L 398.487273 134.676599 
" style="fill:none;stroke:#6e3c1f;stroke-linecap:square;stroke-width:1.5;"/>
   </g>
   <g id="line2d_29">
    <path clip-path="url(#pfd42c11c17)" d="M 75.978451 205.957782 
L 160.111187 205.815537 
L 177.369184 205.606377 
L 184.919558 205.34819 
L 189.234057 205.048648 
L 192.469932 204.648136 
L 194.627182 204.210267 
L 196.784431 203.504435 
L 197.863056 202.976786 
L 198.941681 202.256997 
L 200.020306 201.240799 
L 201.098931 199.746803 
L 202.177555 197.449691 
L 203.25618 193.791258 
L 204.334805 188.183897 
L 205.41343 181.721616 
L 206.492055 177.573852 
L 207.570679 176.194241 
L 208.649304 176.266267 
L 209.727929 176.908308 
L 212.963804 179.271506 
L 215.121053 180.488495 
L 217.278303 181.357774 
L 219.435552 181.937833 
L 221.592802 182.287645 
L 223.750052 182.454865 
L 226.985926 182.440969 
L 230.221801 182.18571 
L 234.5363 181.571387 
L 238.850799 180.728347 
L 244.243923 179.444643 
L 250.715672 177.666033 
L 258.266046 175.366322 
L 267.973669 172.176707 
L 280.917167 167.676116 
L 299.253789 161.045131 
L 333.769783 148.276066 
L 395.251398 125.554906 
L 398.487273 124.369732 
L 398.487273 124.369732 
" style="fill:none;stroke:#1c8e68;stroke-linecap:square;stroke-width:1.5;"/>
   </g>
   <g id="line2d_30">
    <path clip-path="url(#pfd42c11c17)" d="M 75.978451 295.488 
L 201.098931 295.401587 
L 202.177555 295.28596 
L 203.25618 294.923541 
L 204.334805 293.574971 
L 205.41343 288.941651 
L 206.492055 279.32952 
L 208.649304 256.245087 
L 209.727929 246.736473 
L 210.806554 238.941297 
L 211.885179 232.58545 
L 212.963804 227.369176 
L 214.042428 223.039605 
L 215.121053 219.399627 
L 216.199678 216.299568 
L 217.278303 213.62639 
L 218.356928 211.294394 
L 220.514177 207.406915 
L 222.671427 204.270634 
L 224.828677 201.658762 
L 226.985926 199.425199 
L 229.143176 197.472341 
L 232.37905 194.927641 
L 235.614925 192.715998 
L 238.850799 190.742241 
L 243.165299 188.375559 
L 248.558423 185.715118 
L 255.030172 182.81577 
L 262.580545 179.697948 
L 272.288169 175.956377 
L 284.153042 171.637029 
L 299.253789 166.384118 
L 318.669036 159.874961 
L 342.398782 152.161656 
L 369.364403 143.638426 
L 397.408648 135.011704 
L 398.487273 134.684539 
L 398.487273 134.684539 
" style="fill:none;stroke:#8e4d1c;stroke-linecap:square;stroke-width:1.5;"/>
   </g>
   <g id="line2d_31">
    <path clip-path="url(#pfd42c11c17)" d="M 75.978451 295.488 
L 201.098931 295.400634 
L 202.177555 295.283662 
L 203.25618 294.916901 
L 204.334805 293.551611 
L 205.41343 288.858716 
L 206.492055 279.118616 
L 208.649304 255.710102 
L 209.727929 246.059349 
L 210.806554 238.141671 
L 211.885179 231.680153 
L 212.963804 226.371619 
L 214.042428 221.960224 
L 215.121053 218.246502 
L 216.199678 215.078982 
L 217.278303 212.343259 
L 218.356928 209.952598 
L 220.514177 205.956445 
L 222.671427 202.719593 
L 224.828677 200.012521 
L 226.985926 197.687372 
L 229.143176 195.645376 
L 232.37905 192.969874 
L 235.614925 190.6294 
L 239.929424 187.868544 
L 244.243923 185.392867 
L 249.637047 182.570285 
L 256.108796 179.451275 
L 263.65917 176.053567 
L 273.366794 171.925188 
L 286.310291 166.670835 
L 304.646913 159.493358 
L 330.533909 149.624545 
L 366.128528 136.309704 
L 398.487273 124.378136 
L 398.487273 124.378136 
" style="fill:none;stroke:#169fb0;stroke-linecap:square;stroke-width:1.5;"/>
   </g>
   <g id="line2d_32">
    <path clip-path="url(#pfd42c11c17)" d="M 75.978451 204.130421 
L 161.189812 203.987026 
L 178.447809 203.768304 
L 185.998183 203.488216 
L 190.312682 203.151966 
L 193.548557 202.686262 
L 195.705806 202.158648 
L 196.784431 201.777416 
L 197.863056 201.272483 
L 198.941681 200.58435 
L 200.020306 199.614177 
L 201.098931 198.19076 
L 202.177555 196.009247 
L 203.25618 192.554233 
L 204.334805 187.314771 
L 205.41343 181.412381 
L 206.492055 177.834676 
L 207.570679 176.886745 
L 208.649304 177.258418 
L 210.806554 179.067464 
L 212.963804 180.815701 
L 215.121053 182.157391 
L 217.278303 183.11885 
L 219.435552 183.775378 
L 221.592802 184.193977 
L 223.750052 184.426379 
L 226.985926 184.507981 
L 230.221801 184.34851 
L 234.5363 183.864989 
L 238.850799 183.157557 
L 244.243923 182.050763 
L 250.715672 180.495301 
L 259.344671 178.167365 
L 270.130919 175.007332 
L 285.231667 170.334085 
L 314.354537 161.033252 
L 356.420905 147.654233 
L 386.6224 138.289334 
L 398.487273 134.676892 
L 398.487273 134.676892 
" style="fill:none;stroke:#b06416;stroke-linecap:square;stroke-width:1.5;"/>
   </g>
   <g id="line2d_33">
    <path clip-path="url(#pfd42c11c17)" d="M 75.978451 205.957573 
L 161.189812 205.817043 
L 178.447809 205.602677 
L 185.998183 205.328128 
L 190.312682 204.998447 
L 193.548557 204.541663 
L 195.705806 204.023848 
L 196.784431 203.649458 
L 197.863056 203.153227 
L 198.941681 202.476198 
L 200.020306 201.519911 
L 201.098931 200.11219 
L 202.177555 197.940258 
L 203.25618 194.447075 
L 204.334805 188.940622 
L 205.41343 182.229158 
L 206.492055 177.71691 
L 207.570679 176.198188 
L 208.649304 176.261491 
L 209.727929 176.932119 
L 212.963804 179.374917 
L 215.121053 180.616005 
L 217.278303 181.494992 
L 219.435552 182.076732 
L 221.592802 182.423861 
L 223.750052 182.586075 
L 226.985926 182.562692 
L 230.221801 182.297223 
L 234.5363 181.669614 
L 238.850799 180.814355 
L 244.243923 179.517183 
L 250.715672 177.724964 
L 259.344671 175.067455 
L 270.130919 171.473757 
L 284.153042 166.54173 
L 304.646913 159.073904 
L 355.34228 140.270847 
L 398.487273 124.370042 
L 398.487273 124.370042 
" style="fill:none;stroke:#0d66d6;stroke-linecap:square;stroke-width:1.5;"/>
   </g>
   <g id="line2d_34">
    <path clip-path="url(#pfd42c11c17)" d="M 75.978451 295.488 
L 201.098931 295.414714 
L 202.177555 295.31723 
L 203.25618 295.011499 
L 204.334805 293.849465 
L 205.41343 289.574167 
L 206.492055 280.022616 
L 208.649304 256.304836 
L 209.727929 246.563773 
L 210.806554 238.630211 
L 211.885179 232.201159 
L 212.963804 226.952367 
L 214.042428 222.614529 
L 215.121053 218.98029 
L 216.199678 215.893757 
L 217.278303 213.238156 
L 218.356928 210.925558 
L 220.514177 207.077617 
L 222.671427 203.978291 
L 224.828677 201.399341 
L 226.985926 199.194566 
L 229.143176 197.266725 
L 232.37905 194.753539 
L 235.614925 192.567559 
L 239.929424 190.00455 
L 244.243923 187.720853 
L 249.637047 185.133772 
L 256.108796 182.294848 
L 263.65917 179.224574 
L 273.366794 175.522947 
L 286.310291 170.85351 
L 302.489664 165.272714 
L 322.983535 158.450334 
L 347.791906 150.435983 
L 374.757527 141.960489 
L 398.487273 134.684254 
L 398.487273 134.684254 
" style="fill:none;stroke:#d6800d;stroke-linecap:square;stroke-width:1.5;"/>
   </g>
   <g id="line2d_35">
    <path clip-path="url(#pfd42c11c17)" d="M 75.978451 295.488 
L 201.098931 295.413907 
L 202.177555 295.315291 
L 203.25618 295.005903 
L 204.334805 293.829494 
L 205.41343 289.499328 
L 206.492055 279.820815 
L 208.649304 255.77066 
L 209.727929 245.884281 
L 210.806554 237.826272 
L 211.885179 231.290476 
L 212.963804 225.948905 
L 214.042428 221.52906 
L 215.121053 217.821093 
L 216.199678 214.667228 
L 217.278303 211.949276 
L 218.356928 209.578239 
L 220.514177 205.622101 
L 222.671427 202.422665 
L 224.828677 199.748934 
L 226.985926 197.452946 
L 229.143176 195.436298 
L 232.37905 192.792734 
L 235.614925 190.478277 
L 239.929424 187.745079 
L 244.243923 185.291046 
L 249.637047 182.489408 
L 256.108796 179.389186 
L 264.737795 175.539358 
L 275.524043 171.003934 
L 289.546166 165.369003 
L 308.961413 157.823633 
L 337.005658 147.182995 
L 373.678902 133.511315 
L 398.487273 124.377834 
L 398.487273 124.377834 
" style="fill:none;stroke:#0000ff;stroke-linecap:square;stroke-width:1.5;"/>
   </g>
   <g id="line2d_36">
    <path clip-path="url(#pfd42c11c17)" d="M 75.978451 204.130219 
L 162.268437 203.98844 
L 179.526434 203.763626 
L 187.076808 203.464102 
L 191.391307 203.090636 
L 194.627182 202.552217 
L 196.784431 201.916266 
L 197.863056 201.441281 
L 198.941681 200.793824 
L 200.020306 199.880484 
L 201.098931 198.538548 
L 202.177555 196.47436 
L 203.25618 193.171653 
L 204.334805 188.016888 
L 205.41343 181.866604 
L 206.492055 177.94782 
L 207.570679 176.87975 
L 208.649304 177.252394 
L 210.806554 179.12772 
L 212.963804 180.922571 
L 215.121053 182.286764 
L 217.278303 183.256492 
L 219.435552 183.913598 
L 221.592802 184.328711 
L 223.750052 184.555541 
L 226.985926 184.627119 
L 230.221801 184.457152 
L 234.5363 183.960202 
L 238.850799 183.240568 
L 244.243923 182.120446 
L 250.715672 180.551627 
L 259.344671 178.209657 
L 270.130919 175.036778 
L 286.310291 170.010778 
L 319.747661 159.309014 
L 357.49953 147.317093 
L 387.701025 137.959748 
L 398.487273 134.677163 
L 398.487273 134.677163 
" style="fill:none;stroke:#ffa500;stroke-linecap:square;stroke-width:1.5;"/>
   </g>
   <g id="line2d_37">
    <path clip-path="url(#pfd42c11c17)" d="M 75.978451 295.488 
L 201.098931 295.413907 
L 202.177555 295.315291 
L 203.25618 295.005903 
L 204.334805 293.829494 
L 205.41343 289.499328 
L 206.492055 279.820815 
L 208.649304 255.77066 
L 209.727929 245.884281 
L 210.806554 237.826272 
L 211.885179 231.290476 
L 212.963804 225.948905 
L 214.042428 221.52906 
L 215.121053 217.821093 
L 216.199678 214.667228 
L 217.278303 211.949276 
L 218.356928 209.578239 
L 220.514177 205.622101 
L 222.671427 202.422665 
L 224.828677 199.748934 
L 226.985926 197.452946 
L 229.143176 195.436298 
L 232.37905 192.792734 
L 235.614925 190.478277 
L 239.929424 187.745079 
L 244.243923 185.291046 
L 249.637047 182.489408 
L 256.108796 179.389186 
L 264.737795 175.539358 
L 275.524043 171.003934 
L 289.546166 165.369003 
L 308.961413 157.823633 
L 337.005658 147.182995 
L 373.678902 133.511315 
L 398.487273 124.377834 
L 398.487273 124.377834 
" style="fill:none;stroke:#0000ff;stroke-linecap:square;stroke-width:1.5;"/>
   </g>
   <g id="line2d_38">
    <path clip-path="url(#pfd42c11c17)" d="M 75.978451 204.130219 
L 162.268437 203.98844 
L 179.526434 203.763626 
L 187.076808 203.464102 
L 191.391307 203.090636 
L 194.627182 202.552217 
L 196.784431 201.916266 
L 197.863056 201.441281 
L 198.941681 200.793824 
L 200.020306 199.880484 
L 201.098931 198.538548 
L 202.177555 196.47436 
L 203.25618 193.171653 
L 204.334805 188.016888 
L 205.41343 181.866604 
L 206.492055 177.94782 
L 207.570679 176.87975 
L 208.649304 177.252394 
L 210.806554 179.12772 
L 212.963804 180.922571 
L 215.121053 182.286764 
L 217.278303 183.256492 
L 219.435552 183.913598 
L 221.592802 184.328711 
L 223.750052 184.555541 
L 226.985926 184.627119 
L 230.221801 184.457152 
L 234.5363 183.960202 
L 238.850799 183.240568 
L 244.243923 182.120446 
L 250.715672 180.551627 
L 259.344671 178.209657 
L 270.130919 175.036778 
L 286.310291 170.010778 
L 319.747661 159.309014 
L 357.49953 147.317093 
L 387.701025 137.959748 
L 398.487273 134.677163 
L 398.487273 134.677163 
" style="fill:none;stroke:#ffa500;stroke-linecap:square;stroke-width:1.5;"/>
   </g>
   <g id="patch_3">
    <path d="M 57.6 307.584 
L 57.6 41.472 
" style="fill:none;stroke:#000000;stroke-linecap:square;stroke-linejoin:miter;stroke-width:0.8;"/>
   </g>
   <g id="patch_4">
    <path d="M 414.72 307.584 
L 414.72 41.472 
" style="fill:none;stroke:#000000;stroke-linecap:square;stroke-linejoin:miter;stroke-width:0.8;"/>
   </g>
   <g id="patch_5">
    <path d="M 57.6 307.584 
L 414.72 307.584 
" style="fill:none;stroke:#000000;stroke-linecap:square;stroke-linejoin:miter;stroke-width:0.8;"/>
   </g>
   <g id="patch_6">
    <path d="M 57.6 41.472 
L 414.72 41.472 
" style="fill:none;stroke:#000000;stroke-linecap:square;stroke-linejoin:miter;stroke-width:0.8;"/>
   </g>
   <g id="legend_1">
    <g id="patch_7">
     <path d="M 341.340313 78.82825 
L 407.72 78.82825 
Q 409.72 78.82825 409.72 76.82825 
L 409.72 48.472 
Q 409.72 46.472 407.72 46.472 
L 341.340313 46.472 
Q 339.340313 46.472 339.340313 48.472 
L 339.340313 76.82825 
Q 339.340313 78.82825 341.340313 78.82825 
z
" style="fill:#ffffff;opacity:0.8;stroke:#cccccc;stroke-linejoin:miter;"/>
    </g>
    <g id="line2d_39">
     <path d="M 343.340313 54.570437 
L 363.340313 54.570437 
" style="fill:none;stroke:#0000ff;stroke-linecap:square;stroke-width:1.5;"/>
    </g>
    <g id="line2d_40"/>
    <g id="text_19">
     <!-- Prey -->
     <defs>
      <path d="M 32.171875 -5.078125 
Q 28.375 -14.84375 24.75 -17.8125 
Q 21.140625 -20.796875 15.09375 -20.796875 
L 7.90625 -20.796875 
L 7.90625 -13.28125 
L 13.1875 -13.28125 
Q 16.890625 -13.28125 18.9375 -11.515625 
Q 21 -9.765625 23.484375 -3.21875 
L 25.09375 0.875 
L 2.984375 54.6875 
L 12.5 54.6875 
L 29.59375 11.921875 
L 46.6875 54.6875 
L 56.203125 54.6875 
z
" id="DejaVuSans-79"/>
     </defs>
     <g transform="translate(371.340313 58.070437)scale(0.1 -0.1)">
      <use xlink:href="#DejaVuSans-50"/>
      <use x="60.287109" xlink:href="#DejaVuSans-72"/>
      <use x="101.369141" xlink:href="#DejaVuSans-65"/>
      <use x="162.892578" xlink:href="#DejaVuSans-79"/>
     </g>
    </g>
    <g id="line2d_41">
     <path d="M 343.340313 69.248562 
L 363.340313 69.248562 
" style="fill:none;stroke:#ffa500;stroke-linecap:square;stroke-width:1.5;"/>
    </g>
    <g id="line2d_42"/>
    <g id="text_20">
     <!-- Hunter -->
     <defs>
      <path d="M 9.8125 72.90625 
L 19.671875 72.90625 
L 19.671875 43.015625 
L 55.515625 43.015625 
L 55.515625 72.90625 
L 65.375 72.90625 
L 65.375 0 
L 55.515625 0 
L 55.515625 34.71875 
L 19.671875 34.71875 
L 19.671875 0 
L 9.8125 0 
z
" id="DejaVuSans-48"/>
      <path d="M 8.5 21.578125 
L 8.5 54.6875 
L 17.484375 54.6875 
L 17.484375 21.921875 
Q 17.484375 14.15625 20.5 10.265625 
Q 23.53125 6.390625 29.59375 6.390625 
Q 36.859375 6.390625 41.078125 11.03125 
Q 45.3125 15.671875 45.3125 23.6875 
L 45.3125 54.6875 
L 54.296875 54.6875 
L 54.296875 0 
L 45.3125 0 
L 45.3125 8.40625 
Q 42.046875 3.421875 37.71875 1 
Q 33.40625 -1.421875 27.6875 -1.421875 
Q 18.265625 -1.421875 13.375 4.4375 
Q 8.5 10.296875 8.5 21.578125 
z
M 31.109375 56 
z
" id="DejaVuSans-75"/>
      <path d="M 54.890625 33.015625 
L 54.890625 0 
L 45.90625 0 
L 45.90625 32.71875 
Q 45.90625 40.484375 42.875 44.328125 
Q 39.84375 48.1875 33.796875 48.1875 
Q 26.515625 48.1875 22.3125 43.546875 
Q 18.109375 38.921875 18.109375 30.90625 
L 18.109375 0 
L 9.078125 0 
L 9.078125 54.6875 
L 18.109375 54.6875 
L 18.109375 46.1875 
Q 21.34375 51.125 25.703125 53.5625 
Q 30.078125 56 35.796875 56 
Q 45.21875 56 50.046875 50.171875 
Q 54.890625 44.34375 54.890625 33.015625 
z
" id="DejaVuSans-6e"/>
     </defs>
     <g transform="translate(371.340313 72.748562)scale(0.1 -0.1)">
      <use xlink:href="#DejaVuSans-48"/>
      <use x="75.195312" xlink:href="#DejaVuSans-75"/>
      <use x="138.574219" xlink:href="#DejaVuSans-6e"/>
      <use x="201.953125" xlink:href="#DejaVuSans-74"/>
      <use x="241.162109" xlink:href="#DejaVuSans-65"/>
      <use x="302.685547" xlink:href="#DejaVuSans-72"/>
     </g>
    </g>
   </g>
  </g>
 </g>
 <defs>
  <clipPath id="pfd42c11c17">
   <rect height="266.112" width="357.12" x="57.6" y="41.472"/>
  </clipPath>
 </defs>
</svg>
