<?xml version="1.0" encoding="utf-8" standalone="no"?>
<!DOCTYPE svg PUBLIC "-//W3C//DTD SVG 1.1//EN"
  "http://www.w3.org/Graphics/SVG/1.1/DTD/svg11.dtd">
<!-- Created with matplotlib (http://matplotlib.org/) -->
<svg height="345.6pt" version="1.1" viewBox="0 0 460.8 345.6" width="460.8pt" xmlns="http://www.w3.org/2000/svg" xmlns:xlink="http://www.w3.org/1999/xlink">
 <defs>
  <style type="text/css">
*{stroke-linecap:butt;stroke-linejoin:round;}
  </style>
 </defs>
 <g id="figure_1">
  <g id="patch_1">
   <path d="M 0 345.6 
L 460.8 345.6 
L 460.8 0 
L 0 0 
z
" style="fill:#ffffff;"/>
  </g>
  <g id="axes_1">
   <g id="patch_2">
    <path d="M 57.6 307.584 
L 414.72 307.584 
L 414.72 41.472 
L 57.6 41.472 
z
" style="fill:#ffffff;"/>
   </g>
   <g id="PathCollection_1">
    <defs>
     <path d="M 0 3 
C 0.795609 3 1.55874 2.683901 2.12132 2.12132 
C 2.683901 1.55874 3 0.795609 3 0 
C 3 -0.795609 2.683901 -1.55874 2.12132 -2.12132 
C 1.55874 -2.683901 0.795609 -3 0 -3 
C -0.795609 -3 -1.55874 -2.683901 -2.12132 -2.12132 
C -2.683901 -1.55874 -3 -0.795609 -3 0 
C -3 0.795609 -2.683901 1.55874 -2.12132 2.12132 
C -1.55874 2.683901 -0.795609 3 0 3 
z
" id="m6afe524a01" style="stroke:#008000;"/>
    </defs>
    <g clip-path="url(#p04772126eb)">
     <use style="fill:#008000;stroke:#008000;" x="75.978451" xlink:href="#m6afe524a01" y="235.291237"/>
     <use style="fill:#008000;stroke:#008000;" x="75.978451" xlink:href="#m6afe524a01" y="54.700919"/>
    </g>
   </g>
   <g id="matplotlib.axis_1">
    <g id="xtick_1">
     <g id="line2d_1">
      <defs>
       <path d="M 0 0 
L 0 3.5 
" id="m08bd209bc9" style="stroke:#000000;stroke-width:0.8;"/>
      </defs>
      <g>
       <use style="stroke:#000000;stroke-width:0.8;" x="75.978451" xlink:href="#m08bd209bc9" y="307.584"/>
      </g>
     </g>
     <g id="text_1">
      <!-- 0.0 -->
      <defs>
       <path d="M 31.78125 66.40625 
Q 24.171875 66.40625 20.328125 58.90625 
Q 16.5 51.421875 16.5 36.375 
Q 16.5 21.390625 20.328125 13.890625 
Q 24.171875 6.390625 31.78125 6.390625 
Q 39.453125 6.390625 43.28125 13.890625 
Q 47.125 21.390625 47.125 36.375 
Q 47.125 51.421875 43.28125 58.90625 
Q 39.453125 66.40625 31.78125 66.40625 
z
M 31.78125 74.21875 
Q 44.046875 74.21875 50.515625 64.515625 
Q 56.984375 54.828125 56.984375 36.375 
Q 56.984375 17.96875 50.515625 8.265625 
Q 44.046875 -1.421875 31.78125 -1.421875 
Q 19.53125 -1.421875 13.0625 8.265625 
Q 6.59375 17.96875 6.59375 36.375 
Q 6.59375 54.828125 13.0625 64.515625 
Q 19.53125 74.21875 31.78125 74.21875 
z
" id="DejaVuSans-30"/>
       <path d="M 10.6875 12.40625 
L 21 12.40625 
L 21 0 
L 10.6875 0 
z
" id="DejaVuSans-2e"/>
      </defs>
      <g transform="translate(68.026889 322.182437)scale(0.1 -0.1)">
       <use xlink:href="#DejaVuSans-30"/>
       <use x="63.623047" xlink:href="#DejaVuSans-2e"/>
       <use x="95.410156" xlink:href="#DejaVuSans-30"/>
      </g>
     </g>
    </g>
    <g id="xtick_2">
     <g id="line2d_2">
      <g>
       <use style="stroke:#000000;stroke-width:0.8;" x="134.616419" xlink:href="#m08bd209bc9" y="307.584"/>
      </g>
     </g>
     <g id="text_2">
      <!-- 0.2 -->
      <defs>
       <path d="M 19.1875 8.296875 
L 53.609375 8.296875 
L 53.609375 0 
L 7.328125 0 
L 7.328125 8.296875 
Q 12.9375 14.109375 22.625 23.890625 
Q 32.328125 33.6875 34.8125 36.53125 
Q 39.546875 41.84375 41.421875 45.53125 
Q 43.3125 49.21875 43.3125 52.78125 
Q 43.3125 58.59375 39.234375 62.25 
Q 35.15625 65.921875 28.609375 65.921875 
Q 23.96875 65.921875 18.8125 64.3125 
Q 13.671875 62.703125 7.8125 59.421875 
L 7.8125 69.390625 
Q 13.765625 71.78125 18.9375 73 
Q 24.125 74.21875 28.421875 74.21875 
Q 39.75 74.21875 46.484375 68.546875 
Q 53.21875 62.890625 53.21875 53.421875 
Q 53.21875 48.921875 51.53125 44.890625 
Q 49.859375 40.875 45.40625 35.40625 
Q 44.1875 33.984375 37.640625 27.21875 
Q 31.109375 20.453125 19.1875 8.296875 
z
" id="DejaVuSans-32"/>
      </defs>
      <g transform="translate(126.664856 322.182437)scale(0.1 -0.1)">
       <use xlink:href="#DejaVuSans-30"/>
       <use x="63.623047" xlink:href="#DejaVuSans-2e"/>
       <use x="95.410156" xlink:href="#DejaVuSans-32"/>
      </g>
     </g>
    </g>
    <g id="xtick_3">
     <g id="line2d_3">
      <g>
       <use style="stroke:#000000;stroke-width:0.8;" x="193.254386" xlink:href="#m08bd209bc9" y="307.584"/>
      </g>
     </g>
     <g id="text_3">
      <!-- 0.4 -->
      <defs>
       <path d="M 37.796875 64.3125 
L 12.890625 25.390625 
L 37.796875 25.390625 
z
M 35.203125 72.90625 
L 47.609375 72.90625 
L 47.609375 25.390625 
L 58.015625 25.390625 
L 58.015625 17.1875 
L 47.609375 17.1875 
L 47.609375 0 
L 37.796875 0 
L 37.796875 17.1875 
L 4.890625 17.1875 
L 4.890625 26.703125 
z
" id="DejaVuSans-34"/>
      </defs>
      <g transform="translate(185.302824 322.182437)scale(0.1 -0.1)">
       <use xlink:href="#DejaVuSans-30"/>
       <use x="63.623047" xlink:href="#DejaVuSans-2e"/>
       <use x="95.410156" xlink:href="#DejaVuSans-34"/>
      </g>
     </g>
    </g>
    <g id="xtick_4">
     <g id="line2d_4">
      <g>
       <use style="stroke:#000000;stroke-width:0.8;" x="251.892354" xlink:href="#m08bd209bc9" y="307.584"/>
      </g>
     </g>
     <g id="text_4">
      <!-- 0.6 -->
      <defs>
       <path d="M 33.015625 40.375 
Q 26.375 40.375 22.484375 35.828125 
Q 18.609375 31.296875 18.609375 23.390625 
Q 18.609375 15.53125 22.484375 10.953125 
Q 26.375 6.390625 33.015625 6.390625 
Q 39.65625 6.390625 43.53125 10.953125 
Q 47.40625 15.53125 47.40625 23.390625 
Q 47.40625 31.296875 43.53125 35.828125 
Q 39.65625 40.375 33.015625 40.375 
z
M 52.59375 71.296875 
L 52.59375 62.3125 
Q 48.875 64.0625 45.09375 64.984375 
Q 41.3125 65.921875 37.59375 65.921875 
Q 27.828125 65.921875 22.671875 59.328125 
Q 17.53125 52.734375 16.796875 39.40625 
Q 19.671875 43.65625 24.015625 45.921875 
Q 28.375 48.1875 33.59375 48.1875 
Q 44.578125 48.1875 50.953125 41.515625 
Q 57.328125 34.859375 57.328125 23.390625 
Q 57.328125 12.15625 50.6875 5.359375 
Q 44.046875 -1.421875 33.015625 -1.421875 
Q 20.359375 -1.421875 13.671875 8.265625 
Q 6.984375 17.96875 6.984375 36.375 
Q 6.984375 53.65625 15.1875 63.9375 
Q 23.390625 74.21875 37.203125 74.21875 
Q 40.921875 74.21875 44.703125 73.484375 
Q 48.484375 72.75 52.59375 71.296875 
z
" id="DejaVuSans-36"/>
      </defs>
      <g transform="translate(243.940791 322.182437)scale(0.1 -0.1)">
       <use xlink:href="#DejaVuSans-30"/>
       <use x="63.623047" xlink:href="#DejaVuSans-2e"/>
       <use x="95.410156" xlink:href="#DejaVuSans-36"/>
      </g>
     </g>
    </g>
    <g id="xtick_5">
     <g id="line2d_5">
      <g>
       <use style="stroke:#000000;stroke-width:0.8;" x="310.530321" xlink:href="#m08bd209bc9" y="307.584"/>
      </g>
     </g>
     <g id="text_5">
      <!-- 0.8 -->
      <defs>
       <path d="M 31.78125 34.625 
Q 24.75 34.625 20.71875 30.859375 
Q 16.703125 27.09375 16.703125 20.515625 
Q 16.703125 13.921875 20.71875 10.15625 
Q 24.75 6.390625 31.78125 6.390625 
Q 38.8125 6.390625 42.859375 10.171875 
Q 46.921875 13.96875 46.921875 20.515625 
Q 46.921875 27.09375 42.890625 30.859375 
Q 38.875 34.625 31.78125 34.625 
z
M 21.921875 38.8125 
Q 15.578125 40.375 12.03125 44.71875 
Q 8.5 49.078125 8.5 55.328125 
Q 8.5 64.0625 14.71875 69.140625 
Q 20.953125 74.21875 31.78125 74.21875 
Q 42.671875 74.21875 48.875 69.140625 
Q 55.078125 64.0625 55.078125 55.328125 
Q 55.078125 49.078125 51.53125 44.71875 
Q 48 40.375 41.703125 38.8125 
Q 48.828125 37.15625 52.796875 32.3125 
Q 56.78125 27.484375 56.78125 20.515625 
Q 56.78125 9.90625 50.3125 4.234375 
Q 43.84375 -1.421875 31.78125 -1.421875 
Q 19.734375 -1.421875 13.25 4.234375 
Q 6.78125 9.90625 6.78125 20.515625 
Q 6.78125 27.484375 10.78125 32.3125 
Q 14.796875 37.15625 21.921875 38.8125 
z
M 18.3125 54.390625 
Q 18.3125 48.734375 21.84375 45.5625 
Q 25.390625 42.390625 31.78125 42.390625 
Q 38.140625 42.390625 41.71875 45.5625 
Q 45.3125 48.734375 45.3125 54.390625 
Q 45.3125 60.0625 41.71875 63.234375 
Q 38.140625 66.40625 31.78125 66.40625 
Q 25.390625 66.40625 21.84375 63.234375 
Q 18.3125 60.0625 18.3125 54.390625 
z
" id="DejaVuSans-38"/>
      </defs>
      <g transform="translate(302.578759 322.182437)scale(0.1 -0.1)">
       <use xlink:href="#DejaVuSans-30"/>
       <use x="63.623047" xlink:href="#DejaVuSans-2e"/>
       <use x="95.410156" xlink:href="#DejaVuSans-38"/>
      </g>
     </g>
    </g>
    <g id="xtick_6">
     <g id="line2d_6">
      <g>
       <use style="stroke:#000000;stroke-width:0.8;" x="369.168289" xlink:href="#m08bd209bc9" y="307.584"/>
      </g>
     </g>
     <g id="text_6">
      <!-- 1.0 -->
      <defs>
       <path d="M 12.40625 8.296875 
L 28.515625 8.296875 
L 28.515625 63.921875 
L 10.984375 60.40625 
L 10.984375 69.390625 
L 28.421875 72.90625 
L 38.28125 72.90625 
L 38.28125 8.296875 
L 54.390625 8.296875 
L 54.390625 0 
L 12.40625 0 
z
" id="DejaVuSans-31"/>
      </defs>
      <g transform="translate(361.216726 322.182437)scale(0.1 -0.1)">
       <use xlink:href="#DejaVuSans-31"/>
       <use x="63.623047" xlink:href="#DejaVuSans-2e"/>
       <use x="95.410156" xlink:href="#DejaVuSans-30"/>
      </g>
     </g>
    </g>
    <g id="text_7">
     <!-- Parameter -->
     <defs>
      <path d="M 19.671875 64.796875 
L 19.671875 37.40625 
L 32.078125 37.40625 
Q 38.96875 37.40625 42.71875 40.96875 
Q 46.484375 44.53125 46.484375 51.125 
Q 46.484375 57.671875 42.71875 61.234375 
Q 38.96875 64.796875 32.078125 64.796875 
z
M 9.8125 72.90625 
L 32.078125 72.90625 
Q 44.34375 72.90625 50.609375 67.359375 
Q 56.890625 61.8125 56.890625 51.125 
Q 56.890625 40.328125 50.609375 34.8125 
Q 44.34375 29.296875 32.078125 29.296875 
L 19.671875 29.296875 
L 19.671875 0 
L 9.8125 0 
z
" id="DejaVuSans-50"/>
      <path d="M 34.28125 27.484375 
Q 23.390625 27.484375 19.1875 25 
Q 14.984375 22.515625 14.984375 16.5 
Q 14.984375 11.71875 18.140625 8.90625 
Q 21.296875 6.109375 26.703125 6.109375 
Q 34.1875 6.109375 38.703125 11.40625 
Q 43.21875 16.703125 43.21875 25.484375 
L 43.21875 27.484375 
z
M 52.203125 31.203125 
L 52.203125 0 
L 43.21875 0 
L 43.21875 8.296875 
Q 40.140625 3.328125 35.546875 0.953125 
Q 30.953125 -1.421875 24.3125 -1.421875 
Q 15.921875 -1.421875 10.953125 3.296875 
Q 6 8.015625 6 15.921875 
Q 6 25.140625 12.171875 29.828125 
Q 18.359375 34.515625 30.609375 34.515625 
L 43.21875 34.515625 
L 43.21875 35.40625 
Q 43.21875 41.609375 39.140625 45 
Q 35.0625 48.390625 27.6875 48.390625 
Q 23 48.390625 18.546875 47.265625 
Q 14.109375 46.140625 10.015625 43.890625 
L 10.015625 52.203125 
Q 14.9375 54.109375 19.578125 55.046875 
Q 24.21875 56 28.609375 56 
Q 40.484375 56 46.34375 49.84375 
Q 52.203125 43.703125 52.203125 31.203125 
z
" id="DejaVuSans-61"/>
      <path d="M 41.109375 46.296875 
Q 39.59375 47.171875 37.8125 47.578125 
Q 36.03125 48 33.890625 48 
Q 26.265625 48 22.1875 43.046875 
Q 18.109375 38.09375 18.109375 28.8125 
L 18.109375 0 
L 9.078125 0 
L 9.078125 54.6875 
L 18.109375 54.6875 
L 18.109375 46.1875 
Q 20.953125 51.171875 25.484375 53.578125 
Q 30.03125 56 36.53125 56 
Q 37.453125 56 38.578125 55.875 
Q 39.703125 55.765625 41.0625 55.515625 
z
" id="DejaVuSans-72"/>
      <path d="M 52 44.1875 
Q 55.375 50.25 60.0625 53.125 
Q 64.75 56 71.09375 56 
Q 79.640625 56 84.28125 50.015625 
Q 88.921875 44.046875 88.921875 33.015625 
L 88.921875 0 
L 79.890625 0 
L 79.890625 32.71875 
Q 79.890625 40.578125 77.09375 44.375 
Q 74.3125 48.1875 68.609375 48.1875 
Q 61.625 48.1875 57.5625 43.546875 
Q 53.515625 38.921875 53.515625 30.90625 
L 53.515625 0 
L 44.484375 0 
L 44.484375 32.71875 
Q 44.484375 40.625 41.703125 44.40625 
Q 38.921875 48.1875 33.109375 48.1875 
Q 26.21875 48.1875 22.15625 43.53125 
Q 18.109375 38.875 18.109375 30.90625 
L 18.109375 0 
L 9.078125 0 
L 9.078125 54.6875 
L 18.109375 54.6875 
L 18.109375 46.1875 
Q 21.1875 51.21875 25.484375 53.609375 
Q 29.78125 56 35.6875 56 
Q 41.65625 56 45.828125 52.96875 
Q 50 49.953125 52 44.1875 
z
" id="DejaVuSans-6d"/>
      <path d="M 56.203125 29.59375 
L 56.203125 25.203125 
L 14.890625 25.203125 
Q 15.484375 15.921875 20.484375 11.0625 
Q 25.484375 6.203125 34.421875 6.203125 
Q 39.59375 6.203125 44.453125 7.46875 
Q 49.3125 8.734375 54.109375 11.28125 
L 54.109375 2.78125 
Q 49.265625 0.734375 44.1875 -0.34375 
Q 39.109375 -1.421875 33.890625 -1.421875 
Q 20.796875 -1.421875 13.15625 6.1875 
Q 5.515625 13.8125 5.515625 26.8125 
Q 5.515625 40.234375 12.765625 48.109375 
Q 20.015625 56 32.328125 56 
Q 43.359375 56 49.78125 48.890625 
Q 56.203125 41.796875 56.203125 29.59375 
z
M 47.21875 32.234375 
Q 47.125 39.59375 43.09375 43.984375 
Q 39.0625 48.390625 32.421875 48.390625 
Q 24.90625 48.390625 20.390625 44.140625 
Q 15.875 39.890625 15.1875 32.171875 
z
" id="DejaVuSans-65"/>
      <path d="M 18.3125 70.21875 
L 18.3125 54.6875 
L 36.8125 54.6875 
L 36.8125 47.703125 
L 18.3125 47.703125 
L 18.3125 18.015625 
Q 18.3125 11.328125 20.140625 9.421875 
Q 21.96875 7.515625 27.59375 7.515625 
L 36.8125 7.515625 
L 36.8125 0 
L 27.59375 0 
Q 17.1875 0 13.234375 3.875 
Q 9.28125 7.765625 9.28125 18.015625 
L 9.28125 47.703125 
L 2.6875 47.703125 
L 2.6875 54.6875 
L 9.28125 54.6875 
L 9.28125 70.21875 
z
" id="DejaVuSans-74"/>
     </defs>
     <g transform="translate(209.925625 335.860562)scale(0.1 -0.1)">
      <use xlink:href="#DejaVuSans-50"/>
      <use x="60.240234" xlink:href="#DejaVuSans-61"/>
      <use x="121.519531" xlink:href="#DejaVuSans-72"/>
      <use x="162.632812" xlink:href="#DejaVuSans-61"/>
      <use x="223.912109" xlink:href="#DejaVuSans-6d"/>
      <use x="321.324219" xlink:href="#DejaVuSans-65"/>
      <use x="382.847656" xlink:href="#DejaVuSans-74"/>
      <use x="422.056641" xlink:href="#DejaVuSans-65"/>
      <use x="483.580078" xlink:href="#DejaVuSans-72"/>
     </g>
    </g>
   </g>
   <g id="matplotlib.axis_2">
    <g id="ytick_1">
     <g id="line2d_7">
      <defs>
       <path d="M 0 0 
L -3.5 0 
" id="m7c6cbf9bc1" style="stroke:#000000;stroke-width:0.8;"/>
      </defs>
      <g>
       <use style="stroke:#000000;stroke-width:0.8;" x="57.6" xlink:href="#m7c6cbf9bc1" y="295.48801"/>
      </g>
     </g>
     <g id="text_8">
      <!-- 0.0 -->
      <g transform="translate(34.696875 299.287229)scale(0.1 -0.1)">
       <use xlink:href="#DejaVuSans-30"/>
       <use x="63.623047" xlink:href="#DejaVuSans-2e"/>
       <use x="95.410156" xlink:href="#DejaVuSans-30"/>
      </g>
     </g>
    </g>
    <g id="ytick_2">
     <g id="line2d_8">
      <g>
       <use style="stroke:#000000;stroke-width:0.8;" x="57.6" xlink:href="#m7c6cbf9bc1" y="265.389624"/>
      </g>
     </g>
     <g id="text_9">
      <!-- 2.5 -->
      <defs>
       <path d="M 10.796875 72.90625 
L 49.515625 72.90625 
L 49.515625 64.59375 
L 19.828125 64.59375 
L 19.828125 46.734375 
Q 21.96875 47.46875 24.109375 47.828125 
Q 26.265625 48.1875 28.421875 48.1875 
Q 40.625 48.1875 47.75 41.5 
Q 54.890625 34.8125 54.890625 23.390625 
Q 54.890625 11.625 47.5625 5.09375 
Q 40.234375 -1.421875 26.90625 -1.421875 
Q 22.3125 -1.421875 17.546875 -0.640625 
Q 12.796875 0.140625 7.71875 1.703125 
L 7.71875 11.625 
Q 12.109375 9.234375 16.796875 8.0625 
Q 21.484375 6.890625 26.703125 6.890625 
Q 35.15625 6.890625 40.078125 11.328125 
Q 45.015625 15.765625 45.015625 23.390625 
Q 45.015625 31 40.078125 35.4375 
Q 35.15625 39.890625 26.703125 39.890625 
Q 22.75 39.890625 18.8125 39.015625 
Q 14.890625 38.140625 10.796875 36.28125 
z
" id="DejaVuSans-35"/>
      </defs>
      <g transform="translate(34.696875 269.188843)scale(0.1 -0.1)">
       <use xlink:href="#DejaVuSans-32"/>
       <use x="63.623047" xlink:href="#DejaVuSans-2e"/>
       <use x="95.410156" xlink:href="#DejaVuSans-35"/>
      </g>
     </g>
    </g>
    <g id="ytick_3">
     <g id="line2d_9">
      <g>
       <use style="stroke:#000000;stroke-width:0.8;" x="57.6" xlink:href="#m7c6cbf9bc1" y="235.291237"/>
      </g>
     </g>
     <g id="text_10">
      <!-- 5.0 -->
      <g transform="translate(34.696875 239.090456)scale(0.1 -0.1)">
       <use xlink:href="#DejaVuSans-35"/>
       <use x="63.623047" xlink:href="#DejaVuSans-2e"/>
       <use x="95.410156" xlink:href="#DejaVuSans-30"/>
      </g>
     </g>
    </g>
    <g id="ytick_4">
     <g id="line2d_10">
      <g>
       <use style="stroke:#000000;stroke-width:0.8;" x="57.6" xlink:href="#m7c6cbf9bc1" y="205.192851"/>
      </g>
     </g>
     <g id="text_11">
      <!-- 7.5 -->
      <defs>
       <path d="M 8.203125 72.90625 
L 55.078125 72.90625 
L 55.078125 68.703125 
L 28.609375 0 
L 18.3125 0 
L 43.21875 64.59375 
L 8.203125 64.59375 
z
" id="DejaVuSans-37"/>
      </defs>
      <g transform="translate(34.696875 208.99207)scale(0.1 -0.1)">
       <use xlink:href="#DejaVuSans-37"/>
       <use x="63.623047" xlink:href="#DejaVuSans-2e"/>
       <use x="95.410156" xlink:href="#DejaVuSans-35"/>
      </g>
     </g>
    </g>
    <g id="ytick_5">
     <g id="line2d_11">
      <g>
       <use style="stroke:#000000;stroke-width:0.8;" x="57.6" xlink:href="#m7c6cbf9bc1" y="175.094464"/>
      </g>
     </g>
     <g id="text_12">
      <!-- 10.0 -->
      <g transform="translate(28.334375 178.893683)scale(0.1 -0.1)">
       <use xlink:href="#DejaVuSans-31"/>
       <use x="63.623047" xlink:href="#DejaVuSans-30"/>
       <use x="127.246094" xlink:href="#DejaVuSans-2e"/>
       <use x="159.033203" xlink:href="#DejaVuSans-30"/>
      </g>
     </g>
    </g>
    <g id="ytick_6">
     <g id="line2d_12">
      <g>
       <use style="stroke:#000000;stroke-width:0.8;" x="57.6" xlink:href="#m7c6cbf9bc1" y="144.996078"/>
      </g>
     </g>
     <g id="text_13">
      <!-- 12.5 -->
      <g transform="translate(28.334375 148.795297)scale(0.1 -0.1)">
       <use xlink:href="#DejaVuSans-31"/>
       <use x="63.623047" xlink:href="#DejaVuSans-32"/>
       <use x="127.246094" xlink:href="#DejaVuSans-2e"/>
       <use x="159.033203" xlink:href="#DejaVuSans-35"/>
      </g>
     </g>
    </g>
    <g id="ytick_7">
     <g id="line2d_13">
      <g>
       <use style="stroke:#000000;stroke-width:0.8;" x="57.6" xlink:href="#m7c6cbf9bc1" y="114.897691"/>
      </g>
     </g>
     <g id="text_14">
      <!-- 15.0 -->
      <g transform="translate(28.334375 118.69691)scale(0.1 -0.1)">
       <use xlink:href="#DejaVuSans-31"/>
       <use x="63.623047" xlink:href="#DejaVuSans-35"/>
       <use x="127.246094" xlink:href="#DejaVuSans-2e"/>
       <use x="159.033203" xlink:href="#DejaVuSans-30"/>
      </g>
     </g>
    </g>
    <g id="ytick_8">
     <g id="line2d_14">
      <g>
       <use style="stroke:#000000;stroke-width:0.8;" x="57.6" xlink:href="#m7c6cbf9bc1" y="84.799305"/>
      </g>
     </g>
     <g id="text_15">
      <!-- 17.5 -->
      <g transform="translate(28.334375 88.598524)scale(0.1 -0.1)">
       <use xlink:href="#DejaVuSans-31"/>
       <use x="63.623047" xlink:href="#DejaVuSans-37"/>
       <use x="127.246094" xlink:href="#DejaVuSans-2e"/>
       <use x="159.033203" xlink:href="#DejaVuSans-35"/>
      </g>
     </g>
    </g>
    <g id="ytick_9">
     <g id="line2d_15">
      <g>
       <use style="stroke:#000000;stroke-width:0.8;" x="57.6" xlink:href="#m7c6cbf9bc1" y="54.700919"/>
      </g>
     </g>
     <g id="text_16">
      <!-- 20.0 -->
      <g transform="translate(28.334375 58.500137)scale(0.1 -0.1)">
       <use xlink:href="#DejaVuSans-32"/>
       <use x="63.623047" xlink:href="#DejaVuSans-30"/>
       <use x="127.246094" xlink:href="#DejaVuSans-2e"/>
       <use x="159.033203" xlink:href="#DejaVuSans-30"/>
      </g>
     </g>
    </g>
    <g id="text_17">
     <!-- Mass -->
     <defs>
      <path d="M 9.8125 72.90625 
L 24.515625 72.90625 
L 43.109375 23.296875 
L 61.8125 72.90625 
L 76.515625 72.90625 
L 76.515625 0 
L 66.890625 0 
L 66.890625 64.015625 
L 48.09375 14.015625 
L 38.1875 14.015625 
L 19.390625 64.015625 
L 19.390625 0 
L 9.8125 0 
z
" id="DejaVuSans-4d"/>
      <path d="M 44.28125 53.078125 
L 44.28125 44.578125 
Q 40.484375 46.53125 36.375 47.5 
Q 32.28125 48.484375 27.875 48.484375 
Q 21.1875 48.484375 17.84375 46.4375 
Q 14.5 44.390625 14.5 40.28125 
Q 14.5 37.15625 16.890625 35.375 
Q 19.28125 33.59375 26.515625 31.984375 
L 29.59375 31.296875 
Q 39.15625 29.25 43.1875 25.515625 
Q 47.21875 21.78125 47.21875 15.09375 
Q 47.21875 7.46875 41.1875 3.015625 
Q 35.15625 -1.421875 24.609375 -1.421875 
Q 20.21875 -1.421875 15.453125 -0.5625 
Q 10.6875 0.296875 5.421875 2 
L 5.421875 11.28125 
Q 10.40625 8.6875 15.234375 7.390625 
Q 20.0625 6.109375 24.8125 6.109375 
Q 31.15625 6.109375 34.5625 8.28125 
Q 37.984375 10.453125 37.984375 14.40625 
Q 37.984375 18.0625 35.515625 20.015625 
Q 33.0625 21.96875 24.703125 23.78125 
L 21.578125 24.515625 
Q 13.234375 26.265625 9.515625 29.90625 
Q 5.8125 33.546875 5.8125 39.890625 
Q 5.8125 47.609375 11.28125 51.796875 
Q 16.75 56 26.8125 56 
Q 31.78125 56 36.171875 55.265625 
Q 40.578125 54.546875 44.28125 53.078125 
z
" id="DejaVuSans-73"/>
     </defs>
     <g transform="translate(22.254688 187.1155)rotate(-90)scale(0.1 -0.1)">
      <use xlink:href="#DejaVuSans-4d"/>
      <use x="86.279297" xlink:href="#DejaVuSans-61"/>
      <use x="147.558594" xlink:href="#DejaVuSans-73"/>
      <use x="199.658203" xlink:href="#DejaVuSans-73"/>
     </g>
    </g>
   </g>
   <g id="line2d_16">
    <path clip-path="url(#p04772126eb)" d="M 75.978451 177.445482 
L 78.135701 177.683435 
L 80.292951 177.751669 
L 82.4502 177.59808 
L 84.60745 177.147553 
L 85.686075 176.778242 
L 86.764699 176.289678 
L 87.843324 175.660012 
L 88.921949 174.863938 
L 90.000574 173.874829 
L 91.079199 172.672767 
L 93.236448 169.79229 
L 94.315073 168.72723 
L 95.393698 169.574422 
L 96.472323 174.255486 
L 97.550948 179.469702 
L 98.629573 182.655144 
L 99.708197 184.606406 
L 100.786822 185.961891 
L 101.865447 187.013534 
L 104.022697 188.682375 
L 107.258571 190.742188 
L 112.651695 193.810745 
L 125.595193 200.80004 
L 171.97606 225.73925 
L 219.435552 251.315662 
L 234.5363 259.16656 
L 246.401173 265.081263 
L 256.108796 269.679179 
L 264.737795 273.531071 
L 272.288169 276.683968 
L 279.838542 279.604356 
L 287.388916 282.267266 
L 293.860665 284.329693 
L 300.332414 286.180189 
L 306.804163 287.815525 
L 313.275912 289.237976 
L 319.747661 290.455402 
L 327.298035 291.634074 
L 334.848408 292.578629 
L 343.477407 293.412014 
L 353.18503 294.094119 
L 363.971278 294.610769 
L 376.914776 294.996943 
L 394.172773 295.269164 
L 398.487273 295.310146 
L 398.487273 295.310146 
" style="fill:none;stroke:#000000;stroke-linecap:square;stroke-width:1.5;"/>
   </g>
   <g id="line2d_17">
    <path clip-path="url(#p04772126eb)" d="M 75.978451 192.796156 
L 78.135701 195.202752 
L 80.292951 198.025771 
L 82.4502 201.450534 
L 83.528825 203.477512 
L 84.60745 205.78476 
L 85.686075 208.448 
L 86.764699 211.570768 
L 87.843324 215.297133 
L 88.921949 219.830883 
L 90.000574 225.463724 
L 91.079199 232.612716 
L 92.157824 241.851476 
L 93.236448 253.846387 
L 95.393698 284.320208 
L 96.472323 293.206634 
L 97.550948 295.112075 
L 98.629573 295.40115 
L 101.865447 295.483074 
L 153.639438 295.487981 
L 290.624791 295.377612 
L 335.927033 295.356491 
L 398.487273 295.469408 
L 398.487273 295.469408 
" style="fill:none;stroke:#000000;stroke-linecap:square;stroke-width:1.5;"/>
   </g>
   <g id="line2d_18">
    <path clip-path="url(#p04772126eb)" d="M 75.978451 190.559655 
L 78.135701 193.092861 
L 80.292951 196.047099 
L 82.4502 199.610335 
L 83.528825 201.710542 
L 84.60745 204.09469 
L 85.686075 206.839584 
L 86.764699 210.050239 
L 87.843324 213.872783 
L 88.921949 218.5139 
L 90.000574 224.269426 
L 91.079199 231.562267 
L 92.157824 240.973927 
L 93.236448 253.179459 
L 95.393698 284.149526 
L 96.472323 293.172773 
L 97.550948 295.106667 
L 98.629573 295.399937 
L 101.865447 295.483011 
L 153.639438 295.487981 
L 292.78204 295.37875 
L 338.084283 295.371938 
L 398.487273 295.471448 
L 398.487273 295.471448 
" style="fill:none;stroke:#100e0d;stroke-linecap:square;stroke-width:1.5;"/>
   </g>
   <g id="line2d_19">
    <path clip-path="url(#p04772126eb)" d="M 75.978451 180.056699 
L 78.135701 180.21037 
L 80.292951 180.196403 
L 82.4502 179.961672 
L 84.60745 179.428707 
L 85.686075 179.016185 
L 86.764699 178.481578 
L 87.843324 177.801067 
L 88.921949 176.94615 
L 90.000574 175.884885 
L 91.079199 174.58826 
L 94.315073 169.994421 
L 95.393698 170.342068 
L 96.472323 174.385331 
L 97.550948 179.142621 
L 98.629573 182.090629 
L 99.708197 183.906313 
L 100.786822 185.171263 
L 101.865447 186.154542 
L 104.022697 187.718066 
L 107.258571 189.653082 
L 112.651695 192.546214 
L 128.831068 200.836437 
L 151.482189 212.548282 
L 173.054685 223.968959 
L 198.941681 237.953963 
L 231.300425 255.429799 
L 244.243923 262.168475 
L 255.030172 267.536909 
L 263.65917 271.604216 
L 272.288169 275.415664 
L 279.838542 278.502649 
L 287.388916 281.327336 
L 293.860665 283.521486 
L 300.332414 285.494904 
L 306.804163 287.242562 
L 313.275912 288.765503 
L 319.747661 290.070982 
L 326.21941 291.17192 
L 333.769783 292.22129 
L 341.320157 293.048771 
L 349.949156 293.767334 
L 359.656779 294.345978 
L 371.521652 294.810937 
L 386.6224 295.150008 
L 398.487273 295.295946 
L 398.487273 295.295946 
" style="fill:none;stroke:#100d0d;stroke-linecap:square;stroke-width:1.5;"/>
   </g>
   <g id="line2d_20">
    <path clip-path="url(#p04772126eb)" d="M 75.978451 177.571496 
L 78.135701 177.8196 
L 80.292951 177.897887 
L 82.4502 177.753366 
L 84.60745 177.309081 
L 85.686075 176.940744 
L 86.764699 176.450716 
L 87.843324 175.815928 
L 88.921949 175.00927 
L 90.000574 174.001504 
L 91.079199 172.76922 
L 93.236448 169.786908 
L 94.315073 168.694024 
L 95.393698 169.714065 
L 97.550948 179.912945 
L 98.629573 182.946944 
L 99.708197 184.803257 
L 100.786822 186.102322 
L 101.865447 187.118805 
L 104.022697 188.748594 
L 107.258571 190.78214 
L 112.651695 193.833827 
L 125.595193 200.81245 
L 169.818811 224.584277 
L 220.514177 251.919265 
L 234.5363 259.211129 
L 246.401173 265.135636 
L 256.108796 269.741544 
L 264.737795 273.599889 
L 272.288169 276.757448 
L 279.838542 279.681173 
L 287.388916 282.345761 
L 293.860665 284.408124 
L 300.332414 286.257099 
L 306.804163 287.889491 
L 313.275912 289.307714 
L 319.747661 290.519859 
L 327.298035 291.691438 
L 334.848408 292.628392 
L 343.477407 293.453095 
L 353.18503 294.12612 
L 363.971278 294.634123 
L 376.914776 295.012242 
L 394.172773 295.277337 
L 398.487273 295.317067 
L 398.487273 295.317067 
" style="fill:none;stroke:#232116;stroke-linecap:square;stroke-width:1.5;"/>
   </g>
   <g id="line2d_21">
    <path clip-path="url(#p04772126eb)" d="M 75.978451 192.58787 
L 78.135701 194.962733 
L 80.292951 197.747826 
L 82.4502 201.127583 
L 83.528825 203.129388 
L 84.60745 205.410022 
L 85.686075 208.045968 
L 86.764699 211.142369 
L 87.843324 214.846492 
L 88.921949 219.368329 
L 90.000574 225.011522 
L 91.079199 232.215804 
L 92.157824 241.596124 
L 93.236448 253.882783 
L 95.393698 285.148785 
L 96.472323 293.577092 
L 97.550948 295.183418 
L 98.629573 295.417602 
L 101.865447 295.483973 
L 165.504311 295.487963 
L 290.624791 295.379416 
L 335.927033 295.358825 
L 398.487273 295.470131 
L 398.487273 295.470131 
" style="fill:none;stroke:#231816;stroke-linecap:square;stroke-width:1.5;"/>
   </g>
   <g id="line2d_22">
    <path clip-path="url(#p04772126eb)" d="M 75.978451 190.347055 
L 78.135701 192.848027 
L 80.292951 195.763757 
L 82.4502 199.281316 
L 83.528825 201.355984 
L 84.60745 203.713139 
L 85.686075 206.430362 
L 86.764699 209.614307 
L 87.843324 213.414346 
L 88.921949 218.043476 
L 90.000574 223.809656 
L 91.079199 231.158821 
L 92.157824 240.71444 
L 93.236448 253.216435 
L 95.393698 284.990788 
L 96.472323 293.548746 
L 97.550948 295.179038 
L 98.629573 295.41662 
L 101.865447 295.483921 
L 164.425687 295.487967 
L 293.860665 295.377778 
L 339.162908 295.376329 
L 398.487273 295.472092 
L 398.487273 295.472092 
" style="fill:none;stroke:#2f391c;stroke-linecap:square;stroke-width:1.5;"/>
   </g>
   <g id="line2d_23">
    <path clip-path="url(#p04772126eb)" d="M 75.978451 180.178429 
L 78.135701 180.342362 
L 80.292951 180.338712 
L 82.4502 180.113546 
L 84.60745 179.587665 
L 85.686075 179.176718 
L 86.764699 178.641393 
L 87.843324 177.956666 
L 88.921949 177.092215 
L 90.000574 176.013394 
L 91.079199 174.687416 
L 94.315073 169.950224 
L 95.393698 170.446813 
L 97.550948 179.55117 
L 98.629573 182.361627 
L 99.708197 184.089791 
L 100.786822 185.302448 
L 102.944072 187.059226 
L 105.101321 188.447958 
L 109.415821 190.865588 
L 118.044819 195.341987 
L 150.403564 211.994272 
L 170.897436 222.828588 
L 195.705806 236.21611 
L 232.37905 256.044654 
L 245.322548 262.772664 
L 256.108796 268.12281 
L 264.737795 272.167954 
L 272.288169 275.493162 
L 279.838542 278.583965 
L 287.388916 281.410704 
L 293.860665 283.604999 
L 300.332414 285.576986 
L 306.804163 287.321661 
L 313.275912 288.840211 
L 319.747661 290.140135 
L 326.21941 291.234676 
L 333.769783 292.275992 
L 341.320157 293.095299 
L 349.949156 293.804951 
L 359.656779 294.374668 
L 371.521652 294.830734 
L 386.6224 295.161708 
L 398.487273 295.303418 
L 398.487273 295.303418 
" style="fill:none;stroke:#39221c;stroke-linecap:square;stroke-width:1.5;"/>
   </g>
   <g id="line2d_24">
    <path clip-path="url(#p04772126eb)" d="M 75.978451 177.695331 
L 78.135701 177.953709 
L 80.292951 178.042277 
L 82.4502 177.907204 
L 84.60745 177.469751 
L 85.686075 177.102786 
L 86.764699 176.611763 
L 87.843324 175.972385 
L 88.921949 175.155701 
L 90.000574 174.12976 
L 91.079199 172.867441 
L 93.236448 169.781376 
L 94.315073 168.661777 
L 95.393698 169.877026 
L 97.550948 180.334595 
L 98.629573 183.219609 
L 99.708197 184.986406 
L 100.786822 186.232838 
L 102.944072 188.056023 
L 105.101321 189.511041 
L 109.415821 192.058737 
L 118.044819 196.778857 
L 197.863056 239.804512 
L 221.592802 252.522266 
L 235.614925 259.805013 
L 247.479798 265.713605 
L 257.187421 270.299083 
L 265.81642 274.132658 
L 273.366794 277.263012 
L 280.917167 280.154302 
L 288.467541 282.781523 
L 294.93929 284.808474 
L 301.411039 286.619675 
L 307.882788 288.21289 
L 314.354537 289.591648 
L 320.826286 290.765196 
L 328.376659 291.894259 
L 335.927033 292.79267 
L 344.556032 293.579232 
L 354.263655 294.21734 
L 365.049903 294.695916 
L 379.072026 295.071173 
L 397.408648 295.314804 
L 398.487273 295.323717 
L 398.487273 295.323717 
" style="fill:none;stroke:#2b521f;stroke-linecap:square;stroke-width:1.5;"/>
   </g>
   <g id="line2d_25">
    <path clip-path="url(#p04772126eb)" d="M 75.978451 192.385308 
L 78.135701 194.728901 
L 80.292951 197.476453 
L 82.4502 200.811364 
L 83.528825 202.78791 
L 84.60745 205.04166 
L 85.686075 207.64978 
L 86.764699 210.718912 
L 87.843324 214.399385 
L 88.921949 218.907277 
L 90.000574 224.558175 
L 91.079199 231.814995 
L 92.157824 241.335977 
L 93.236448 253.920215 
L 95.393698 285.971505 
L 96.472323 293.898224 
L 97.550948 295.241411 
L 98.629573 295.430918 
L 102.944072 295.486294 
L 246.401173 295.474779 
L 387.701025 295.46128 
L 398.487273 295.470826 
L 398.487273 295.470826 
" style="fill:none;stroke:#522e1f;stroke-linecap:square;stroke-width:1.5;"/>
   </g>
   <g id="line2d_26">
    <path clip-path="url(#p04772126eb)" d="M 75.978451 190.140301 
L 78.135701 192.609509 
L 80.292951 195.487118 
L 82.4502 198.959159 
L 83.528825 201.008199 
L 84.60745 203.338086 
L 85.686075 206.027096 
L 86.764699 209.183407 
L 87.843324 212.95951 
L 88.921949 217.574585 
L 90.000574 223.348726 
L 91.079199 230.751417 
L 92.157824 240.450082 
L 93.236448 253.254463 
L 95.393698 285.826104 
L 96.472323 293.874656 
L 97.550948 295.237867 
L 98.629573 295.430121 
L 102.944072 295.486273 
L 246.401173 295.475321 
L 389.858274 295.466101 
L 398.487273 295.472711 
L 398.487273 295.472711 
" style="fill:none;stroke:#1f6e31;stroke-linecap:square;stroke-width:1.5;"/>
   </g>
   <g id="line2d_27">
    <path clip-path="url(#p04772126eb)" d="M 75.978451 180.298016 
L 78.135701 180.472313 
L 80.292951 180.479184 
L 82.4502 180.263929 
L 84.60745 179.745691 
L 85.686075 179.3367 
L 86.764699 178.801114 
L 87.843324 178.112696 
L 88.921949 177.239274 
L 90.000574 176.143404 
L 91.079199 174.788307 
L 94.315073 169.906456 
L 95.393698 170.573035 
L 97.550948 179.940329 
L 98.629573 182.615012 
L 99.708197 184.260561 
L 100.786822 185.4244 
L 102.944072 187.13078 
L 106.179946 189.121606 
L 111.57307 192.027935 
L 126.673818 199.755976 
L 149.324939 211.440267 
L 169.818811 222.26473 
L 193.548557 235.062881 
L 234.5363 257.228487 
L 247.479798 263.921033 
L 257.187421 268.706092 
L 265.81642 272.728049 
L 273.366794 276.02677 
L 280.917167 279.085162 
L 287.388916 281.492936 
L 293.860665 283.687387 
L 300.332414 285.657951 
L 306.804163 287.399653 
L 313.275912 288.913822 
L 319.747661 290.208208 
L 326.21941 291.296377 
L 333.769783 292.329684 
L 341.320157 293.14088 
L 349.949156 293.841711 
L 359.656779 294.40262 
L 371.521652 294.849944 
L 386.6224 295.173001 
L 398.487273 295.310599 
L 398.487273 295.310599 
" style="fill:none;stroke:#6e3c1f;stroke-linecap:square;stroke-width:1.5;"/>
   </g>
   <g id="line2d_28">
    <path clip-path="url(#p04772126eb)" d="M 75.978451 177.816992 
L 78.135701 178.085754 
L 80.292951 178.184816 
L 82.4502 178.05955 
L 84.60745 177.629506 
L 85.686075 177.264302 
L 86.764699 176.772749 
L 87.843324 176.129316 
L 88.921949 175.303175 
L 90.000574 174.259564 
L 91.079199 172.967429 
L 93.236448 169.77569 
L 94.315073 168.630723 
L 95.393698 170.06547 
L 96.472323 175.810843 
L 97.550948 180.734067 
L 98.629573 183.474078 
L 99.708197 185.15673 
L 100.786822 186.354118 
L 102.944072 188.127001 
L 106.179946 190.217203 
L 111.57307 193.283971 
L 124.516568 200.258648 
L 166.582936 222.8559 
L 223.750052 253.692879 
L 237.772174 260.94489 
L 248.558423 266.289474 
L 258.266046 270.853622 
L 266.895045 274.66148 
L 274.445418 277.763717 
L 281.995792 280.62163 
L 288.467541 282.857978 
L 294.93929 284.884649 
L 301.411039 286.694109 
L 307.882788 288.284175 
L 314.354537 289.658537 
L 320.826286 290.826694 
L 328.376659 291.948626 
L 335.927033 292.839503 
L 344.556032 293.617573 
L 354.263655 294.246924 
L 365.049903 294.717277 
L 379.072026 295.084472 
L 397.408648 295.321474 
L 398.487273 295.330109 
L 398.487273 295.330109 
" style="fill:none;stroke:#1c8e68;stroke-linecap:square;stroke-width:1.5;"/>
   </g>
   <g id="line2d_29">
    <path clip-path="url(#p04772126eb)" d="M 75.978451 192.188338 
L 78.135701 194.501137 
L 80.292951 197.211554 
L 82.4502 200.501824 
L 83.528825 202.453059 
L 84.60745 204.679698 
L 85.686075 207.25951 
L 86.764699 210.300523 
L 87.843324 213.955994 
L 88.921949 218.44795 
L 90.000574 224.103899 
L 91.079199 231.410419 
L 92.157824 241.071008 
L 93.236448 253.958713 
L 95.393698 286.783634 
L 96.472323 294.173358 
L 97.550948 295.288454 
L 98.629573 295.441696 
L 102.944072 295.486603 
L 257.187421 295.463335 
L 360.735404 295.420014 
L 398.487273 295.471494 
L 398.487273 295.471494 
" style="fill:none;stroke:#8e4d1c;stroke-linecap:square;stroke-width:1.5;"/>
   </g>
   <g id="line2d_30">
    <path clip-path="url(#p04772126eb)" d="M 75.978451 189.939258 
L 78.135701 192.377184 
L 80.292951 195.217084 
L 82.4502 198.643813 
L 83.528825 200.667169 
L 84.60745 202.969555 
L 85.686075 205.629858 
L 86.764699 208.757671 
L 87.843324 212.50846 
L 88.921949 217.107451 
L 90.000574 222.886854 
L 91.079199 230.340184 
L 92.157824 240.180824 
L 93.236448 253.293574 
L 95.393698 286.650667 
L 96.472323 294.153879 
L 97.550948 295.285588 
L 98.629573 295.44105 
L 102.944072 295.486586 
L 257.187421 295.46446 
L 361.814029 295.428567 
L 398.487273 295.473305 
L 398.487273 295.473305 
" style="fill:none;stroke:#169fb0;stroke-linecap:square;stroke-width:1.5;"/>
   </g>
   <g id="line2d_31">
    <path clip-path="url(#p04772126eb)" d="M 75.978451 180.415466 
L 78.135701 180.600219 
L 80.292951 180.617797 
L 82.4502 180.412785 
L 84.60745 179.90273 
L 85.686075 179.496067 
L 86.764699 178.960671 
L 87.843324 178.269089 
L 88.921949 177.387268 
L 90.000574 176.274878 
L 91.079199 174.890931 
L 94.315073 169.863318 
L 95.393698 170.722855 
L 96.472323 175.789709 
L 97.550948 180.309451 
L 98.629573 182.851622 
L 99.708197 184.419426 
L 100.786822 185.537747 
L 102.944072 187.197297 
L 106.179946 189.159359 
L 111.57307 192.048663 
L 128.831068 200.867551 
L 150.403564 212.012958 
L 170.897436 222.852754 
L 194.627182 235.66815 
L 234.5363 257.272324 
L 247.479798 263.976253 
L 257.187421 268.76991 
L 265.81642 272.798839 
L 273.366794 276.102609 
L 280.917167 279.164613 
L 287.388916 281.574054 
L 293.860665 283.768673 
L 300.332414 285.737823 
L 306.804163 287.476559 
L 313.275912 288.986359 
L 319.747661 290.275222 
L 326.21941 291.357045 
L 333.769783 292.382389 
L 341.320157 293.185535 
L 349.949156 293.877637 
L 359.656779 294.429854 
L 371.521652 294.868586 
L 386.6224 295.1839 
L 398.487273 295.3175 
L 398.487273 295.3175 
" style="fill:none;stroke:#b06416;stroke-linecap:square;stroke-width:1.5;"/>
   </g>
   <g id="line2d_32">
    <path clip-path="url(#p04772126eb)" d="M 75.978451 177.936488 
L 78.135701 178.215731 
L 80.292951 178.325482 
L 82.4502 178.210367 
L 84.60745 177.788286 
L 85.686075 177.425225 
L 86.764699 176.933604 
L 87.843324 176.286652 
L 88.921949 175.451632 
L 90.000574 174.390881 
L 91.079199 173.069183 
L 93.236448 169.769847 
L 94.315073 168.601124 
L 95.393698 170.281511 
L 96.472323 176.339811 
L 97.550948 181.11121 
L 98.629573 183.71132 
L 99.708197 185.315069 
L 100.786822 186.466799 
L 102.944072 188.192975 
L 106.179946 190.254582 
L 111.57307 193.30445 
L 125.595193 200.845258 
L 165.504311 222.282621 
L 225.907301 254.860596 
L 238.850799 261.53498 
L 249.637047 266.863171 
L 259.344671 271.405062 
L 267.973669 275.186232 
L 275.524043 278.259426 
L 283.074417 281.083015 
L 289.546166 283.28606 
L 296.017915 285.276406 
L 302.489664 287.047325 
L 308.961413 288.597663 
L 315.433162 289.93228 
L 321.90491 291.061859 
L 329.455284 292.141662 
L 337.005658 292.994709 
L 345.634657 293.735729 
L 355.34228 294.331548 
L 367.207153 294.808335 
L 381.229276 295.13551 
L 398.487273 295.336251 
L 398.487273 295.336251 
" style="fill:none;stroke:#0d66d6;stroke-linecap:square;stroke-width:1.5;"/>
   </g>
   <g id="line2d_33">
    <path clip-path="url(#p04772126eb)" d="M 75.978451 191.996828 
L 78.135701 194.27932 
L 80.292951 196.953032 
L 82.4502 200.198909 
L 83.528825 202.124811 
L 84.60745 204.324153 
L 85.686075 206.875221 
L 86.764699 209.887323 
L 87.843324 213.516496 
L 88.921949 217.990564 
L 90.000574 223.648911 
L 91.079199 231.002206 
L 92.157824 240.801195 
L 93.236448 253.998309 
L 95.393698 287.58001 
L 96.472323 294.406563 
L 97.550948 295.326557 
L 99.708197 295.475993 
L 116.966194 295.487986 
L 292.78204 295.378593 
L 337.005658 295.367815 
L 398.487273 295.472135 
L 398.487273 295.472135 
" style="fill:none;stroke:#d6800d;stroke-linecap:square;stroke-width:1.5;"/>
   </g>
   <g id="line2d_34">
    <path clip-path="url(#p04772126eb)" d="M 75.978451 189.743791 
L 78.135701 192.150928 
L 80.292951 194.953556 
L 82.4502 198.33522 
L 83.528825 200.33287 
L 84.60745 202.607561 
L 85.686075 205.238715 
L 86.764699 208.337221 
L 87.843324 212.061376 
L 88.921949 216.642297 
L 90.000574 222.424262 
L 91.079199 229.925258 
L 92.157824 239.906644 
L 93.236448 253.3338 
L 95.393698 287.459234 
L 96.472323 294.390549 
L 97.550948 295.324239 
L 99.708197 295.47583 
L 116.966194 295.487986 
L 296.017915 295.37766 
L 340.241532 295.38471 
L 398.487273 295.473877 
L 398.487273 295.473877 
" style="fill:none;stroke:#0000ff;stroke-linecap:square;stroke-width:1.5;"/>
   </g>
   <g id="line2d_35">
    <path clip-path="url(#p04772126eb)" d="M 75.978451 180.53079 
L 78.135701 180.726078 
L 80.292951 180.754535 
L 82.4502 180.560078 
L 84.60745 180.058727 
L 85.686075 179.654757 
L 86.764699 179.119997 
L 87.843324 178.425777 
L 88.921949 177.536139 
L 90.000574 176.40778 
L 91.079199 174.995284 
L 94.315073 169.821038 
L 95.393698 170.898369 
L 96.472323 176.27068 
L 97.550948 180.658308 
L 98.629573 183.072328 
L 99.708197 184.567159 
L 100.786822 185.643079 
L 102.944072 187.259132 
L 106.179946 189.194498 
L 111.57307 192.068 
L 133.145567 203.085001 
L 153.639438 213.717012 
L 174.13331 224.597632 
L 198.941681 238.038056 
L 233.457675 256.743686 
L 246.401173 263.482689 
L 256.108796 268.311498 
L 264.737795 272.377907 
L 272.288169 275.718772 
L 279.838542 278.821101 
L 286.310291 281.266886 
L 292.78204 283.498622 
L 299.253789 285.504719 
L 305.725538 287.279228 
L 312.197287 288.822659 
L 318.669036 290.14219 
L 325.140785 291.251131 
L 332.691159 292.303235 
L 340.241532 293.127912 
L 348.870531 293.838751 
L 358.578154 294.405777 
L 370.443027 294.855853 
L 385.543775 295.178689 
L 398.487273 295.324131 
L 398.487273 295.324131 
" style="fill:none;stroke:#ffa500;stroke-linecap:square;stroke-width:1.5;"/>
   </g>
   <g id="line2d_36">
    <path clip-path="url(#p04772126eb)" d="M 75.978451 189.743791 
L 78.135701 192.150928 
L 80.292951 194.953556 
L 82.4502 198.33522 
L 83.528825 200.33287 
L 84.60745 202.607561 
L 85.686075 205.238715 
L 86.764699 208.337221 
L 87.843324 212.061376 
L 88.921949 216.642297 
L 90.000574 222.424262 
L 91.079199 229.925258 
L 92.157824 239.906644 
L 93.236448 253.3338 
L 95.393698 287.459234 
L 96.472323 294.390549 
L 97.550948 295.324239 
L 99.708197 295.47583 
L 116.966194 295.487986 
L 296.017915 295.37766 
L 340.241532 295.38471 
L 398.487273 295.473877 
L 398.487273 295.473877 
" style="fill:none;stroke:#0000ff;stroke-linecap:square;stroke-width:1.5;"/>
   </g>
   <g id="line2d_37">
    <path clip-path="url(#p04772126eb)" d="M 75.978451 180.53079 
L 78.135701 180.726078 
L 80.292951 180.754535 
L 82.4502 180.560078 
L 84.60745 180.058727 
L 85.686075 179.654757 
L 86.764699 179.119997 
L 87.843324 178.425777 
L 88.921949 177.536139 
L 90.000574 176.40778 
L 91.079199 174.995284 
L 94.315073 169.821038 
L 95.393698 170.898369 
L 96.472323 176.27068 
L 97.550948 180.658308 
L 98.629573 183.072328 
L 99.708197 184.567159 
L 100.786822 185.643079 
L 102.944072 187.259132 
L 106.179946 189.194498 
L 111.57307 192.068 
L 133.145567 203.085001 
L 153.639438 213.717012 
L 174.13331 224.597632 
L 198.941681 238.038056 
L 233.457675 256.743686 
L 246.401173 263.482689 
L 256.108796 268.311498 
L 264.737795 272.377907 
L 272.288169 275.718772 
L 279.838542 278.821101 
L 286.310291 281.266886 
L 292.78204 283.498622 
L 299.253789 285.504719 
L 305.725538 287.279228 
L 312.197287 288.822659 
L 318.669036 290.14219 
L 325.140785 291.251131 
L 332.691159 292.303235 
L 340.241532 293.127912 
L 348.870531 293.838751 
L 358.578154 294.405777 
L 370.443027 294.855853 
L 385.543775 295.178689 
L 398.487273 295.324131 
L 398.487273 295.324131 
" style="fill:none;stroke:#ffa500;stroke-linecap:square;stroke-width:1.5;"/>
   </g>
   <g id="patch_3">
    <path d="M 57.6 307.584 
L 57.6 41.472 
" style="fill:none;stroke:#000000;stroke-linecap:square;stroke-linejoin:miter;stroke-width:0.8;"/>
   </g>
   <g id="patch_4">
    <path d="M 414.72 307.584 
L 414.72 41.472 
" style="fill:none;stroke:#000000;stroke-linecap:square;stroke-linejoin:miter;stroke-width:0.8;"/>
   </g>
   <g id="patch_5">
    <path d="M 57.6 307.584 
L 414.72 307.584 
" style="fill:none;stroke:#000000;stroke-linecap:square;stroke-linejoin:miter;stroke-width:0.8;"/>
   </g>
   <g id="patch_6">
    <path d="M 57.6 41.472 
L 414.72 41.472 
" style="fill:none;stroke:#000000;stroke-linecap:square;stroke-linejoin:miter;stroke-width:0.8;"/>
   </g>
   <g id="legend_1">
    <g id="patch_7">
     <path d="M 341.340313 78.82825 
L 407.72 78.82825 
Q 409.72 78.82825 409.72 76.82825 
L 409.72 48.472 
Q 409.72 46.472 407.72 46.472 
L 341.340313 46.472 
Q 339.340313 46.472 339.340313 48.472 
L 339.340313 76.82825 
Q 339.340313 78.82825 341.340313 78.82825 
z
" style="fill:#ffffff;opacity:0.8;stroke:#cccccc;stroke-linejoin:miter;"/>
    </g>
    <g id="line2d_38">
     <path d="M 343.340313 54.570437 
L 363.340313 54.570437 
" style="fill:none;stroke:#0000ff;stroke-linecap:square;stroke-width:1.5;"/>
    </g>
    <g id="line2d_39"/>
    <g id="text_18">
     <!-- Prey -->
     <defs>
      <path d="M 32.171875 -5.078125 
Q 28.375 -14.84375 24.75 -17.8125 
Q 21.140625 -20.796875 15.09375 -20.796875 
L 7.90625 -20.796875 
L 7.90625 -13.28125 
L 13.1875 -13.28125 
Q 16.890625 -13.28125 18.9375 -11.515625 
Q 21 -9.765625 23.484375 -3.21875 
L 25.09375 0.875 
L 2.984375 54.6875 
L 12.5 54.6875 
L 29.59375 11.921875 
L 46.6875 54.6875 
L 56.203125 54.6875 
z
" id="DejaVuSans-79"/>
     </defs>
     <g transform="translate(371.340313 58.070437)scale(0.1 -0.1)">
      <use xlink:href="#DejaVuSans-50"/>
      <use x="60.287109" xlink:href="#DejaVuSans-72"/>
      <use x="101.369141" xlink:href="#DejaVuSans-65"/>
      <use x="162.892578" xlink:href="#DejaVuSans-79"/>
     </g>
    </g>
    <g id="line2d_40">
     <path d="M 343.340313 69.248562 
L 363.340313 69.248562 
" style="fill:none;stroke:#ffa500;stroke-linecap:square;stroke-width:1.5;"/>
    </g>
    <g id="line2d_41"/>
    <g id="text_19">
     <!-- Hunter -->
     <defs>
      <path d="M 9.8125 72.90625 
L 19.671875 72.90625 
L 19.671875 43.015625 
L 55.515625 43.015625 
L 55.515625 72.90625 
L 65.375 72.90625 
L 65.375 0 
L 55.515625 0 
L 55.515625 34.71875 
L 19.671875 34.71875 
L 19.671875 0 
L 9.8125 0 
z
" id="DejaVuSans-48"/>
      <path d="M 8.5 21.578125 
L 8.5 54.6875 
L 17.484375 54.6875 
L 17.484375 21.921875 
Q 17.484375 14.15625 20.5 10.265625 
Q 23.53125 6.390625 29.59375 6.390625 
Q 36.859375 6.390625 41.078125 11.03125 
Q 45.3125 15.671875 45.3125 23.6875 
L 45.3125 54.6875 
L 54.296875 54.6875 
L 54.296875 0 
L 45.3125 0 
L 45.3125 8.40625 
Q 42.046875 3.421875 37.71875 1 
Q 33.40625 -1.421875 27.6875 -1.421875 
Q 18.265625 -1.421875 13.375 4.4375 
Q 8.5 10.296875 8.5 21.578125 
z
M 31.109375 56 
z
" id="DejaVuSans-75"/>
      <path d="M 54.890625 33.015625 
L 54.890625 0 
L 45.90625 0 
L 45.90625 32.71875 
Q 45.90625 40.484375 42.875 44.328125 
Q 39.84375 48.1875 33.796875 48.1875 
Q 26.515625 48.1875 22.3125 43.546875 
Q 18.109375 38.921875 18.109375 30.90625 
L 18.109375 0 
L 9.078125 0 
L 9.078125 54.6875 
L 18.109375 54.6875 
L 18.109375 46.1875 
Q 21.34375 51.125 25.703125 53.5625 
Q 30.078125 56 35.796875 56 
Q 45.21875 56 50.046875 50.171875 
Q 54.890625 44.34375 54.890625 33.015625 
z
" id="DejaVuSans-6e"/>
     </defs>
     <g transform="translate(371.340313 72.748562)scale(0.1 -0.1)">
      <use xlink:href="#DejaVuSans-48"/>
      <use x="75.195312" xlink:href="#DejaVuSans-75"/>
      <use x="138.574219" xlink:href="#DejaVuSans-6e"/>
      <use x="201.953125" xlink:href="#DejaVuSans-74"/>
      <use x="241.162109" xlink:href="#DejaVuSans-65"/>
      <use x="302.685547" xlink:href="#DejaVuSans-72"/>
     </g>
    </g>
   </g>
  </g>
 </g>
 <defs>
  <clipPath id="p04772126eb">
   <rect height="266.112" width="357.12" x="57.6" y="41.472"/>
  </clipPath>
 </defs>
</svg>
