<?xml version="1.0" encoding="utf-8" standalone="no"?>
<!DOCTYPE svg PUBLIC "-//W3C//DTD SVG 1.1//EN"
  "http://www.w3.org/Graphics/SVG/1.1/DTD/svg11.dtd">
<!-- Created with matplotlib (http://matplotlib.org/) -->
<svg height="345.6pt" version="1.1" viewBox="0 0 460.8 345.6" width="460.8pt" xmlns="http://www.w3.org/2000/svg" xmlns:xlink="http://www.w3.org/1999/xlink">
 <defs>
  <style type="text/css">
*{stroke-linecap:butt;stroke-linejoin:round;}
  </style>
 </defs>
 <g id="figure_1">
  <g id="patch_1">
   <path d="M 0 345.6 
L 460.8 345.6 
L 460.8 0 
L 0 0 
z
" style="fill:#ffffff;"/>
  </g>
  <g id="axes_1">
   <g id="patch_2">
    <path d="M 57.6 307.584 
L 414.72 307.584 
L 414.72 41.472 
L 57.6 41.472 
z
" style="fill:#ffffff;"/>
   </g>
   <g id="PathCollection_1">
    <defs>
     <path d="M 0 3 
C 0.795609 3 1.55874 2.683901 2.12132 2.12132 
C 2.683901 1.55874 3 0.795609 3 0 
C 3 -0.795609 2.683901 -1.55874 2.12132 -2.12132 
C 1.55874 -2.683901 0.795609 -3 0 -3 
C -0.795609 -3 -1.55874 -2.683901 -2.12132 -2.12132 
C -2.683901 -1.55874 -3 -0.795609 -3 0 
C -3 0.795609 -2.683901 1.55874 -2.12132 2.12132 
C -1.55874 2.683901 -0.795609 3 0 3 
z
" id="m26983fd1bc" style="stroke:#008000;"/>
    </defs>
    <g clip-path="url(#p59d8d3afbb)">
     <use style="fill:#008000;stroke:#008000;" x="75.876917" xlink:href="#m26983fd1bc" y="235.24676"/>
     <use style="fill:#008000;stroke:#008000;" x="75.876917" xlink:href="#m26983fd1bc" y="54.523038"/>
    </g>
   </g>
   <g id="matplotlib.axis_1">
    <g id="xtick_1">
     <g id="line2d_1">
      <defs>
       <path d="M 0 0 
L 0 3.5 
" id="m86b3f56341" style="stroke:#000000;stroke-width:0.8;"/>
      </defs>
      <g>
       <use style="stroke:#000000;stroke-width:0.8;" x="91.239315" xlink:href="#m86b3f56341" y="307.584"/>
      </g>
     </g>
     <g id="text_1">
      <!-- 0.0 -->
      <defs>
       <path d="M 31.78125 66.40625 
Q 24.171875 66.40625 20.328125 58.90625 
Q 16.5 51.421875 16.5 36.375 
Q 16.5 21.390625 20.328125 13.890625 
Q 24.171875 6.390625 31.78125 6.390625 
Q 39.453125 6.390625 43.28125 13.890625 
Q 47.125 21.390625 47.125 36.375 
Q 47.125 51.421875 43.28125 58.90625 
Q 39.453125 66.40625 31.78125 66.40625 
z
M 31.78125 74.21875 
Q 44.046875 74.21875 50.515625 64.515625 
Q 56.984375 54.828125 56.984375 36.375 
Q 56.984375 17.96875 50.515625 8.265625 
Q 44.046875 -1.421875 31.78125 -1.421875 
Q 19.53125 -1.421875 13.0625 8.265625 
Q 6.59375 17.96875 6.59375 36.375 
Q 6.59375 54.828125 13.0625 64.515625 
Q 19.53125 74.21875 31.78125 74.21875 
z
" id="DejaVuSans-30"/>
       <path d="M 10.6875 12.40625 
L 21 12.40625 
L 21 0 
L 10.6875 0 
z
" id="DejaVuSans-2e"/>
      </defs>
      <g transform="translate(83.287753 322.182437)scale(0.1 -0.1)">
       <use xlink:href="#DejaVuSans-30"/>
       <use x="63.623047" xlink:href="#DejaVuSans-2e"/>
       <use x="95.410156" xlink:href="#DejaVuSans-30"/>
      </g>
     </g>
    </g>
    <g id="xtick_2">
     <g id="line2d_2">
      <g>
       <use style="stroke:#000000;stroke-width:0.8;" x="168.051305" xlink:href="#m86b3f56341" y="307.584"/>
      </g>
     </g>
     <g id="text_2">
      <!-- 0.5 -->
      <defs>
       <path d="M 10.796875 72.90625 
L 49.515625 72.90625 
L 49.515625 64.59375 
L 19.828125 64.59375 
L 19.828125 46.734375 
Q 21.96875 47.46875 24.109375 47.828125 
Q 26.265625 48.1875 28.421875 48.1875 
Q 40.625 48.1875 47.75 41.5 
Q 54.890625 34.8125 54.890625 23.390625 
Q 54.890625 11.625 47.5625 5.09375 
Q 40.234375 -1.421875 26.90625 -1.421875 
Q 22.3125 -1.421875 17.546875 -0.640625 
Q 12.796875 0.140625 7.71875 1.703125 
L 7.71875 11.625 
Q 12.109375 9.234375 16.796875 8.0625 
Q 21.484375 6.890625 26.703125 6.890625 
Q 35.15625 6.890625 40.078125 11.328125 
Q 45.015625 15.765625 45.015625 23.390625 
Q 45.015625 31 40.078125 35.4375 
Q 35.15625 39.890625 26.703125 39.890625 
Q 22.75 39.890625 18.8125 39.015625 
Q 14.890625 38.140625 10.796875 36.28125 
z
" id="DejaVuSans-35"/>
      </defs>
      <g transform="translate(160.099742 322.182437)scale(0.1 -0.1)">
       <use xlink:href="#DejaVuSans-30"/>
       <use x="63.623047" xlink:href="#DejaVuSans-2e"/>
       <use x="95.410156" xlink:href="#DejaVuSans-35"/>
      </g>
     </g>
    </g>
    <g id="xtick_3">
     <g id="line2d_3">
      <g>
       <use style="stroke:#000000;stroke-width:0.8;" x="244.863294" xlink:href="#m86b3f56341" y="307.584"/>
      </g>
     </g>
     <g id="text_3">
      <!-- 1.0 -->
      <defs>
       <path d="M 12.40625 8.296875 
L 28.515625 8.296875 
L 28.515625 63.921875 
L 10.984375 60.40625 
L 10.984375 69.390625 
L 28.421875 72.90625 
L 38.28125 72.90625 
L 38.28125 8.296875 
L 54.390625 8.296875 
L 54.390625 0 
L 12.40625 0 
z
" id="DejaVuSans-31"/>
      </defs>
      <g transform="translate(236.911731 322.182437)scale(0.1 -0.1)">
       <use xlink:href="#DejaVuSans-31"/>
       <use x="63.623047" xlink:href="#DejaVuSans-2e"/>
       <use x="95.410156" xlink:href="#DejaVuSans-30"/>
      </g>
     </g>
    </g>
    <g id="xtick_4">
     <g id="line2d_4">
      <g>
       <use style="stroke:#000000;stroke-width:0.8;" x="321.675283" xlink:href="#m86b3f56341" y="307.584"/>
      </g>
     </g>
     <g id="text_4">
      <!-- 1.5 -->
      <g transform="translate(313.723721 322.182437)scale(0.1 -0.1)">
       <use xlink:href="#DejaVuSans-31"/>
       <use x="63.623047" xlink:href="#DejaVuSans-2e"/>
       <use x="95.410156" xlink:href="#DejaVuSans-35"/>
      </g>
     </g>
    </g>
    <g id="xtick_5">
     <g id="line2d_5">
      <g>
       <use style="stroke:#000000;stroke-width:0.8;" x="398.487273" xlink:href="#m86b3f56341" y="307.584"/>
      </g>
     </g>
     <g id="text_5">
      <!-- 2.0 -->
      <defs>
       <path d="M 19.1875 8.296875 
L 53.609375 8.296875 
L 53.609375 0 
L 7.328125 0 
L 7.328125 8.296875 
Q 12.9375 14.109375 22.625 23.890625 
Q 32.328125 33.6875 34.8125 36.53125 
Q 39.546875 41.84375 41.421875 45.53125 
Q 43.3125 49.21875 43.3125 52.78125 
Q 43.3125 58.59375 39.234375 62.25 
Q 35.15625 65.921875 28.609375 65.921875 
Q 23.96875 65.921875 18.8125 64.3125 
Q 13.671875 62.703125 7.8125 59.421875 
L 7.8125 69.390625 
Q 13.765625 71.78125 18.9375 73 
Q 24.125 74.21875 28.421875 74.21875 
Q 39.75 74.21875 46.484375 68.546875 
Q 53.21875 62.890625 53.21875 53.421875 
Q 53.21875 48.921875 51.53125 44.890625 
Q 49.859375 40.875 45.40625 35.40625 
Q 44.1875 33.984375 37.640625 27.21875 
Q 31.109375 20.453125 19.1875 8.296875 
z
" id="DejaVuSans-32"/>
      </defs>
      <g transform="translate(390.53571 322.182437)scale(0.1 -0.1)">
       <use xlink:href="#DejaVuSans-32"/>
       <use x="63.623047" xlink:href="#DejaVuSans-2e"/>
       <use x="95.410156" xlink:href="#DejaVuSans-30"/>
      </g>
     </g>
    </g>
    <g id="text_6">
     <!-- Parameter -->
     <defs>
      <path d="M 19.671875 64.796875 
L 19.671875 37.40625 
L 32.078125 37.40625 
Q 38.96875 37.40625 42.71875 40.96875 
Q 46.484375 44.53125 46.484375 51.125 
Q 46.484375 57.671875 42.71875 61.234375 
Q 38.96875 64.796875 32.078125 64.796875 
z
M 9.8125 72.90625 
L 32.078125 72.90625 
Q 44.34375 72.90625 50.609375 67.359375 
Q 56.890625 61.8125 56.890625 51.125 
Q 56.890625 40.328125 50.609375 34.8125 
Q 44.34375 29.296875 32.078125 29.296875 
L 19.671875 29.296875 
L 19.671875 0 
L 9.8125 0 
z
" id="DejaVuSans-50"/>
      <path d="M 34.28125 27.484375 
Q 23.390625 27.484375 19.1875 25 
Q 14.984375 22.515625 14.984375 16.5 
Q 14.984375 11.71875 18.140625 8.90625 
Q 21.296875 6.109375 26.703125 6.109375 
Q 34.1875 6.109375 38.703125 11.40625 
Q 43.21875 16.703125 43.21875 25.484375 
L 43.21875 27.484375 
z
M 52.203125 31.203125 
L 52.203125 0 
L 43.21875 0 
L 43.21875 8.296875 
Q 40.140625 3.328125 35.546875 0.953125 
Q 30.953125 -1.421875 24.3125 -1.421875 
Q 15.921875 -1.421875 10.953125 3.296875 
Q 6 8.015625 6 15.921875 
Q 6 25.140625 12.171875 29.828125 
Q 18.359375 34.515625 30.609375 34.515625 
L 43.21875 34.515625 
L 43.21875 35.40625 
Q 43.21875 41.609375 39.140625 45 
Q 35.0625 48.390625 27.6875 48.390625 
Q 23 48.390625 18.546875 47.265625 
Q 14.109375 46.140625 10.015625 43.890625 
L 10.015625 52.203125 
Q 14.9375 54.109375 19.578125 55.046875 
Q 24.21875 56 28.609375 56 
Q 40.484375 56 46.34375 49.84375 
Q 52.203125 43.703125 52.203125 31.203125 
z
" id="DejaVuSans-61"/>
      <path d="M 41.109375 46.296875 
Q 39.59375 47.171875 37.8125 47.578125 
Q 36.03125 48 33.890625 48 
Q 26.265625 48 22.1875 43.046875 
Q 18.109375 38.09375 18.109375 28.8125 
L 18.109375 0 
L 9.078125 0 
L 9.078125 54.6875 
L 18.109375 54.6875 
L 18.109375 46.1875 
Q 20.953125 51.171875 25.484375 53.578125 
Q 30.03125 56 36.53125 56 
Q 37.453125 56 38.578125 55.875 
Q 39.703125 55.765625 41.0625 55.515625 
z
" id="DejaVuSans-72"/>
      <path d="M 52 44.1875 
Q 55.375 50.25 60.0625 53.125 
Q 64.75 56 71.09375 56 
Q 79.640625 56 84.28125 50.015625 
Q 88.921875 44.046875 88.921875 33.015625 
L 88.921875 0 
L 79.890625 0 
L 79.890625 32.71875 
Q 79.890625 40.578125 77.09375 44.375 
Q 74.3125 48.1875 68.609375 48.1875 
Q 61.625 48.1875 57.5625 43.546875 
Q 53.515625 38.921875 53.515625 30.90625 
L 53.515625 0 
L 44.484375 0 
L 44.484375 32.71875 
Q 44.484375 40.625 41.703125 44.40625 
Q 38.921875 48.1875 33.109375 48.1875 
Q 26.21875 48.1875 22.15625 43.53125 
Q 18.109375 38.875 18.109375 30.90625 
L 18.109375 0 
L 9.078125 0 
L 9.078125 54.6875 
L 18.109375 54.6875 
L 18.109375 46.1875 
Q 21.1875 51.21875 25.484375 53.609375 
Q 29.78125 56 35.6875 56 
Q 41.65625 56 45.828125 52.96875 
Q 50 49.953125 52 44.1875 
z
" id="DejaVuSans-6d"/>
      <path d="M 56.203125 29.59375 
L 56.203125 25.203125 
L 14.890625 25.203125 
Q 15.484375 15.921875 20.484375 11.0625 
Q 25.484375 6.203125 34.421875 6.203125 
Q 39.59375 6.203125 44.453125 7.46875 
Q 49.3125 8.734375 54.109375 11.28125 
L 54.109375 2.78125 
Q 49.265625 0.734375 44.1875 -0.34375 
Q 39.109375 -1.421875 33.890625 -1.421875 
Q 20.796875 -1.421875 13.15625 6.1875 
Q 5.515625 13.8125 5.515625 26.8125 
Q 5.515625 40.234375 12.765625 48.109375 
Q 20.015625 56 32.328125 56 
Q 43.359375 56 49.78125 48.890625 
Q 56.203125 41.796875 56.203125 29.59375 
z
M 47.21875 32.234375 
Q 47.125 39.59375 43.09375 43.984375 
Q 39.0625 48.390625 32.421875 48.390625 
Q 24.90625 48.390625 20.390625 44.140625 
Q 15.875 39.890625 15.1875 32.171875 
z
" id="DejaVuSans-65"/>
      <path d="M 18.3125 70.21875 
L 18.3125 54.6875 
L 36.8125 54.6875 
L 36.8125 47.703125 
L 18.3125 47.703125 
L 18.3125 18.015625 
Q 18.3125 11.328125 20.140625 9.421875 
Q 21.96875 7.515625 27.59375 7.515625 
L 36.8125 7.515625 
L 36.8125 0 
L 27.59375 0 
Q 17.1875 0 13.234375 3.875 
Q 9.28125 7.765625 9.28125 18.015625 
L 9.28125 47.703125 
L 2.6875 47.703125 
L 2.6875 54.6875 
L 9.28125 54.6875 
L 9.28125 70.21875 
z
" id="DejaVuSans-74"/>
     </defs>
     <g transform="translate(209.925625 335.860562)scale(0.1 -0.1)">
      <use xlink:href="#DejaVuSans-50"/>
      <use x="60.240234" xlink:href="#DejaVuSans-61"/>
      <use x="121.519531" xlink:href="#DejaVuSans-72"/>
      <use x="162.632812" xlink:href="#DejaVuSans-61"/>
      <use x="223.912109" xlink:href="#DejaVuSans-6d"/>
      <use x="321.324219" xlink:href="#DejaVuSans-65"/>
      <use x="382.847656" xlink:href="#DejaVuSans-74"/>
      <use x="422.056641" xlink:href="#DejaVuSans-65"/>
      <use x="483.580078" xlink:href="#DejaVuSans-72"/>
     </g>
    </g>
   </g>
   <g id="matplotlib.axis_2">
    <g id="ytick_1">
     <g id="line2d_6">
      <defs>
       <path d="M 0 0 
L -3.5 0 
" id="m6824569da9" style="stroke:#000000;stroke-width:0.8;"/>
      </defs>
      <g>
       <use style="stroke:#000000;stroke-width:0.8;" x="57.6" xlink:href="#m6824569da9" y="295.488"/>
      </g>
     </g>
     <g id="text_7">
      <!-- 0.0 -->
      <g transform="translate(34.696875 299.287219)scale(0.1 -0.1)">
       <use xlink:href="#DejaVuSans-30"/>
       <use x="63.623047" xlink:href="#DejaVuSans-2e"/>
       <use x="95.410156" xlink:href="#DejaVuSans-30"/>
      </g>
     </g>
    </g>
    <g id="ytick_2">
     <g id="line2d_7">
      <g>
       <use style="stroke:#000000;stroke-width:0.8;" x="57.6" xlink:href="#m6824569da9" y="265.36738"/>
      </g>
     </g>
     <g id="text_8">
      <!-- 2.5 -->
      <g transform="translate(34.696875 269.166599)scale(0.1 -0.1)">
       <use xlink:href="#DejaVuSans-32"/>
       <use x="63.623047" xlink:href="#DejaVuSans-2e"/>
       <use x="95.410156" xlink:href="#DejaVuSans-35"/>
      </g>
     </g>
    </g>
    <g id="ytick_3">
     <g id="line2d_8">
      <g>
       <use style="stroke:#000000;stroke-width:0.8;" x="57.6" xlink:href="#m6824569da9" y="235.24676"/>
      </g>
     </g>
     <g id="text_9">
      <!-- 5.0 -->
      <g transform="translate(34.696875 239.045978)scale(0.1 -0.1)">
       <use xlink:href="#DejaVuSans-35"/>
       <use x="63.623047" xlink:href="#DejaVuSans-2e"/>
       <use x="95.410156" xlink:href="#DejaVuSans-30"/>
      </g>
     </g>
    </g>
    <g id="ytick_4">
     <g id="line2d_9">
      <g>
       <use style="stroke:#000000;stroke-width:0.8;" x="57.6" xlink:href="#m6824569da9" y="205.126139"/>
      </g>
     </g>
     <g id="text_10">
      <!-- 7.5 -->
      <defs>
       <path d="M 8.203125 72.90625 
L 55.078125 72.90625 
L 55.078125 68.703125 
L 28.609375 0 
L 18.3125 0 
L 43.21875 64.59375 
L 8.203125 64.59375 
z
" id="DejaVuSans-37"/>
      </defs>
      <g transform="translate(34.696875 208.925358)scale(0.1 -0.1)">
       <use xlink:href="#DejaVuSans-37"/>
       <use x="63.623047" xlink:href="#DejaVuSans-2e"/>
       <use x="95.410156" xlink:href="#DejaVuSans-35"/>
      </g>
     </g>
    </g>
    <g id="ytick_5">
     <g id="line2d_10">
      <g>
       <use style="stroke:#000000;stroke-width:0.8;" x="57.6" xlink:href="#m6824569da9" y="175.005519"/>
      </g>
     </g>
     <g id="text_11">
      <!-- 10.0 -->
      <g transform="translate(28.334375 178.804738)scale(0.1 -0.1)">
       <use xlink:href="#DejaVuSans-31"/>
       <use x="63.623047" xlink:href="#DejaVuSans-30"/>
       <use x="127.246094" xlink:href="#DejaVuSans-2e"/>
       <use x="159.033203" xlink:href="#DejaVuSans-30"/>
      </g>
     </g>
    </g>
    <g id="ytick_6">
     <g id="line2d_11">
      <g>
       <use style="stroke:#000000;stroke-width:0.8;" x="57.6" xlink:href="#m6824569da9" y="144.884899"/>
      </g>
     </g>
     <g id="text_12">
      <!-- 12.5 -->
      <g transform="translate(28.334375 148.684118)scale(0.1 -0.1)">
       <use xlink:href="#DejaVuSans-31"/>
       <use x="63.623047" xlink:href="#DejaVuSans-32"/>
       <use x="127.246094" xlink:href="#DejaVuSans-2e"/>
       <use x="159.033203" xlink:href="#DejaVuSans-35"/>
      </g>
     </g>
    </g>
    <g id="ytick_7">
     <g id="line2d_12">
      <g>
       <use style="stroke:#000000;stroke-width:0.8;" x="57.6" xlink:href="#m6824569da9" y="114.764279"/>
      </g>
     </g>
     <g id="text_13">
      <!-- 15.0 -->
      <g transform="translate(28.334375 118.563498)scale(0.1 -0.1)">
       <use xlink:href="#DejaVuSans-31"/>
       <use x="63.623047" xlink:href="#DejaVuSans-35"/>
       <use x="127.246094" xlink:href="#DejaVuSans-2e"/>
       <use x="159.033203" xlink:href="#DejaVuSans-30"/>
      </g>
     </g>
    </g>
    <g id="ytick_8">
     <g id="line2d_13">
      <g>
       <use style="stroke:#000000;stroke-width:0.8;" x="57.6" xlink:href="#m6824569da9" y="84.643659"/>
      </g>
     </g>
     <g id="text_14">
      <!-- 17.5 -->
      <g transform="translate(28.334375 88.442877)scale(0.1 -0.1)">
       <use xlink:href="#DejaVuSans-31"/>
       <use x="63.623047" xlink:href="#DejaVuSans-37"/>
       <use x="127.246094" xlink:href="#DejaVuSans-2e"/>
       <use x="159.033203" xlink:href="#DejaVuSans-35"/>
      </g>
     </g>
    </g>
    <g id="ytick_9">
     <g id="line2d_14">
      <g>
       <use style="stroke:#000000;stroke-width:0.8;" x="57.6" xlink:href="#m6824569da9" y="54.523038"/>
      </g>
     </g>
     <g id="text_15">
      <!-- 20.0 -->
      <g transform="translate(28.334375 58.322257)scale(0.1 -0.1)">
       <use xlink:href="#DejaVuSans-32"/>
       <use x="63.623047" xlink:href="#DejaVuSans-30"/>
       <use x="127.246094" xlink:href="#DejaVuSans-2e"/>
       <use x="159.033203" xlink:href="#DejaVuSans-30"/>
      </g>
     </g>
    </g>
    <g id="text_16">
     <!-- Mass -->
     <defs>
      <path d="M 9.8125 72.90625 
L 24.515625 72.90625 
L 43.109375 23.296875 
L 61.8125 72.90625 
L 76.515625 72.90625 
L 76.515625 0 
L 66.890625 0 
L 66.890625 64.015625 
L 48.09375 14.015625 
L 38.1875 14.015625 
L 19.390625 64.015625 
L 19.390625 0 
L 9.8125 0 
z
" id="DejaVuSans-4d"/>
      <path d="M 44.28125 53.078125 
L 44.28125 44.578125 
Q 40.484375 46.53125 36.375 47.5 
Q 32.28125 48.484375 27.875 48.484375 
Q 21.1875 48.484375 17.84375 46.4375 
Q 14.5 44.390625 14.5 40.28125 
Q 14.5 37.15625 16.890625 35.375 
Q 19.28125 33.59375 26.515625 31.984375 
L 29.59375 31.296875 
Q 39.15625 29.25 43.1875 25.515625 
Q 47.21875 21.78125 47.21875 15.09375 
Q 47.21875 7.46875 41.1875 3.015625 
Q 35.15625 -1.421875 24.609375 -1.421875 
Q 20.21875 -1.421875 15.453125 -0.5625 
Q 10.6875 0.296875 5.421875 2 
L 5.421875 11.28125 
Q 10.40625 8.6875 15.234375 7.390625 
Q 20.0625 6.109375 24.8125 6.109375 
Q 31.15625 6.109375 34.5625 8.28125 
Q 37.984375 10.453125 37.984375 14.40625 
Q 37.984375 18.0625 35.515625 20.015625 
Q 33.0625 21.96875 24.703125 23.78125 
L 21.578125 24.515625 
Q 13.234375 26.265625 9.515625 29.90625 
Q 5.8125 33.546875 5.8125 39.890625 
Q 5.8125 47.609375 11.28125 51.796875 
Q 16.75 56 26.8125 56 
Q 31.78125 56 36.171875 55.265625 
Q 40.578125 54.546875 44.28125 53.078125 
z
" id="DejaVuSans-73"/>
     </defs>
     <g transform="translate(22.254688 187.1155)rotate(-90)scale(0.1 -0.1)">
      <use xlink:href="#DejaVuSans-4d"/>
      <use x="86.279297" xlink:href="#DejaVuSans-61"/>
      <use x="147.558594" xlink:href="#DejaVuSans-73"/>
      <use x="199.658203" xlink:href="#DejaVuSans-73"/>
     </g>
    </g>
   </g>
   <g id="line2d_15">
    <path clip-path="url(#p59d8d3afbb)" d="M 91.239315 280.262507 
L 94.322071 279.011749 
L 97.404826 277.543766 
L 100.487581 275.871065 
L 104.597922 273.341156 
L 108.708263 270.495006 
L 112.818603 267.368326 
L 117.956529 263.134899 
L 124.12204 257.720471 
L 141.590987 242.108107 
L 146.728913 237.849817 
L 151.866839 233.859425 
L 157.004764 230.163824 
L 162.14269 226.770873 
L 167.280616 223.674332 
L 172.418541 220.858588 
L 177.556467 218.302604 
L 182.694393 215.982876 
L 188.859904 213.477352 
L 195.025415 211.237598 
L 201.190925 209.225963 
L 208.384021 207.116971 
L 220.715043 203.616705 
L 221.742628 203.155397 
L 222.770213 202.494797 
L 223.797799 201.329805 
L 224.825384 198.618484 
L 225.852969 191.900201 
L 226.880554 189.122048 
L 229.963309 196.672058 
L 230.990895 198.339459 
L 232.01848 199.614448 
L 233.046065 200.598942 
L 234.07365 201.365554 
L 235.101235 201.965585 
L 237.156405 202.80319 
L 239.211576 203.305056 
L 241.266746 203.582468 
L 244.349501 203.721171 
L 248.459842 203.587014 
L 253.597768 203.140104 
L 261.818449 202.146998 
L 290.590833 198.482427 
L 306.00461 196.81663 
L 322.445972 195.274545 
L 340.942505 193.779253 
L 361.494208 192.356492 
L 384.101081 191.021206 
L 398.487273 190.273447 
L 398.487273 190.273447 
" style="fill:none;stroke:#000000;stroke-linecap:square;stroke-width:1.5;"/>
   </g>
   <g id="line2d_16">
    <path clip-path="url(#p59d8d3afbb)" d="M 91.239315 295.488 
L 223.797799 295.4568 
L 224.825384 295.252687 
L 225.852969 291.726798 
L 227.908139 251.587739 
L 228.935724 238.840076 
L 229.963309 230.837487 
L 230.990895 225.506765 
L 232.01848 221.743817 
L 233.046065 218.956442 
L 234.07365 216.809587 
L 235.101235 215.102819 
L 236.12882 213.710108 
L 237.156405 212.548731 
L 239.211576 210.711424 
L 241.266746 209.308991 
L 243.321916 208.189439 
L 246.404672 206.855657 
L 249.487427 205.792288 
L 253.597768 204.638759 
L 258.735693 203.461672 
L 264.901204 202.284872 
L 273.121885 200.956083 
L 283.397737 199.532634 
L 295.728759 198.052853 
L 310.11495 196.552552 
L 326.556313 195.066764 
L 345.052845 193.625692 
L 365.604548 192.251775 
L 389.239006 190.905288 
L 398.487273 190.43461 
L 398.487273 190.43461 
" style="fill:none;stroke:#000000;stroke-linecap:square;stroke-width:1.5;"/>
   </g>
   <g id="line2d_17">
    <path clip-path="url(#p59d8d3afbb)" d="M 91.239315 295.488 
L 223.797799 295.45676 
L 224.825384 295.25237 
L 225.852969 291.721159 
L 227.908139 251.521737 
L 228.935724 238.758374 
L 229.963309 230.747507 
L 230.990895 225.412154 
L 232.01848 221.646425 
L 233.046065 218.857256 
L 234.07365 216.709155 
L 235.101235 215.001453 
L 236.12882 213.607988 
L 237.156405 212.445961 
L 239.211576 210.607505 
L 241.266746 209.203991 
L 243.321916 208.083359 
L 246.404672 206.747919 
L 249.487427 205.682844 
L 253.597768 204.526998 
L 258.735693 203.347008 
L 264.901204 202.166801 
L 273.121885 200.833691 
L 283.397737 199.405257 
L 295.728759 197.920094 
L 310.11495 196.414246 
L 326.556313 194.92293 
L 345.052845 193.476478 
L 365.604548 192.097422 
L 389.239006 190.74589 
L 398.487273 190.273448 
L 398.487273 190.273448 
" style="fill:none;stroke:#100e0d;stroke-linecap:square;stroke-width:1.5;"/>
   </g>
   <g id="line2d_18">
    <path clip-path="url(#p59d8d3afbb)" d="M 91.239315 280.262507 
L 94.322071 278.983208 
L 97.404826 277.482475 
L 100.487581 275.772198 
L 104.597922 273.183975 
L 108.708263 270.26976 
L 112.818603 267.065522 
L 117.956529 262.723327 
L 124.12204 257.165478 
L 141.590987 241.133683 
L 146.728913 236.763879 
L 151.866839 232.671348 
L 157.004764 228.883559 
L 162.14269 225.408211 
L 167.280616 222.238431 
L 172.418541 219.357727 
L 177.556467 216.7441 
L 182.694393 214.373106 
L 187.832319 212.219917 
L 193.997829 209.889896 
L 200.16334 207.799993 
L 207.356436 205.614598 
L 220.715043 201.777985 
L 221.742628 201.322846 
L 222.770213 200.678385 
L 223.797799 199.555467 
L 224.825384 196.973881 
L 225.852969 190.728467 
L 226.880554 188.659982 
L 228.935724 194.538205 
L 229.963309 196.796127 
L 230.990895 198.49567 
L 232.01848 199.785277 
L 233.046065 200.775589 
L 234.07365 201.543406 
L 235.101235 202.142177 
L 237.156405 202.973992 
L 239.211576 203.468787 
L 241.266746 203.739342 
L 244.349501 203.869149 
L 248.459842 203.72605 
L 253.597768 203.271957 
L 261.818449 202.273671 
L 290.590833 198.61389 
L 306.00461 196.953641 
L 322.445972 195.417117 
L 340.942505 193.927347 
L 361.494208 192.50988 
L 384.101081 191.179576 
L 398.487273 190.43461 
L 398.487273 190.43461 
" style="fill:none;stroke:#100d0d;stroke-linecap:square;stroke-width:1.5;"/>
   </g>
   <g id="line2d_19">
    <path clip-path="url(#p59d8d3afbb)" d="M 91.239315 280.567016 
L 94.322071 279.313304 
L 97.404826 277.842585 
L 100.487581 276.166514 
L 104.597922 273.630055 
L 108.708263 270.774124 
L 112.818603 267.633972 
L 117.956529 263.378621 
L 124.12204 257.931928 
L 141.590987 242.22077 
L 146.728913 237.938362 
L 151.866839 233.927682 
L 157.004764 230.215648 
L 162.14269 226.809807 
L 167.280616 223.703422 
L 172.418541 220.880332 
L 177.556467 218.318978 
L 182.694393 215.995404 
L 187.832319 213.885279 
L 193.997829 211.601858 
L 200.16334 209.553753 
L 207.356436 207.412066 
L 220.715043 203.652025 
L 221.742628 203.205731 
L 222.770213 202.573235 
L 223.797799 201.468164 
L 224.825384 198.898811 
L 225.852969 192.224818 
L 226.880554 189.096198 
L 229.963309 196.772996 
L 230.990895 198.44921 
L 232.01848 199.724661 
L 233.046065 200.705571 
L 234.07365 201.466711 
L 235.101235 202.060486 
L 237.156405 202.88526 
L 239.211576 203.375222 
L 241.266746 203.642146 
L 244.349501 203.767765 
L 248.459842 203.620362 
L 253.597768 203.161953 
L 261.818449 202.157995 
L 289.563248 198.602794 
L 304.977025 196.920907 
L 321.418387 195.364646 
L 338.887334 193.934458 
L 358.411452 192.556016 
L 381.018325 191.191067 
L 398.487273 190.273447 
L 398.487273 190.273447 
" style="fill:none;stroke:#232116;stroke-linecap:square;stroke-width:1.5;"/>
   </g>
   <g id="line2d_20">
    <path clip-path="url(#p59d8d3afbb)" d="M 91.239315 295.488 
L 223.797799 295.461508 
L 224.825384 295.288612 
L 225.852969 292.149957 
L 227.908139 251.483676 
L 228.935724 238.565747 
L 229.963309 230.538967 
L 230.990895 225.227995 
L 232.01848 221.495234 
L 233.046065 218.738025 
L 234.07365 216.618317 
L 235.101235 214.935127 
L 236.12882 213.562657 
L 237.156405 212.41862 
L 239.211576 210.609038 
L 241.266746 209.227403 
L 243.321916 208.123753 
L 246.404672 206.807502 
L 249.487427 205.756529 
L 253.597768 204.614392 
L 258.735693 203.44639 
L 264.901204 202.276059 
L 273.121885 200.951833 
L 283.397737 199.530932 
L 295.728759 198.052294 
L 310.11495 196.552403 
L 326.556313 195.066733 
L 345.052845 193.625686 
L 365.604548 192.251774 
L 389.239006 190.905288 
L 398.487273 190.43461 
L 398.487273 190.43461 
" style="fill:none;stroke:#231816;stroke-linecap:square;stroke-width:1.5;"/>
   </g>
   <g id="line2d_21">
    <path clip-path="url(#p59d8d3afbb)" d="M 91.239315 295.488 
L 223.797799 295.461475 
L 224.825384 295.288345 
L 225.852969 292.144975 
L 227.908139 251.417537 
L 228.935724 238.483747 
L 229.963309 230.448727 
L 230.990895 225.133194 
L 232.01848 221.397717 
L 233.046065 218.638763 
L 234.07365 216.517846 
L 235.101235 214.833749 
L 236.12882 213.460542 
L 237.156405 212.315869 
L 239.211576 210.505152 
L 241.266746 209.122441 
L 243.321916 208.017712 
L 246.404672 206.6998 
L 249.487427 205.647115 
L 253.597768 204.502653 
L 258.735693 203.331741 
L 264.901204 202.157998 
L 273.121885 200.829445 
L 283.397737 199.403557 
L 295.728759 197.919536 
L 310.11495 196.414098 
L 326.556313 194.922898 
L 345.052845 193.476473 
L 365.604548 192.097421 
L 389.239006 190.74589 
L 398.487273 190.273448 
L 398.487273 190.273448 
" style="fill:none;stroke:#2f391c;stroke-linecap:square;stroke-width:1.5;"/>
   </g>
   <g id="line2d_22">
    <path clip-path="url(#p59d8d3afbb)" d="M 91.239315 280.567016 
L 94.322071 279.285204 
L 97.404826 277.782139 
L 100.487581 276.068851 
L 103.570337 274.15511 
L 107.680677 271.310785 
L 111.791018 268.162773 
L 115.901359 264.754434 
L 121.039284 260.210243 
L 129.259965 252.572714 
L 139.535817 243.072408 
L 145.701328 237.710201 
L 150.839253 233.538012 
L 155.977179 229.670772 
L 161.115105 226.119455 
L 166.253031 222.879198 
L 171.390956 219.93451 
L 176.528882 217.263667 
L 181.666808 214.842043 
L 186.804733 212.64438 
L 192.970244 210.268394 
L 199.135755 208.139923 
L 206.328851 205.919097 
L 214.549532 203.634219 
L 219.687458 202.171845 
L 221.742628 201.370894 
L 222.770213 200.753148 
L 223.797799 199.686993 
L 224.825384 197.238483 
L 225.852969 191.021292 
L 226.880554 188.624946 
L 228.935724 194.616208 
L 229.963309 196.899026 
L 230.990895 198.60652 
L 232.01848 199.895897 
L 233.046065 200.882121 
L 234.07365 201.644112 
L 235.101235 202.236383 
L 237.156405 203.055099 
L 239.211576 203.537892 
L 241.266746 203.797952 
L 244.349501 203.914745 
L 248.459842 203.758552 
L 253.597768 203.293157 
L 261.818449 202.284272 
L 289.563248 198.733839 
L 304.977025 197.057537 
L 321.418387 195.506883 
L 338.887334 194.081976 
L 358.411452 192.70866 
L 381.018325 191.348802 
L 398.487273 190.43461 
L 398.487273 190.43461 
" style="fill:none;stroke:#39221c;stroke-linecap:square;stroke-width:1.5;"/>
   </g>
   <g id="line2d_23">
    <path clip-path="url(#p59d8d3afbb)" d="M 91.239315 280.865436 
L 94.322071 279.60926 
L 97.404826 278.136257 
L 100.487581 276.457234 
L 104.597922 273.914739 
L 108.708263 271.049488 
L 112.818603 267.896262 
L 117.956529 263.6194 
L 124.12204 258.140819 
L 141.590987 242.331594 
L 146.728913 238.025273 
L 151.866839 233.994514 
L 157.004764 230.266253 
L 162.14269 226.847715 
L 167.280616 223.73166 
L 172.418541 220.901373 
L 177.556467 218.334771 
L 182.694393 216.007447 
L 187.832319 213.894713 
L 193.997829 211.609303 
L 200.16334 209.56022 
L 207.356436 207.418777 
L 220.715043 203.685127 
L 221.742628 203.252881 
L 222.770213 202.646704 
L 223.797799 201.597962 
L 224.825384 199.165035 
L 225.852969 192.566056 
L 226.880554 189.071244 
L 229.963309 196.87448 
L 230.990895 198.558958 
L 232.01848 199.834422 
L 233.046065 200.811423 
L 234.07365 201.56687 
L 235.101235 202.154248 
L 237.156405 202.96606 
L 239.211576 203.444108 
L 241.266746 203.700594 
L 244.349501 203.813255 
L 248.459842 203.6528 
L 253.597768 203.183117 
L 261.818449 202.168581 
L 288.535663 198.724356 
L 303.94944 197.026178 
L 320.390802 195.455549 
L 337.859749 194.013031 
L 357.383867 192.623548 
L 379.99074 191.24849 
L 398.487273 190.273447 
L 398.487273 190.273447 
" style="fill:none;stroke:#2b521f;stroke-linecap:square;stroke-width:1.5;"/>
   </g>
   <g id="line2d_24">
    <path clip-path="url(#p59d8d3afbb)" d="M 91.239315 295.488 
L 223.797799 295.4655 
L 224.825384 295.31906 
L 225.852969 292.540882 
L 227.908139 251.377707 
L 228.935724 238.289919 
L 229.963309 230.241465 
L 230.990895 224.951843 
L 232.01848 221.250026 
L 233.046065 218.523242 
L 234.07365 216.430674 
L 235.101235 214.770923 
L 236.12882 213.418493 
L 237.156405 212.291573 
L 239.211576 210.509273 
L 241.266746 209.148039 
L 243.321916 208.059952 
L 246.404672 206.760824 
L 249.487427 205.721932 
L 253.597768 204.590874 
L 258.735693 203.431686 
L 264.901204 202.267612 
L 273.121885 200.947781 
L 283.397737 199.529321 
L 295.728759 198.051769 
L 310.11495 196.552264 
L 326.556313 195.066703 
L 345.052845 193.625682 
L 365.604548 192.251774 
L 389.239006 190.905288 
L 398.487273 190.43461 
L 398.487273 190.43461 
" style="fill:none;stroke:#522e1f;stroke-linecap:square;stroke-width:1.5;"/>
   </g>
   <g id="line2d_25">
    <path clip-path="url(#p59d8d3afbb)" d="M 91.239315 295.488 
L 223.797799 295.465471 
L 224.825384 295.318835 
L 225.852969 292.536506 
L 227.908139 251.311428 
L 228.935724 238.207621 
L 229.963309 230.150967 
L 230.990895 224.856858 
L 232.01848 221.152389 
L 233.046065 218.423909 
L 234.07365 216.330168 
L 235.101235 214.669535 
L 236.12882 213.316387 
L 237.156405 212.188843 
L 239.211576 210.40542 
L 241.266746 209.043115 
L 243.321916 207.95395 
L 246.404672 206.653156 
L 249.487427 205.612547 
L 253.597768 204.479158 
L 258.735693 203.317053 
L 264.901204 202.14956 
L 273.121885 200.825397 
L 283.397737 199.401947 
L 295.728759 197.919011 
L 310.11495 196.413959 
L 326.556313 194.922869 
L 345.052845 193.476468 
L 365.604548 192.097421 
L 389.239006 190.74589 
L 398.487273 190.273448 
L 398.487273 190.273448 
" style="fill:none;stroke:#1f6e31;stroke-linecap:square;stroke-width:1.5;"/>
   </g>
   <g id="line2d_26">
    <path clip-path="url(#p59d8d3afbb)" d="M 91.239315 280.865436 
L 94.322071 279.581595 
L 97.404826 278.076647 
L 100.487581 276.360764 
L 103.570337 274.443077 
L 107.680677 271.590619 
L 111.791018 268.430658 
L 115.901359 265.006463 
L 121.039284 260.437603 
L 129.259965 252.753484 
L 139.535817 243.194332 
L 145.701328 237.80179 
L 150.839253 233.608523 
L 155.977179 229.724166 
L 161.115105 226.159407 
L 166.253031 222.908889 
L 171.390956 219.956551 
L 176.528882 217.280124 
L 181.666808 214.854502 
L 186.804733 212.654045 
L 192.970244 210.275899 
L 199.135755 208.146292 
L 206.328851 205.925427 
L 214.549532 203.644237 
L 219.687458 202.195588 
L 221.742628 201.415908 
L 222.770213 200.823185 
L 223.797799 199.810417 
L 224.825384 197.489977 
L 225.852969 191.33073 
L 226.880554 188.590456 
L 228.935724 194.695163 
L 229.963309 197.002424 
L 230.990895 198.717313 
L 232.01848 200.006017 
L 233.046065 200.987838 
L 234.07365 201.743792 
L 235.101235 202.329432 
L 237.156405 203.134932 
L 239.211576 203.605723 
L 241.266746 203.855344 
L 244.349501 203.959255 
L 248.459842 203.790163 
L 253.597768 203.31369 
L 261.818449 202.294476 
L 288.535663 198.85498 
L 303.94944 197.162424 
L 320.390802 195.59745 
L 337.859749 194.160256 
L 357.383867 192.77594 
L 379.99074 191.406011 
L 398.487273 190.43461 
L 398.487273 190.43461 
" style="fill:none;stroke:#6e3c1f;stroke-linecap:square;stroke-width:1.5;"/>
   </g>
   <g id="line2d_27">
    <path clip-path="url(#p59d8d3afbb)" d="M 91.239315 281.157887 
L 94.322071 279.899724 
L 97.404826 278.424874 
L 100.487581 276.743309 
L 104.597922 274.195281 
L 108.708263 271.321161 
L 112.818603 268.155256 
L 117.956529 263.857289 
L 124.12204 258.34719 
L 141.590987 242.440618 
L 146.728913 238.110587 
L 151.866839 234.059954 
L 157.004764 230.31567 
L 162.14269 226.884625 
L 167.280616 223.759071 
L 172.418541 220.921734 
L 177.556467 218.350004 
L 182.694393 216.019025 
L 187.832319 213.903751 
L 193.997829 211.616407 
L 200.16334 209.566366 
L 207.356436 207.425124 
L 221.742628 203.297047 
L 222.770213 202.715511 
L 223.797799 201.719683 
L 224.825384 199.417372 
L 225.852969 192.921996 
L 226.880554 189.047345 
L 229.963309 196.976483 
L 230.990895 198.66867 
L 232.01848 199.943702 
L 233.046065 200.916478 
L 234.07365 201.66602 
L 235.101235 202.246864 
L 237.156405 203.045597 
L 239.211576 203.511727 
L 241.266746 203.75783 
L 244.349501 203.857663 
L 248.459842 203.68435 
L 253.597768 203.203616 
L 261.818449 202.17877 
L 288.535663 198.725323 
L 303.94944 197.026414 
L 320.390802 195.455599 
L 337.859749 194.01304 
L 357.383867 192.623549 
L 379.99074 191.24849 
L 398.487273 190.273447 
L 398.487273 190.273447 
" style="fill:none;stroke:#1c8e68;stroke-linecap:square;stroke-width:1.5;"/>
   </g>
   <g id="line2d_28">
    <path clip-path="url(#p59d8d3afbb)" d="M 91.239315 295.488 
L 223.797799 295.468885 
L 224.825384 295.344853 
L 225.852969 292.899065 
L 227.908139 251.269806 
L 228.935724 238.012666 
L 229.963309 229.945073 
L 230.990895 224.678366 
L 232.01848 221.008209 
L 233.046065 218.312075 
L 234.07365 216.24662 
L 235.101235 214.610155 
L 236.12882 213.277556 
L 237.156405 212.167527 
L 239.211576 210.412063 
L 241.266746 209.070837 
L 243.321916 207.997982 
L 246.404672 206.715575 
L 249.487427 205.688458 
L 253.597768 204.568177 
L 258.735693 203.417539 
L 264.901204 202.259516 
L 273.121885 200.943917 
L 283.397737 199.527795 
L 295.728759 198.051276 
L 310.11495 196.552136 
L 326.556313 195.066677 
L 345.052845 193.625677 
L 365.604548 192.251773 
L 389.239006 190.905288 
L 398.487273 190.43461 
L 398.487273 190.43461 
" style="fill:none;stroke:#8e4d1c;stroke-linecap:square;stroke-width:1.5;"/>
   </g>
   <g id="line2d_29">
    <path clip-path="url(#p59d8d3afbb)" d="M 91.239315 295.488 
L 223.797799 295.468861 
L 224.825384 295.344663 
L 225.852969 292.895241 
L 227.908139 251.203386 
L 228.935724 237.930069 
L 229.963309 229.854322 
L 230.990895 224.583202 
L 232.01848 220.910456 
L 233.046065 218.212676 
L 234.07365 216.146082 
L 235.101235 214.50876 
L 236.12882 213.175461 
L 237.156405 212.064819 
L 239.211576 210.308246 
L 241.266746 208.965953 
L 243.321916 207.892018 
L 246.404672 206.607942 
L 249.487427 205.579102 
L 253.597768 204.456482 
L 258.735693 203.30292 
L 264.901204 202.141472 
L 273.121885 200.821538 
L 283.397737 199.400423 
L 295.728759 197.918519 
L 310.11495 196.413831 
L 326.556313 194.922842 
L 345.052845 193.476463 
L 365.604548 192.09742 
L 389.239006 190.74589 
L 398.487273 190.273448 
L 398.487273 190.273448 
" style="fill:none;stroke:#169fb0;stroke-linecap:square;stroke-width:1.5;"/>
   </g>
   <g id="line2d_30">
    <path clip-path="url(#p59d8d3afbb)" d="M 91.239315 281.157887 
L 94.322071 279.87249 
L 97.404826 278.366092 
L 100.487581 276.648021 
L 103.570337 274.726769 
L 107.680677 271.866644 
L 111.791018 268.695144 
L 115.901359 265.255442 
L 121.039284 260.662266 
L 129.259965 252.931969 
L 138.508232 244.250674 
L 144.673743 238.769711 
L 149.811668 234.496087 
L 154.949594 230.530792 
L 160.08752 226.888166 
L 165.225445 223.565141 
L 170.363371 220.546837 
L 175.501297 217.811359 
L 180.639223 215.333458 
L 185.777148 213.087064 
L 191.942659 210.661396 
L 198.10817 208.491759 
L 204.273681 206.540099 
L 211.466777 204.484932 
L 220.715043 201.873028 
L 221.742628 201.458077 
L 222.770213 200.888787 
L 223.797799 199.926191 
L 224.825384 197.728528 
L 225.852969 191.65502 
L 226.880554 188.556652 
L 228.935724 194.775061 
L 229.963309 197.106293 
L 230.990895 198.828016 
L 232.01848 200.115608 
L 233.046065 201.09272 
L 234.07365 201.842437 
L 235.101235 202.421319 
L 237.156405 203.213498 
L 239.211576 203.672294 
L 241.266746 203.911537 
L 244.349501 204.002701 
L 248.459842 203.820907 
L 253.597768 203.333577 
L 262.846034 202.167042 
L 286.480492 199.099857 
L 300.866684 197.482634 
L 316.280461 195.967756 
L 333.749409 194.479949 
L 353.273526 193.050312 
L 374.852814 191.698251 
L 398.487273 190.43461 
L 398.487273 190.43461 
" style="fill:none;stroke:#b06416;stroke-linecap:square;stroke-width:1.5;"/>
   </g>
   <g id="line2d_31">
    <path clip-path="url(#p59d8d3afbb)" d="M 91.239315 281.44449 
L 94.322071 280.1848 
L 97.404826 278.70853 
L 100.487581 277.02482 
L 103.570337 275.141993 
L 107.680677 272.339071 
L 111.791018 269.231001 
L 115.901359 265.860093 
L 121.039284 261.35878 
L 129.259965 253.783089 
L 139.535817 244.357847 
L 145.701328 239.043665 
L 150.839253 234.913813 
L 155.977179 231.09057 
L 161.115105 227.584126 
L 166.253031 224.388735 
L 171.390956 221.488096 
L 176.528882 218.859847 
L 181.666808 216.478917 
L 186.804733 214.319805 
L 192.970244 211.987164 
L 199.135755 209.899062 
L 206.328851 207.722549 
L 214.549532 205.49035 
L 219.687458 204.083214 
L 221.742628 203.338417 
L 222.770213 202.779946 
L 223.797799 201.83379 
L 224.825384 199.656133 
L 225.852969 193.290376 
L 226.880554 189.024676 
L 229.963309 197.078975 
L 230.990895 198.778314 
L 232.01848 200.052473 
L 233.046065 201.020715 
L 234.07365 201.764148 
L 235.101235 202.338332 
L 237.156405 203.123876 
L 239.211576 203.578093 
L 241.266746 203.813872 
L 244.349501 203.90101 
L 248.459842 203.715034 
L 253.597768 203.223469 
L 262.846034 202.050685 
L 286.480492 198.971122 
L 300.866684 197.34782 
L 316.280461 195.827287 
L 333.749409 194.333927 
L 353.273526 192.898948 
L 374.852814 191.541826 
L 398.487273 190.273447 
L 398.487273 190.273447 
" style="fill:none;stroke:#0d66d6;stroke-linecap:square;stroke-width:1.5;"/>
   </g>
   <g id="line2d_32">
    <path clip-path="url(#p59d8d3afbb)" d="M 91.239315 295.488 
L 223.797799 295.471756 
L 224.825384 295.366695 
L 225.852969 293.224569 
L 226.880554 273.491865 
L 227.908139 251.159949 
L 228.935724 237.734062 
L 229.963309 229.649883 
L 230.990895 224.407617 
L 232.01848 220.769793 
L 233.046065 218.104506 
L 234.07365 216.066114 
L 235.101235 214.45277 
L 236.12882 213.139788 
L 237.156405 212.04642 
L 239.211576 210.317348 
L 241.266746 208.995741 
L 243.321916 207.937789 
L 246.404672 206.671711 
L 249.487427 205.65607 
L 253.597768 204.546269 
L 258.735693 203.403927 
L 265.928789 202.076042 
L 275.177056 200.640624 
L 286.480492 199.137881 
L 299.839099 197.600777 
L 315.252876 196.064301 
L 332.721824 194.561858 
L 352.245941 193.120287 
L 373.825229 191.757974 
L 398.487273 190.43461 
L 398.487273 190.43461 
" style="fill:none;stroke:#d6800d;stroke-linecap:square;stroke-width:1.5;"/>
   </g>
   <g id="line2d_33">
    <path clip-path="url(#p59d8d3afbb)" d="M 91.239315 295.488 
L 223.797799 295.471736 
L 224.825384 295.366535 
L 225.852969 293.221244 
L 226.880554 273.457549 
L 227.908139 251.093385 
L 228.935724 237.651167 
L 229.963309 229.558883 
L 230.990895 224.312279 
L 232.01848 220.671931 
L 233.046065 218.005045 
L 234.07365 215.965548 
L 235.101235 214.351371 
L 236.12882 213.037705 
L 237.156405 211.943735 
L 239.211576 210.213566 
L 241.266746 208.890896 
L 243.321916 207.831863 
L 246.404672 206.564112 
L 249.487427 205.546742 
L 253.597768 204.434595 
L 258.735693 203.289322 
L 265.928789 201.957448 
L 275.177056 200.517211 
L 286.480492 199.009104 
L 299.839099 197.46636 
L 315.252876 195.924183 
L 332.721824 194.41614 
L 352.245941 192.969183 
L 373.825229 191.601772 
L 398.487273 190.273448 
L 398.487273 190.273448 
" style="fill:none;stroke:#0000ff;stroke-linecap:square;stroke-width:1.5;"/>
   </g>
   <g id="line2d_34">
    <path clip-path="url(#p59d8d3afbb)" d="M 91.239315 281.44449 
L 94.322071 280.157992 
L 97.404826 278.650566 
L 100.487581 276.930704 
L 103.570337 275.00626 
L 107.680677 272.138924 
L 111.791018 268.956288 
L 115.901359 265.501424 
L 121.039284 260.884279 
L 129.259965 253.10821 
L 138.508232 244.374317 
L 144.673743 238.862665 
L 149.811668 234.567584 
L 154.949594 230.584805 
L 160.08752 226.928432 
L 165.225445 223.594914 
L 170.363371 220.568796 
L 175.501297 217.82762 
L 180.639223 215.345645 
L 185.777148 213.0964 
L 191.942659 210.668508 
L 198.10817 208.497639 
L 204.273681 206.545643 
L 211.466777 204.491817 
L 220.715043 201.900821 
L 221.742628 201.497579 
L 222.770213 200.950229 
L 223.797799 200.034752 
L 224.825384 197.954399 
L 225.852969 191.992058 
L 226.880554 188.523692 
L 228.935724 194.855896 
L 229.963309 197.210605 
L 230.990895 198.938599 
L 232.01848 200.224645 
L 233.046065 201.196749 
L 234.07365 201.940034 
L 235.101235 202.51204 
L 237.156405 203.290806 
L 239.211576 203.737619 
L 241.266746 203.966549 
L 244.349501 204.045103 
L 248.459842 203.850803 
L 253.597768 203.352836 
L 262.846034 202.175684 
L 285.452907 199.224622 
L 299.839099 197.591606 
L 315.252876 196.062483 
L 332.721824 194.561572 
L 352.245941 193.120252 
L 373.825229 191.75797 
L 398.487273 190.43461 
L 398.487273 190.43461 
" style="fill:none;stroke:#ffa500;stroke-linecap:square;stroke-width:1.5;"/>
   </g>
   <g id="line2d_35">
    <path clip-path="url(#p59d8d3afbb)" d="M 91.239315 295.488 
L 223.797799 295.471736 
L 224.825384 295.366535 
L 225.852969 293.221244 
L 226.880554 273.457549 
L 227.908139 251.093385 
L 228.935724 237.651167 
L 229.963309 229.558883 
L 230.990895 224.312279 
L 232.01848 220.671931 
L 233.046065 218.005045 
L 234.07365 215.965548 
L 235.101235 214.351371 
L 236.12882 213.037705 
L 237.156405 211.943735 
L 239.211576 210.213566 
L 241.266746 208.890896 
L 243.321916 207.831863 
L 246.404672 206.564112 
L 249.487427 205.546742 
L 253.597768 204.434595 
L 258.735693 203.289322 
L 265.928789 201.957448 
L 275.177056 200.517211 
L 286.480492 199.009104 
L 299.839099 197.46636 
L 315.252876 195.924183 
L 332.721824 194.41614 
L 352.245941 192.969183 
L 373.825229 191.601772 
L 398.487273 190.273448 
L 398.487273 190.273448 
" style="fill:none;stroke:#0000ff;stroke-linecap:square;stroke-width:1.5;"/>
   </g>
   <g id="line2d_36">
    <path clip-path="url(#p59d8d3afbb)" d="M 91.239315 281.44449 
L 94.322071 280.157992 
L 97.404826 278.650566 
L 100.487581 276.930704 
L 103.570337 275.00626 
L 107.680677 272.138924 
L 111.791018 268.956288 
L 115.901359 265.501424 
L 121.039284 260.884279 
L 129.259965 253.10821 
L 138.508232 244.374317 
L 144.673743 238.862665 
L 149.811668 234.567584 
L 154.949594 230.584805 
L 160.08752 226.928432 
L 165.225445 223.594914 
L 170.363371 220.568796 
L 175.501297 217.82762 
L 180.639223 215.345645 
L 185.777148 213.0964 
L 191.942659 210.668508 
L 198.10817 208.497639 
L 204.273681 206.545643 
L 211.466777 204.491817 
L 220.715043 201.900821 
L 221.742628 201.497579 
L 222.770213 200.950229 
L 223.797799 200.034752 
L 224.825384 197.954399 
L 225.852969 191.992058 
L 226.880554 188.523692 
L 228.935724 194.855896 
L 229.963309 197.210605 
L 230.990895 198.938599 
L 232.01848 200.224645 
L 233.046065 201.196749 
L 234.07365 201.940034 
L 235.101235 202.51204 
L 237.156405 203.290806 
L 239.211576 203.737619 
L 241.266746 203.966549 
L 244.349501 204.045103 
L 248.459842 203.850803 
L 253.597768 203.352836 
L 262.846034 202.175684 
L 285.452907 199.224622 
L 299.839099 197.591606 
L 315.252876 196.062483 
L 332.721824 194.561572 
L 352.245941 193.120252 
L 373.825229 191.75797 
L 398.487273 190.43461 
L 398.487273 190.43461 
" style="fill:none;stroke:#ffa500;stroke-linecap:square;stroke-width:1.5;"/>
   </g>
   <g id="patch_3">
    <path d="M 57.6 307.584 
L 57.6 41.472 
" style="fill:none;stroke:#000000;stroke-linecap:square;stroke-linejoin:miter;stroke-width:0.8;"/>
   </g>
   <g id="patch_4">
    <path d="M 414.72 307.584 
L 414.72 41.472 
" style="fill:none;stroke:#000000;stroke-linecap:square;stroke-linejoin:miter;stroke-width:0.8;"/>
   </g>
   <g id="patch_5">
    <path d="M 57.6 307.584 
L 414.72 307.584 
" style="fill:none;stroke:#000000;stroke-linecap:square;stroke-linejoin:miter;stroke-width:0.8;"/>
   </g>
   <g id="patch_6">
    <path d="M 57.6 41.472 
L 414.72 41.472 
" style="fill:none;stroke:#000000;stroke-linecap:square;stroke-linejoin:miter;stroke-width:0.8;"/>
   </g>
   <g id="legend_1">
    <g id="patch_7">
     <path d="M 341.340313 78.82825 
L 407.72 78.82825 
Q 409.72 78.82825 409.72 76.82825 
L 409.72 48.472 
Q 409.72 46.472 407.72 46.472 
L 341.340313 46.472 
Q 339.340313 46.472 339.340313 48.472 
L 339.340313 76.82825 
Q 339.340313 78.82825 341.340313 78.82825 
z
" style="fill:#ffffff;opacity:0.8;stroke:#cccccc;stroke-linejoin:miter;"/>
    </g>
    <g id="line2d_37">
     <path d="M 343.340313 54.570437 
L 363.340313 54.570437 
" style="fill:none;stroke:#0000ff;stroke-linecap:square;stroke-width:1.5;"/>
    </g>
    <g id="line2d_38"/>
    <g id="text_17">
     <!-- Prey -->
     <defs>
      <path d="M 32.171875 -5.078125 
Q 28.375 -14.84375 24.75 -17.8125 
Q 21.140625 -20.796875 15.09375 -20.796875 
L 7.90625 -20.796875 
L 7.90625 -13.28125 
L 13.1875 -13.28125 
Q 16.890625 -13.28125 18.9375 -11.515625 
Q 21 -9.765625 23.484375 -3.21875 
L 25.09375 0.875 
L 2.984375 54.6875 
L 12.5 54.6875 
L 29.59375 11.921875 
L 46.6875 54.6875 
L 56.203125 54.6875 
z
" id="DejaVuSans-79"/>
     </defs>
     <g transform="translate(371.340313 58.070437)scale(0.1 -0.1)">
      <use xlink:href="#DejaVuSans-50"/>
      <use x="60.287109" xlink:href="#DejaVuSans-72"/>
      <use x="101.369141" xlink:href="#DejaVuSans-65"/>
      <use x="162.892578" xlink:href="#DejaVuSans-79"/>
     </g>
    </g>
    <g id="line2d_39">
     <path d="M 343.340313 69.248562 
L 363.340313 69.248562 
" style="fill:none;stroke:#ffa500;stroke-linecap:square;stroke-width:1.5;"/>
    </g>
    <g id="line2d_40"/>
    <g id="text_18">
     <!-- Hunter -->
     <defs>
      <path d="M 9.8125 72.90625 
L 19.671875 72.90625 
L 19.671875 43.015625 
L 55.515625 43.015625 
L 55.515625 72.90625 
L 65.375 72.90625 
L 65.375 0 
L 55.515625 0 
L 55.515625 34.71875 
L 19.671875 34.71875 
L 19.671875 0 
L 9.8125 0 
z
" id="DejaVuSans-48"/>
      <path d="M 8.5 21.578125 
L 8.5 54.6875 
L 17.484375 54.6875 
L 17.484375 21.921875 
Q 17.484375 14.15625 20.5 10.265625 
Q 23.53125 6.390625 29.59375 6.390625 
Q 36.859375 6.390625 41.078125 11.03125 
Q 45.3125 15.671875 45.3125 23.6875 
L 45.3125 54.6875 
L 54.296875 54.6875 
L 54.296875 0 
L 45.3125 0 
L 45.3125 8.40625 
Q 42.046875 3.421875 37.71875 1 
Q 33.40625 -1.421875 27.6875 -1.421875 
Q 18.265625 -1.421875 13.375 4.4375 
Q 8.5 10.296875 8.5 21.578125 
z
M 31.109375 56 
z
" id="DejaVuSans-75"/>
      <path d="M 54.890625 33.015625 
L 54.890625 0 
L 45.90625 0 
L 45.90625 32.71875 
Q 45.90625 40.484375 42.875 44.328125 
Q 39.84375 48.1875 33.796875 48.1875 
Q 26.515625 48.1875 22.3125 43.546875 
Q 18.109375 38.921875 18.109375 30.90625 
L 18.109375 0 
L 9.078125 0 
L 9.078125 54.6875 
L 18.109375 54.6875 
L 18.109375 46.1875 
Q 21.34375 51.125 25.703125 53.5625 
Q 30.078125 56 35.796875 56 
Q 45.21875 56 50.046875 50.171875 
Q 54.890625 44.34375 54.890625 33.015625 
z
" id="DejaVuSans-6e"/>
     </defs>
     <g transform="translate(371.340313 72.748562)scale(0.1 -0.1)">
      <use xlink:href="#DejaVuSans-48"/>
      <use x="75.195312" xlink:href="#DejaVuSans-75"/>
      <use x="138.574219" xlink:href="#DejaVuSans-6e"/>
      <use x="201.953125" xlink:href="#DejaVuSans-74"/>
      <use x="241.162109" xlink:href="#DejaVuSans-65"/>
      <use x="302.685547" xlink:href="#DejaVuSans-72"/>
     </g>
    </g>
   </g>
  </g>
 </g>
 <defs>
  <clipPath id="p59d8d3afbb">
   <rect height="266.112" width="357.12" x="57.6" y="41.472"/>
  </clipPath>
 </defs>
</svg>
