<?xml version="1.0" encoding="utf-8" standalone="no"?>
<!DOCTYPE svg PUBLIC "-//W3C//DTD SVG 1.1//EN"
  "http://www.w3.org/Graphics/SVG/1.1/DTD/svg11.dtd">
<!-- Created with matplotlib (http://matplotlib.org/) -->
<svg height="432pt" version="1.1" viewBox="0 0 576 432" width="576pt" xmlns="http://www.w3.org/2000/svg" xmlns:xlink="http://www.w3.org/1999/xlink">
 <defs>
  <style type="text/css">
*{stroke-linecap:butt;stroke-linejoin:round;}
  </style>
 </defs>
 <g id="figure_1">
  <g id="patch_1">
   <path d="M 0 432 
L 576 432 
L 576 0 
L 0 0 
z
" style="fill:#ffffff;"/>
  </g>
  <g id="axes_1">
   <g id="patch_2">
    <path d="M 72 388.8 
L 518.4 388.8 
L 518.4 43.2 
L 72 43.2 
z
" style="fill:#ffffff;"/>
   </g>
   <g id="line2d_1">
    <path clip-path="url(#p8a3dd35bfa)" d="M 72 216 
L 76.509091 216 
L 81.018182 216 
L 85.527273 216 
L 90.036364 216 
L 94.545455 216 
L 99.054545 216 
L 103.563636 216 
L 108.072727 216 
L 112.581818 216 
L 117.090909 216 
L 121.6 216 
L 126.109091 216 
L 130.618182 216 
L 135.127273 216 
L 139.636364 216 
L 144.145455 216 
L 148.654545 216 
L 153.163636 216 
L 157.672727 216 
L 162.181818 216 
L 166.690909 216 
L 171.2 216 
L 175.709091 216 
L 180.218182 216 
L 184.727273 216 
L 189.236364 216 
L 193.745455 216 
L 198.254545 216 
L 202.763636 216 
L 207.272727 216 
L 211.781818 216 
L 216.290909 216 
L 220.8 216 
L 225.309091 216 
L 229.818182 216 
L 234.327273 216 
L 238.836364 216 
L 243.345455 216 
L 247.854545 216 
L 252.363636 216 
L 256.872727 216 
L 261.381818 216 
L 265.890909 216 
L 270.4 216 
L 274.909091 216 
L 279.418182 216 
L 283.927273 216 
L 288.436364 216 
L 292.945455 216 
L 297.454545 216 
L 301.963636 216 
L 306.472727 216 
L 310.981818 216 
L 315.490909 216 
L 320 216 
L 324.509091 216 
L 329.018182 216 
L 333.527273 216 
L 338.036364 216 
L 342.545455 216 
L 347.054545 216 
L 351.563636 216 
L 356.072727 216 
L 360.581818 216 
L 365.090909 216 
L 369.6 216 
L 374.109091 216 
L 378.618182 216 
L 383.127273 216 
L 387.636364 216 
L 392.145455 216 
L 396.654545 216 
L 401.163636 216 
L 405.672727 216 
L 410.181818 216 
L 414.690909 216 
L 419.2 216 
L 423.709091 216 
L 428.218182 216 
L 432.727273 216 
L 437.236364 216 
L 441.745455 216 
L 446.254545 216 
L 450.763636 216 
L 455.272727 216 
L 459.781818 216 
L 464.290909 216 
L 468.8 216 
L 473.309091 216 
L 477.818182 216 
L 482.327273 216 
L 486.836364 216 
L 491.345455 216 
L 495.854545 216 
L 500.363636 216 
L 504.872727 216 
L 509.381818 216 
L 513.890909 216 
L 518.4 216 
" style="fill:none;stroke:#0000ff;stroke-linecap:square;"/>
   </g>
   <g id="line2d_2">
    <path clip-path="url(#p8a3dd35bfa)" d="M 180.862272 -1 
L 184.727273 12.4416 
L 189.236364 26.916923 
L 193.745455 40.32 
L 198.254545 52.765714 
L 202.763636 64.353103 
L 207.272727 75.168 
L 211.781818 85.285161 
L 216.290909 94.77 
L 220.8 103.68 
L 225.309091 112.065882 
L 229.818182 119.972571 
L 234.327273 127.44 
L 238.836364 134.503784 
L 243.345455 141.195789 
L 247.854545 147.544615 
L 252.363636 153.576 
L 256.872727 159.313171 
L 261.381818 164.777143 
L 265.890909 169.986977 
L 270.4 174.96 
L 274.909091 179.712 
L 279.418182 184.257391 
L 283.927273 188.609362 
L 288.436364 192.78 
L 292.945455 196.780408 
L 297.454545 200.6208 
L 301.963636 204.310588 
L 306.472727 207.858462 
L 310.981818 211.272453 
L 315.490909 214.56 
L 320 217.728 
L 324.509091 220.782857 
L 329.018182 223.730526 
L 333.527273 226.576552 
L 338.036364 229.326102 
L 342.545455 231.984 
L 347.054545 234.554754 
L 351.563636 237.042581 
L 356.072727 239.451429 
L 360.581818 241.785 
L 365.090909 244.046769 
L 369.6 246.24 
L 374.109091 248.367761 
L 378.618182 250.432941 
L 383.127273 252.438261 
L 387.636364 254.386286 
L 392.145455 256.279437 
L 396.654545 258.12 
L 401.163636 259.910137 
L 405.672727 261.651892 
L 410.181818 263.3472 
L 414.690909 264.997895 
L 419.2 266.605714 
L 423.709091 268.172308 
L 428.218182 269.699241 
L 432.727273 271.188 
L 437.236364 272.64 
L 441.745455 274.056585 
L 446.254545 275.439036 
L 450.763636 276.788571 
L 455.272727 278.106353 
L 459.781818 279.393488 
L 464.290909 280.651034 
L 468.8 281.88 
L 473.309091 283.081348 
L 477.818182 284.256 
L 482.327273 285.404835 
L 486.836364 286.528696 
L 491.345455 287.628387 
L 495.854545 288.704681 
L 500.363636 289.758316 
L 504.872727 290.79 
L 509.381818 291.800412 
L 513.890909 292.790204 
L 518.4 293.76 
" style="fill:none;stroke:#008000;stroke-linecap:square;"/>
   </g>
   <g id="line2d_3">
    <path clip-path="url(#p8a3dd35bfa)" d="M 76.509091 245.859114 
L 81.018182 304.822012 
L 85.527273 329.043044 
L 90.036364 342.581476 
L 94.545455 351.311587 
L 99.054545 357.437043 
L 103.563636 361.983753 
L 108.072727 365.497751 
L 112.581818 368.297727 
L 117.090909 370.58273 
L 121.6 372.483733 
L 126.109091 374.090555 
L 130.618182 375.466913 
L 135.127273 376.659288 
L 139.636364 377.702406 
L 144.145455 378.622743 
L 148.654545 379.440843 
L 153.163636 380.172896 
L 157.672727 380.831838 
L 162.181818 381.428127 
L 166.690909 381.970315 
L 171.2 382.465462 
L 175.709091 382.919447 
L 180.218182 383.337208 
L 184.727273 383.722921 
L 189.236364 384.080145 
L 193.745455 384.411928 
L 198.254545 384.720898 
L 202.763636 385.009334 
L 207.272727 385.279219 
L 211.781818 385.532289 
L 216.290909 385.770071 
L 220.8 385.99391 
L 225.309091 386.204999 
L 229.818182 386.404398 
L 234.327273 386.593054 
L 238.836364 386.771812 
L 243.345455 386.941432 
L 247.854545 387.102598 
L 252.363636 387.255927 
L 256.872727 387.401977 
L 261.381818 387.541256 
L 265.890909 387.674224 
L 270.4 387.8013 
L 274.909091 387.922868 
L 279.418182 388.039279 
L 283.927273 388.150853 
L 288.436364 388.257888 
L 292.945455 388.360653 
L 297.454545 388.459401 
L 301.963636 388.554361 
L 306.472727 388.645749 
L 310.981818 388.733761 
L 315.490909 388.818582 
L 320 388.900383 
L 324.509091 388.979321 
L 329.018182 389.055544 
L 333.527273 389.129191 
L 338.036364 389.20039 
L 342.545455 389.26926 
L 347.054545 389.335915 
L 351.563636 389.400459 
L 356.072727 389.462991 
L 360.581818 389.523605 
L 365.090909 389.582386 
L 369.6 389.639417 
L 374.109091 389.694775 
L 378.618182 389.748533 
L 383.127273 389.800758 
L 387.636364 389.851516 
L 392.145455 389.900867 
L 396.654545 389.94887 
L 401.163636 389.995578 
L 405.672727 390.041043 
L 410.181818 390.085315 
L 414.690909 390.12844 
L 419.2 390.170461 
L 423.709091 390.211421 
L 428.218182 390.251359 
L 432.727273 390.290314 
L 437.236364 390.32832 
L 441.745455 390.365413 
L 446.254545 390.401624 
L 450.763636 390.436985 
L 455.272727 390.471526 
L 459.781818 390.505274 
L 464.290909 390.538257 
L 468.8 390.5705 
L 473.309091 390.602029 
L 477.818182 390.632865 
L 482.327273 390.663033 
L 486.836364 390.692553 
L 491.345455 390.721447 
L 495.854545 390.749733 
L 500.363636 390.777431 
L 504.872727 390.80456 
L 509.381818 390.831135 
L 513.890909 390.857175 
L 518.4 390.882695 
" style="fill:none;stroke:#ff0000;stroke-linecap:square;"/>
   </g>
   <g id="patch_3">
    <path d="M 72 388.8 
L 72 43.2 
" style="fill:none;stroke:#000000;stroke-linecap:square;stroke-linejoin:miter;"/>
   </g>
   <g id="patch_4">
    <path d="M 518.4 388.8 
L 518.4 43.2 
" style="fill:none;stroke:#000000;stroke-linecap:square;stroke-linejoin:miter;"/>
   </g>
   <g id="patch_5">
    <path d="M 72 388.8 
L 518.4 388.8 
" style="fill:none;stroke:#000000;stroke-linecap:square;stroke-linejoin:miter;"/>
   </g>
   <g id="patch_6">
    <path d="M 72 43.2 
L 518.4 43.2 
" style="fill:none;stroke:#000000;stroke-linecap:square;stroke-linejoin:miter;"/>
   </g>
   <g id="matplotlib.axis_1">
    <g id="xtick_1">
     <g id="line2d_4">
      <path clip-path="url(#p8a3dd35bfa)" d="M 72 388.8 
L 72 43.2 
" style="fill:none;stroke:#000000;stroke-dasharray:1,3;stroke-dashoffset:0;stroke-width:0.5;"/>
     </g>
     <g id="line2d_5">
      <defs>
       <path d="M 0 0 
L 0 -4 
" id="mc0e0ac4e7c" style="stroke:#000000;stroke-width:0.5;"/>
      </defs>
      <g>
       <use style="stroke:#000000;stroke-width:0.5;" x="72" xlink:href="#mc0e0ac4e7c" y="388.8"/>
      </g>
     </g>
     <g id="line2d_6">
      <defs>
       <path d="M 0 0 
L 0 4 
" id="mea9218e308" style="stroke:#000000;stroke-width:0.5;"/>
      </defs>
      <g>
       <use style="stroke:#000000;stroke-width:0.5;" x="72" xlink:href="#mea9218e308" y="43.2"/>
      </g>
     </g>
     <g id="text_1">
      <!-- 0.0 -->
      <defs>
       <path d="M 31.78125 66.40625 
Q 24.171875 66.40625 20.328125 58.90625 
Q 16.5 51.421875 16.5 36.375 
Q 16.5 21.390625 20.328125 13.890625 
Q 24.171875 6.390625 31.78125 6.390625 
Q 39.453125 6.390625 43.28125 13.890625 
Q 47.125 21.390625 47.125 36.375 
Q 47.125 51.421875 43.28125 58.90625 
Q 39.453125 66.40625 31.78125 66.40625 
z
M 31.78125 74.21875 
Q 44.046875 74.21875 50.515625 64.515625 
Q 56.984375 54.828125 56.984375 36.375 
Q 56.984375 17.96875 50.515625 8.265625 
Q 44.046875 -1.421875 31.78125 -1.421875 
Q 19.53125 -1.421875 13.0625 8.265625 
Q 6.59375 17.96875 6.59375 36.375 
Q 6.59375 54.828125 13.0625 64.515625 
Q 19.53125 74.21875 31.78125 74.21875 
z
" id="DejaVuSans-30"/>
       <path d="M 10.6875 12.40625 
L 21 12.40625 
L 21 0 
L 10.6875 0 
z
" id="DejaVuSans-2e"/>
      </defs>
      <g transform="translate(62.458125 401.918125)scale(0.12 -0.12)">
       <use xlink:href="#DejaVuSans-30"/>
       <use x="63.623047" xlink:href="#DejaVuSans-2e"/>
       <use x="95.410156" xlink:href="#DejaVuSans-30"/>
      </g>
     </g>
    </g>
    <g id="xtick_2">
     <g id="line2d_7">
      <path clip-path="url(#p8a3dd35bfa)" d="M 183.6 388.8 
L 183.6 43.2 
" style="fill:none;stroke:#000000;stroke-dasharray:1,3;stroke-dashoffset:0;stroke-width:0.5;"/>
     </g>
     <g id="line2d_8">
      <g>
       <use style="stroke:#000000;stroke-width:0.5;" x="183.6" xlink:href="#mc0e0ac4e7c" y="388.8"/>
      </g>
     </g>
     <g id="line2d_9">
      <g>
       <use style="stroke:#000000;stroke-width:0.5;" x="183.6" xlink:href="#mea9218e308" y="43.2"/>
      </g>
     </g>
     <g id="text_2">
      <!-- 0.5 -->
      <defs>
       <path d="M 10.796875 72.90625 
L 49.515625 72.90625 
L 49.515625 64.59375 
L 19.828125 64.59375 
L 19.828125 46.734375 
Q 21.96875 47.46875 24.109375 47.828125 
Q 26.265625 48.1875 28.421875 48.1875 
Q 40.625 48.1875 47.75 41.5 
Q 54.890625 34.8125 54.890625 23.390625 
Q 54.890625 11.625 47.5625 5.09375 
Q 40.234375 -1.421875 26.90625 -1.421875 
Q 22.3125 -1.421875 17.546875 -0.640625 
Q 12.796875 0.140625 7.71875 1.703125 
L 7.71875 11.625 
Q 12.109375 9.234375 16.796875 8.0625 
Q 21.484375 6.890625 26.703125 6.890625 
Q 35.15625 6.890625 40.078125 11.328125 
Q 45.015625 15.765625 45.015625 23.390625 
Q 45.015625 31 40.078125 35.4375 
Q 35.15625 39.890625 26.703125 39.890625 
Q 22.75 39.890625 18.8125 39.015625 
Q 14.890625 38.140625 10.796875 36.28125 
z
" id="DejaVuSans-35"/>
      </defs>
      <g transform="translate(174.058125 401.918125)scale(0.12 -0.12)">
       <use xlink:href="#DejaVuSans-30"/>
       <use x="63.623047" xlink:href="#DejaVuSans-2e"/>
       <use x="95.410156" xlink:href="#DejaVuSans-35"/>
      </g>
     </g>
    </g>
    <g id="xtick_3">
     <g id="line2d_10">
      <path clip-path="url(#p8a3dd35bfa)" d="M 295.2 388.8 
L 295.2 43.2 
" style="fill:none;stroke:#000000;stroke-dasharray:1,3;stroke-dashoffset:0;stroke-width:0.5;"/>
     </g>
     <g id="line2d_11">
      <g>
       <use style="stroke:#000000;stroke-width:0.5;" x="295.2" xlink:href="#mc0e0ac4e7c" y="388.8"/>
      </g>
     </g>
     <g id="line2d_12">
      <g>
       <use style="stroke:#000000;stroke-width:0.5;" x="295.2" xlink:href="#mea9218e308" y="43.2"/>
      </g>
     </g>
     <g id="text_3">
      <!-- 1.0 -->
      <defs>
       <path d="M 12.40625 8.296875 
L 28.515625 8.296875 
L 28.515625 63.921875 
L 10.984375 60.40625 
L 10.984375 69.390625 
L 28.421875 72.90625 
L 38.28125 72.90625 
L 38.28125 8.296875 
L 54.390625 8.296875 
L 54.390625 0 
L 12.40625 0 
z
" id="DejaVuSans-31"/>
      </defs>
      <g transform="translate(285.658125 401.918125)scale(0.12 -0.12)">
       <use xlink:href="#DejaVuSans-31"/>
       <use x="63.623047" xlink:href="#DejaVuSans-2e"/>
       <use x="95.410156" xlink:href="#DejaVuSans-30"/>
      </g>
     </g>
    </g>
    <g id="xtick_4">
     <g id="line2d_13">
      <path clip-path="url(#p8a3dd35bfa)" d="M 406.8 388.8 
L 406.8 43.2 
" style="fill:none;stroke:#000000;stroke-dasharray:1,3;stroke-dashoffset:0;stroke-width:0.5;"/>
     </g>
     <g id="line2d_14">
      <g>
       <use style="stroke:#000000;stroke-width:0.5;" x="406.8" xlink:href="#mc0e0ac4e7c" y="388.8"/>
      </g>
     </g>
     <g id="line2d_15">
      <g>
       <use style="stroke:#000000;stroke-width:0.5;" x="406.8" xlink:href="#mea9218e308" y="43.2"/>
      </g>
     </g>
     <g id="text_4">
      <!-- 1.5 -->
      <g transform="translate(397.258125 401.918125)scale(0.12 -0.12)">
       <use xlink:href="#DejaVuSans-31"/>
       <use x="63.623047" xlink:href="#DejaVuSans-2e"/>
       <use x="95.410156" xlink:href="#DejaVuSans-35"/>
      </g>
     </g>
    </g>
    <g id="xtick_5">
     <g id="line2d_16">
      <path clip-path="url(#p8a3dd35bfa)" d="M 518.4 388.8 
L 518.4 43.2 
" style="fill:none;stroke:#000000;stroke-dasharray:1,3;stroke-dashoffset:0;stroke-width:0.5;"/>
     </g>
     <g id="line2d_17">
      <g>
       <use style="stroke:#000000;stroke-width:0.5;" x="518.4" xlink:href="#mc0e0ac4e7c" y="388.8"/>
      </g>
     </g>
     <g id="line2d_18">
      <g>
       <use style="stroke:#000000;stroke-width:0.5;" x="518.4" xlink:href="#mea9218e308" y="43.2"/>
      </g>
     </g>
     <g id="text_5">
      <!-- 2.0 -->
      <defs>
       <path d="M 19.1875 8.296875 
L 53.609375 8.296875 
L 53.609375 0 
L 7.328125 0 
L 7.328125 8.296875 
Q 12.9375 14.109375 22.625 23.890625 
Q 32.328125 33.6875 34.8125 36.53125 
Q 39.546875 41.84375 41.421875 45.53125 
Q 43.3125 49.21875 43.3125 52.78125 
Q 43.3125 58.59375 39.234375 62.25 
Q 35.15625 65.921875 28.609375 65.921875 
Q 23.96875 65.921875 18.8125 64.3125 
Q 13.671875 62.703125 7.8125 59.421875 
L 7.8125 69.390625 
Q 13.765625 71.78125 18.9375 73 
Q 24.125 74.21875 28.421875 74.21875 
Q 39.75 74.21875 46.484375 68.546875 
Q 53.21875 62.890625 53.21875 53.421875 
Q 53.21875 48.921875 51.53125 44.890625 
Q 49.859375 40.875 45.40625 35.40625 
Q 44.1875 33.984375 37.640625 27.21875 
Q 31.109375 20.453125 19.1875 8.296875 
z
" id="DejaVuSans-32"/>
      </defs>
      <g transform="translate(508.858125 401.918125)scale(0.12 -0.12)">
       <use xlink:href="#DejaVuSans-32"/>
       <use x="63.623047" xlink:href="#DejaVuSans-2e"/>
       <use x="95.410156" xlink:href="#DejaVuSans-30"/>
      </g>
     </g>
    </g>
   </g>
   <g id="matplotlib.axis_2">
    <g id="ytick_1">
     <g id="line2d_19">
      <path clip-path="url(#p8a3dd35bfa)" d="M 72 388.8 
L 518.4 388.8 
" style="fill:none;stroke:#000000;stroke-dasharray:1,3;stroke-dashoffset:0;stroke-width:0.5;"/>
     </g>
     <g id="line2d_20">
      <defs>
       <path d="M 0 0 
L 4 0 
" id="m4be674ac07" style="stroke:#000000;stroke-width:0.5;"/>
      </defs>
      <g>
       <use style="stroke:#000000;stroke-width:0.5;" x="72" xlink:href="#m4be674ac07" y="388.8"/>
      </g>
     </g>
     <g id="line2d_21">
      <defs>
       <path d="M 0 0 
L -4 0 
" id="m88ab40bbf1" style="stroke:#000000;stroke-width:0.5;"/>
      </defs>
      <g>
       <use style="stroke:#000000;stroke-width:0.5;" x="518.4" xlink:href="#m88ab40bbf1" y="388.8"/>
      </g>
     </g>
     <g id="text_6">
      <!-- 0.0 -->
      <g transform="translate(48.91625 392.11125)scale(0.12 -0.12)">
       <use xlink:href="#DejaVuSans-30"/>
       <use x="63.623047" xlink:href="#DejaVuSans-2e"/>
       <use x="95.410156" xlink:href="#DejaVuSans-30"/>
      </g>
     </g>
    </g>
    <g id="ytick_2">
     <g id="line2d_22">
      <path clip-path="url(#p8a3dd35bfa)" d="M 72 319.68 
L 518.4 319.68 
" style="fill:none;stroke:#000000;stroke-dasharray:1,3;stroke-dashoffset:0;stroke-width:0.5;"/>
     </g>
     <g id="line2d_23">
      <g>
       <use style="stroke:#000000;stroke-width:0.5;" x="72" xlink:href="#m4be674ac07" y="319.68"/>
      </g>
     </g>
     <g id="line2d_24">
      <g>
       <use style="stroke:#000000;stroke-width:0.5;" x="518.4" xlink:href="#m88ab40bbf1" y="319.68"/>
      </g>
     </g>
     <g id="text_7">
      <!-- 0.2 -->
      <g transform="translate(48.91625 322.99125)scale(0.12 -0.12)">
       <use xlink:href="#DejaVuSans-30"/>
       <use x="63.623047" xlink:href="#DejaVuSans-2e"/>
       <use x="95.410156" xlink:href="#DejaVuSans-32"/>
      </g>
     </g>
    </g>
    <g id="ytick_3">
     <g id="line2d_25">
      <path clip-path="url(#p8a3dd35bfa)" d="M 72 250.56 
L 518.4 250.56 
" style="fill:none;stroke:#000000;stroke-dasharray:1,3;stroke-dashoffset:0;stroke-width:0.5;"/>
     </g>
     <g id="line2d_26">
      <g>
       <use style="stroke:#000000;stroke-width:0.5;" x="72" xlink:href="#m4be674ac07" y="250.56"/>
      </g>
     </g>
     <g id="line2d_27">
      <g>
       <use style="stroke:#000000;stroke-width:0.5;" x="518.4" xlink:href="#m88ab40bbf1" y="250.56"/>
      </g>
     </g>
     <g id="text_8">
      <!-- 0.4 -->
      <defs>
       <path d="M 37.796875 64.3125 
L 12.890625 25.390625 
L 37.796875 25.390625 
z
M 35.203125 72.90625 
L 47.609375 72.90625 
L 47.609375 25.390625 
L 58.015625 25.390625 
L 58.015625 17.1875 
L 47.609375 17.1875 
L 47.609375 0 
L 37.796875 0 
L 37.796875 17.1875 
L 4.890625 17.1875 
L 4.890625 26.703125 
z
" id="DejaVuSans-34"/>
      </defs>
      <g transform="translate(48.91625 253.87125)scale(0.12 -0.12)">
       <use xlink:href="#DejaVuSans-30"/>
       <use x="63.623047" xlink:href="#DejaVuSans-2e"/>
       <use x="95.410156" xlink:href="#DejaVuSans-34"/>
      </g>
     </g>
    </g>
    <g id="ytick_4">
     <g id="line2d_28">
      <path clip-path="url(#p8a3dd35bfa)" d="M 72 181.44 
L 518.4 181.44 
" style="fill:none;stroke:#000000;stroke-dasharray:1,3;stroke-dashoffset:0;stroke-width:0.5;"/>
     </g>
     <g id="line2d_29">
      <g>
       <use style="stroke:#000000;stroke-width:0.5;" x="72" xlink:href="#m4be674ac07" y="181.44"/>
      </g>
     </g>
     <g id="line2d_30">
      <g>
       <use style="stroke:#000000;stroke-width:0.5;" x="518.4" xlink:href="#m88ab40bbf1" y="181.44"/>
      </g>
     </g>
     <g id="text_9">
      <!-- 0.6 -->
      <defs>
       <path d="M 33.015625 40.375 
Q 26.375 40.375 22.484375 35.828125 
Q 18.609375 31.296875 18.609375 23.390625 
Q 18.609375 15.53125 22.484375 10.953125 
Q 26.375 6.390625 33.015625 6.390625 
Q 39.65625 6.390625 43.53125 10.953125 
Q 47.40625 15.53125 47.40625 23.390625 
Q 47.40625 31.296875 43.53125 35.828125 
Q 39.65625 40.375 33.015625 40.375 
z
M 52.59375 71.296875 
L 52.59375 62.3125 
Q 48.875 64.0625 45.09375 64.984375 
Q 41.3125 65.921875 37.59375 65.921875 
Q 27.828125 65.921875 22.671875 59.328125 
Q 17.53125 52.734375 16.796875 39.40625 
Q 19.671875 43.65625 24.015625 45.921875 
Q 28.375 48.1875 33.59375 48.1875 
Q 44.578125 48.1875 50.953125 41.515625 
Q 57.328125 34.859375 57.328125 23.390625 
Q 57.328125 12.15625 50.6875 5.359375 
Q 44.046875 -1.421875 33.015625 -1.421875 
Q 20.359375 -1.421875 13.671875 8.265625 
Q 6.984375 17.96875 6.984375 36.375 
Q 6.984375 53.65625 15.1875 63.9375 
Q 23.390625 74.21875 37.203125 74.21875 
Q 40.921875 74.21875 44.703125 73.484375 
Q 48.484375 72.75 52.59375 71.296875 
z
" id="DejaVuSans-36"/>
      </defs>
      <g transform="translate(48.91625 184.75125)scale(0.12 -0.12)">
       <use xlink:href="#DejaVuSans-30"/>
       <use x="63.623047" xlink:href="#DejaVuSans-2e"/>
       <use x="95.410156" xlink:href="#DejaVuSans-36"/>
      </g>
     </g>
    </g>
    <g id="ytick_5">
     <g id="line2d_31">
      <path clip-path="url(#p8a3dd35bfa)" d="M 72 112.32 
L 518.4 112.32 
" style="fill:none;stroke:#000000;stroke-dasharray:1,3;stroke-dashoffset:0;stroke-width:0.5;"/>
     </g>
     <g id="line2d_32">
      <g>
       <use style="stroke:#000000;stroke-width:0.5;" x="72" xlink:href="#m4be674ac07" y="112.32"/>
      </g>
     </g>
     <g id="line2d_33">
      <g>
       <use style="stroke:#000000;stroke-width:0.5;" x="518.4" xlink:href="#m88ab40bbf1" y="112.32"/>
      </g>
     </g>
     <g id="text_10">
      <!-- 0.8 -->
      <defs>
       <path d="M 31.78125 34.625 
Q 24.75 34.625 20.71875 30.859375 
Q 16.703125 27.09375 16.703125 20.515625 
Q 16.703125 13.921875 20.71875 10.15625 
Q 24.75 6.390625 31.78125 6.390625 
Q 38.8125 6.390625 42.859375 10.171875 
Q 46.921875 13.96875 46.921875 20.515625 
Q 46.921875 27.09375 42.890625 30.859375 
Q 38.875 34.625 31.78125 34.625 
z
M 21.921875 38.8125 
Q 15.578125 40.375 12.03125 44.71875 
Q 8.5 49.078125 8.5 55.328125 
Q 8.5 64.0625 14.71875 69.140625 
Q 20.953125 74.21875 31.78125 74.21875 
Q 42.671875 74.21875 48.875 69.140625 
Q 55.078125 64.0625 55.078125 55.328125 
Q 55.078125 49.078125 51.53125 44.71875 
Q 48 40.375 41.703125 38.8125 
Q 48.828125 37.15625 52.796875 32.3125 
Q 56.78125 27.484375 56.78125 20.515625 
Q 56.78125 9.90625 50.3125 4.234375 
Q 43.84375 -1.421875 31.78125 -1.421875 
Q 19.734375 -1.421875 13.25 4.234375 
Q 6.78125 9.90625 6.78125 20.515625 
Q 6.78125 27.484375 10.78125 32.3125 
Q 14.796875 37.15625 21.921875 38.8125 
z
M 18.3125 54.390625 
Q 18.3125 48.734375 21.84375 45.5625 
Q 25.390625 42.390625 31.78125 42.390625 
Q 38.140625 42.390625 41.71875 45.5625 
Q 45.3125 48.734375 45.3125 54.390625 
Q 45.3125 60.0625 41.71875 63.234375 
Q 38.140625 66.40625 31.78125 66.40625 
Q 25.390625 66.40625 21.84375 63.234375 
Q 18.3125 60.0625 18.3125 54.390625 
z
" id="DejaVuSans-38"/>
      </defs>
      <g transform="translate(48.91625 115.63125)scale(0.12 -0.12)">
       <use xlink:href="#DejaVuSans-30"/>
       <use x="63.623047" xlink:href="#DejaVuSans-2e"/>
       <use x="95.410156" xlink:href="#DejaVuSans-38"/>
      </g>
     </g>
    </g>
    <g id="ytick_6">
     <g id="line2d_34">
      <path clip-path="url(#p8a3dd35bfa)" d="M 72 43.2 
L 518.4 43.2 
" style="fill:none;stroke:#000000;stroke-dasharray:1,3;stroke-dashoffset:0;stroke-width:0.5;"/>
     </g>
     <g id="line2d_35">
      <g>
       <use style="stroke:#000000;stroke-width:0.5;" x="72" xlink:href="#m4be674ac07" y="43.2"/>
      </g>
     </g>
     <g id="line2d_36">
      <g>
       <use style="stroke:#000000;stroke-width:0.5;" x="518.4" xlink:href="#m88ab40bbf1" y="43.2"/>
      </g>
     </g>
     <g id="text_11">
      <!-- 1.0 -->
      <g transform="translate(48.91625 46.51125)scale(0.12 -0.12)">
       <use xlink:href="#DejaVuSans-31"/>
       <use x="63.623047" xlink:href="#DejaVuSans-2e"/>
       <use x="95.410156" xlink:href="#DejaVuSans-30"/>
      </g>
     </g>
    </g>
   </g>
  </g>
 </g>
 <defs>
  <clipPath id="p8a3dd35bfa">
   <rect height="345.6" width="446.4" x="72" y="43.2"/>
  </clipPath>
 </defs>
</svg>
